<svg xmlns="http://www.w3.org/2000/svg" xmlns:xlink="http://www.w3.org/1999/xlink" width="96" height="95" viewBox="0 0 96 95">
  <defs>
    <linearGradient id="linear-gradient" x1="0.5" x2="0.5" y2="1" gradientUnits="objectBoundingBox">
      <stop offset="0" stop-color="#fff"/>
      <stop offset="1" stop-color="#e9e9e9"/>
    </linearGradient>
    <filter id="Elipse_14039" x="0" y="0" width="96" height="95" filterUnits="userSpaceOnUse">
      <feOffset dy="3" input="SourceAlpha"/>
      <feGaussianBlur stdDeviation="3" result="blur"/>
      <feFlood flood-opacity="0.161"/>
      <feComposite operator="in" in2="blur"/>
      <feComposite in="SourceGraphic"/>
    </filter>
  </defs>
  <g id="Grupo_1195769" data-name="Grupo 1195769" transform="translate(5378 10222)">
    <g transform="matrix(1, 0, 0, 1, -5378, -10222)" filter="url(#Elipse_14039)">
      <ellipse id="Elipse_14039-2" data-name="Elipse 14039" cx="39" cy="38.5" rx="39" ry="38.5" transform="translate(9 6)" fill="url(#linear-gradient)"/>
    </g>
    <g id="gestion-de-proyectos" transform="translate(-5354.768 -10200.798)">
      <path id="Trazado_1111042" data-name="Trazado 1111042" d="M7.5,117.944V152.35A1.451,1.451,0,0,0,8.951,153.8H53.858a1.451,1.451,0,0,0,1.451-1.451V117.944Z" transform="translate(-6.779 -107.926)" fill="#f1f4f6"/>
      <g id="Grupo_1195644" data-name="Grupo 1195644" transform="translate(4.705 0.722)">
        <path id="Trazado_1111043" data-name="Trazado 1111043" d="M51.47,26.618H49.02a.1.1,0,0,1-.1-.1V21.409a.1.1,0,0,1,.1-.1H51.47a.1.1,0,0,1,.1.1v5.105A.1.1,0,0,1,51.47,26.618Z" transform="translate(-48.917 -21.306)" fill="#d0e2e7"/>
        <path id="Trazado_1111044" data-name="Trazado 1111044" d="M148.109,26.618h-2.449a.1.1,0,0,1-.1-.1V21.409a.1.1,0,0,1,.1-.1h2.449a.1.1,0,0,1,.1.1v5.105A.1.1,0,0,1,148.109,26.618Z" transform="translate(-136.26 -21.306)" fill="#d0e2e7"/>
        <path id="Trazado_1111045" data-name="Trazado 1111045" d="M244.747,26.618H242.3a.1.1,0,0,1-.1-.1V21.409a.1.1,0,0,1,.1-.1h2.449a.1.1,0,0,1,.1.1v5.105A.1.1,0,0,1,244.747,26.618Z" transform="translate(-223.603 -21.306)" fill="#d0e2e7"/>
        <path id="Trazado_1111046" data-name="Trazado 1111046" d="M341.386,26.618h-2.449a.1.1,0,0,1-.1-.1V21.409a.1.1,0,0,1,.1-.1h2.449a.1.1,0,0,1,.1.1v5.105A.1.1,0,0,1,341.386,26.618Z" transform="translate(-310.945 -21.306)" fill="#d0e2e7"/>
        <path id="Trazado_1111047" data-name="Trazado 1111047" d="M438.025,26.618h-2.449a.1.1,0,0,1-.1-.1V21.409a.1.1,0,0,1,.1-.1h2.449a.1.1,0,0,1,.1.1v5.105A.1.1,0,0,1,438.025,26.618Z" transform="translate(-398.288 -21.306)" fill="#d0e2e7"/>
      </g>
      <path id="Trazado_1111048" data-name="Trazado 1111048" d="M53.857,48.917H51.324V51.47a.1.1,0,0,1-.1.1H48.771a.1.1,0,0,1-.1-.1V48.917h-6.64V51.47a.1.1,0,0,1-.1.1H39.475a.1.1,0,0,1-.1-.1V48.917h-6.64V51.47a.1.1,0,0,1-.1.1H30.179a.1.1,0,0,1-.1-.1V48.917h-6.64V51.47a.1.1,0,0,1-.1.1H20.883a.1.1,0,0,1-.1-.1V48.917H14.14V51.47a.1.1,0,0,1-.1.1H11.587a.1.1,0,0,1-.1-.1V48.917H8.951A1.451,1.451,0,0,0,7.5,50.368v5.189H55.308V50.368a1.451,1.451,0,0,0-1.451-1.451Z" transform="translate(-6.778 -45.539)" fill="#dd636e"/>
      <path id="Trazado_1111049" data-name="Trazado 1111049" d="M51.46,117.944v26.591a7.341,7.341,0,0,1-7.341,7.341H7.5v.473A1.451,1.451,0,0,0,8.951,153.8H53.858a1.451,1.451,0,0,0,1.451-1.451V117.944Z" transform="translate(-6.779 -107.926)" fill="#dfeaef"/>
      <path id="Trazado_1111050" data-name="Trazado 1111050" d="M44.311,163.348H35.224a.1.1,0,0,1-.1-.1v-3.775a.1.1,0,0,1,.1-.1h9.087a.1.1,0,0,1,.1.1v3.775a.1.1,0,0,1-.1.1Z" transform="translate(-31.742 -145.362)" fill="#9bd069"/>
      <path id="Trazado_1111051" data-name="Trazado 1111051" d="M73.249,204.763H62.834a.1.1,0,0,1-.1-.1v-3.775a.1.1,0,0,1,.1-.1H73.249a.1.1,0,0,1,.1.1v3.775A.1.1,0,0,1,73.249,204.763Z" transform="translate(-56.696 -182.793)" fill="#8bc852"/>
      <path id="Trazado_1111052" data-name="Trazado 1111052" d="M102.187,246.178H90.444a.1.1,0,0,1-.1-.1V242.3a.1.1,0,0,1,.1-.1h11.743a.1.1,0,0,1,.1.1v3.775A.1.1,0,0,1,102.187,246.178Z" transform="translate(-81.65 -220.224)" fill="#9bd069"/>
      <path id="Trazado_1111053" data-name="Trazado 1111053" d="M230.416,287.592H214.585v-3.879a.1.1,0,0,1,.1-.1h15.727a.1.1,0,0,1,.1.1v3.775A.1.1,0,0,1,230.416,287.592Z" transform="translate(-193.943 -257.655)" fill="#4073c8"/>
      <path id="Trazado_1111054" data-name="Trazado 1111054" d="M222.448,329.007h-7.759a.1.1,0,0,1-.1-.1v-3.88h7.968v3.88A.1.1,0,0,1,222.448,329.007Z" transform="translate(-193.943 -295.086)" fill="#3b66c1"/>
      <path id="Trazado_1111055" data-name="Trazado 1111055" d="M375.736,370.423h-9.191a.1.1,0,0,1-.1-.1v-3.775a.1.1,0,0,1,.1-.1h9.087a.1.1,0,0,1,.1.1v3.879Z" transform="translate(-331.191 -332.518)" fill="#e28424"/>
      <path id="Trazado_1111056" data-name="Trazado 1111056" d="M400.586,411.837h-6.431a.1.1,0,0,1-.1-.1v-3.88h6.64v3.88A.1.1,0,0,1,400.586,411.837Z" transform="translate(-356.146 -369.948)" fill="#dd6938"/>
      <path id="Trazado_1111057" data-name="Trazado 1111057" d="M443.306,412.876v-3.758a7.328,7.328,0,0,1-2.1,3.862h2A.1.1,0,0,0,443.306,412.876Z" transform="translate(-398.761 -371.091)" fill="#dd542e"/>
      <path id="Trazado_1111058" data-name="Trazado 1111058" d="M47.079,16.461H45.267V14.63a.826.826,0,0,0-.825-.825H41.993a.826.826,0,0,0-.825.825v1.831h-5.2V14.63a.826.826,0,0,0-.825-.825H32.7a.826.826,0,0,0-.825.825v1.831h-5.2V14.63a.826.826,0,0,0-.825-.825H23.4a.826.826,0,0,0-.825.825v1.831h-5.2V14.63a.826.826,0,0,0-.825-.825H14.105a.826.826,0,0,0-.825.825v1.831h-5.2V14.63a.826.826,0,0,0-.825-.825H4.809a.826.826,0,0,0-.825.825v1.831H2.172A2.175,2.175,0,0,0,0,18.633v39.6A2.175,2.175,0,0,0,2.172,60.4h9.791a.721.721,0,0,0,0-1.443H9.412V40.48h6.525V58.957H15.33a.721.721,0,0,0,0,1.443H47.079a2.175,2.175,0,0,0,2.172-2.172v-39.6A2.174,2.174,0,0,0,47.079,16.461Zm-4.468-1.213h1.213v3.869H42.611Zm-9.3,0h1.213v3.869H33.315Zm-9.3,0h1.213v3.869H24.019Zm-9.3,0h1.213v3.869H14.723Zm-9.3,0H6.64v3.869H5.427ZM2.172,17.9H3.984v1.831a.826.826,0,0,0,.825.825H7.258a.826.826,0,0,0,.825-.825V17.9h5.2v1.831a.826.826,0,0,0,.825.825h2.449a.826.826,0,0,0,.825-.825V17.9h5.2v1.831a.826.826,0,0,0,.825.825H25.85a.826.826,0,0,0,.825-.825V17.9h5.2v1.831a.826.826,0,0,0,.825.825h2.449a.826.826,0,0,0,.825-.825V17.9h5.2v1.831a.826.826,0,0,0,.825.825h2.449a.826.826,0,0,0,.825-.825V17.9h1.812a.73.73,0,0,1,.729.729V23.1H13.646a.721.721,0,0,0,0,1.443h2.29v6.525H13.4V27.911a.827.827,0,0,0-.826-.826H9.412V24.544h.867a.721.721,0,0,0,0-1.443H1.443V18.633a.73.73,0,0,1,.729-.729ZM38.626,54.972V52.431h5.2v2.541Zm5.2-3.984H35.971V48.448h7.853ZM35.353,47a.827.827,0,0,0-.826.826v3.775a.827.827,0,0,0,.826.826h1.83v3.158a.827.827,0,0,0,.826.826h1.83v2.542H33.315V44.464h3.158a.827.827,0,0,0,.826-.826V39.863a.827.827,0,0,0-.826-.826H33.315V24.544H39.84V47ZM9.412,39.037V36.5H19.92v2.541Zm2.541-10.509v2.541H4.1V28.528Zm-5.2,3.984h9.181v2.541H6.756ZM23.9,24.544V39.037H21.363V35.879a.827.827,0,0,0-.826-.826H17.38V24.544Zm6.3,14.493a.721.721,0,0,0,0,1.443h5.655v2.541H21.363V40.48h5.471a.721.721,0,0,0,0-1.443H25.347V24.544h6.525V39.037Zm-8.838,5.427h6.525V47H21.363ZM28.5,48.448a.827.827,0,0,0,.826-.826V44.464h2.541V58.957H25.347V48.448ZM2.172,58.957a.73.73,0,0,1-.729-.729V24.544H7.969v2.541H3.483a.827.827,0,0,0-.826.826v3.775a.827.827,0,0,0,.826.826h1.83V35.67a.827.827,0,0,0,.826.826h1.83c0,3.938,0,6.515,0,22.461ZM17.38,40.48h2.54v7.142a.827.827,0,0,0,.826.826H23.9v10.51H17.38V40.48ZM47.808,58.228a.73.73,0,0,1-.729.729h-5.8V56.415H44.44a.827.827,0,0,0,.826-.826V47.83A.827.827,0,0,0,44.44,47H41.283V24.544h6.525Z" transform="translate(0 -13.805)"/>
    </g>
  </g>
</svg>
