<svg xmlns="http://www.w3.org/2000/svg" xmlns:xlink="http://www.w3.org/1999/xlink" width="96" height="95" viewBox="0 0 96 95">
  <defs>
    <linearGradient id="linear-gradient" x1="0.5" x2="0.5" y2="1" gradientUnits="objectBoundingBox">
      <stop offset="0" stop-color="#fff"/>
      <stop offset="1" stop-color="#e9e9e9"/>
    </linearGradient>
    <filter id="Elipse_14038" x="0" y="0" width="96" height="95" filterUnits="userSpaceOnUse">
      <feOffset dy="3" input="SourceAlpha"/>
      <feGaussianBlur stdDeviation="3" result="blur"/>
      <feFlood flood-opacity="0.161"/>
      <feComposite operator="in" in2="blur"/>
      <feComposite in="SourceGraphic"/>
    </filter>
  </defs>
  <g id="Grupo_1195770" data-name="Grupo 1195770" transform="translate(5462 10222)">
    <g transform="matrix(1, 0, 0, 1, -5462, -10222)" filter="url(#Elipse_14038)">
      <ellipse id="Elipse_14038-2" data-name="Elipse 14038" cx="39" cy="38.5" rx="39" ry="38.5" transform="translate(9 6)" fill="url(#linear-gradient)"/>
    </g>
    <g id="gestion-de-proyectos_3_" data-name="gestion-de-proyectos (3)" transform="translate(-5439.338 -10203.549)">
      <g id="Grupo_1195643" data-name="Grupo 1195643" transform="translate(0 0)">
        <g id="Grupo_1195638" data-name="Grupo 1195638" transform="translate(10.669 8.776)">
          <path id="Trazado_1111026" data-name="Trazado 1111026" d="M115.294,72.713h21.793a.687.687,0,0,1,.5.208l3.992,3.992a.687.687,0,0,1,.208.5v29.849a.712.712,0,0,1-.711.711H115.294a.712.712,0,0,1-.711-.711V73.424A.712.712,0,0,1,115.294,72.713Z" transform="translate(-114.583 -72.713)" fill="#eceff1" fill-rule="evenodd"/>
          <path id="Trazado_1111027" data-name="Trazado 1111027" d="M115.294,72.713h1.3v35.262h-1.3a.712.712,0,0,1-.711-.711V73.424A.712.712,0,0,1,115.294,72.713Z" transform="translate(-114.583 -72.713)" fill="#d1d1d6" fill-rule="evenodd"/>
          <path id="Trazado_1111028" data-name="Trazado 1111028" d="M351.589,73.354a.712.712,0,0,1,.208.147l3.992,3.992a.713.713,0,0,1,.147.208h-3.991a.356.356,0,0,1-.355-.355Z" transform="translate(-328.791 -73.292)" fill="#a79ba7" fill-rule="evenodd"/>
          <path id="Trazado_1111029" data-name="Trazado 1111029" d="M161.7,201.074h2.986a.289.289,0,0,1,.289.289v2.987a.289.289,0,0,1-.289.289H161.7a.289.289,0,0,1-.289-.289v-2.987A.289.289,0,0,1,161.7,201.074Zm0-13.468h2.986a.289.289,0,0,1,.289.289v2.986a.289.289,0,0,1-.289.289H161.7a.289.289,0,0,1-.289-.289v-2.986A.289.289,0,0,1,161.7,187.606Zm0,6.734h2.986a.289.289,0,0,1,.289.289v2.986a.289.289,0,0,1-.289.289H161.7a.289.289,0,0,1-.289-.289v-2.986A.289.289,0,0,1,161.7,194.34Z" transform="translate(-156.903 -176.554)" fill="#8ac9fe" fill-rule="evenodd"/>
          <path id="Trazado_1111030" data-name="Trazado 1111030" d="M185.454,201.074h.962a.289.289,0,0,1,.289.289v2.987a.289.289,0,0,1-.289.289h-.962a.289.289,0,0,0,.289-.289v-2.987A.289.289,0,0,0,185.454,201.074Zm0-13.468h.962a.289.289,0,0,1,.289.289v2.986a.289.289,0,0,1-.289.289h-.962a.289.289,0,0,0,.289-.289v-2.986A.289.289,0,0,0,185.454,187.606Zm0,6.734h.962a.289.289,0,0,1,.289.289v2.986a.289.289,0,0,1-.289.289h-.962a.289.289,0,0,0,.289-.289v-2.986A.289.289,0,0,0,185.454,194.34Z" transform="translate(-178.637 -176.554)" fill="#60b7ff" fill-rule="evenodd"/>
        </g>
        <g id="Grupo_1195639" data-name="Grupo 1195639" transform="translate(31.303 33.438)">
          <path id="Trazado_1111031" data-name="Trazado 1111031" d="M338.715,330.419a6.852,6.852,0,0,1,2.006.832l1.3-.579,1.537,1.536-.579,1.3a6.851,6.851,0,0,1,.832,2.007l1.33.512V338.2l-1.33.512a6.854,6.854,0,0,1-.832,2.006l.579,1.3-1.536,1.536-1.3-.579a6.851,6.851,0,0,1-2.007.832l-.512,1.33h-2.173l-.512-1.33a6.85,6.85,0,0,1-2.006-.832l-1.3.579-1.536-1.536.579-1.3a6.852,6.852,0,0,1-.832-2.007l-1.33-.512v-2.173l1.33-.512a6.851,6.851,0,0,1,.832-2.006l-.579-1.3,1.536-1.536,1.3.579a6.85,6.85,0,0,1,2.006-.832l.512-1.33H338.2Z" transform="translate(-329.089 -329.089)" fill="#ffe177" fill-rule="evenodd"/>
          <path id="Trazado_1111032" data-name="Trazado 1111032" d="M360.934,342.983l-1.3.579-.2-.2,1.222-.543Q360.791,342.9,360.934,342.983Zm5.2-12.563a6.851,6.851,0,0,1,2.006.832l-.371.165a9.037,9.037,0,0,0-2.288-1l-.512-1.33h.653Zm2.007,12.563a6.851,6.851,0,0,1-2.007.832l-.512,1.33h-.653l.512-1.33a9.038,9.038,0,0,0,2.289-1Zm-8.714-12.11.2-.2,1.3.579q-.143.079-.282.165Zm9.565,0,.452-.2,1.536,1.536-.579,1.3a6.852,6.852,0,0,1,.832,2.007l1.33.512V338.2l-1.33.512a6.853,6.853,0,0,1-.832,2.006l.579,1.3-1.536,1.536-.452-.2,1.336-1.336-.579-1.3a6.853,6.853,0,0,0,.832-2.006l1.33-.512V336.03l-1.33-.512a6.852,6.852,0,0,0-.832-2.007l.579-1.3Z" transform="translate(-356.511 -329.089)" fill="#ffd064" fill-rule="evenodd"/>
          <path id="Trazado_1111033" data-name="Trazado 1111033" d="M372.544,368.289a4.257,4.257,0,1,0,4.257,4.257A4.257,4.257,0,0,0,372.544,368.289Z" transform="translate(-364.516 -364.518)" fill="#eceff1" fill-rule="evenodd"/>
          <path id="Trazado_1111034" data-name="Trazado 1111034" d="M372.545,368.289a4.257,4.257,0,0,0,0,8.514q.171,0,.339-.013a4.257,4.257,0,0,1,0-8.487Q372.716,368.289,372.545,368.289Z" transform="translate(-364.517 -364.518)" fill="#d1d1d6" fill-rule="evenodd"/>
        </g>
        <g id="Grupo_1195640" data-name="Grupo 1195640" transform="translate(1.185 3.32)">
          <ellipse id="Elipse_14025" data-name="Elipse 14025" cx="8.028" cy="8.028" rx="8.028" ry="8.028" transform="translate(0 0)" fill="#ffc338"/>
          <path id="Trazado_1111035" data-name="Trazado 1111035" d="M93,16a8.028,8.028,0,0,1,0,16.056c-.232,0-.461-.01-.687-.03a8.028,8.028,0,0,0,0-16C92.536,16.009,92.765,16,93,16Z" transform="translate(-84.968 -15.999)" fill="#f5b829" fill-rule="evenodd"/>
        </g>
        <g id="Grupo_1195641" data-name="Grupo 1195641" transform="translate(0 32.251)">
          <ellipse id="Elipse_14026" data-name="Elipse 14026" cx="8.028" cy="8.028" rx="8.028" ry="8.028" transform="matrix(0.16, -0.987, 0.987, 0.16, 0, 15.847)" fill="#685e68"/>
          <path id="Trazado_1111036" data-name="Trazado 1111036" d="M94.933,329.089a8.028,8.028,0,0,1,0,16.056c-.162,0-.322-.005-.481-.015a8.027,8.027,0,0,0,0-16.026C94.611,329.094,94.771,329.089,94.933,329.089Z" transform="translate(-85.72 -327.903)" fill="#544854" fill-rule="evenodd"/>
          <ellipse id="Elipse_14027" data-name="Elipse 14027" cx="2.834" cy="2.834" rx="2.834" ry="2.834" transform="translate(6.379 5.282)" fill="#f6dccd"/>
          <path id="Trazado_1111037" data-name="Trazado 1111037" d="M97.416,371.661a2.834,2.834,0,0,1,0,5.669q-.11,0-.217-.008a2.835,2.835,0,0,0,0-5.653Q97.306,371.661,97.416,371.661Z" transform="translate(-88.203 -366.379)" fill="#f1cbbc" fill-rule="evenodd"/>
          <path id="Trazado_1111038" data-name="Trazado 1111038" d="M49.954,430.785a5.613,5.613,0,0,0-6.882,3.991,8.028,8.028,0,0,0,10.847,0,5.612,5.612,0,0,0-3.965-3.991Z" transform="translate(-39.282 -419.642)" fill="#9bc9ff" fill-rule="evenodd"/>
          <path id="Trazado_1111039" data-name="Trazado 1111039" d="M67.93,430.785a5.616,5.616,0,0,0-4.969,1.044,5.607,5.607,0,0,1,8.735,3.1q-.213.2-.441.376a8.065,8.065,0,0,0,.639-.528,5.612,5.612,0,0,0-3.965-3.991Z" transform="translate(-57.258 -419.642)" fill="#60b7ff" fill-rule="evenodd"/>
        </g>
        <g id="Grupo_1195642" data-name="Grupo 1195642" transform="translate(27.974)">
          <circle id="Elipse_14028" data-name="Elipse 14028" cx="8.028" cy="8.028" r="8.028" transform="translate(0 11.351) rotate(-45)" fill="#8ac9fe"/>
          <path id="Trazado_1111040" data-name="Trazado 1111040" d="M410.284,16a8.028,8.028,0,0,1,0,16.056c-.08,0-.161,0-.24,0a8.027,8.027,0,0,0,0-16.048c.08,0,.16,0,.24,0Z" transform="translate(-398.928 -12.679)" fill="#60b7ff" fill-rule="evenodd"/>
        </g>
      </g>
      <path id="Trazado_1111041" data-name="Trazado 1111041" d="M28.793,39.854H40.455a.77.77,0,0,0,0-1.539H28.793a.77.77,0,0,0,0,1.539Zm0-6.734H40.455a.77.77,0,0,0,0-1.539H28.793a.77.77,0,0,0,0,1.539Zm0,2.886H40.455a.77.77,0,0,0,0-1.539H28.793a.77.77,0,0,0,0,1.539Zm-3.245-3.225H23.525v2.024h2.024Zm1.539,2.794a.769.769,0,0,1-.769.769H22.755a.769.769,0,0,1-.769-.769V32.012a.769.769,0,0,1,.769-.769h3.563a.769.769,0,0,1,.769.769Zm1.705-9.189H40.455a.769.769,0,0,0,0-1.539H28.793a.769.769,0,0,0,0,1.539Zm0,2.886H40.455a.77.77,0,0,0,0-1.539H28.793a.77.77,0,0,0,0,1.539Zm-5.268-1.2h2.024V26.047H23.525Zm-1.539.769V25.277a.77.77,0,0,1,.769-.769h3.563a.77.77,0,0,1,.769.769v3.564a.769.769,0,0,1-.769.77H22.755A.77.77,0,0,1,21.986,28.841ZM50.4,46.915A3.487,3.487,0,1,0,46.912,50.4,3.49,3.49,0,0,0,50.4,46.915Zm1.54,0a5.026,5.026,0,1,1-5.026-5.026A5.032,5.032,0,0,1,51.938,46.915Zm2.232-.558v1.116l-.838.322a.77.77,0,0,0-.471.54,6.069,6.069,0,0,1-.738,1.781.759.759,0,0,0-.05.716l.367.821-.792.789-.82-.365a.77.77,0,0,0-.715.048,6.051,6.051,0,0,1-1.781.739.772.772,0,0,0-.54.472l-.322.837H46.354l-.322-.838a.77.77,0,0,0-.54-.471,6.068,6.068,0,0,1-1.782-.739A.77.77,0,0,0,43,52.078l-.821.365-.79-.789.365-.821a.767.767,0,0,0-.048-.716,6.1,6.1,0,0,1-.739-1.782.767.767,0,0,0-.472-.54l-.836-.322V46.357l.837-.322a.768.768,0,0,0,.472-.54,6.083,6.083,0,0,1,.738-1.781A.767.767,0,0,0,41.75,43l-.365-.821.79-.789.821.365a.771.771,0,0,0,.715-.048,6.076,6.076,0,0,1,1.781-.739.77.77,0,0,0,.541-.472l.322-.837H47.47l.322.837a.77.77,0,0,0,.54.472,6.065,6.065,0,0,1,1.781.739.771.771,0,0,0,.715.048l.82-.365.792.789L52.074,43a.77.77,0,0,0,.05.715,6.075,6.075,0,0,1,.738,1.781.771.771,0,0,0,.471.54Zm-28.578.558a8.743,8.743,0,0,0-.882-3.836h1.608a.77.77,0,0,0,.769-.769V38.746a.769.769,0,0,0-.769-.77H22.755a.77.77,0,0,0-.769.77v1.071A8.756,8.756,0,0,0,19.02,38.4V25.31A8.8,8.8,0,0,0,25.406,15H38.3A8.8,8.8,0,0,0,44.687,25.31V39.592a7.561,7.561,0,0,0-1.425.6l-.945-.42a.77.77,0,0,0-.856.159L40.186,41.2H28.793a.77.77,0,0,0,0,1.539H39.951l.233.525a7.586,7.586,0,0,0-.61,1.475l-.965.371a.768.768,0,0,0-.493.718V48a.768.768,0,0,0,.489.716h-13.2A8.8,8.8,0,0,0,25.593,46.915Zm-8.8,7.258A7.229,7.229,0,0,0,21.547,52.4a4.836,4.836,0,0,0-9.5,0A7.23,7.23,0,0,0,16.8,54.174Zm0-7.254a2.065,2.065,0,1,0-2.065-2.064A2.067,2.067,0,0,0,16.8,46.92Zm6.958-5.38h1.8V39.515H23.525v1.741c.078.092.154.187.229.283ZM9.537,46.915a7.215,7.215,0,0,0,1.292,4.127,6.361,6.361,0,0,1,3.452-3.608,3.6,3.6,0,1,1,5.029,0,6.357,6.357,0,0,1,3.452,3.608A7.256,7.256,0,1,0,9.537,46.915ZM16.8,24.056A7.258,7.258,0,1,0,9.537,16.8,7.266,7.266,0,0,0,16.8,24.056ZM39.654,16.8A7.258,7.258,0,1,0,46.912,9.54,7.267,7.267,0,0,0,39.654,16.8ZM55.71,45.829V48a.767.767,0,0,1-.494.718l-.965.371a7.572,7.572,0,0,1-.611,1.474l.421.945a.78.78,0,0,1-.159.857L52.364,53.9a.768.768,0,0,1-.856.158l-.942-.419a7.739,7.739,0,0,1-1.478.612l-.371.964a.769.769,0,0,1-.718.494H45.826a.769.769,0,0,1-.718-.494l-.371-.965a7.6,7.6,0,0,1-1.475-.611l-.945.419a.77.77,0,0,1-.856-.158l-1.536-1.537a.771.771,0,0,1-.16-.857l.419-.945c-.055-.1-.106-.206-.158-.31H24.933A8.8,8.8,0,1,1,16.8,38.118c.23,0,.46.009.686.027V25.569c-.226.017-.455.027-.686.027a8.8,8.8,0,1,1,8.138-12.138H38.776A8.8,8.8,0,1,1,46.912,25.6c-.23,0-.46-.01-.686-.027v12.55H48a.77.77,0,0,1,.718.492l.371.965a7.58,7.58,0,0,1,1.474.612l.946-.42a.77.77,0,0,1,.856.159L53.9,41.463a.772.772,0,0,1,.163.856l-.421.945a7.583,7.583,0,0,1,.611,1.475l.965.371a.767.767,0,0,1,.493.718ZM16.927,16.01c-1.629-.268-1.66-.9-1.671-1.138a1.235,1.235,0,0,1,1.1-1.2,1.764,1.764,0,0,1,2.092.984.77.77,0,1,0,1.42-.6,3.137,3.137,0,0,0-2.3-1.9v-.447a.77.77,0,1,0-1.539,0v.453l-.01,0a2.738,2.738,0,0,0-2.3,2.774c.047.964.6,2.194,2.959,2.582,1.594.262,1.861.8,1.915,1.241a.773.773,0,0,1-.176.638,2.216,2.216,0,0,1-1.535.566,1.8,1.8,0,0,1-1.915-1.2.769.769,0,1,0-1.493.372,3.15,3.15,0,0,0,2.552,2.294v.44a.77.77,0,1,0,1.539,0v-.427a3.405,3.405,0,0,0,2.016-1.036,2.3,2.3,0,0,0,.54-1.831c-.169-1.388-1.243-2.253-3.194-2.574Zm29.216.788V12.029a.77.77,0,0,1,1.539,0v4.325l3.065,1.771a.77.77,0,1,1-.77,1.333l-3.45-1.993a.771.771,0,0,1-.385-.667Z" transform="translate(-7.582 -5.45)" fill="#242222" fill-rule="evenodd"/>
    </g>
  </g>
</svg>
