<svg xmlns="http://www.w3.org/2000/svg" xmlns:xlink="http://www.w3.org/1999/xlink" width="130.113" height="130.788" viewBox="0 0 130.113 130.788">
  <defs>
    <filter id="_52" x="0" y="0" width="130.113" height="130.788" filterUnits="userSpaceOnUse">
      <feOffset dx="3" dy="3" input="SourceAlpha"/>
      <feGaussianBlur stdDeviation="3" result="blur"/>
      <feFlood flood-opacity="0.161"/>
      <feComposite operator="in" in2="blur"/>
      <feComposite in="SourceGraphic"/>
    </filter>
  </defs>
  <g id="Grupo_1195780" data-name="Grupo 1195780" transform="translate(5731.265 9718.919)">
    <g id="Grupo_1195775" data-name="Grupo 1195775" transform="translate(-20238.234 -1613.506)">
      <g transform="matrix(1, 0, 0, 1, 14506.97, -8105.41)" filter="url(#_52)">
        <g id="_52-2" data-name="52" transform="translate(6 6)" fill="#fff" stroke="#fff" stroke-width="3">
          <ellipse cx="56.056" cy="56.394" rx="56.056" ry="56.394" stroke="none"/>
          <ellipse cx="56.056" cy="56.394" rx="54.556" ry="54.894" fill="none"/>
        </g>
      </g>
    </g>
    <g id="objetivo" transform="translate(-5697.503 -9684.82)">
      <g id="Grupo_1195646" data-name="Grupo 1195646" transform="translate(1.105 1.105)">
        <path id="Trazado_1111078" data-name="Trazado 1111078" d="M345.561,18.043l3.517,1.172,4.527-4.527-3.517-1.172L348.916,10l-4.527,4.527Z" transform="translate(-307.43 -9.999)" fill="#ffc144" fill-rule="evenodd"/>
        <path id="Trazado_1111079" data-name="Trazado 1111079" d="M142.415,46.308a15.474,15.474,0,1,0,4.532,10.942A15.425,15.425,0,0,0,142.415,46.308Zm-10.942.442a10.5,10.5,0,1,1-10.5,10.5A10.467,10.467,0,0,1,131.474,46.75Z" transform="translate(-104.284 -38.264)" fill="#ff5a58" fill-rule="evenodd"/>
        <path id="Trazado_1111080" data-name="Trazado 1111080" d="M178.925,89.851A10.5,10.5,0,1,0,182,97.276,10.467,10.467,0,0,0,178.925,89.851Zm-7.425,1.9a5.526,5.526,0,1,1-5.526,5.526A5.509,5.509,0,0,1,171.5,91.75Z" transform="translate(-144.31 -78.29)" fill="#fff" fill-rule="evenodd"/>
        <path id="Trazado_1111081" data-name="Trazado 1111081" d="M215.434,133.394a5.526,5.526,0,1,0,1.619,3.908A5.509,5.509,0,0,0,215.434,133.394Z" transform="translate(-184.337 -118.315)" fill="#ff5a58" fill-rule="evenodd"/>
        <g id="Grupo_1195645" data-name="Grupo 1195645" transform="translate(3.387 39.105)">
          <path id="Trazado_1111082" data-name="Trazado 1111082" d="M47.441,368.308V367.2a3.4,3.4,0,1,0-6.8,0v1.106a3.4,3.4,0,1,0,6.8,0Z" transform="translate(-40.64 -363.802)" fill="#ffdcd5" fill-rule="evenodd"/>
          <path id="Trazado_1111083" data-name="Trazado 1111083" d="M163.706,368.308a3.4,3.4,0,0,0,6.8,0V367.2a3.4,3.4,0,1,0-6.8,0v1.106Z" transform="translate(-150.104 -363.802)" fill="#ffdcd5" fill-rule="evenodd"/>
          <path id="Trazado_1111084" data-name="Trazado 1111084" d="M286.771,368.308a3.4,3.4,0,1,0,6.8,0V367.2a3.4,3.4,0,1,0-6.8,0v1.106Z" transform="translate(-259.567 -363.802)" fill="#ffdcd5" fill-rule="evenodd"/>
          <path id="Trazado_1111085" data-name="Trazado 1111085" d="M409.839,368.308a3.4,3.4,0,1,0,6.8,0V367.2a3.4,3.4,0,1,0-6.8,0v1.106Z" transform="translate(-369.033 -363.802)" fill="#ffdcd5" fill-rule="evenodd"/>
        </g>
        <path id="Trazado_1111086" data-name="Trazado 1111086" d="M133.066,447.269h13.573v-.461a6.8,6.8,0,0,0-13.573.021v.44Z" transform="translate(-119.464 -392.89)" fill="#ffc144" fill-rule="evenodd"/>
        <path id="Trazado_1111087" data-name="Trazado 1111087" d="M10,447.269H23.573v-.461A6.8,6.8,0,0,0,10,446.829v.44Z" transform="translate(-10 -392.89)" fill="#8481e2" fill-rule="evenodd"/>
        <path id="Trazado_1111088" data-name="Trazado 1111088" d="M256.133,447.269h13.573v-.461a6.8,6.8,0,0,0-13.573.021Z" transform="translate(-228.929 -392.89)" fill="#00ccf2" fill-rule="evenodd"/>
        <path id="Trazado_1111089" data-name="Trazado 1111089" d="M379.2,447.269h13.573v-.461a6.8,6.8,0,0,0-13.573.021Z" transform="translate(-338.393 -392.89)" fill="#88df8e" fill-rule="evenodd"/>
      </g>
      <g id="Grupo_1195647" data-name="Grupo 1195647" transform="translate(0 0)">
        <path id="Trazado_1111090" data-name="Trazado 1111090" d="M51.613,362.906a4.5,4.5,0,0,0,1.578-3.421v-1.105a4.5,4.5,0,1,0-9.008,0v1.105a4.5,4.5,0,0,0,1.581,3.424,7.988,7.988,0,0,0-3.873,3.312,7.954,7.954,0,0,0-3.874-3.315,4.5,4.5,0,0,0,1.579-3.422v-1.105a4.5,4.5,0,1,0-9.008,0v1.105a4.5,4.5,0,0,0,1.576,3.42,7.939,7.939,0,0,0-3.872,3.312,7.971,7.971,0,0,0-3.871-3.309A4.5,4.5,0,0,0,26,359.484v-1.105a4.5,4.5,0,1,0-9.008,0v1.105a4.5,4.5,0,0,0,1.579,3.422,7.96,7.96,0,0,0-3.873,3.312,7.962,7.962,0,0,0-3.873-3.312,4.5,4.5,0,0,0,1.579-3.422v-1.105a4.5,4.5,0,1,0-9.008,0v1.105a4.5,4.5,0,0,0,1.578,3.421A7.916,7.916,0,0,0,0,370.247a1.105,1.105,0,0,0,1.105,1.105H55.485a1.105,1.105,0,0,0,1.105-1.105,7.916,7.916,0,0,0-4.977-7.341Zm-46-4.526a2.293,2.293,0,1,1,4.587,0v1.105a2.293,2.293,0,0,1-4.587,0ZM2.318,369.142a5.693,5.693,0,0,1,11.169,0ZM19.2,358.379a2.293,2.293,0,1,1,4.587,0v1.105a2.293,2.293,0,0,1-4.587,0Zm-3.291,10.762a5.693,5.693,0,0,1,11.17,0ZM32.8,358.379a2.293,2.293,0,1,1,4.587,0v1.105a2.293,2.293,0,0,1-4.587,0Zm-3.291,10.762a5.693,5.693,0,0,1,11.17,0Zm16.886-10.762a2.293,2.293,0,1,1,4.587,0v1.105a2.293,2.293,0,0,1-4.587,0ZM43.1,369.142a5.693,5.693,0,0,1,11.169,0Z" transform="translate(0 -314.762)"/>
        <path id="Trazado_1111091" data-name="Trazado 1111091" d="M122.58,36.671a16.573,16.573,0,0,0,14.092-25.306l.018.006a1.105,1.105,0,0,0,1.131-.267l4.527-4.527a1.105,1.105,0,0,0-.432-1.83l-2.993-1-1-2.993A1.105,1.105,0,0,0,136.1.325l-4.528,4.527a1.106,1.106,0,0,0-.267,1.131l.006.018a16.577,16.577,0,1,0-8.727,30.671ZM136.394,3.153,137,4.973a1.106,1.106,0,0,0,.7.7l1.82.607-2.78,2.78L134.4,8.277l-.782-2.345ZM122.58,5.724a14.307,14.307,0,0,1,9.344,3.461l-1.96,1.96A11.6,11.6,0,0,0,119.07,9.028a1.105,1.105,0,0,0,.668,2.107,9.4,9.4,0,0,1,8.654,1.581l-1.972,1.972a6.638,6.638,0,1,0,1.563,1.563l1.972-1.972a9.39,9.39,0,1,1-16.333,2.972,1.105,1.105,0,0,0-2.107-.668,11.608,11.608,0,1,0,20.012-3.875l1.96-1.96A14.363,14.363,0,1,1,122.58,5.724ZM127,20.092a4.424,4.424,0,1,1-2.176-3.808L121.8,19.311a1.105,1.105,0,1,0,1.563,1.563l3.026-3.026A4.394,4.394,0,0,1,127,20.092Z" transform="translate(-94.285 -0.002)"/>
        <path id="Trazado_1111092" data-name="Trazado 1111092" d="M179.219,106.555a1.106,1.106,0,1,0-.141-1.557h0A1.105,1.105,0,0,0,179.219,106.555Z" transform="translate(-159.057 -93.039)"/>
      </g>
    </g>
  </g>
</svg>
