<svg xmlns="http://www.w3.org/2000/svg" xmlns:xlink="http://www.w3.org/1999/xlink" width="106" height="106" viewBox="0 0 106 106">
  <defs>
    <filter id="Elipse_13959" x="0" y="0" width="106" height="106" filterUnits="userSpaceOnUse">
      <feOffset dy="3" input="SourceAlpha"/>
      <feGaussianBlur stdDeviation="3" result="blur"/>
      <feFlood flood-opacity="0.161"/>
      <feComposite operator="in" in2="blur"/>
      <feComposite in="SourceGraphic"/>
    </filter>
  </defs>
  <g id="Grupo_1195243" data-name="Grupo 1195243" transform="translate(-275.676 -7509)">
    <g transform="matrix(1, 0, 0, 1, 275.68, 7509)" filter="url(#Elipse_13959)">
      <circle id="Elipse_13959-2" data-name="Elipse 13959" cx="44" cy="44" r="44" transform="translate(9 6)" fill="#fff"/>
    </g>
    <g id="comunicacion-bidireccional" transform="translate(303.486 7534.708)">
      <g id="Grupo_1195240" data-name="Grupo 1195240" transform="translate(0.852 0.79)">
        <g id="Grupo_1195236" data-name="Grupo 1195236" transform="translate(0 27.083)">
          <path id="Trazado_1109321" data-name="Trazado 1109321" d="M16.787,400.809h18.3a.783.783,0,0,0,.77-.943,10.128,10.128,0,0,0-19.842,0,.783.783,0,0,0,.77.943Z" transform="translate(-16.001 -380.888)" fill="#8ac9fe" fill-rule="evenodd"/>
          <path id="Trazado_1109322" data-name="Trazado 1109322" d="M109.13,400.808h1.789a.783.783,0,0,0,.77-.943,10.129,10.129,0,0,0-9.921-8.093q-.452,0-.895.039a10.132,10.132,0,0,1,9.026,8.054A.783.783,0,0,1,109.13,400.808Z" transform="translate(-91.83 -380.888)" fill="#60b7ff" fill-rule="evenodd"/>
          <ellipse id="Elipse_13987" data-name="Elipse 13987" cx="5.119" cy="5.119" rx="5.119" ry="5.119" transform="translate(4.149 10.136) rotate(-82.008)" fill="#f6dccd"/>
          <path id="Trazado_1109323" data-name="Trazado 1109323" d="M103.29,295.674a5.119,5.119,0,0,1,0,10.239,5.176,5.176,0,0,1-.713-.05,5.12,5.12,0,0,0,0-10.139A5.143,5.143,0,0,1,103.29,295.674Z" transform="translate(-93.353 -295.028)" fill="#f1cbbc" fill-rule="evenodd"/>
        </g>
        <g id="Grupo_1195237" data-name="Grupo 1195237" transform="translate(31.267 9.719)">
          <path id="Trazado_1109324" data-name="Trazado 1109324" d="M310.246,239.392h18.3a.783.783,0,0,0,.77-.942,10.128,10.128,0,0,0-19.842,0,.783.783,0,0,0,.77.943Z" transform="translate(-309.46 -219.306)" fill="#8ac9fe" fill-rule="evenodd"/>
          <path id="Trazado_1109325" data-name="Trazado 1109325" d="M402.589,239.392h1.789a.783.783,0,0,0,.77-.943,10.129,10.129,0,0,0-9.921-8.093q-.452,0-.895.039a10.132,10.132,0,0,1,9.026,8.054A.783.783,0,0,1,402.589,239.392Z" transform="translate(-385.289 -219.306)" fill="#60b7ff" fill-rule="evenodd"/>
          <ellipse id="Elipse_13988" data-name="Elipse 13988" cx="5.119" cy="5.119" rx="5.119" ry="5.119" transform="matrix(0.174, -0.985, 0.985, 0.174, 4.029, 10.085)" fill="#f6dccd"/>
          <path id="Trazado_1109326" data-name="Trazado 1109326" d="M396.749,134.258a5.119,5.119,0,1,1,0,10.239,5.181,5.181,0,0,1-.713-.05,5.12,5.12,0,0,0,0-10.139A5.129,5.129,0,0,1,396.749,134.258Z" transform="translate(-386.812 -133.446)" fill="#f1cbbc" fill-rule="evenodd"/>
        </g>
        <g id="Grupo_1195238" data-name="Grupo 1195238" transform="translate(14.063 15.958)">
          <path id="Trazado_1109327" data-name="Trazado 1109327" d="M163.295,195.056v-8.224a1.644,1.644,0,0,0-1.641-1.641H149.635a1.644,1.644,0,0,0-1.641,1.641v8.224a1.644,1.644,0,0,0,1.641,1.641h1.389v2.549a.32.32,0,0,0,.55.221l2.661-2.77h7.419A1.644,1.644,0,0,0,163.295,195.056Z" transform="translate(-147.994 -185.191)" fill="#6cf5c2" fill-rule="evenodd"/>
          <path id="Trazado_1109328" data-name="Trazado 1109328" d="M188.7,195.056v-8.224a1.644,1.644,0,0,0-1.641-1.641h-1.065a1.644,1.644,0,0,1,1.641,1.641v8.224a1.644,1.644,0,0,1-1.641,1.641h1.065A1.644,1.644,0,0,0,188.7,195.056Zm-12.271,3.875v.315a.32.32,0,0,0,.55.221l2.661-2.77h-1.065Z" transform="translate(-173.398 -185.191)" fill="#00e499" fill-rule="evenodd"/>
        </g>
        <g id="Grupo_1195239" data-name="Grupo 1195239" transform="translate(20.206)">
          <path id="Trazado_1109329" data-name="Trazado 1109329" d="M205.647,45.284V37.06a1.644,1.644,0,0,1,1.641-1.641h12.019a1.644,1.644,0,0,1,1.641,1.641v8.224a1.644,1.644,0,0,1-1.641,1.641h-1.389v2.549a.32.32,0,0,1-.55.221l-2.661-2.77h-7.419A1.644,1.644,0,0,1,205.647,45.284Z" transform="translate(-205.647 -35.419)" fill="#ffe177" fill-rule="evenodd"/>
          <path id="Trazado_1109330" data-name="Trazado 1109330" d="M205.647,45.284V37.06a1.644,1.644,0,0,1,1.641-1.641h1.065a1.644,1.644,0,0,0-1.641,1.641v8.224a1.644,1.644,0,0,0,1.641,1.641h-1.065A1.644,1.644,0,0,1,205.647,45.284Zm12.271,3.875v.315a.32.32,0,0,1-.55.221l-2.661-2.77h1.065Z" transform="translate(-205.647 -35.419)" fill="#ffd064" fill-rule="evenodd"/>
        </g>
      </g>
      <path id="Trazado_1109331" data-name="Trazado 1109331" d="M15.956,53.24v-17.5a.852.852,0,0,1,.852-.852H22.53l-.491-.285a.852.852,0,1,1,.852-1.476L26.135,35a.852.852,0,0,1,0,1.476l-3.244,1.876a.852.852,0,1,1-.852-1.476l.491-.285H17.661V53.24a.852.852,0,0,1-1.7,0Zm36.95,7.951V72.045a.855.855,0,0,1-.852.852H35.045l.5.285a.852.852,0,1,1-.852,1.477L31.44,72.783a.853.853,0,0,1,0-1.477l3.249-1.875a.852.852,0,0,1,.852,1.477l-.5.284H51.2v-10a.852.852,0,1,1,1.7,0ZM25.543,50.563a.855.855,0,0,0,.852.852H34.75a.852.852,0,0,0,0-1.7H26.4A.855.855,0,0,0,25.543,50.563Zm.852,3.59h8.354a.852.852,0,0,0,0-1.7H26.4a.852.852,0,1,0,0,1.7Zm-.852-6.327a.855.855,0,0,0,.852.852H34.75a.852.852,0,0,0,0-1.7H26.4A.855.855,0,0,0,25.543,47.826Zm-.978,7.639h1.389a.852.852,0,0,1,.852.852v1.226l1.74-1.816a.867.867,0,0,1,.617-.262h7.421a.79.79,0,0,0,.787-.788V46.452a.791.791,0,0,0-.787-.789H24.566a.792.792,0,0,0-.792.789v8.224A.792.792,0,0,0,24.566,55.465Zm1.068,4.986a.858.858,0,0,0,.321.062.843.843,0,0,0,.612-.262l2.958-3.08h7.06a2.5,2.5,0,0,0,2.492-2.494V46.452a2.5,2.5,0,0,0-2.492-2.494H24.566a2.5,2.5,0,0,0-2.5,2.494v8.224a2.5,2.5,0,0,0,2.5,2.494H25.1v2.49A.852.852,0,0,0,25.634,60.45Zm6.057-25.845a.851.851,0,0,1,.847-.852h8.354a.852.852,0,0,1,0,1.7H32.538A.851.851,0,0,1,31.691,34.605Zm0,2.737a.851.851,0,0,1,.847-.852h8.354a.852.852,0,0,1,0,1.7H32.538A.851.851,0,0,1,31.691,37.343Zm0-5.474a.851.851,0,0,1,.847-.852h8.354a.852.852,0,1,1,0,1.7H32.538A.851.851,0,0,1,31.691,31.869Zm-1.77-1.374v8.224a.787.787,0,0,0,.787.789h7.416a.852.852,0,0,1,.617.262l1.745,1.816V40.36a.852.852,0,0,1,.852-.852h1.389a.787.787,0,0,0,.787-.789V30.494a.787.787,0,0,0-.787-.788H30.708a.787.787,0,0,0-.787.788Zm.787,10.718a2.493,2.493,0,0,1-2.492-2.494V30.494A2.492,2.492,0,0,1,30.708,28H42.727a2.5,2.5,0,0,1,2.492,2.493v8.224a2.5,2.5,0,0,1-2.492,2.494h-.536V43.7a.85.85,0,0,1-.537.79.833.833,0,0,1-.316.062.853.853,0,0,1-.617-.262l-2.958-3.081Zm10.415,16.47a9.147,9.147,0,0,1,17.881,0Zm4.739-13.121a4.2,4.2,0,1,1,4.2,4.2A4.206,4.206,0,0,1,45.861,44.562ZM60.849,58.444a.848.848,0,0,1-.847.943H40.125a.846.846,0,0,1-.632-.283.861.861,0,0,1-.216-.66,10.816,10.816,0,0,1,7.306-9.114,5.907,5.907,0,1,1,6.96,0,10.816,10.816,0,0,1,7.306,9.114ZM9.859,74.881a9.116,9.116,0,0,1,8.935-7.215H18.8a9.125,9.125,0,0,1,8.94,7.215ZM14.6,61.76a4.2,4.2,0,1,1,4.2,4.2h-.005a4.2,4.2,0,0,1-4.2-4.2Zm7.682,4.769a10.823,10.823,0,0,1,7.306,9.113.863.863,0,0,1-.216.661.853.853,0,0,1-.637.282H8.861a.848.848,0,0,1-.847-.943,10.818,10.818,0,0,1,7.306-9.115,5.9,5.9,0,1,1,6.96,0Z" transform="translate(-8.009 -28.001)" fill="#242222" fill-rule="evenodd"/>
    </g>
  </g>
</svg>
