<svg id="Grupo_1195824" data-name="Grupo 1195824" xmlns="http://www.w3.org/2000/svg" xmlns:xlink="http://www.w3.org/1999/xlink" width="263.28" height="636.832" viewBox="0 0 263.28 636.832">
  <defs>
    <clipPath id="clip-path">
      <rect id="Rectángulo_461479" data-name="Rectángulo 461479" width="263.28" height="636.832" fill="none"/>
    </clipPath>
    <clipPath id="clip-path-2">
      <rect id="Rectángulo_461478" data-name="Rectángulo 461478" width="263.278" height="636.832" fill="none"/>
    </clipPath>
    <clipPath id="clip-path-3">
      <rect id="Rectángulo_461469" data-name="Rectángulo 461469" width="21.145" height="37.227" fill="none"/>
    </clipPath>
    <clipPath id="clip-path-4">
      <rect id="Rectángulo_461470" data-name="Rectángulo 461470" width="19.312" height="18.348" fill="none"/>
    </clipPath>
    <clipPath id="clip-path-5">
      <rect id="Rectángulo_461471" data-name="Rectángulo 461471" width="12.373" height="29.939" fill="none"/>
    </clipPath>
    <clipPath id="clip-path-6">
      <rect id="Rectángulo_461472" data-name="Rectángulo 461472" width="62.06" height="48.477" fill="none"/>
    </clipPath>
    <clipPath id="clip-path-7">
      <rect id="Rectángulo_461473" data-name="Rectángulo 461473" width="48.662" height="26.318" fill="none"/>
    </clipPath>
    <clipPath id="clip-path-8">
      <rect id="Rectángulo_461474" data-name="Rectángulo 461474" width="41.417" height="7.486" fill="none"/>
    </clipPath>
    <clipPath id="clip-path-9">
      <rect id="Rectángulo_461475" data-name="Rectángulo 461475" width="60.38" height="63.523" fill="none"/>
    </clipPath>
    <clipPath id="clip-path-10">
      <rect id="Rectángulo_461476" data-name="Rectángulo 461476" width="14.031" height="24.157" fill="none"/>
    </clipPath>
    <clipPath id="clip-path-11">
      <rect id="Rectángulo_461477" data-name="Rectángulo 461477" width="8.139" height="11.544" fill="none"/>
    </clipPath>
  </defs>
  <g id="Grupo_1195823" data-name="Grupo 1195823" clip-path="url(#clip-path)">
    <g id="Grupo_1195822" data-name="Grupo 1195822">
      <g id="Grupo_1195821" data-name="Grupo 1195821" clip-path="url(#clip-path-2)">
        <path id="Trazado_1111256" data-name="Trazado 1111256" d="M178.248,143.785c0,7.089-39.671,12.835-88.61,12.835S1.022,150.874,1.022,143.785,40.7,130.95,89.637,130.95s88.61,5.745,88.61,12.835" transform="translate(3.748 480.213)" fill="#b25f14"/>
        <path id="Trazado_1111257" data-name="Trazado 1111257" d="M26.337,19.965a5.179,5.179,0,0,0,.681.35,4.092,4.092,0,0,1-.681-.35" transform="translate(96.582 73.215)" fill="#adadad"/>
        <path id="Trazado_1111258" data-name="Trazado 1111258" d="M25.568,19.4c.257.257.518.495.8.728-.28-.233-.541-.471-.8-.728" transform="translate(93.762 71.132)" fill="#adadad"/>
        <path id="Trazado_1111259" data-name="Trazado 1111259" d="M25.12,18.854a6.932,6.932,0,0,0,.611.849,8.229,8.229,0,0,1-.611-.849" transform="translate(92.119 69.14)" fill="#adadad"/>
        <path id="Trazado_1111260" data-name="Trazado 1111260" d="M24.985,18.633a10.06,10.06,0,0,0,.541.891,10.06,10.06,0,0,1-.541-.891" transform="translate(91.624 68.33)" fill="#adadad"/>
        <path id="Trazado_1111261" data-name="Trazado 1111261" d="M75.5,97.777,74.4,107.293,67.8,165.576l-.331,2.88L67.1,171.8c-14.053,3.883-24.442,2.506-30.528.327-4.345-1.507-6.371-2.007-6.371-2.007-.35-1.685-.635-5.652-.9-8.424-.112-1.181-.2-2.446-.308-3.776-1.134-16.783-1.087-44.973-.957-60.906.065-6.851.149-11.435.149-11.845A128.046,128.046,0,0,0,75.5,97.777" transform="translate(102.57 312.316)" fill="#96a19b"/>
        <path id="Trazado_1111262" data-name="Trazado 1111262" d="M75.444,97.777l-1.092,9.516c-8.289,1.876-19.2-.047-25.357-1.419-5.629-1.246-14.884-4.322-21.011-8.863.065-6.851.149-11.435.149-11.845A128.046,128.046,0,0,0,75.444,97.777" transform="translate(102.621 312.316)" fill="#79827d"/>
        <path id="Trazado_1111263" data-name="Trazado 1111263" d="M66.661,111.292l-.369,3.337c-14.057,3.888-24.442,2.511-30.532.331-4.34-1.507-6.371-2.012-6.371-2.012-.35-1.68-.63-5.652-.9-8.42-.107-1.181-.2-2.446-.3-3.776a46.684,46.684,0,0,0,11.131,7.178c6.193,2.791,12.522,3.6,19.266,3.93a40.17,40.17,0,0,0,5.083.019c.919-.084,1.965-.434,2.992-.588" transform="translate(103.377 369.48)" fill="#79827d"/>
        <path id="Trazado_1111264" data-name="Trazado 1111264" d="M34.621,171.749l-.569-7.855-3.4-46.48L26.9,66.243c-1.377.546-48.053,19.075-11.477,110.7.63,1.638,1.33,3.295,2.026,4.975l17.786-1.811ZM48.347,123.22a10.71,10.71,0,0,1,6.744-9.95l12.937-5.129A88.564,88.564,0,0,0,55.613,93.434,89.247,89.247,0,0,0,39.7,81.257l1.223,24.591.873,17.7,2.73,55.6L59.324,177.6,48.566,125.4a12.422,12.422,0,0,1-.219-2.184" transform="translate(5.335 242.923)" fill="#96a19b"/>
        <path id="Trazado_1111265" data-name="Trazado 1111265" d="M17.548,104.038l10.758,52.2-14.795,1.55-2.726-55.6-.873-17.7A148.227,148.227,0,0,1,24.6,72.068,88.429,88.429,0,0,1,37.015,86.779L24.073,91.9a10.715,10.715,0,0,0-6.744,9.95,12.334,12.334,0,0,0,.219,2.184" transform="translate(36.352 264.284)" fill="#79827d"/>
        <path id="Trazado_1111266" data-name="Trazado 1111266" d="M24.259,97.208,6.473,99.019c-.7-1.68-1.4-3.337-2.026-4.975a72.31,72.31,0,0,1,7.5-2.618c3.687-.831,7.421-1.592,11.108-2.422a3.58,3.58,0,0,0,.588-.154Z" transform="translate(16.308 325.822)" fill="#79827d"/>
        <path id="Trazado_1111267" data-name="Trazado 1111267" d="M46.307,117.568c-21.791,11-35.676,10.692-41.519,9.731a5.223,5.223,0,0,1-4.126-3.4s-3.752,8.256,6.613,9.684a78.737,78.737,0,0,0,16.82-1.923,68.593,68.593,0,0,0,19.392-7.225,53.476,53.476,0,0,0,4.7-3.024l-.336-4.527c-.509.21-1.05.42-1.545.681m23.06-6.851a3.992,3.992,0,0,1-3.006,2.226c-3.542.541-7.976,1.433-11.612,2.254l.308,6.217s3.888.327,8.63.327c1.363,0,2.814-.023,4.247-.093a4.044,4.044,0,0,0,3.846-4.126,11.292,11.292,0,0,0-2.413-6.8" transform="translate(0.001 406.015)" fill="#bf7a00"/>
        <path id="Trazado_1111268" data-name="Trazado 1111268" d="M69.344,183.544l-4.732-17.152a44.19,44.19,0,0,1-.873-5.848,45.2,45.2,0,0,1-.219-5.218L64.392,90.1,49.6,91.652l3.776,76.439,1.111,22.7c3.645-.807,8.074-1.7,11.612-2.25a3.971,3.971,0,0,0,3.248-4.994M46.237,173.9,40.3,92.614,22.519,94.425,29.785,166.7A18.627,18.627,0,0,1,19.177,185.42L3.094,192.948a5.259,5.259,0,0,0,1.419,9.95c4.975.807,15.8,1.157,32.362-5.563,2.88-1.157,5.937-2.534,9.166-4.168a12.98,12.98,0,0,1,1.549-.677Z" transform="translate(0.266 330.421)" fill="#f6c600"/>
        <path id="Trazado_1111269" data-name="Trazado 1111269" d="M24.3,108.057l1.353,18.594a12.979,12.979,0,0,0-1.549.677c-3.23,1.634-6.287,3.01-9.166,4.168-.3.084-.611.173-.915.261-4.41,1.288-9.232,2.334-7.659-3.6,1.307-4.975,4.863-8.116,8.77-11.738q4.55-4.221,9.166-8.359" transform="translate(22.208 396.261)" fill="#ed9e00"/>
        <path id="Trazado_1111270" data-name="Trazado 1111270" d="M27.226,130.967a4.016,4.016,0,0,1-3.01,2.226c-3.538.546-7.967,1.437-11.612,2.245l-1.111-22.692c2.315-1.573,4.714-3.034,6.893-4.69.462-.373,2.054-1.727,3.472-2.861a43.961,43.961,0,0,0,.873,5.848l4.732,17.152a3.994,3.994,0,0,1-.238,2.772" transform="translate(42.147 385.765)" fill="#ed9e00"/>
        <path id="Trazado_1111271" data-name="Trazado 1111271" d="M57.64,214.389c-.023.35-.023.677-.023,1a61,61,0,0,1,6.917,12.527,8.214,8.214,0,0,1,.373,5.195,7.963,7.963,0,0,1-4.429,5.456c-8.793,4.037-24.4,1.265-24.4,1.265a8.448,8.448,0,0,1-5.895-4.41l-.065-.2-.915-2.072-.023-.042a20.511,20.511,0,0,1-1-5.829,12.831,12.831,0,0,0-.7-3.645c-3.314-9.488,1.811-32.707,1.811-32.707v-87.92l13.357,3.253c6.086,2.18,16.279,3.972,30.332.084l5.783-.957s-5.391,21.142-10.758,45.584C62.918,174.3,57.859,200.663,57.64,214.389" transform="translate(96.684 377.76)" fill="#f6c600"/>
        <path id="Trazado_1111272" data-name="Trazado 1111272" d="M63.061,130.885c3.892,5.139-1.148,8.938-1.148,8.938-12.853,8.21-31.667,1.853-31.667,1.853-5.045-2.394-2.931-10.791-2.931-10.791l.023.047a10.676,10.676,0,0,0,.915,2.086l.07.191a8.4,8.4,0,0,0,5.885,4.406s15.6,2.768,24.4-1.265a7.919,7.919,0,0,0,4.434-5.465Z" transform="translate(98.558 479.974)" fill="#bf7a00"/>
        <path id="Trazado_1111273" data-name="Trazado 1111273" d="M50.571,110.953c-5.083,23.326-12.587,60.589-12.807,74.315-.154-.107-.3-.219-.457-.308a16.165,16.165,0,0,1-4.149-4.448c-2.53-3.757-.873-7.29-.434-11.523.677-6.5,16.386-55.156,17.847-58.036" transform="translate(116.56 406.881)" fill="#ed9e00"/>
        <path id="Trazado_1111274" data-name="Trazado 1111274" d="M38.718,134.788a1.176,1.176,0,0,1-.957-.495,55.474,55.474,0,0,0-5.9-6.982,1.172,1.172,0,0,1,1.657-1.657,57.748,57.748,0,0,1,6.156,7.281,1.172,1.172,0,0,1-.275,1.634,1.151,1.151,0,0,1-.681.219" transform="translate(115.583 459.535)" fill="#bf7a00"/>
        <path id="Trazado_1111275" data-name="Trazado 1111275" d="M131.8,22.679c-2.161-.611-3.449-.9-3.449-.9l.177,1.484s1.372,21.32-23.154,24.442a11.948,11.948,0,0,1-1.526.084c-3.692-.042-16.741-1.4-18.221-19.266-2.488.261-4.91.565-7.225.961-3.538,15.733-6.721,25.226-9.386,30.92,1.092.238,34.066,7.659,60.906-1.377-.9-6.329-.9-17.3,1.876-36.352m7.771,2.422s.523,18.547-1.027,31.163c0,0,2.292,4.448,4.387,9.885a52.789,52.789,0,0,1,3.206,11.607,11.671,11.671,0,0,1,.784-1.4,37.442,37.442,0,0,1,3.6-4.648,51.04,51.04,0,0,1,8.4-7.509c4.6-3.23,8.181-5.475,13.791-6.259,2.03-.285,4.056-.462,6.086-.569V57.2c-3.925-17.264-25.595-27.368-39.232-32.1M9.581,80.57a41.409,41.409,0,0,1,6.287,1.591c5.652,1.792,13.964,5.414,19.812,12.331a28.413,28.413,0,0,1,4.387,6.833,25.162,25.162,0,0,0,2.53,4.644c1.269,1.834,2.992,3.692,5,4.368l.849.042a162.22,162.22,0,0,1,8.578-43.185C58.857,62,60.21,59.031,60.21,59.031l.2.047C62.912,47.97,70.441,31.1,70.441,31.1,23.7,42.472,9.581,80.57,9.581,80.57M174.443,71.6a3.72,3.72,0,0,1-3.645-1.045c-1.241-1.157-2.03-2.446-3.906-2.856-2.292-.527-4.168,1.372-5.979,2.618A31.414,31.414,0,0,0,155.7,75.2c-.719.784-1.419,1.615-2.1,2.4a16.93,16.93,0,0,0-3.188,5.479,18.529,18.529,0,0,1-.938,3.141l-.042.065c.219.131.457.261.7.439,1.918,1.33,2.9,4.056,3.4,6.151l.3.112a13,13,0,0,1,1.746-3.776,4.708,4.708,0,0,1,3.692-2.142V87.03c2.091-2.576,3.706-5.521,6.044-8.074.369-.415.761-.831,1.176-1.223a36.975,36.975,0,0,1,8.009-6.021Zm11.173,7.094c-1.2-3.164-6.352-2.553-8.751-1.657a26.577,26.577,0,0,0-4.975,2.506,26.275,26.275,0,0,0-8.574,9.078l-.089.065a7.61,7.61,0,0,1,1.549,3.5,22.345,22.345,0,0,1,.392,4.317c.065.023.131.023.219.047,1.764-3.08,4.34-6.59,7.136-7.225l-.065-.35c1.218-3.183,6.086-8.686,11.738-9.731a8.052,8.052,0,0,1,1.442-.2Z" transform="translate(35.135 79.881)" fill="#fff"/>
        <path id="Trazado_1111276" data-name="Trazado 1111276" d="M36.516,31.513A162.032,162.032,0,0,0,27.938,74.7l-.849-.042c-2.012-.677-3.729-2.534-5-4.368a25.5,25.5,0,0,1-2.53-4.644,28.118,28.118,0,0,0-4.382-6.833,8.707,8.707,0,0,1,1.111-1.484c4.275-4.648,5.8-7.943,6.086-14.468.065-1.788-.546-4.667.635-6.175,1.554-1.984,2.576-.5,4.667-.2,5,.7,6.837-2.072,8.844-4.975" transform="translate(55.642 115.563)" fill="#eaeaea"/>
        <path id="Trazado_1111277" data-name="Trazado 1111277" d="M41.779,33.949c-.9-.635-2.25-1.722-3.626-2.66A52.622,52.622,0,0,1,41.364,42.9a11.671,11.671,0,0,1,.784-1.4,37.441,37.441,0,0,1,3.6-4.648c-1.335-.985-2.665-1.965-3.972-2.9M79.42,44.38a6.378,6.378,0,0,0-.677-.023c-3.818.131-7.747.439-11.631.327a26.331,26.331,0,0,0-8.578,9.078l-.084.065A7.61,7.61,0,0,1,60,57.322a22.345,22.345,0,0,1,.392,4.317c.065.023.131.023.219.047,1.764-3.08,4.34-6.59,7.136-7.225l-.065-.35c1.218-3.183,6.086-8.686,11.738-9.731m-26.906-3.1c-.523-.3-1.069-.611-1.591-.938-.723.784-1.419,1.615-2.1,2.4a16.93,16.93,0,0,0-3.188,5.479,18.53,18.53,0,0,1-.938,3.141l-.042.065a7.63,7.63,0,0,1,.7.439c1.923,1.33,2.9,4.056,3.407,6.151l.3.112a13,13,0,0,1,1.746-3.776A4.707,4.707,0,0,1,54.5,52.212V52.17c2.1-2.576,3.71-5.521,6.049-8.074a25.271,25.271,0,0,1-8.032-2.814" transform="translate(139.913 114.741)" fill="#eaeaea"/>
        <path id="Trazado_1111278" data-name="Trazado 1111278" d="M25.608,31.538C29.813,39.766,45.056,45.786,53.643,42.3c-5.447,1.055-13.931-2.357-18.137-5.559a76.352,76.352,0,0,1-10.59-10.384,10.136,10.136,0,0,0,.691,5.181" transform="translate(91.08 96.655)" fill="#eaeaea"/>
        <path id="Trazado_1111279" data-name="Trazado 1111279" d="M35.783,58.333c-.891-6.333-.891-17.31,1.876-36.357,1.946.541,4.644,1.335,7.766,2.418,0,0,.513,18.552-1.036,31.172-.77,6.333-2.063,11.187-4.219,11.425,0,0-3.1.163-4.387-8.658" transform="translate(129.284 80.589)" fill="#dbba8f"/>
        <path id="Trazado_1111280" data-name="Trazado 1111280" d="M77.481,33.94A115.412,115.412,0,0,1,60.26,37.809C35.136,41.4,24.066,32.932,24.066,32.932S15.25,62.932,44.1,64.2l.308-.187-3.874-6.543a5.691,5.691,0,0,1,9.852-5.7l5.773,9.778c.145-.047.3-.117.443-.163L56.559,49.3a5.7,5.7,0,0,1,4.569-5.559,6.188,6.188,0,0,1,1.153-.117,5.721,5.721,0,0,1,5.671,5.722l.023,8.466q1.8-.49,3.589-.915c7.719-8.56,5.918-22.962,5.918-22.962" transform="translate(83.6 120.766)" fill="#ffe7c7"/>
        <path id="Trazado_1111281" data-name="Trazado 1111281" d="M31.15,25.053q3.836-.952,7.953-1.619c-3.519,15.742-6.711,25.24-9.386,30.915h-.023c-4.947,10.51-8.116,8-8.116,8-1.708-.891-1.545-4.574-.467-9.311C23.622,41.92,31.15,25.053,31.15,25.053" transform="translate(74.43 85.932)" fill="#dbba8f"/>
        <path id="Trazado_1111282" data-name="Trazado 1111282" d="M162.952,189.38c-2.184,52.328-19.336,113.734-19.336,113.734A128.046,128.046,0,0,1,96.31,290.5c-34.85-16.676-55.581-43.6-55.581-43.6-.588-.957-1.2-1.895-1.811-2.814a91.851,91.851,0,0,0-28.325-26.883l-1.2-24.4C23.9,182.6,33.224,169,39.2,155.693a127.037,127.037,0,0,0,9.974-36.814c.369-3.1.565-5.657.653-7.463a35.149,35.149,0,0,0-.177-5.479,132.673,132.673,0,0,1-.523-22.65A156,156,0,0,1,60.891,31.939l.2.042c-1.069,4.756-1.241,8.424.481,9.325,0,0,3.164,2.506,8.121-7.99h.019c1.092.238,34.066,7.659,60.906-1.377C131.855,40.451,134.8,40.6,135,40.6c2.156-.238,3.444-5.078,4.233-11.43,0,0,6.567,12.7,7.593,21.488-1.223,2.73-1.027,5.372-2.1,8.144l.131.215c-1.638,1.05-1.442,3.8-1.442,5.549,0,.933.023,1.876.065,2.81l.112,1.531a15.5,15.5,0,0,0-2.2-1.4,11.789,11.789,0,0,0-12.788,1.6c-2.642.439-5.26.985-7.878,1.591,7.7-8.555,5.913-22.958,5.913-22.958A114.651,114.651,0,0,1,109.425,51.6c-25.137,3.6-36.2-4.891-36.2-4.891S64.406,76.715,93.253,77.985l.308-.177,1.223,2.072C79.485,87.5,69.077,97.839,71.63,108.793a14.994,14.994,0,0,0,4.583,7.64,20.782,20.782,0,0,0,4.448,3.118l19.49,22.239,1.045.392a3.6,3.6,0,0,0-.089.812,3.526,3.526,0,0,0,1.531,2.9s-4.387,10.692,24.026,14.678l-.023.065s0,13.161,35.83,1.536l.042.168a203.722,203.722,0,0,1,.439,27.037" transform="translate(34.449 106.974)" fill="#ecd5b3"/>
        <path id="Trazado_1111283" data-name="Trazado 1111283" d="M15.169,61.765c2.67-.653,5.372.653,7.6,2.058a34.753,34.753,0,0,1,6.137,5.265,84.882,84.882,0,0,1,9.4,13.091c5.559,9.194,9.386,19.359,14.179,28.7a103.408,103.408,0,0,0,18.3,25.688,74.966,74.966,0,0,0,12.139,10.142,54.478,54.478,0,0,0,14.193,7.094c-10.478-2.4-19.789-8.606-27.592-15.943a99.771,99.771,0,0,1-19.117-25.9c-2.394-4.817-4.541-9.778-6.66-14.613-2.114-4.872-4.527-9.6-7-14.281a85.255,85.255,0,0,0-8.7-13.227,33.807,33.807,0,0,0-5.629-5.512,14.984,14.984,0,0,0-3.4-1.974,6.891,6.891,0,0,0-3.855-.593" transform="translate(55.627 225.866)" fill="#dbba8f"/>
        <path id="Trazado_1111284" data-name="Trazado 1111284" d="M20.009,62.926A97,97,0,0,0,28.354,70.8a101.79,101.79,0,0,0,9.04,6.977A91.634,91.634,0,0,0,57.421,88.39,70.36,70.36,0,0,0,79.5,92.95a60.416,60.416,0,0,0,11.351-.527,79.22,79.22,0,0,0,11.234-2.24,60.356,60.356,0,0,1-22.612,4.574A63.236,63.236,0,0,1,56.6,90.588a78.8,78.8,0,0,1-20.26-11.355,82.164,82.164,0,0,1-16.33-16.307" transform="translate(73.376 230.759)" fill="#dbba8f"/>
        <path id="Trazado_1111285" data-name="Trazado 1111285" d="M113.665,120.815a46.007,46.007,0,0,1-25.2-.28,147.207,147.207,0,0,1-24.941-10.319c-6.417-3.426-10.3-7.313-15.6-12.1-1.288-1.148-9.1-6.52-5.652-8.765,1.437-.966,4.975,2.049,6.763,2.072-2.464-3.01-4-6.5-6.763-9.3-5.741-5.853-13.292-11.743-17.306-19.075-1.7-3.141-3.318-10.468-.9-13.633a4.032,4.032,0,0,1,2.861-1.554,20.782,20.782,0,0,0,4.448,3.118l19.49,22.239,1.045.392a3.6,3.6,0,0,0-.089.812,3.526,3.526,0,0,0,1.531,2.9S48.964,88.024,77.378,92.01l-.023.065s0,13.161,35.83,1.535l.042.168a203.72,203.72,0,0,1,.439,27.037" transform="translate(83.737 175.539)" fill="#dbba8f"/>
        <path id="Trazado_1111286" data-name="Trazado 1111286" d="M74.11,127.648c-14.753-3.734-25.053-12.069-34.784-23.326C33.258,97.275,25.777,86.8,15.78,85.205a126.849,126.849,0,0,0,9.974-36.814c6.109,6.417,10.865,19.4,12.438,26.71,2.422,11.416,3.556,23.569,11.565,32.885,6.156,7.183,15.952,15.584,24.353,19.663" transform="translate(57.868 177.457)" fill="#dbba8f"/>
        <path id="Trazado_1111287" data-name="Trazado 1111287" d="M97.95,41.111a3.009,3.009,0,0,1,.495.3c3.514,2.488,2.226,6.571,4.83,9.362,3.332,3.589,6.147,4.877,5.745,10.366-.14,2.063-.891,3.986-.443,6.053.513,2.413,1.993,4.62,1.946,7.178-.07,4.5-1.853,9.876-5.7,12.335a61.391,61.391,0,0,1-3.589-5.372c-1.76-3.4-.868-8.069-1.619-11.845-.961-5.017-3.239-10.3-7.813-12.97-3.986-2.324-8.373-3.094-11.892-6.263-3.659-3.309-5.885-7.836-11.351-7.836a4.171,4.171,0,0,0-.541.023L68,42.1c-1.195-3.164-6.357-2.558-8.751-1.666A26.39,26.39,0,0,0,45.687,52.018l-.093.07a4.583,4.583,0,0,0-2.39-1.479,4.47,4.47,0,0,0-1.55-.14v-.047c2.418-2.978,4.224-6.473,7.225-9.288a37.548,37.548,0,0,1,8-6.03,28.778,28.778,0,0,1,5.465-2.226c4.83-1.409,9.829-2.086,13.745,1.736,2.931,2.838,3.706,6.17,8.513,6.217,4.34.023,9.339-2.091,13.348.28" transform="translate(152.755 116.48)" fill="#3b8944"/>
        <path id="Trazado_1111288" data-name="Trazado 1111288" d="M93.106,94.4c.891,3.939,4.714,7.131,4.224,11.542-.355,3.164-4.014,6.777-7.416,5.419a5.228,5.228,0,0,1-2.553-2.418c-1.9-3.4-1.923-8.653-7.015-8.513-2.11.07-3.566,1.83-5.769,1.591-2.278-.257-3.944-2.273-5.069-4.172a16.909,16.909,0,0,1-1.9-11.164,37.8,37.8,0,0,1,1.218-5.82c1.293-4.644,2.488-8.49-1.736-11.915-2.884-2.348-2.791-4.27-1.736-7.766,2.161-6.987,3.169-14.118-2.721-20.661-2.086-2.324-4.126-2.721-6.049-2.184-3.5.985-6.59,5.092-8.868,6.665a3.885,3.885,0,0,0-3.164-.658l-.075-.355c1.339-3.444,6.945-9.614,13.185-9.918a4.169,4.169,0,0,1,.541-.023c5.465,0,7.691,4.522,11.351,7.831,3.519,3.169,7.906,3.939,11.892,6.263,4.574,2.674,6.851,7.953,7.813,12.97.751,3.78-.14,8.448,1.619,11.845a61.39,61.39,0,0,0,3.589,5.372,9.227,9.227,0,0,1,1.708,5.96C95.944,88,92.168,90.32,93.106,94.4" transform="translate(163.111 124.859)" fill="#5ab16a"/>
        <path id="Trazado_1111289" data-name="Trazado 1111289" d="M107.989,39.391c3.118,1.335,6.03,6.45,5.815,9.852-.163,2.744-2.11,4.994-3.892,6.8-4.009-2.366-9.008-.257-13.348-.28-4.807-.047-5.582-3.379-8.513-6.217-3.916-3.822-8.914-3.141-13.745-1.736a28.786,28.786,0,0,0-5.465,2.231l-.047-.093a3.781,3.781,0,0,1-3.659-1.059c-1.246-1.148-2.016-2.436-3.892-2.861-2.3-.513-4.177,1.386-5.983,2.628a42.809,42.809,0,0,0-7.318,7.271,17.191,17.191,0,0,0-3.192,5.489,17.5,17.5,0,0,1-.938,3.146l-.047.07a5.986,5.986,0,0,0-4.737-.448,2.08,2.08,0,0,0-.518.261l-.117-.215c1.055-2.768.868-5.419,2.091-8.14a10.011,10.011,0,0,1,.775-1.4A47.712,47.712,0,0,1,53.267,42.532c4.6-3.211,8.186-5.465,13.791-6.259,2.04-.285,4.056-.448,6.1-.565l1.9-.14a12.132,12.132,0,0,1,9.992-7.6c2.651-.373,6.072-.607,8.4.961,2.348,1.573,2.156,4.014,3.356,6.24,2.46,4.457,7.318,2.558,11.187,4.224" transform="translate(140.793 101.548)" fill="#5ab16a"/>
        <path id="Trazado_1111290" data-name="Trazado 1111290" d="M58.626,65.745c4.224,3.426,3.024,7.271,1.736,11.915a37.261,37.261,0,0,0-1.218,5.82l-.238-.028a7.643,7.643,0,0,0-4.056-3.258c-.023-.023-.023-.023-.047-.023-1.713-.588-4.48-.07-6.03-1.265-2.063-1.573-1.643-3.99-.775-6.193.471-1.246,1.1-2.441,1.479-3.4,1.358-3.332.023-4.364-1.55-7.015a8.505,8.505,0,0,1-.868-2.04,9.371,9.371,0,0,1,.775-6.4,20.052,20.052,0,0,0,1.97-10.884,23.535,23.535,0,0,0-.961-5.419,8.7,8.7,0,0,1-.63-2.016l-.1-.4c1.928-.537,3.967-.14,6.053,2.184,5.89,6.543,4.877,13.675,2.721,20.661-1.055,3.5-1.148,5.419,1.736,7.766" transform="translate(171.581 128.062)" fill="#3b8944"/>
        <path id="Trazado_1111291" data-name="Trazado 1111291" d="M60.716,50.908l-.093.21s-1.171,2.6-3.332,6.45c-1.993-2.016-5.862.355-5.862.355a5.379,5.379,0,0,1-6.24-.331v-.023l1.83-11.3V46.24a21.49,21.49,0,0,0,2.016-3.332s1.736,2.3,4.807.518h.023c-.868,2.2-1.288,4.62.775,6.193,1.549,1.195,4.317.677,6.03,1.265.023,0,.023,0,.047.023" transform="translate(165.711 157.35)" fill="#175118"/>
        <path id="Trazado_1111292" data-name="Trazado 1111292" d="M56.262,42.8a20.087,20.087,0,0,1-1.97,10.884,9.344,9.344,0,0,0-.775,6.4l-2.931.257a15.612,15.612,0,0,0-5.559-7.528c1.713-3.118,4.359-8.7.677-11.187,2.278-1.573,5.372-5.68,8.868-6.665l.093.4a8.979,8.979,0,0,0,.635,2.016,23.535,23.535,0,0,1,.961,5.419" transform="translate(165.124 128.229)" fill="#2b6b2f"/>
        <path id="Trazado_1111293" data-name="Trazado 1111293" d="M54.028,47.041s3.869-2.371,5.862-.35C56.726,52.3,51.424,60.506,44.507,67.072l-.028-.023,3.309-20.335a5.392,5.392,0,0,0,6.24.327" transform="translate(163.111 168.231)" fill="#5ab16a"/>
        <path id="Trazado_1111294" data-name="Trazado 1111294" d="M50.773,42.39c1.573,2.651,2.908,3.682,1.55,7.015-.378.961-1.008,2.156-1.479,3.4H50.82c-3.071,1.783-4.807-.513-4.807-.513a15.208,15.208,0,0,0,1.335-10.417,10.007,10.007,0,0,0-.373-1.265l2.931-.257a8.585,8.585,0,0,0,.868,2.04" transform="translate(168.736 147.969)" fill="#2b6b2f"/>
        <path id="Trazado_1111295" data-name="Trazado 1111295" d="M133.041,47.59A15.218,15.218,0,0,1,131.706,58a21.672,21.672,0,0,1-2.021,3.332v.023C121.97,72.1,103.39,81.086,83.947,85.659c-1.363.327-2.721.635-4.084.891a.023.023,0,0,1-.023.023A124.83,124.83,0,0,1,65.582,88.66h-.023c-3.169.285-6.263.425-9.218.425-10.207,0-18.463-1.666-24.232-4.789l-.023-.023h-.023C27.2,81.65,24.11,78.038,23.032,73.511c-2.558-10.958,7.859-21.3,23.149-28.9l3.542,6.025c-.775.378-1.545.751-2.273,1.153a6.22,6.22,0,0,0-1.339-.121,8.815,8.815,0,0,0-8.49,6.431c-5.8,4.644-8.751,9.5-7.743,13.791l.14.49V72.4c1.293,4.084,6.17,6.968,13.348,8.471.681.14,1.409.257,2.138.373A68.7,68.7,0,0,0,58.544,82h.023a.666.666,0,0,0,.3,0,117.327,117.327,0,0,0,23.457-3.192c.775-.187,1.573-.373,2.348-.56.327-.093.653-.187.985-.261A106.408,106.408,0,0,0,110.5,68.279c.7-.4,1.409-.8,2.063-1.2,9.549-5.792,14.944-12.312,13.628-17.871a8.346,8.346,0,0,0-2.861-4.434c1.27-1.853,2.488-3.706,3.589-5.652a2.376,2.376,0,0,1,.187-.331,15.634,15.634,0,0,1,5.563,7.533,10.007,10.007,0,0,1,.373,1.265" transform="translate(83.043 142.256)" fill="#b56b14"/>
        <path id="Trazado_1111296" data-name="Trazado 1111296" d="M122.292,43.627l-1.834,11.3v.023l-3.314,20.335.019.023c-5.89,5.587-12.919,9.992-20.839,10.669l-2.618-1.087L76.727,77.889a3.823,3.823,0,0,0-3.794,6.567l10.3,7.92s-3.491,1.662-10.062,1.069a41.48,41.48,0,0,1-10.865-2.618L49.714,86.658A3.567,3.567,0,0,0,45.48,88.4c-.107.261-.2.523-.285.765l-1.045-.392L24.665,66.538h.019l.023.023c5.759,3.122,14.029,4.779,24.222,4.779,2.968,0,6.067-.131,9.227-.415h.023a119.348,119.348,0,0,0,14.249-2.1l.023-.019c1.377-.243,2.726-.546,4.079-.9a122.643,122.643,0,0,0,24.857-8.62c9.143-4.406,16.671-9.778,20.9-15.668" transform="translate(90.45 159.987)" fill="#ca8741"/>
        <path id="Trazado_1111297" data-name="Trazado 1111297" d="M61.194,48.183a1.45,1.45,0,0,0-.173.327c-1.115,1.942-2.338,3.8-3.6,5.652-2.4,3.556-4.887,7.136-6.436,11.108-.261.677-.546,1.33-.873,2.007-1.353,2.992-2.992,6.044-3.491,9.1l.042.089c-.653.392-1.372.807-2.072,1.2A13.473,13.473,0,0,0,40.617,70.9c.131-.63.173-1.4.327-1.965A43.84,43.84,0,0,1,43.259,61.8c.415-1.008.826-2.012,1.223-3.015C45.7,55.818,46.9,52.855,48.3,49.928c.35-.807.742-1.615,1.157-2.4a41.237,41.237,0,0,1,2.114-3.972c1.769-3.076,4.345-6.59,7.136-7.225a3.883,3.883,0,0,1,3.164.653c3.687,2.488,1.045,8.074-.677,11.2" transform="translate(148.948 132.87)" fill="#ff6e41"/>
        <path id="Trazado_1111298" data-name="Trazado 1111298" d="M55.577,44.507c1.311,5.559-4.084,12.079-13.628,17.875l-.047-.093c.611-3.757,2.954-7.486,4.364-11.1,1.545-3.986,4.032-7.551,6.45-11.117a8.374,8.374,0,0,1,2.861,4.434" transform="translate(153.661 146.954)" fill="#7c4208"/>
        <path id="Trazado_1111299" data-name="Trazado 1111299" d="M55.891,45.256a43.79,43.79,0,0,0-2.119,3.972c-.411.784-.807,1.591-1.153,2.4-1.4,2.926-2.6,5.895-3.822,8.863-.392,1-.807,2.007-1.218,3.01a43.745,43.745,0,0,0-2.315,7.136c-.154.565-.2,1.33-.327,1.96a13.174,13.174,0,0,0-5.5-2.987,65.479,65.479,0,0,1,1.83-16.867c.219-.765.4-1.507.611-2.273.023-.084.047-.173.065-.261.593-2.292,1.2-4.625,1.876-6.893,0-.023,0-.023.023-.042.154-.527.308-1.05.5-1.573a12.819,12.819,0,0,1,1.746-3.776A4.81,4.81,0,0,1,53.73,37.4a7.592,7.592,0,0,1,1.55,3.491,21.679,21.679,0,0,1,.392,4.322c.065.019.131.019.219.042" transform="translate(144.629 131.171)" fill="#ce4520"/>
        <path id="Trazado_1111300" data-name="Trazado 1111300" d="M62.283,53.18c-1.2.681-2.464,1.353-3.776,1.97a110.239,110.239,0,0,1-21.058,7.743,10.558,10.558,0,0,1-.807-1.746,1.989,1.989,0,0,0,.023-.4,13.683,13.683,0,0,0-.873-4.84,13.351,13.351,0,0,1,3.664-8.793,12.966,12.966,0,0,1,3.514-2.66,13.351,13.351,0,0,1,6.263-1.55c.285,0,.588,0,.873.014a12.673,12.673,0,0,1,2.707.509,13.094,13.094,0,0,1,5.5,2.987,13.479,13.479,0,0,1,3.972,6.763" transform="translate(131.255 157.35)" fill="#ce4520"/>
        <path id="Trazado_1111301" data-name="Trazado 1111301" d="M49.225,42.883c-.2.527-.35,1.05-.5,1.577L48.7,44.5c-.677,2.268-1.288,4.606-1.876,6.9-.023.089-.047.173-.065.266-.219.761-.4,1.5-.611,2.268A65.644,65.644,0,0,0,44.315,70.8a12.385,12.385,0,0,0-2.707-.5l.023-.476a36.97,36.97,0,0,0-1.288-5.652c-.107-.569-.219-1.115-.327-1.68-.457-2.772-.677-5.521-.961-8.317-.285-2.772-.588-5.526-.761-8.27-.047-.5-.089-1.008-.112-1.531-.023-.345-.023-.7-.023-1.045-.042-.588-.042-1.176-.042-1.764,0-1.746-.2-4.494,1.442-5.549a1.554,1.554,0,0,1,.5-.261,6.105,6.105,0,0,1,4.76.439c.215.131.457.261.7.439,1.923,1.325,2.9,4.06,3.407,6.156Z" transform="translate(139.753 129.983)" fill="#ff6e41"/>
        <path id="Trazado_1111302" data-name="Trazado 1111302" d="M47.807,48.558l-.023.495c-.28-.023-.588-.023-.891-.023a13.4,13.4,0,0,0-9.759,4.2,10.409,10.409,0,0,0,.4-2.861,11.019,11.019,0,0,0-1.106-4.807,2.931,2.931,0,0,0,.635.047,11.641,11.641,0,0,0,9.124-4.364c.093.565.21,1.1.331,1.666a41.869,41.869,0,0,1,1.288,5.652" transform="translate(133.587 151.233)" fill="#c6a209"/>
        <path id="Trazado_1111303" data-name="Trazado 1111303" d="M54.928,56.31a11.6,11.6,0,0,1-9.12,4.364,3.226,3.226,0,0,1-.635-.042,11.009,11.009,0,0,0-9.647-6.2H35.42a.91.91,0,0,1-.089-.2s0-.023-.019-.023a10.976,10.976,0,0,1-.938-2.511,11.688,11.688,0,0,1-.331-2.791,7.1,7.1,0,0,1,.07-1.027,11.435,11.435,0,0,1,4.1-7.962A11.756,11.756,0,0,1,51,38.327a12.309,12.309,0,0,1,2.119,1.335,1.071,1.071,0,0,1,.089.065c.173,2.749.476,5.5.761,8.27.285,2.791.5,5.54.961,8.312" transform="translate(124.841 136.154)" fill="#ff9f45"/>
        <path id="Trazado_1111304" data-name="Trazado 1111304" d="M53.949,51.828a10.456,10.456,0,0,1-.415,2.884,13.351,13.351,0,0,0-3.664,8.793A13.884,13.884,0,0,0,36.863,54.47a8.975,8.975,0,0,0-1.55.112,4.035,4.035,0,0,0-.7.084,9,9,0,0,0-1.087.224,4.791,4.791,0,0,0-.593.149h-.019l-.439.131a3.6,3.6,0,0,1-.131-.5,10.011,10.011,0,0,1-.327-1.657,11.056,11.056,0,0,1-.065-1.181,10.2,10.2,0,0,1,.373-2.744,10.873,10.873,0,0,1,10.6-8.247h.261a11,11,0,0,1,9.647,6.189,11.229,11.229,0,0,1,1.111,4.8" transform="translate(117.176 149.755)" fill="#f6c600"/>
        <path id="Trazado_1111305" data-name="Trazado 1111305" d="M57.788,57.638a1.963,1.963,0,0,1-.023.392,11.989,11.989,0,0,1-.173,2.007c-.784.177-1.573.373-2.357.569a118.929,118.929,0,0,1-23.457,3.188.851.851,0,0,1-.308,0h-.019a13.843,13.843,0,0,1-1.419-6.156,14.393,14.393,0,0,1,.891-4.933,12.065,12.065,0,0,1,.658-1.437,13.516,13.516,0,0,1,1.111-1.792,14,14,0,0,1,6.833-5.017c.149-.042.28-.089.434-.131h.023c.2-.065.392-.107.588-.154a9.047,9.047,0,0,1,1.092-.219,5.1,5.1,0,0,1,.588-.084.09.09,0,0,1,.107,0,3.147,3.147,0,0,1,.658-.065,5.559,5.559,0,0,1,.891-.047,13.879,13.879,0,0,1,13.007,9.036,13.586,13.586,0,0,1,.873,4.844" transform="translate(110.132 160.467)" fill="#ff9f45"/>
        <path id="Trazado_1111306" data-name="Trazado 1111306" d="M41.122,45.975h-.14a10.894,10.894,0,0,0-8.466,3.986l-.028-8.723c1.69-.495,3.4-.938,5.162-1.339.728-.163,1.433-.327,2.161-.462a7,7,0,0,0-.075,1,11.6,11.6,0,0,0,1.386,5.535" transform="translate(119.138 144.618)" fill="#7c4208"/>
        <path id="Trazado_1111307" data-name="Trazado 1111307" d="M36.067,39.322q3.941-.917,7.883-1.6A11.507,11.507,0,0,0,39.843,45.7c-.728.14-1.428.3-2.156.471-1.76.4-3.472.84-5.162,1.335l-.047-7.271c1.195-.327,2.394-.635,3.589-.915" transform="translate(119.102 138.347)" fill="#b56b14"/>
        <path id="Trazado_1111308" data-name="Trazado 1111308" d="M41.509,61.935V65.4a10.913,10.913,0,0,0-2.138,4.256l-1.134-1.942-4.3-7.29-.677-1.153h-.023L30.074,53.9v-.938L30.032,40.9a5.709,5.709,0,0,1,4.56-5.568,6.889,6.889,0,0,1,1.157-.107,5.7,5.7,0,0,1,5.671,5.717l.023,8.466v1.419l.042,5.848Z" transform="translate(110.132 129.175)" fill="#3b8944"/>
        <path id="Trazado_1111309" data-name="Trazado 1111309" d="M52.716,71.58A13.984,13.984,0,0,0,45.888,76.6l-1.008-1.68-1.526-2.595V72.3l-1.027-1.746L41.02,68.327,41,68.309a8.733,8.733,0,0,0-3.556-6.025l-1.615-2.726-3.533-6.044L31.07,51.437l-3.864-6.543A5.688,5.688,0,0,1,29.278,37.1a5.553,5.553,0,0,1,2.838-.742,5.631,5.631,0,0,1,4.933,2.833l5.759,9.778.457.742v.023l3.164,5.367h.023l.677,1.157,4.3,7.285,1.134,1.946a10.4,10.4,0,0,0-.369,2.749,11.267,11.267,0,0,0,.523,3.337" transform="translate(96.941 133.345)" fill="#5ab16a"/>
        <path id="Trazado_1111310" data-name="Trazado 1111310" d="M34.062,47.219,36.6,51.49a12.089,12.089,0,0,0-1.125,1.783,8.734,8.734,0,0,0-6.147-2.488,1.836,1.836,0,0,0-.355.023,8.879,8.879,0,0,0,2.744-7.6L34.062,47.2Z" transform="translate(106.237 158.457)" fill="#7c4208"/>
        <path id="Trazado_1111311" data-name="Trazado 1111311" d="M39.889,55.091a14.034,14.034,0,0,0,1.353,4.756,69.653,69.653,0,0,1-13.026-.761,6.817,6.817,0,0,1-.854-1.311,8.4,8.4,0,0,0,2.469-3.533,8.191,8.191,0,0,0,.588-3.1,8.382,8.382,0,0,0-.938-3.906.227.227,0,0,0-.112-.2,8.6,8.6,0,0,1,5.479-2.184h.023a1.719,1.719,0,0,1,.345-.023,8.751,8.751,0,0,1,6.156,2.488,11.7,11.7,0,0,0-.653,1.442,14.266,14.266,0,0,0-.9,4.933c0,.457.023.938.065,1.4" transform="translate(100.34 164.409)" fill="#c6a209"/>
        <path id="Trazado_1111312" data-name="Trazado 1111312" d="M43.5,50.41a9.164,9.164,0,0,1-.35,2.464s0-.019-.019,0a8.7,8.7,0,0,1-2.446,4.018H40.66a8.6,8.6,0,0,0-5.475,2.18,8.752,8.752,0,0,0-7.836-4.756,6.334,6.334,0,0,0-.653.023,6.9,6.9,0,0,1-.523-1.335,8.414,8.414,0,0,1-.4-2.595,9.353,9.353,0,0,1,.35-2.446,8.862,8.862,0,0,1,8.513-6.413,6.483,6.483,0,0,1,1.33.107,8.813,8.813,0,0,1,7.439,7.617l.023.023A9.538,9.538,0,0,1,43.5,50.41" transform="translate(94.524 152.377)" fill="#ce4520"/>
        <path id="Trazado_1111313" data-name="Trazado 1111313" d="M41.926,53.145a8.681,8.681,0,0,1-3.062,6.632,6.525,6.525,0,0,1-1.279.938A29.3,29.3,0,0,1,29.507,57.9c-2.73-1.484-4.564-3.379-5.283-5.652V52.23a8.9,8.9,0,0,1,7.486-7.859c.219-.019.434-.042.677-.065.224-.019.457-.019.653-.019a8.752,8.752,0,0,1,7.836,4.756.228.228,0,0,1,.112.2,8.453,8.453,0,0,1,.938,3.906" transform="translate(88.833 162.407)" fill="#f6c600"/>
        <path id="Trazado_1111314" data-name="Trazado 1111314" d="M32.091,42.928a8.457,8.457,0,0,0-.35,2.441,8.729,8.729,0,0,0,.915,3.916,8.846,8.846,0,0,0-8.163,7.929c-.047-.163-.093-.331-.145-.495-1.008-4.294,1.951-9.148,7.743-13.791" transform="translate(88.574 157.423)" fill="#7c4208"/>
        <path id="Trazado_1111315" data-name="Trazado 1111315" d="M27.96,42.478a19.19,19.19,0,0,1,2.273-1.148l1.62,2.744a8.439,8.439,0,0,0-3.892-1.6" transform="translate(102.533 151.563)" fill="#7c4208"/>
        <path id="Trazado_1111316" data-name="Trazado 1111316" d="M68.044,43.627l-1.834,11.3v.023L62.9,75.289l.019.023C57.025,80.9,50,85.3,42.076,85.981l-2.618-1.087a82.329,82.329,0,0,0,7.682-25.6c9.143-4.406,16.671-9.778,20.9-15.668" transform="translate(144.698 159.987)" fill="#bc7433"/>
        <g id="Grupo_1195796" data-name="Grupo 1195796" transform="translate(177.913 173.305)" opacity="0.34" style="mix-blend-mode: overlay;isolation: isolate">
          <g id="Grupo_1195795" data-name="Grupo 1195795">
            <g id="Grupo_1195794" data-name="Grupo 1195794" clip-path="url(#clip-path-3)">
              <path id="Trazado_1111317" data-name="Trazado 1111317" d="M55.776,73.075l.042.089c-.653.392-1.372.807-2.072,1.2A13.44,13.44,0,0,0,49.774,67.6a13.146,13.146,0,0,0-5.5-2.987,12.386,12.386,0,0,0-2.707-.5l.023-.481A37.864,37.864,0,0,0,40.3,57.976c-.107-.569-.219-1.115-.327-1.685-.457-2.768-.677-5.517-.961-8.312-.285-2.772-.588-5.521-.761-8.27-.047-.5-.089-1-.112-1.526-.023-.35-.023-.7-.023-1.05,1.442,4.037,3.906,7.444,8.6,8.336a.376.376,0,0,0,.173.047c.285,4.844,1.942,8.336,6.744,9.969.065.023.107.047.173.07a8.768,8.768,0,0,0,4.345,7.7c.411.261.784.5,1.111.719-1.353,2.992-2.987,6.044-3.491,9.1" transform="translate(-38.122 -37.133)"/>
            </g>
          </g>
        </g>
        <g id="Grupo_1195799" data-name="Grupo 1195799" transform="translate(118.341 204.776)" opacity="0.34" style="mix-blend-mode: overlay;isolation: isolate">
          <g id="Grupo_1195798" data-name="Grupo 1195798">
            <g id="Grupo_1195797" data-name="Grupo 1195797" clip-path="url(#clip-path-4)">
              <path id="Trazado_1111318" data-name="Trazado 1111318" d="M44.669,44.352a8.685,8.685,0,0,1-2.446,4.014H42.2a8.587,8.587,0,0,0-5.479,2.184.224.224,0,0,1,.107.2,8.4,8.4,0,0,1,.943,3.906,8.693,8.693,0,0,1-3.057,6.632,6.584,6.584,0,0,1-1.288.938,29.322,29.322,0,0,1-8.074-2.814,6.381,6.381,0,0,1,1.069-2.726c1.157-1.6,3.057-2.072,3.776-4.126,1.2-3.384-1.549-4.541-2.642-6.679a3.524,3.524,0,0,1-.392-1.2,3.112,3.112,0,0,1,.546-.2c3.514-1.265,5.937-.261,9.535.392,2.007.35,5.325.457,7.421-.523" transform="translate(-25.356 -43.876)"/>
            </g>
          </g>
        </g>
        <g id="Grupo_1195802" data-name="Grupo 1195802" transform="translate(139.268 180.004)" opacity="0.34" style="mix-blend-mode: overlay;isolation: isolate">
          <g id="Grupo_1195801" data-name="Grupo 1195801">
            <g id="Grupo_1195800" data-name="Grupo 1195800" clip-path="url(#clip-path-5)">
              <path id="Trazado_1111319" data-name="Trazado 1111319" d="M42.213,49.7a2.247,2.247,0,0,0,0,1.223v2.226A10.894,10.894,0,0,0,40.075,57.4a10.243,10.243,0,0,0-.373,2.754,11.121,11.121,0,0,0,.527,3.337A14,14,0,0,0,33.4,68.508l-1-1.68-1.526-2.595v-.023L29.84,62.464a.43.43,0,0,0,.065-.107c.635-1.2.35-3.3.765-4.648.588-1.923,1.461-3.734,2.18-5.629a25.409,25.409,0,0,1,1.792-3.906,17.746,17.746,0,0,1,3.4-4.06,19.377,19.377,0,0,0,4.1-5.545l.042,5.853.023,5.255Z" transform="translate(-29.84 -38.57)"/>
            </g>
          </g>
        </g>
        <g id="Grupo_1195805" data-name="Grupo 1195805" transform="translate(127.702 175.815)" opacity="0.34" style="mix-blend-mode: overlay;isolation: isolate">
          <g id="Grupo_1195804" data-name="Grupo 1195804">
            <g id="Grupo_1195803" data-name="Grupo 1195803" clip-path="url(#clip-path-6)">
              <path id="Trazado_1111320" data-name="Trazado 1111320" d="M89.421,74.354A110.235,110.235,0,0,1,68.363,82.1a10.737,10.737,0,0,1-.807-1.746,12.075,12.075,0,0,1-.173,2.007c-.789.173-1.573.369-2.357.569a118.554,118.554,0,0,1-23.462,3.183.664.664,0,0,1-.3,0h-.023a69.26,69.26,0,0,1-13.026-.765,6.623,6.623,0,0,1-.849-1.307,8.431,8.431,0,0,0,2.464-3.533c3.057-.9,6.329-1.157,9.078.3.308.154.635.35.98.546,1.834,1,4.191,2.18,5.937.961,1.988-1.4,1.811-3.645,4.541-4.322,2.66-.653,5.237-.154,7.113-2.642,1.508-1.965,1.157-4.126-.677-5.848-2.072-1.942-4.648-1.7-6.94-2.791a.548.548,0,0,1-.089-.065H49.75a2.406,2.406,0,0,1-.569-.373,1.281,1.281,0,0,1-.327-1.657,3.837,3.837,0,0,1,2.576-1.7c3.384-.807,6.543,1.461,9.689-.3,2.88-1.6,3.076-5.064,1.288-7.663a34.283,34.283,0,0,0-2.38-2.506l-.2-.2a.023.023,0,0,0-.023-.023c-.957-1.027-1.633-1.988-.938-2.511a3.275,3.275,0,0,1,1.7-.415c3.972-.173,8.466-.28,11.957-2.553,2.926-1.895,4.345-5.587,5.087-9.078a1.023,1.023,0,0,0,.084.065c.177,2.754.481,5.5.765,8.27.285,2.8.5,5.545.961,8.317A11.62,11.62,0,0,1,70.3,58.686a3.156,3.156,0,0,1-.63-.042,11.192,11.192,0,0,1,1.111,4.8,10.448,10.448,0,0,1-.415,2.88,13.085,13.085,0,0,1,3.514-2.66,7.631,7.631,0,0,0,.653,6.5c2.553,3.622,6.24,1.069,9.754,1.573a8.4,8.4,0,0,1,5.129,2.618" transform="translate(-27.362 -37.673)"/>
            </g>
          </g>
        </g>
        <path id="Trazado_1111321" data-name="Trazado 1111321" d="M118.862,16.88q-4.858.455-9.549,1.078a246.359,246.359,0,0,0-49.164,11.8,221.372,221.372,0,0,0-23.9,9.992s10.156,2.744,26.085,2.488h.023L64.84,56.43c-48.132,10.622-51.7-7.323-51.7-7.323S7.327,31.26,60.925,15.919c2.231-.635,4.55-1.265,6.991-1.9a317.3,317.3,0,0,1,41.5-9.054c20.265-2.861,41.8-3.052,48.949,7.015a7.365,7.365,0,0,1,1.293,4.9c-.565,5.839-5.559,19.21-38.467,27.349a6.747,6.747,0,0,0-3.757-4.83l.658-10.277h.07a145.705,145.705,0,0,0,22.472-13.2c-7.5-.023-14.776.327-21.768.961" transform="translate(47.517 11.981)" fill="#946724"/>
        <path id="Trazado_1111322" data-name="Trazado 1111322" d="M127.188,7.468c2.086.149,6-.779,8.6-1.041,1.26-.126,7.136-1.232,8.177-.233,1.923,1.844-1.932,7.565-3.188,8.98-1.423,1.6-3.43,2.53-5.209,3.664-4.252,2.712-7.99,5.423-12.835,7.131-16.7,5.89-34.038,10.692-51.553,13.189-9.768,1.391-19.359,4.27-29.193,5.19-7.416.691-16.26,1.2-22.911-2.721-3.99-2.352-4.943-5.479-.677-7.906a37.984,37.984,0,0,1,8.812-3.4,55.127,55.127,0,0,1,9.138-1.307c5.064-.513,10.24-2.427,15.168-3.673,6.875-1.741,13.553-4.233,20.437-5.895,7.85-1.895,15.542-3.617,23.322-5.862,5.255-1.512,10.361-1.96,15.719-2.595a57.644,57.644,0,0,0,11.155-2.012,22.692,22.692,0,0,1,5.036-1.512" transform="translate(57.258 21.197)" fill="#765216"/>
        <path id="Trazado_1111323" data-name="Trazado 1111323" d="M36.258,6.94c6.991-.635,14.263-.985,21.768-.961a145.705,145.705,0,0,1-22.472,13.2h-.07Z" transform="translate(130.121 21.921)" fill="#3f2805"/>
        <path id="Trazado_1111324" data-name="Trazado 1111324" d="M71.949,16.952a314.779,314.779,0,0,0-41.482,9.054c-2.446.635-4.76,1.269-7.005,1.9,0,0-.089-.457-.177-1.241C22.85,22.343,22.785,7.9,40.59,1.415A20.222,20.222,0,0,1,44.954.37,30.983,30.983,0,0,1,59.665,1.588c5.391,2.054,10.408,6.441,12.284,15.364" transform="translate(84.975 0.003)" fill="#765216"/>
        <path id="Trazado_1111325" data-name="Trazado 1111325" d="M43.071,15.888l.985,5.535h-.023c-15.924.257-26.085-2.488-26.085-2.488A221.112,221.112,0,0,1,41.853,8.943Z" transform="translate(65.818 32.795)" fill="#3f2805"/>
        <g id="Grupo_1195808" data-name="Grupo 1195808" transform="translate(108.259 1.592)" opacity="0.34" style="mix-blend-mode: overlay;isolation: isolate">
          <g id="Grupo_1195807" data-name="Grupo 1195807">
            <g id="Grupo_1195806" data-name="Grupo 1195806" clip-path="url(#clip-path-7)">
              <path id="Trazado_1111326" data-name="Trazado 1111326" d="M71.86,15.705A314.779,314.779,0,0,0,30.379,24.76c-2.446.635-4.76,1.269-7.005,1.9,0,0-.089-.457-.177-1.241A10.564,10.564,0,0,1,24.7,24.391c4.476-2.576,8.816-3.449,13.488-5.3,6.063-2.38,14.505-3.556,18.874-8.816a12.419,12.419,0,0,0,2.642-8.84C59.684,1.2,59.642.8,59.576.341,64.967,2.395,69.984,6.782,71.86,15.705" transform="translate(-23.196 -0.341)"/>
            </g>
          </g>
        </g>
        <path id="Trazado_1111327" data-name="Trazado 1111327" d="M43.162,6.185l-.481,7.4-.3,4.844L41.72,28.7a6,6,0,0,0-1.83-.588,6.164,6.164,0,0,0-2.292.065L34.542,12.49l-.849-4.452L33.6,7.254c3.122-.415,6.305-.765,9.558-1.069" transform="translate(123.231 22.681)" fill="#7c4208"/>
        <path id="Trazado_1111328" data-name="Trazado 1111328" d="M68.866,41.361S70.252,62.68,45.712,65.8a11.1,11.1,0,0,1-1.521.093c-3.682-.047-16.75-1.409-18.225-19.28-.047-.7-.093-1.409-.117-2.161,21.366,3.426,29.576-16.722,30.63-19.56.378-.355.751-.7,1.129-1.055,2.646-2.581,6.142-4.224,8.676-6.991L68.7,39.881Z" transform="translate(94.792 61.788)" fill="#fcbe95"/>
        <path id="Trazado_1111329" data-name="Trazado 1111329" d="M56.6,18.508a1.137,1.137,0,0,1-.093.3c-1.055,2.838-9.264,22.99-30.635,19.565q-.035-1.2,0-2.464l-.023-12.1a13.916,13.916,0,0,0,2.3,1.5,4.286,4.286,0,0,0,.677.355c.261.117.518.233.8.35a17.068,17.068,0,0,0,1.69.565C43.626,29.91,55.938,19.1,56.6,18.508" transform="translate(94.774 67.872)" fill="#d69270"/>
        <path id="Trazado_1111330" data-name="Trazado 1111330" d="M84.106,32.686a6.728,6.728,0,0,0-3.752-4.821,5.9,5.9,0,0,0-1.834-.588,6.07,6.07,0,0,0-2.292.065L73.175,11.652,72.321,7.2l-.089-.784a245.347,245.347,0,0,0-31.858,6.413c-6.282,1.7-12.065,3.538-17.306,5.391l1.223,6.94.985,5.545,2.488,14.183,1.176,6.632a40.041,40.041,0,0,1,5.367-7.29c2.007-2.292,5.391-3.99,8.84-4.886a19.147,19.147,0,0,1,5.955-.565,21.747,21.747,0,0,1,12.289,5.106c2.814,2.553,5.629,3.3,9.292,2.18,1.288-.392,3.015-1.942,4.564-2.576l-.373-3.379a7.007,7.007,0,0,0,2.618.5,6.713,6.713,0,0,0,6.613-7.92M37.187,31.095a2.894,2.894,0,0,1-2.9-2.88,2.841,2.841,0,0,1,2.9-2.9,2.891,2.891,0,1,1,0,5.783M58.88,29.326a2.892,2.892,0,1,1,2.926-2.88,2.9,2.9,0,0,1-2.926,2.88" transform="translate(84.597 23.525)" fill="#fcbe95"/>
        <path id="Trazado_1111331" data-name="Trazado 1111331" d="M62.163,37.471c-.658.588-12.97,11.4-25.287,8.069a17.068,17.068,0,0,1-1.69-.565,6.2,6.2,0,0,1-.8-.35,5.467,5.467,0,0,1-.677-.355,13.917,13.917,0,0,1-2.3-1.5c-.163-.14-.327-.257-.49-.425a10.72,10.72,0,0,1-.8-.723,13.092,13.092,0,0,1-1.479-1.69,9.121,9.121,0,0,1-.611-.845c-.023-.047-.07-.093-.093-.14-.187-.285-.373-.588-.537-.891a15.732,15.732,0,0,1-1.62-4.014c-.117-.443-.233-.891-.3-1.335l-1.153-6.567A39.891,39.891,0,0,1,29.7,18.849c2.016-2.3,5.4-3.99,8.844-4.882a19.215,19.215,0,0,1,5.96-.588,21.994,21.994,0,0,1,12.289,5.115c2.814,2.558,5.629,3.309,9.288,2.184,1.293-.4,3.006-1.951,4.55-2.581l1.246,11.631c-2.534,2.772-6.03,4.41-8.681,6.991-.373.355-.751.7-1.125,1.055a1.137,1.137,0,0,0,.093-.3" transform="translate(89.207 48.909)" fill="#ed804a"/>
        <path id="Trazado_1111332" data-name="Trazado 1111332" d="M33.029,10.084a2.9,2.9,0,1,1-2.908,2.908,2.905,2.905,0,0,1,2.908-2.908" transform="translate(110.458 36.979)"/>
        <path id="Trazado_1111333" data-name="Trazado 1111333" d="M28.38,10.461a2.9,2.9,0,1,1-2.908,2.908,3.035,3.035,0,0,1,.49-1.643,2.961,2.961,0,0,1,2.418-1.265" transform="translate(93.41 38.362)"/>
        <path id="Trazado_1111334" data-name="Trazado 1111334" d="M26.412,17.019a12.514,12.514,0,0,0,9.362,2.688,18.225,18.225,0,0,0,4.718-1.484l2.334-1.181a25.831,25.831,0,0,1,2.4-1.288,23.636,23.636,0,0,1-1.7,2.2,24.938,24.938,0,0,1-2.1,1.848,12.728,12.728,0,0,1-5.316,2.226,9.7,9.7,0,0,1-5.787-.971,8.525,8.525,0,0,1-3.906-4.037" transform="translate(96.857 57.772)" fill="#c1581e"/>
        <path id="Trazado_1111335" data-name="Trazado 1111335" d="M29.755,10.868a58.883,58.883,0,0,1,.21,9.544,86.575,86.575,0,0,1-1.008,9.428L28,28.781a49.505,49.505,0,0,1,7.155.971A50.151,50.151,0,0,1,28,30.717a.9.9,0,0,1-.966-.826V29.8l0-.145a92.865,92.865,0,0,1,.756-9.451,54.355,54.355,0,0,1,1.965-9.339" transform="translate(99.119 39.855)" fill="#c1581e"/>
        <path id="Trazado_1111336" data-name="Trazado 1111336" d="M24.518,14.222a7.553,7.553,0,0,1,2.371-2.9,9.369,9.369,0,0,1,3.449-1.666,7.833,7.833,0,0,1,3.888.014A6.413,6.413,0,0,1,37.483,11.6a33.752,33.752,0,0,0-3.472-.117,14.524,14.524,0,0,0-3.127.448,44.251,44.251,0,0,0-6.366,2.292" transform="translate(89.911 34.526)" fill="#7c4208"/>
        <path id="Trazado_1111337" data-name="Trazado 1111337" d="M29.136,12.865a11.709,11.709,0,0,1,3.729-2.609A15.223,15.223,0,0,1,37.28,8.972a12.654,12.654,0,0,1,4.658.327,8.525,8.525,0,0,1,3.967,2.348,31.747,31.747,0,0,0-4.266-.541,28.333,28.333,0,0,0-4.079.2c-2.735.322-5.433.989-8.424,1.563" transform="translate(106.846 32.607)" fill="#7c4208"/>
        <path id="Trazado_1111338" data-name="Trazado 1111338" d="M34.483,17.729a5.086,5.086,0,0,1,1.176-4.116,5.529,5.529,0,0,1,3.79-2,18.012,18.012,0,0,0-2.95,2.693,13.081,13.081,0,0,0-2.016,3.421" transform="translate(126.16 42.594)" fill="#b26b4d"/>
        <g id="Grupo_1195811" data-name="Grupo 1195811" transform="translate(124.975 28.866)" opacity="0.44">
          <g id="Grupo_1195810" data-name="Grupo 1195810">
            <g id="Grupo_1195809" data-name="Grupo 1195809" clip-path="url(#clip-path-8)">
              <path id="Trazado_1111339" data-name="Trazado 1111339" d="M68.194,6.185l-.481,7.4c-2.488-.369-4.8-.807-5.89-.915-.765-.065-1.507-.131-2.25-.177a120.044,120.044,0,0,0-19.747.523c-4.322.415-8.728.308-13.049.658A244.54,244.54,0,0,1,58.636,7.254c3.122-.415,6.305-.765,9.558-1.069" transform="translate(-26.776 -6.185)"/>
            </g>
          </g>
        </g>
        <path id="Trazado_1111340" data-name="Trazado 1111340" d="M41.919,202.986l-6.394-30.528L33.3,161.873a16.491,16.491,0,0,0-16.167-13.133H11.676l9.208-35.592c1.353,0,2.814-.023,4.233-.089l15.556,1.176.877,62.106Z" transform="translate(42.818 414.604)" fill="#3a3a3a"/>
        <path id="Trazado_1111341" data-name="Trazado 1111341" d="M58.057,133.836l8.611,41.118-8.844,3.729A53.905,53.905,0,0,1,12.319,177l-7.393-3.8,9.129-39.661A16.506,16.506,0,0,1,30.166,120.7H41.871a16.526,16.526,0,0,1,16.186,13.133" transform="translate(18.064 442.636)" fill="#686868"/>
        <path id="Trazado_1111342" data-name="Trazado 1111342" d="M29.528,113.335l-9.213,35.592L11.2,116.238l-1.881-.2a53.121,53.121,0,0,0,4.7-3.034h6.87s3.888.327,8.644.327" transform="translate(34.174 414.417)" fill="#262626"/>
        <path id="Trazado_1111343" data-name="Trazado 1111343" d="M36.417,146.543H30.154a16.55,16.55,0,0,0-16.1,12.83L4.928,199.025l.985-70.614.107-7.528a68.708,68.708,0,0,0,19.4-7.225l1.876.2Z" transform="translate(18.072 416.8)" fill="#3a3a3a"/>
        <path id="Trazado_1111344" data-name="Trazado 1111344" d="M4.926,174.12C7.054,162.708,9.434,151.353,11.852,140a64.273,64.273,0,0,1,2.114-8.6A17.613,17.613,0,0,1,28,120.653a36.1,36.1,0,0,1,4.48-.173l4.35-.028,4.35.023a18.692,18.692,0,0,1,4.564.471,17.608,17.608,0,0,1,12.909,12.074c.765,2.987,1.19,5.727,1.76,8.611l3.248,17.1c.994,5.717,2.072,11.416,3,17.147-1.447-5.624-2.749-11.276-4.13-16.914L58.65,142c-.677-2.777-1.251-5.759-1.937-8.387a15.563,15.563,0,0,0-4.331-6.8,15.329,15.329,0,0,0-7.131-3.682,16.231,16.231,0,0,0-4.07-.364l-4.35.023-4.35-.028a34.313,34.313,0,0,0-4.21.107,15.269,15.269,0,0,0-7.458,2.968,15.562,15.562,0,0,0-4.975,6.338,25.581,25.581,0,0,0-1.181,4L13.6,140.4C10.821,151.671,8,162.923,4.926,174.12" transform="translate(18.064 441.715)" fill="#262626"/>
        <g id="Grupo_1195814" data-name="Grupo 1195814" transform="translate(23.984 527.425)" opacity="0.3" style="mix-blend-mode: overlay;isolation: isolate">
          <g id="Grupo_1195813" data-name="Grupo 1195813">
            <g id="Grupo_1195812" data-name="Grupo 1195812" clip-path="url(#clip-path-9)">
              <path id="Trazado_1111345" data-name="Trazado 1111345" d="M65.518,176.533c-2.03-1.265-4.014-2.595-6.021-3.883-2.488-1.615-4.975-3.211-7.533-4.737A199.154,199.154,0,0,1,25.936,149.3c-6.329-5.195-12.419-10.692-18.2-16.237-.653-.63-1.591-1.419-2.595-2.268l.107-7.528a68.656,68.656,0,0,0,19.4-7.225,51.014,51.014,0,0,0,4.69-3.034h6.875s3.883.331,8.639.331c1.353,0,2.814-.023,4.233-.089l15.56,1.176Z" transform="translate(-5.139 -113.008)"/>
            </g>
          </g>
        </g>
        <path id="Trazado_1111346" data-name="Trazado 1111346" d="M13.962,49.567c1.6,0,2.884,2.651,2.884,5.913,0,3.234-1.288,5.885-2.884,5.885l-.327-.023c-1.433-.327-2.558-2.838-2.558-5.862,0-3.262,1.288-5.913,2.884-5.913" transform="translate(40.625 181.769)" fill="#4f3209"/>
        <path id="Trazado_1111347" data-name="Trazado 1111347" d="M32.681,331.962H25.807l-.327-4.518-7.29-99.877L9.854,113.7,6.625,69.384,6.1,62.159a3.451,3.451,0,0,0,3.342,2.534,2.6,2.6,0,0,0,.434-.023,3.4,3.4,0,0,0,2.992-3.622c-.047-.611-.089-1.246-.131-1.923l.369-.019c3.206-.457,4.933-2.926,5.848-5.806l.065,1.526,1.115,22.631,1.33,26.859,1.2,24.4,2.1,42.289,2.726,55.6,4.891,99.135Z" transform="translate(22.377 195.463)" fill="#765216"/>
        <path id="Trazado_1111348" data-name="Trazado 1111348" d="M21.107,61.676l-1.918-.2-4.7-.457L9.169,60.5H9.15a33.457,33.457,0,0,0-.112-3.626,27.556,27.556,0,0,1,1.638-7.4H10.7l6.478.261L18.9,49.8l2.53.089c-1.591,0-2.88,2.665-2.88,5.913,0,3.034,1.134,5.545,2.553,5.871" transform="translate(33.144 181.436)" fill="#765216"/>
        <g id="Grupo_1195817" data-name="Grupo 1195817" transform="translate(28.48 248.764)" opacity="0.3" style="mix-blend-mode: overlay;isolation: isolate">
          <g id="Grupo_1195816" data-name="Grupo 1195816">
            <g id="Grupo_1195815" data-name="Grupo 1195815" clip-path="url(#clip-path-10)">
              <path id="Trazado_1111349" data-name="Trazado 1111349" d="M19.021,54.827l1.111,22.631c-1.087-.742-2.18-1.531-3.314-2.292A108.692,108.692,0,0,0,6.625,69.384L6.1,62.159a3.451,3.451,0,0,0,3.337,2.53,3.271,3.271,0,0,0,.439-.019,3.393,3.393,0,0,0,2.987-3.622c-.042-.611-.084-1.246-.131-1.923l.373-.023c3.206-.457,4.933-2.922,5.848-5.8Z" transform="translate(-6.103 -53.301)"/>
            </g>
          </g>
        </g>
        <g id="Grupo_1195820" data-name="Grupo 1195820" transform="translate(42.184 230.914)" opacity="0.3" style="mix-blend-mode: overlay;isolation: isolate">
          <g id="Grupo_1195819" data-name="Grupo 1195819">
            <g id="Grupo_1195818" data-name="Grupo 1195818" clip-path="url(#clip-path-11)">
              <path id="Trazado_1111350" data-name="Trazado 1111350" d="M15.5,53.033a17.881,17.881,0,0,0-1,7.986L9.169,60.5H9.145a32.72,32.72,0,0,0-.107-3.622,27.461,27.461,0,0,1,1.638-7.4h.019l6.483.261a25.783,25.783,0,0,0-1.68,3.295" transform="translate(-9.04 -49.475)"/>
            </g>
          </g>
        </g>
        <path id="Trazado_1111351" data-name="Trazado 1111351" d="M66.823,58.527a48.621,48.621,0,0,0-9.232,4.845c-10.058,6.7-16.19,15.994-19.509,22.365A50.651,50.651,0,0,0,34.942,92.9v.023l-.261.3a19.115,19.115,0,0,1,6.459,10.692l-8.2-.327h-.023a27.508,27.508,0,0,0-1.638,7.4,33.326,33.326,0,0,1,.112,3.622,24.442,24.442,0,0,1-.961,6.833c-.915,2.88-2.642,5.344-5.848,5.8l-.369.023c.042.677.084,1.311.131,1.918a3.4,3.4,0,0,1-2.992,3.626,3.236,3.236,0,0,1-.434.019,3.452,3.452,0,0,1-3.342-2.53,71.486,71.486,0,0,1-1.722-7.855c-3.384-.7-5.367-3.36-6.483-6.637C-.365,112.862,3.91,97.372,3.91,97.372c0-3.164,5.153-6.791,5.153-6.791l1-16.886a25.588,25.588,0,0,1,3.556-11.785C20.212,51,32.365,40.741,37.6,36.62c1.465-1.157,2.38-1.834,2.488-1.9,7.29,2.292,18.963,7.659,24.2,19.159a25.279,25.279,0,0,0,2.53,4.648" transform="translate(10.908 127.323)" fill="#fcbe95"/>
        <path id="Trazado_1111352" data-name="Trazado 1111352" d="M9.842,51.839l10.016.985c-1.1,7.5-10.93,7.365-10.93,7.365l-.07-1.521a24.163,24.163,0,0,0,.961-6.828Z" transform="translate(32.48 190.101)" fill="#d69270"/>
        <path id="Trazado_1111353" data-name="Trazado 1111353" d="M7.4,70.1a1.174,1.174,0,0,1-1.153-.975c-1.237-7.234-1.288-13.586-.154-18.879a1.174,1.174,0,0,1,2.3.49c-1.073,5-1.013,11.056.168,18A1.169,1.169,0,0,1,7.6,70.079a1,1,0,0,1-.2.019" transform="translate(19.347 180.85)" fill="#b26b4d"/>
        <path id="Trazado_1111354" data-name="Trazado 1111354" d="M9.128,73.692a1.175,1.175,0,0,1-1.171-1.106c-.509-8.784-.863-21.6-.868-21.73a1.174,1.174,0,0,1,1.139-1.209H8.26A1.176,1.176,0,0,1,9.431,50.79c0,.126.359,12.914.868,21.66a1.177,1.177,0,0,1-1.1,1.241h-.07" transform="translate(25.992 182.063)" fill="#b26b4d"/>
        <path id="Trazado_1111355" data-name="Trazado 1111355" d="M6.385,65.672a1.17,1.17,0,0,1-1.111-.789C3.058,58.447,3.963,50.107,4,49.762a1.152,1.152,0,0,1,1.3-1.036,1.17,1.17,0,0,1,1.036,1.3c-.009.075-.882,8.167,1.162,14.1a1.168,1.168,0,0,1-.728,1.484,1.1,1.1,0,0,1-.383.065" transform="translate(13.884 178.634)" fill="#b26b4d"/>
        <path id="Trazado_1111356" data-name="Trazado 1111356" d="M39.615,58.527a48.622,48.622,0,0,0-9.232,4.845c-.415-1.265-.719-2.422-1-3.057C27.742,56.432,26.062,52.24,23.6,48.8c-3.491-4.91-8.532-8.578-13.2-12.177,1.465-1.157,2.38-1.834,2.488-1.9,7.29,2.292,18.963,7.659,24.2,19.159a25.279,25.279,0,0,0,2.53,4.648" transform="translate(38.116 127.323)" fill="#d69270"/>
        <path id="Trazado_1111357" data-name="Trazado 1111357" d="M26.94,47.383A50,50,0,0,0,23.8,54.542,55.644,55.644,0,0,0,6.013,49.021c3.272-2.054,8.27-4.168,12.853-3.8,2.749.243,5.783.635,8.074,2.161" transform="translate(22.051 165.682)" fill="#d69270"/>
        <path id="Trazado_1111358" data-name="Trazado 1111358" d="M19.184,53.349a1.151,1.151,0,0,1-.751-.275,23.449,23.449,0,0,0-10.24-4.831,1.171,1.171,0,1,1,.355-2.315,25.423,25.423,0,0,1,11.388,5.349,1.167,1.167,0,0,1,.145,1.652,1.147,1.147,0,0,1-.9.42" transform="translate(26.396 168.374)" fill="#b26b4d"/>
        <path id="Trazado_1111359" data-name="Trazado 1111359" d="M9.781,70.675a1.226,1.226,0,0,1-.359-.056,1.173,1.173,0,0,1-.761-1.475,23.059,23.059,0,0,0,.905-6.483,30.88,30.88,0,0,0-.107-3.5,1.18,1.18,0,0,1,0-.257,29.337,29.337,0,0,1,1.722-7.7,6.556,6.556,0,0,1,1.125-1.956,1.173,1.173,0,0,1,1.722,1.591,5.572,5.572,0,0,0-.681,1.26A26.906,26.906,0,0,0,11.8,59.049a32.266,32.266,0,0,1,.112,3.654A25.5,25.5,0,0,1,10.9,69.858a1.168,1.168,0,0,1-1.115.817" transform="translate(31.556 179.265)" fill="#b26b4d"/>
        <path id="Trazado_1111360" data-name="Trazado 1111360" d="M143.959,70.153a40.285,40.285,0,0,1-8.116,9.208c-12.527,11-32.735,21.035-36.814,23.023a9.13,9.13,0,0,1-1.442.63c-2.53.938-4.928,1.769-7.178,2.488-35.83,11.631-35.83-1.526-35.83-1.526l.023-.065c-28.414-4-24.026-14.687-24.026-14.687a3.546,3.546,0,0,1-1.442-3.706c.089-.243.177-.5.285-.765a3.567,3.567,0,0,1,4.233-1.746l12.592,4.168a41.859,41.859,0,0,0,10.865,2.618c6.571.588,10.062-1.069,10.062-1.069l-10.3-7.92a3.827,3.827,0,0,1,3.794-6.571l19.6,8.1c7.92-.677,14.949-5.083,20.839-10.669a76.554,76.554,0,0,0,8.774-10.1,99.2,99.2,0,0,0,6.609-10.277c2.161-3.841,3.342-6.459,3.342-6.459l.089-.2a7.571,7.571,0,0,1,4.056,3.248l.243.023a16.854,16.854,0,0,0,1.895,11.173c1.139,1.9,2.8,3.906,5.064,4.168,2.2.238,3.668-1.526,5.783-1.591,5.087-.135,5.106,5.106,7.005,8.508" transform="translate(106.512 163.643)" fill="#fcbe95"/>
        <path id="Trazado_1111361" data-name="Trazado 1111361" d="M80.448,70.153a40.285,40.285,0,0,1-8.116,9.208c-.285-.392-.569-.784-.854-1.157A32.98,32.98,0,0,0,64,71.329c-2.422-1.722-4.606-3.99-7.29-5.344-1.811-.938-3.883-1.484-5.741-2.4-1.484-.723-3.076-1.419-4.6-2.03a99.2,99.2,0,0,0,6.609-10.277c2.161-3.841,3.342-6.459,3.342-6.459l.089-.2a7.571,7.571,0,0,1,4.056,3.248l.243.023A16.854,16.854,0,0,0,62.6,59.069c1.139,1.9,2.8,3.906,5.064,4.168,2.2.238,3.668-1.526,5.783-1.591,5.087-.135,5.106,5.106,7.005,8.508" transform="translate(170.024 163.643)" fill="#d69270"/>
        <path id="Trazado_1111362" data-name="Trazado 1111362" d="M51.835,63.964c-9.386,0-17.707-4.737-22.216-7.9a1.172,1.172,0,1,1,1.349-1.918C35,56.968,45.539,63.306,56.483,61.178a1.172,1.172,0,1,1,.448,2.3,26.562,26.562,0,0,1-5.1.485" transform="translate(106.787 197.769)" fill="#b26b4d"/>
        <path id="Trazado_1111363" data-name="Trazado 1111363" d="M55.526,62.09c-1.792-.187-3.472-.373-5.05-.579-.756-.107-1.489-.219-2.2-.336C41.095,60.009,35.62,58.282,32,56.046a1.172,1.172,0,1,0-1.232,1.993c3.888,2.4,9.652,4.233,17.133,5.451.723.121,1.475.233,2.264.341,1.6.215,3.3.4,5.12.593l.121,0a1.172,1.172,0,0,0,.121-2.338" transform="translate(110.788 204.885)" fill="#b26b4d"/>
      </g>
    </g>
  </g>
</svg>
