<svg id="informacion" xmlns="http://www.w3.org/2000/svg" width="61.173" height="68.659" viewBox="0 0 61.173 68.659">
  <path id="Trazado_1111448" data-name="Trazado 1111448" d="M280.655,305.361l-7.093-7.093a19.178,19.178,0,0,1-3.206,3.206l7.093,7.093Z" transform="translate(-237.844 -258.27)" fill="#8abbd5"/>
  <path id="Trazado_1111449" data-name="Trazado 1111449" d="M279.02,318.171l-7-7a19.184,19.184,0,0,1-1.665,1.476l7.093,7.093Z" transform="translate(-237.845 -269.445)" fill="#6cabca"/>
  <g id="Grupo_1195845" data-name="Grupo 1195845" transform="translate(39.112 46.598)">
    <g id="Grupo_1195844" data-name="Grupo 1195844" transform="translate(0 0)">
      <path id="Trazado_1111450" data-name="Trazado 1111450" d="M325.4,347.913a1.455,1.455,0,0,0-2.058,0L320,351.252a1.455,1.455,0,0,0,0,2.058l2.408,2.408,5.4-5.4Z" transform="translate(-319.574 -347.487)" fill="#d8ecfe"/>
    </g>
    <path id="Trazado_1111451" data-name="Trazado 1111451" d="M323.41,352.976a1.455,1.455,0,0,1,0-2.058l2.5-2.5-.509-.509a1.455,1.455,0,0,0-2.058,0L320,351.252a1.455,1.455,0,0,0,0,2.058l2.408,2.408,1.871-1.872Z" transform="translate(-319.574 -347.486)" fill="#c4e2ff"/>
  </g>
  <g id="Grupo_1195846" data-name="Grupo 1195846" transform="translate(41.946 49.432)">
    <path id="Trazado_1111452" data-name="Trazado 1111452" d="M358.288,383.89l-2.31,2.31a2.183,2.183,0,0,1-3.087,0l-12.185-12.185,5.4-5.4L358.288,380.8A2.183,2.183,0,0,1,358.288,383.89Z" transform="translate(-340.706 -368.618)" fill="#2ed1e2"/>
  </g>
  <g id="Grupo_1195847" data-name="Grupo 1195847" transform="translate(41.946 49.432)">
    <path id="Trazado_1111453" data-name="Trazado 1111453" d="M346.4,373.067l2.075-2.074-2.374-2.374-5.4,5.4L352.891,386.2a2.183,2.183,0,0,0,3.087,0l.831-.831L346.4,374.963A1.341,1.341,0,0,1,346.4,373.067Z" transform="translate(-340.706 -368.618)" fill="#03bed7"/>
  </g>
  <path id="Trazado_1111454" data-name="Trazado 1111454" d="M78.391,86.988H69.563a.671.671,0,0,0-.474.2L64.276,92a.671.671,0,0,1-1.145-.474V87.658a.671.671,0,0,0-.671-.671H57.315a.671.671,0,0,1-.67-.67v-16.6A19.077,19.077,0,0,0,41.38,94.839H51.843a.4.4,0,0,1,.284.118l3.578,3.578a.4.4,0,0,1,.118.284v8.494A19.074,19.074,0,0,0,78.458,88.585C78.458,88.047,78.434,87.514,78.391,86.988Z" transform="translate(-38.664 -60.369)" fill="#00f2a6"/>
  <path id="Trazado_1111455" data-name="Trazado 1111455" d="M102.2,115.564H97.754a.671.671,0,0,0-.474.2l-4.813,4.813a.671.671,0,0,1-1.145-.474v-3.865a.671.671,0,0,0-.67-.67H85.506a.671.671,0,0,1-.671-.671V102.72a14.705,14.705,0,0,0-10.556,20.7h5.753a.4.4,0,0,1,.284.118l3.578,3.578a.4.4,0,0,1,.118.284v4.026a14.708,14.708,0,0,0,18.269-14.261A14.877,14.877,0,0,0,102.2,115.564Z" transform="translate(-66.855 -88.945)" fill="#d8ecfe"/>
  <g id="Grupo_1195848" data-name="Grupo 1195848" transform="translate(6.031 13.775)">
    <path id="Trazado_1111456" data-name="Trazado 1111456" d="M79.928,123.415A14.7,14.7,0,0,1,84.837,105.1V102.72a14.705,14.705,0,0,0-10.556,20.7Z" transform="translate(-72.887 -102.72)" fill="#b3dafe"/>
  </g>
  <g id="Grupo_1195853" data-name="Grupo 1195853" transform="translate(17.981 1.006)">
    <g id="Grupo_1195849" data-name="Grupo 1195849">
      <path id="Trazado_1111457" data-name="Trazado 1111457" d="M186.942,7.5H162.669a.671.671,0,0,0-.67.67V32.443a.671.671,0,0,0,.67.671h5.145a.671.671,0,0,1,.671.67v3.865a.671.671,0,0,0,1.145.474l4.813-4.813a.67.67,0,0,1,.474-.2h12.025a.671.671,0,0,0,.67-.67V8.17A.671.671,0,0,0,186.942,7.5Z" transform="translate(-161.999 -7.5)" fill="#2ed1e2"/>
    </g>
    <g id="Grupo_1195851" data-name="Grupo 1195851">
      <g id="Grupo_1195850" data-name="Grupo 1195850">
        <path id="Trazado_1111458" data-name="Trazado 1111458" d="M166.558,32.443V8.17a.671.671,0,0,1,.671-.67h-4.559a.671.671,0,0,0-.67.67V32.443a.671.671,0,0,0,.67.671h4.559A.67.67,0,0,1,166.558,32.443Z" transform="translate(-161.999 -7.5)" fill="#03bed7"/>
      </g>
    </g>
    <g id="Grupo_1195852" data-name="Grupo 1195852" transform="translate(10.934 4.224)">
      <path id="Trazado_1111459" data-name="Trazado 1111459" d="M247.324,98.994h-3.789V89.082h3.495a.294.294,0,0,1,.294.294Z" transform="translate(-243.535 -82.366)" fill="#fff"/>
      <path id="Trazado_1111460" data-name="Trazado 1111460" d="M247.03,42.789h-3.2a.294.294,0,0,1-.294-.294v-3.2a.294.294,0,0,1,.294-.294h3.2a.294.294,0,0,1,.294.294v3.2A.3.3,0,0,1,247.03,42.789Z" transform="translate(-243.535 -39)" fill="#fff"/>
    </g>
  </g>
  <g id="Grupo_1195854" data-name="Grupo 1195854" transform="translate(44.101 30.559)">
    <path id="Trazado_1111461" data-name="Trazado 1111461" d="M366.271,237.777h-9.091a.4.4,0,0,1-.4-.4v-9.091a.4.4,0,0,1,.4-.4h9.091a.4.4,0,0,1,.4.4v9.091A.4.4,0,0,1,366.271,237.777Z" transform="translate(-356.777 -227.881)" fill="#00f2a6"/>
  </g>
  <g id="Grupo_1195855" data-name="Grupo 1195855" transform="translate(44.101 30.559)">
    <path id="Trazado_1111462" data-name="Trazado 1111462" d="M360.159,237.375v-9.091a.4.4,0,0,1,.4-.4h-3.382a.4.4,0,0,0-.4.4v9.091a.4.4,0,0,0,.4.4h3.382A.4.4,0,0,1,360.159,237.375Z" transform="translate(-356.777 -227.881)" fill="#05e39c"/>
  </g>
  <g id="Grupo_1195856" data-name="Grupo 1195856" transform="translate(22.562 51.952)">
    <path id="Trazado_1111463" data-name="Trazado 1111463" d="M202.6,394.25h-6.035a.4.4,0,0,1-.4-.4v-6.035a.4.4,0,0,1,.4-.4H202.6a.4.4,0,0,1,.4.4v6.035A.4.4,0,0,1,202.6,394.25Z" transform="translate(-196.162 -387.41)" fill="#fe646f"/>
  </g>
  <g id="Grupo_1195857" data-name="Grupo 1195857" transform="translate(22.562 51.952)">
    <path id="Trazado_1111464" data-name="Trazado 1111464" d="M199.09,393.848v-6.035a.4.4,0,0,1,.4-.4h-2.928a.4.4,0,0,0-.4.4v6.035a.4.4,0,0,0,.4.4h2.928A.4.4,0,0,1,199.09,393.848Z" transform="translate(-196.162 -387.41)" fill="#fd4755"/>
  </g>
  <g id="Grupo_1195858" data-name="Grupo 1195858" transform="translate(4.303 3.218)">
    <path id="Trazado_1111465" data-name="Trazado 1111465" d="M65.429,29.832H60.4a.4.4,0,0,1-.4-.4V24.4a.4.4,0,0,1,.4-.4h5.027a.4.4,0,0,1,.4.4v5.027A.4.4,0,0,1,65.429,29.832Z" transform="translate(-60 -24)" fill="#ffe177"/>
  </g>
  <g id="Grupo_1195859" data-name="Grupo 1195859" transform="translate(4.303 3.218)">
    <path id="Trazado_1111466" data-name="Trazado 1111466" d="M62.656,29.429V24.4a.4.4,0,0,1,.4-.4H60.4a.4.4,0,0,0-.4.4v5.027a.4.4,0,0,0,.4.4h2.656A.4.4,0,0,1,62.656,29.429Z" transform="translate(-60 -24)" fill="#ffc344"/>
  </g>
  <g id="Grupo_1195862" data-name="Grupo 1195862" transform="translate(1.006 34.47)">
    <g id="Grupo_1195860" data-name="Grupo 1195860" transform="translate(0)">
      <path id="Trazado_1111467" data-name="Trazado 1111467" d="M47.585,257.047H35.814a.4.4,0,0,0-.4.4v19.388a.4.4,0,0,0,.4.4H51.163a.4.4,0,0,0,.4-.4V261.028a.4.4,0,0,0-.118-.284l-3.578-3.578A.4.4,0,0,0,47.585,257.047Z" transform="translate(-35.412 -257.047)" fill="#ffe177"/>
    </g>
    <g id="Grupo_1195861" data-name="Grupo 1195861">
      <path id="Trazado_1111468" data-name="Trazado 1111468" d="M39.916,276.837V257.449a.4.4,0,0,1,.4-.4h-4.5a.4.4,0,0,0-.4.4v19.388a.4.4,0,0,0,.4.4h4.5A.4.4,0,0,1,39.916,276.837Z" transform="translate(-35.412 -257.047)" fill="#ffc344"/>
    </g>
  </g>
  <g id="Grupo_1195865" data-name="Grupo 1195865" transform="translate(47.884 9.602)">
    <g id="Grupo_1195863" data-name="Grupo 1195863">
      <path id="Trazado_1111469" data-name="Trazado 1111469" d="M393.687,71.607H385.4a.4.4,0,0,0-.4.4V85.7a.4.4,0,0,0,.4.4h10.794a.4.4,0,0,0,.4-.4V74.512a.4.4,0,0,0-.118-.284l-2.5-2.5A.4.4,0,0,0,393.687,71.607Z" transform="translate(-384.993 -71.607)" fill="#d8ecfe"/>
    </g>
    <g id="Grupo_1195864" data-name="Grupo 1195864" transform="translate(0 0)">
      <path id="Trazado_1111470" data-name="Trazado 1111470" d="M388.817,85.7V72.009a.4.4,0,0,1,.4-.4H385.4a.4.4,0,0,0-.4.4V85.7a.4.4,0,0,0,.4.4h3.824A.4.4,0,0,1,388.817,85.7Z" transform="translate(-384.993 -71.607)" fill="#c4e2ff"/>
    </g>
  </g>
  <g id="Grupo_1195866" data-name="Grupo 1195866" transform="translate(0 0)">
    <path id="Trazado_1111471" data-name="Trazado 1111471" d="M88.151,60.906l-4.764-4.764a1.006,1.006,0,1,0-1.422,1.422l4.764,4.764a1.177,1.177,0,0,1,0,1.665l-2.31,2.31a1.177,1.177,0,0,1-1.665,0L71.28,54.829l3.975-3.975,3.391,3.391a1.006,1.006,0,0,0,1.422-1.422l-6.51-6.51a2.464,2.464,0,0,0-2.71-.52l-5.9-5.9a19.96,19.96,0,0,0,3.76-11.682c0-.2,0-.394-.01-.591h2.134a1.678,1.678,0,0,0,1.676-1.676V16.494a1.006,1.006,0,1,0-2.011,0v9.119H58.811a1.666,1.666,0,0,0-1.185.491l-4.241,4.241V27.29a1.678,1.678,0,0,0-1.676-1.676H46.9V2.012H70.5V11.8a1.006,1.006,0,1,0,2.011,0V1.676A1.678,1.678,0,0,0,70.836,0H46.563a1.678,1.678,0,0,0-1.676,1.676V8.5A20.07,20.07,0,0,0,29.27,33.467a1.409,1.409,0,0,0-1.358,1.405V54.26a1.41,1.41,0,0,0,1.408,1.408h7.052a1.006,1.006,0,0,0,0-2.012H29.923V35.476H40.841L44.066,38.7V53.657h-3a1.006,1.006,0,0,0,0,2.012h3.6a1.41,1.41,0,0,0,1.408-1.408V48.122a20.039,20.039,0,0,0,14.246-3.6l5.895,5.895a2.461,2.461,0,0,0,.521,2.712L81.332,67.725a3.189,3.189,0,0,0,4.51,0l2.31-2.31a3.189,3.189,0,0,0,0-4.51ZM44.887,10.551v2.415a15.7,15.7,0,0,0-11.046,20.5H31.362A18.061,18.061,0,0,1,44.887,10.551Zm-2.8,23.326a1.4,1.4,0,0,0-1-.412H36a13.689,13.689,0,0,1,8.891-18.416v10.9a1.678,1.678,0,0,0,1.676,1.676h4.81v3.529a1.676,1.676,0,0,0,2.861,1.185l4.715-4.715h3.37c.009.2.014.393.014.591a13.688,13.688,0,0,1-16.257,13.45V38.451a1.4,1.4,0,0,0-.412-1Zm3.991,12.214V43.709A15.7,15.7,0,0,0,64.346,28.216c0-.2,0-.395-.012-.591h2.356c.007.2.011.393.011.591A18.056,18.056,0,0,1,46.077,46.091Zm15.829-2.827A20.248,20.248,0,0,0,63.69,41.48L69.3,47.091l-1.784,1.784Zm6.255,8.446a.45.45,0,0,1,0-.636L71.5,47.735a.45.45,0,0,1,.636,0l1.7,1.7-3.975,3.975Z" transform="translate(-27.912 0)"/>
    <path id="Trazado_1111472" data-name="Trazado 1111472" d="M240.535,37.3a1.3,1.3,0,0,0,1.3-1.3V32.8a1.3,1.3,0,0,0-1.3-1.3h-3.2a1.3,1.3,0,0,0-1.3,1.3V36a1.3,1.3,0,0,0,1.3,1.3Zm-2.489-3.789h1.778v1.778h-1.778Z" transform="translate(-208.125 -27.276)"/>
    <path id="Trazado_1111473" data-name="Trazado 1111473" d="M226.993,91.494a1.006,1.006,0,0,0,0,2.011H233.4a1.006,1.006,0,0,0,0-2.011h-.3V82.881a1.3,1.3,0,0,0-1.3-1.3h-4.848a1.006,1.006,0,0,0,0,2.012h.347v7.9Zm2.315-7.9h1.778v7.9h-1.778Z" transform="translate(-199.387 -70.641)"/>
    <path id="Trazado_1111474" data-name="Trazado 1111474" d="M350.685,220.381a1.41,1.41,0,0,0-1.408,1.408v9.091a1.41,1.41,0,0,0,1.408,1.408h9.091a1.41,1.41,0,0,0,1.408-1.408v-9.091a1.41,1.41,0,0,0-1.408-1.408Zm8.488,9.9h-7.885v-7.885h7.885Z" transform="translate(-306.182 -190.828)"/>
    <path id="Trazado_1111475" data-name="Trazado 1111475" d="M196.105,379.911H190.07a1.41,1.41,0,0,0-1.408,1.408v6.035a1.41,1.41,0,0,0,1.408,1.408h6.035a1.41,1.41,0,0,0,1.408-1.408v-6.035A1.41,1.41,0,0,0,196.105,379.911Zm-.6,6.84h-4.828v-4.828H195.5Z" transform="translate(-167.105 -328.965)"/>
    <path id="Trazado_1111476" data-name="Trazado 1111476" d="M53.908,24.343h5.027a1.41,1.41,0,0,0,1.408-1.408V17.908A1.41,1.41,0,0,0,58.935,16.5H53.908A1.41,1.41,0,0,0,52.5,17.908v5.027A1.41,1.41,0,0,0,53.908,24.343Zm.6-5.832h3.82v3.82h-3.82Z" transform="translate(-49.203 -14.287)"/>
    <path id="Trazado_1111477" data-name="Trazado 1111477" d="M65.056,360.575h6.462a1.006,1.006,0,1,0,0-2.011H65.056a1.006,1.006,0,1,0,0,2.011Z" transform="translate(-59.204 -310.481)"/>
    <path id="Trazado_1111478" data-name="Trazado 1111478" d="M65.056,326.846h6.462a1.006,1.006,0,1,0,0-2.011H65.056a1.006,1.006,0,1,0,0,2.011Z" transform="translate(-59.204 -281.275)"/>
    <path id="Trazado_1111479" data-name="Trazado 1111479" d="M65.056,293.117h3.661a1.006,1.006,0,0,0,0-2.012H65.056a1.006,1.006,0,0,0,0,2.012Z" transform="translate(-59.204 -252.068)"/>
    <path id="Trazado_1111480" data-name="Trazado 1111480" d="M378.9,80.616h10.794a1.41,1.41,0,0,0,1.408-1.408V68.017a1.4,1.4,0,0,0-.412-1l-2.5-2.5a1.4,1.4,0,0,0-1-.412H378.9a1.41,1.41,0,0,0-1.408,1.408V79.208A1.41,1.41,0,0,0,378.9,80.616Zm.6-14.5h7.438l2.149,2.149V78.6H379.5Z" transform="translate(-330.613 -55.509)"/>
    <path id="Trazado_1111481" data-name="Trazado 1111481" d="M409.087,142.383h-4.639a1.006,1.006,0,1,0,0,2.012h4.639a1.006,1.006,0,0,0,0-2.012Z" transform="translate(-353.084 -123.289)"/>
    <path id="Trazado_1111482" data-name="Trazado 1111482" d="M409.087,118.165h-4.639a1.006,1.006,0,1,0,0,2.011h4.639a1.006,1.006,0,0,0,0-2.011Z" transform="translate(-353.084 -102.319)"/>
    <path id="Trazado_1111483" data-name="Trazado 1111483" d="M404.447,95.958h2.629a1.006,1.006,0,0,0,0-2.011h-2.629a1.006,1.006,0,1,0,0,2.011Z" transform="translate(-353.083 -81.349)"/>
  </g>
</svg>
