<svg id="informacion_2_" data-name="informacion (2)" xmlns="http://www.w3.org/2000/svg" width="68.659" height="61.049" viewBox="0 0 68.659 61.049">
  <g id="Grupo_1195835" data-name="Grupo 1195835" transform="translate(16.61 10.233)">
    <path id="Trazado_1111433" data-name="Trazado 1111433" d="M300.965,110.984a13.144,13.144,0,0,1,7.729,7.912h6.269a19.161,19.161,0,0,0-14-14.215v6.3Z" transform="translate(-277.216 -104.681)" fill="#c4e2ff"/>
    <path id="Trazado_1111434" data-name="Trazado 1111434" d="M135.553,259.611a13.1,13.1,0,0,1-5.655-9.924h-5.9c-.044,0-.087,0-.13.006a19.141,19.141,0,0,0,11.689,16.753v-6.836Z" transform="translate(-123.864 -230.242)" fill="#c4e2ff"/>
  </g>
  <g id="Grupo_1195836" data-name="Grupo 1195836" transform="translate(28.3 24.448)">
    <path id="Trazado_1111435" data-name="Trazado 1111435" d="M249.047,210.686H230.823a13.109,13.109,0,0,1-19.789,15.154v12.177a1.341,1.341,0,0,0,1.341,1.341h22.278a1.341,1.341,0,0,1,.948.393l6.333,6.333a.67.67,0,0,0,1.145-.474V240.7a1.341,1.341,0,0,1,1.341-1.341h4.627a1.341,1.341,0,0,0,1.341-1.341v-25.99a1.341,1.341,0,0,0-1.341-1.341Z" transform="translate(-211.034 -210.686)" fill="#ffe177"/>
    <path id="Trazado_1111436" data-name="Trazado 1111436" d="M216.733,335.867v-9.986a13.032,13.032,0,0,1-5.7-2.191v12.177a1.341,1.341,0,0,0,1.341,1.341h5.7A1.341,1.341,0,0,1,216.733,335.867Z" transform="translate(-211.034 -308.536)" fill="#ffc344"/>
  </g>
  <g id="Grupo_1195839" data-name="Grupo 1195839" transform="translate(1.006 1.006)">
    <path id="Trazado_1111437" data-name="Trazado 1111437" d="M29.109,63.667A13.113,13.113,0,0,1,46.854,51.405V37.216a1.341,1.341,0,0,0-1.341-1.341H8.841A1.341,1.341,0,0,0,7.5,37.216v25.99a1.341,1.341,0,0,0,1.341,1.341h4.627a1.341,1.341,0,0,1,1.341,1.341V70.8a.671.671,0,0,0,1.145.474l6.333-6.333a1.341,1.341,0,0,1,.948-.393h5.9c-.019-.291-.03-.584-.03-.88Z" transform="translate(-7.5 -35.875)" fill="#00f2a6"/>
    <g id="Grupo_1195838" data-name="Grupo 1195838">
      <g id="Grupo_1195837" data-name="Grupo 1195837">
        <path id="Trazado_1111438" data-name="Trazado 1111438" d="M12.529,63.32v-26.1a1.341,1.341,0,0,1,1.341-1.341H8.841A1.341,1.341,0,0,0,7.5,37.216v25.99a1.341,1.341,0,0,0,1.341,1.341h4.49A1.34,1.34,0,0,1,12.529,63.32Z" transform="translate(-7.5 -35.875)" fill="#05e39c"/>
      </g>
    </g>
  </g>
  <g id="Grupo_1195842" data-name="Grupo 1195842" transform="translate(22.615 15.691)">
    <g id="Grupo_1195840" data-name="Grupo 1195840" transform="translate(0 0)">
      <ellipse id="Elipse_14044" data-name="Elipse 14044" cx="13.107" cy="13.107" rx="13.107" ry="13.107" fill="#2ed1e2"/>
    </g>
    <g id="Grupo_1195841" data-name="Grupo 1195841" transform="translate(0)">
      <path id="Trazado_1111439" data-name="Trazado 1111439" d="M174.32,158.49a13.111,13.111,0,0,1,10.267-12.8,13.107,13.107,0,1,0,0,25.6A13.111,13.111,0,0,1,174.32,158.49Z" transform="translate(-168.64 -145.383)" fill="#03bed7"/>
    </g>
  </g>
  <g id="Grupo_1195843" data-name="Grupo 1195843" transform="translate(0 0)">
    <path id="Trazado_1111440" data-name="Trazado 1111440" d="M66.312,51.817H63.161a1.006,1.006,0,0,0,0,2.011h3.151a.336.336,0,0,1,.335.335v25.99a.336.336,0,0,1-.335.335H61.686a2.349,2.349,0,0,0-2.347,2.347v4.1l-5.761-5.761a2.332,2.332,0,0,0-1.659-.687H29.641a.336.336,0,0,1-.335-.335V69.741a14.1,14.1,0,0,0,11.526.587H60.406a1.006,1.006,0,0,0,0-2.012H44.371A14.235,14.235,0,0,0,47.3,65.24h3.826a1.006,1.006,0,1,0,0-2.011H48.468a14,14,0,0,0,1.049-3.077H60.406a1.006,1.006,0,0,0,0-2.011H49.8c.022-.319.034-.642.034-.966a14.09,14.09,0,0,0-.4-3.344h9.035a1.006,1.006,0,1,0,0-2.011H55.132A20.214,20.214,0,0,0,41.365,37.844V30.722a2.349,2.349,0,0,0-2.347-2.347H13.41a1.006,1.006,0,0,0,0,2.011H39.019a.336.336,0,0,1,.335.335V43.535a14.1,14.1,0,0,0-10.548,1.34H8.253a1.006,1.006,0,0,0,0,2.011H26.07a14.211,14.211,0,0,0-2.477,3.077H8.253a1.006,1.006,0,1,0,0,2.011H22.6a14.036,14.036,0,0,0-.99,5.072H16.74a2.331,2.331,0,0,0-1.659.687L9.32,63.5v-4.1a2.349,2.349,0,0,0-2.347-2.347H2.347a.336.336,0,0,1-.335-.335V30.722a.336.336,0,0,1,.335-.335h6.37a1.006,1.006,0,0,0,0-2.011H2.347A2.349,2.349,0,0,0,0,30.722v25.99a2.349,2.349,0,0,0,2.347,2.347H6.973a.336.336,0,0,1,.335.335V64.3A1.676,1.676,0,0,0,10.17,65.49l5.6-5.6a19.935,19.935,0,0,0,3.772,9.268,1.006,1.006,0,0,0,1.615-1.2,17.938,17.938,0,0,1-3.459-8.9h4.039a14.122,14.122,0,0,0,5.559,9.428v4.732a18,18,0,0,1-3.072-2.033,1.006,1.006,0,0,0-1.277,1.554,20.041,20.041,0,0,0,4.349,2.717v4.7A2.349,2.349,0,0,0,29.641,82.5H51.919a.333.333,0,0,1,.237.1l6.333,6.333a1.676,1.676,0,0,0,2.862-1.185V82.836a.336.336,0,0,1,.335-.335h4.626a2.349,2.349,0,0,0,2.347-2.347V54.164a2.349,2.349,0,0,0-2.347-2.347ZM41.365,39.949A18.2,18.2,0,0,1,53.038,51.817h-4.26a14.2,14.2,0,0,0-7.413-7.578ZM23.62,57.173a12.1,12.1,0,1,1,12.1,12.1A12.115,12.115,0,0,1,23.62,57.173Z" transform="translate(0 -28.375)"/>
    <path id="Trazado_1111441" data-name="Trazado 1111441" d="M408.9,288.279h-5.429a1.006,1.006,0,1,0,0,2.012H408.9a1.006,1.006,0,0,0,0-2.012Z" transform="translate(-348.497 -253.426)"/>
    <path id="Trazado_1111442" data-name="Trazado 1111442" d="M258.585,364.172a1.006,1.006,0,0,0,0,2.012H273.42a1.006,1.006,0,0,0,0-2.012Z" transform="translate(-223.038 -319.142)"/>
    <path id="Trazado_1111443" data-name="Trazado 1111443" d="M79.91,75.522H55.052a1.006,1.006,0,1,0,0,2.011H79.91a1.006,1.006,0,1,0,0-2.011Z" transform="translate(-46.798 -69.2)"/>
    <path id="Trazado_1111444" data-name="Trazado 1111444" d="M139.859,113.469H124.285a1.006,1.006,0,1,0,0,2.012h15.575a1.006,1.006,0,0,0,0-2.012Z" transform="translate(-106.747 -102.058)"/>
    <path id="Trazado_1111445" data-name="Trazado 1111445" d="M55.052,113.469a1.006,1.006,0,0,0,0,2.012h5.429a1.006,1.006,0,0,0,0-2.012Z" transform="translate(-46.798 -102.058)"/>
    <path id="Trazado_1111446" data-name="Trazado 1111446" d="M260.893,228.607v-9.554a.4.4,0,0,0-.4-.4h-1.207a.4.4,0,0,0-.4.4v9.554a.4.4,0,0,0,.4.4h1.207A.4.4,0,0,0,260.893,228.607Z" transform="translate(-224.166 -193.134)"/>
    <path id="Trazado_1111447" data-name="Trazado 1111447" d="M259.284,193.926h1.207a.4.4,0,0,0,.4-.4v-1.207a.4.4,0,0,0-.4-.4h-1.207a.4.4,0,0,0-.4.4v1.207A.4.4,0,0,0,259.284,193.926Z" transform="translate(-224.166 -169.983)"/>
  </g>
</svg>
