<svg id="informacion_1_" data-name="informacion (1)" xmlns="http://www.w3.org/2000/svg" width="68.659" height="68.674" viewBox="0 0 68.659 68.674">
  <g id="Grupo_1195833" data-name="Grupo 1195833" transform="translate(1.144 1.142)">
    <path id="Trazado_1111422" data-name="Trazado 1111422" d="M124.445,350.717l-17.714,11.352a6.492,6.492,0,0,1-3.444,1.007H78.432c-6.042,0-7.678-3.1-7.678-3.1v-.332H67.321V345.91h3.433v.08c2-3.055,5.962-4.108,8.456-4.463h.011a16.6,16.6,0,0,1,2.208-.195h.584A8.428,8.428,0,0,1,87.4,343.3a8.341,8.341,0,0,0,5.378,1.991h4.943a4.69,4.69,0,0,1,4.062,2.392l.08.137a3.746,3.746,0,0,1,.114,3.479,3.621,3.621,0,0,1-.561.824h2.163a3.508,3.508,0,0,0,1.19-.195l15.586-5.47,1.9-.675a2.627,2.627,0,0,1,.847-.137,2.547,2.547,0,0,1,2.06,1.087,2.846,2.846,0,0,1-.721,3.982Z" transform="translate(-59.311 -296.702)" fill="#bfa885"/>
    <path id="Trazado_1111423" data-name="Trazado 1111423" d="M119.868,351.973l-17.714,11.352a6.493,6.493,0,0,1-3.444,1.007H78.432c-6.042,0-7.678-3.1-7.678-3.1V360.9H67.321V347.167h3.433v.08c2-3.055,5.962-4.108,8.456-4.463h.011a8.461,8.461,0,0,1,3.6,1.774,8.341,8.341,0,0,0,5.378,1.991h4.943a4.69,4.69,0,0,1,4.062,2.392l.08.137a3.71,3.71,0,0,1-.446,4.3h2.163a3.508,3.508,0,0,0,1.19-.195l1.785-.629a3.622,3.622,0,0,1-.561.824h2.163a3.508,3.508,0,0,0,1.19-.195l15.586-5.47a1.824,1.824,0,0,1,.229.275,2.846,2.846,0,0,1-.721,3.982Z" transform="translate(-59.311 -297.959)" fill="#ffe0b2"/>
    <path id="Trazado_1111424" data-name="Trazado 1111424" d="M251.323,27.973A19.458,19.458,0,0,1,225.931,46.5l-5.5,4.36V43.7a19.45,19.45,0,1,1,30.9-15.723Z" transform="translate(-184.953 -8.517)" fill="#2296f3"/>
    <path id="Trazado_1111425" data-name="Trazado 1111425" d="M8.732,358.4h9.155a1.144,1.144,0,0,1,1.144,1.144v16.021a1.144,1.144,0,0,1-1.144,1.144H8.732a1.144,1.144,0,0,1-1.144-1.144V359.544A1.144,1.144,0,0,1,8.732,358.4Z" transform="translate(-7.588 -311.481)" fill="#4caf50"/>
    <g id="Grupo_1195832" data-name="Grupo 1195832" transform="translate(42.34 6.868)">
      <ellipse id="Elipse_14043" data-name="Elipse 14043" cx="2.289" cy="2.289" rx="2.289" ry="2.289" transform="translate(2.289)" fill="#fff"/>
      <path id="Trazado_1111426" data-name="Trazado 1111426" d="M325.61,132.577v6.866h-2.289v4.577h9.155v-4.577h-2.289V128h-6.866v4.577Z" transform="translate(-323.321 -118.845)" fill="#fff"/>
    </g>
    <path id="Trazado_1111427" data-name="Trazado 1111427" d="M365.677,27.986A19.452,19.452,0,0,1,346.223,47.44c-.584,0-1.167-.023-1.739-.08a19.448,19.448,0,0,0,.023-38.747,16.9,16.9,0,0,1,1.716-.08,19.452,19.452,0,0,1,19.453,19.453Z" transform="translate(-299.306 -8.531)" fill="#1566c0"/>
  </g>
  <g id="Grupo_1195834" data-name="Grupo 1195834" transform="translate(0 0)">
    <path id="Trazado_1111428" data-name="Trazado 1111428" d="M2.343,355.686H11.5a2.275,2.275,0,0,0,1.759-.842,11.484,11.484,0,0,0,7.06,1.987H45.171a7.632,7.632,0,0,0,4.067-1.191l17.717-11.354a3.894,3.894,0,0,0,1.685-2.533,4.019,4.019,0,0,0-.66-3.073,3.706,3.706,0,0,0-4.206-1.358l-17.5,6.14a2.349,2.349,0,0,1-.8.132H45.2a4.863,4.863,0,0,0-.446-3.7l-.089-.162a5.857,5.857,0,0,0-5.051-2.966H34.673a7.281,7.281,0,0,1-4.652-1.723A9.581,9.581,0,0,0,23.9,332.8h-.58c-.288,0-6.155.053-9.941,3.282a2.287,2.287,0,0,0-1.884-.993H2.343a2.291,2.291,0,0,0-2.289,2.289V353.4A2.291,2.291,0,0,0,2.343,355.686Zm20.979-20.6h.58a7.288,7.288,0,0,1,4.652,1.706,9.571,9.571,0,0,0,6.119,2.255h4.944a3.506,3.506,0,0,1,3.053,1.794l.089.162a2.552,2.552,0,0,1-.058,2.588H37.069a9.358,9.358,0,0,0-5.372,1.714l-.686.482a1.144,1.144,0,1,0,1.314,1.873l.684-.479a7.078,7.078,0,0,1,4.06-1.3h8.407a4.632,4.632,0,0,0,1.569-.266l17.474-6.131a1.4,1.4,0,0,1,1.6.526,1.711,1.711,0,0,1,.275,1.31,1.574,1.574,0,0,1-.677,1.04l-17.7,11.346a5.336,5.336,0,0,1-2.84.834H20.316c-4.375,0-6.078-1.72-6.531-2.3V338.961C16.581,335.15,23.254,335.089,23.321,335.089ZM2.343,337.377H11.5V353.4H2.343Z" transform="translate(-0.054 -288.172)"/>
    <path id="Trazado_1111429" data-name="Trazado 1111429" d="M34.476,444.156a1.144,1.144,0,0,0,.813,1.957,1.206,1.206,0,0,0,.813-.332,1.323,1.323,0,0,0,.24-.378,1.146,1.146,0,0,0,.092-.435,1.144,1.144,0,0,0-1.957-.812Z" transform="translate(-29.567 -384.32)"/>
    <path id="Trazado_1111430" data-name="Trazado 1111430" d="M336.287,58.066a3.433,3.433,0,1,0-3.433-3.433A3.433,3.433,0,0,0,336.287,58.066Zm0-4.577a1.144,1.144,0,1,1-1.144,1.144A1.144,1.144,0,0,1,336.287,53.489Z" transform="translate(-288.226 -44.334)"/>
    <path id="Trazado_1111431" data-name="Trazado 1111431" d="M326.086,130.909h-1.144v-10.3a1.144,1.144,0,0,0-1.144-1.144h-6.866a1.144,1.144,0,0,0-1.144,1.144v4.577a1.144,1.144,0,0,0,1.144,1.144h1.144v4.577h-1.144a1.144,1.144,0,0,0-1.144,1.144v4.577a1.144,1.144,0,0,0,1.144,1.144h9.155a1.144,1.144,0,0,0,1.144-1.144v-4.577a1.144,1.144,0,0,0-1.144-1.144Zm-1.144,4.577h-6.866V133.2h1.144a1.144,1.144,0,0,0,1.144-1.144v-6.866a1.144,1.144,0,0,0-1.144-1.144h-1.144v-2.289h4.577v10.3A1.144,1.144,0,0,0,323.8,133.2h1.144Z" transform="translate(-273.447 -103.446)"/>
    <path id="Trazado_1111432" data-name="Trazado 1111432" d="M225.444,0a20.593,20.593,0,0,0-12.588,36.894v6.59a1.144,1.144,0,0,0,1.855.9l5.033-3.987A20.6,20.6,0,1,0,225.444,0Zm0,38.907a18.154,18.154,0,0,1-5.588-.872,1.151,1.151,0,0,0-1.063.192l-3.649,2.89v-4.8a1.143,1.143,0,0,0-.473-.926,18.3,18.3,0,1,1,10.772,3.512Z" transform="translate(-177.382 0)"/>
  </g>
</svg>
