<svg id="usuario" xmlns="http://www.w3.org/2000/svg" width="62.41" height="68.66" viewBox="0 0 62.41 68.66">
  <g id="Grupo_1195876" data-name="Grupo 1195876" transform="translate(1.006 1.006)">
    <path id="Trazado_1111484" data-name="Trazado 1111484" d="M145.12,7.5h7.942a.939.939,0,0,1,.664.275l3.891,3.891L145.8,12.844a.939.939,0,0,1-.664-.275Z" transform="translate(-129.79 -7.5)" fill="#d7ecfe"/>
    <path id="Trazado_1111485" data-name="Trazado 1111485" d="M71.477,69.982H31.741a.939.939,0,0,1-.939-.939V8.439a.939.939,0,0,1,.939-.939H46.132l3.891,3.891a.939.939,0,0,0,.664.275H70.539a.939.939,0,0,1,.939.939V69.982Z" transform="translate(-30.802 -7.5)" fill="#f0fcff"/>
    <g id="Grupo_1195867" data-name="Grupo 1195867" transform="translate(38.195 4.165)">
      <path id="Trazado_1111486" data-name="Trazado 1111486" d="M319.647,38.562h-4.023a.939.939,0,0,1,.939.939V96.878h4.023V39.5A.939.939,0,0,0,319.647,38.562Z" transform="translate(-315.624 -38.562)" fill="#d7ecfe"/>
    </g>
    <g id="Grupo_1195871" data-name="Grupo 1195871" transform="translate(4.514 11.91)">
      <path id="Trazado_1111487" data-name="Trazado 1111487" d="M90.6,195.113H89.462a4.4,4.4,0,0,1-4.4-4.4V179.816H95v10.892A4.4,4.4,0,0,1,90.6,195.113Z" transform="translate(-82.295 -168.618)" fill="#808b95"/>
      <path id="Trazado_1111488" data-name="Trazado 1111488" d="M152.091,179.816v10.892a4.4,4.4,0,0,1-4.4,4.4h6.745a4.4,4.4,0,0,0,4.4-4.4V179.816Z" transform="translate(-136.526 -168.618)" fill="#5e6b75"/>
      <path id="Trazado_1111489" data-name="Trazado 1111489" d="M65.4,293.471a.939.939,0,0,1-.939-.939v-2.959a4.774,4.774,0,0,1,4.135-4.731H78.711a4.774,4.774,0,0,1,4.135,4.731v2.959a.939.939,0,0,1-.939.939Z" transform="translate(-64.464 -259.561)" fill="#fd8087"/>
      <path id="Trazado_1111490" data-name="Trazado 1111490" d="M188.656,284.843h-4.9c2.368.32,3.155,2.341,3.155,4.731v2.959a.939.939,0,0,1-.939.939h5.881a.939.939,0,0,0,.939-.939v-2.959A4.774,4.774,0,0,0,188.656,284.843Z" transform="translate(-167.758 -259.561)" fill="#fe646f"/>
      <path id="Trazado_1111491" data-name="Trazado 1111491" d="M104.623,275.929l-3.327,1.2v8.628h15.192v-8.628l-3.365-1.2Z" transform="translate(-96.357 -251.842)" fill="#ffc344"/>
      <path id="Trazado_1111492" data-name="Trazado 1111492" d="M126.107,225.86v6.714a6.275,6.275,0,0,0,2.239,1.322,4.994,4.994,0,0,0,3.361-1.5v-5.138h-1.9a5.724,5.724,0,0,1-3.694-1.4Z" transform="translate(-117.841 -208.488)" fill="#ffdacc"/>
      <g id="Grupo_1195868" data-name="Grupo 1195868" transform="translate(10.505 17.372)">
        <path id="Trazado_1111493" data-name="Trazado 1111493" d="M145.368,227.263h-.329v5.312A6.278,6.278,0,0,1,142.8,233.9a6.3,6.3,0,0,0,6.262-1.322V225.86A5.726,5.726,0,0,1,145.368,227.263Z" transform="translate(-142.801 -225.86)" fill="#fcccb9"/>
      </g>
      <g id="Grupo_1195870" data-name="Grupo 1195870" transform="translate(2.154)">
        <path id="Trazado_1111494" data-name="Trazado 1111494" d="M112.646,129.269v10.469c0,3.3-5.442,4.567-5.926,4.44a5.986,5.986,0,0,1-4.466-5.789v-.456l-1.122-2.378,1.122-2.378v-3.293a2.446,2.446,0,0,1,2.446-2.446h6.114A1.832,1.832,0,0,1,112.646,129.269Z" transform="translate(-98.369 -123.263)" fill="#ffece4"/>
        <path id="Trazado_1111495" data-name="Trazado 1111495" d="M149.458,127.436h-4.023a1.832,1.832,0,0,1,1.832,1.832v9.12a5.985,5.985,0,0,1-4.466,5.789,5.994,5.994,0,0,0,1.517.194h.989a5.983,5.983,0,0,0,5.983-5.983v-.456l.875-2.378-.875-2.378v-3.908A1.832,1.832,0,0,0,149.458,127.436Z" transform="translate(-134.45 -123.262)" fill="#ffdacc"/>
        <path id="Trazado_1111496" data-name="Trazado 1111496" d="M175.706,106.809a5.332,5.332,0,0,1,5.332,5.332V115.9h-3.281c0-1.713-.26-4.544-4.424-4.544v-4.544h2.375Z" transform="translate(-160.886 -105.401)" fill="#5e6b75"/>
        <path id="Trazado_1111497" data-name="Trazado 1111497" d="M90.133,104.489a1.636,1.636,0,0,0-1.822,1.6v1.426H85.03V103.3a6.989,6.989,0,0,1,6.989-6.989h3.438a4.1,4.1,0,1,1-.011,8.19Z" transform="translate(-84.427 -96.313)" fill="#808b95"/>
        <g id="Grupo_1195869" data-name="Grupo 1195869" transform="translate(0 9.913)">
          <path id="Trazado_1111498" data-name="Trazado 1111498" d="M206.1,170.238h1.861a2.023,2.023,0,0,1,2.023,2.023v.71a2.023,2.023,0,0,1-2.023,2.023H206.1Z" transform="translate(-189.265 -170.238)" fill="#fcccb9"/>
          <path id="Trazado_1111499" data-name="Trazado 1111499" d="M84.414,170.238H82.553a2.023,2.023,0,0,0-2.023,2.023v.71a2.023,2.023,0,0,0,2.023,2.023h1.861Z" transform="translate(-80.53 -170.238)" fill="#fcccb9"/>
        </g>
      </g>
    </g>
    <g id="Grupo_1195872" data-name="Grupo 1195872" transform="translate(34.074 16.662)">
      <path id="Trazado_1111500" data-name="Trazado 1111500" d="M307.8,144.245H285.839a.939.939,0,0,1-.939-.939V132.688a.939.939,0,0,1,.939-.939H307.8a.939.939,0,0,1,.939.939v10.619A.939.939,0,0,1,307.8,144.245Z" transform="translate(-284.9 -131.749)" fill="#9dcffd"/>
    </g>
    <g id="Grupo_1195873" data-name="Grupo 1195873" transform="translate(34.074 33.324)">
      <path id="Trazado_1111501" data-name="Trazado 1111501" d="M307.232,268.494H285.839a.939.939,0,0,1-.939-.939V256.937a.939.939,0,0,1,.939-.939h21.393a.939.939,0,0,1,.939.939v10.619A.939.939,0,0,1,307.232,268.494Z" transform="translate(-284.9 -255.998)" fill="#9dcffd"/>
    </g>
    <path id="Trazado_1111502" data-name="Trazado 1111502" d="M448.227,131.749H444.2a.939.939,0,0,1,.939.939v10.619a.939.939,0,0,1-.939.939h4.023a.939.939,0,0,0,.939-.939V132.688A.939.939,0,0,0,448.227,131.749Z" transform="translate(-388.767 -115.087)" fill="#84c4f4"/>
    <path id="Trazado_1111503" data-name="Trazado 1111503" d="M448.227,256H444.2a.939.939,0,0,1,.939.939v10.619a.939.939,0,0,1-.939.939h4.023a.939.939,0,0,0,.939-.939V256.937A.939.939,0,0,0,448.227,256Z" transform="translate(-388.767 -222.674)" fill="#84c4f4"/>
    <g id="Grupo_1195874" data-name="Grupo 1195874" transform="translate(17.049 52.068)">
      <path id="Trazado_1111504" data-name="Trazado 1111504" d="M197.3,408.274H158.881a.939.939,0,0,1-.939-.939V396.717a.939.939,0,0,1,.939-.939H197.3a.939.939,0,0,1,.939.939v10.619A.939.939,0,0,1,197.3,408.274Z" transform="translate(-157.942 -395.778)" fill="#9dcffd"/>
    </g>
    <path id="Trazado_1111505" data-name="Trazado 1111505" d="M448.227,395.778H444.2a.939.939,0,0,1,.939.939v10.619a.939.939,0,0,1-.939.939h4.023a.939.939,0,0,0,.939-.939V396.717A.939.939,0,0,0,448.227,395.778Z" transform="translate(-388.767 -343.71)" fill="#84c4f4"/>
    <g id="Grupo_1195875" data-name="Grupo 1195875" transform="translate(4.164 49.98)">
      <path id="Trazado_1111506" data-name="Trazado 1111506" d="M75.861,390c0,7.825-7.042,8.247-7.686,8.088a8.335,8.335,0,0,1,0-16.175C68.82,381.752,75.861,382.219,75.861,390Z" transform="translate(-61.855 -381.663)" fill="#abdc94"/>
      <path id="Trazado_1111507" data-name="Trazado 1111507" d="M108.988,380.455a8.335,8.335,0,0,1,0,16.175,8.334,8.334,0,1,0,0-16.175Z" transform="translate(-102.667 -380.206)" fill="#8ccf75"/>
      <path id="Trazado_1111508" data-name="Trazado 1111508" d="M103.816,420.216l-.965,1.956-2.159.314,1.562,1.523.441.028a1.965,1.965,0,0,0,2.086-1.864Z" transform="translate(-95.484 -414.851)" fill="#ffe177"/>
      <path id="Trazado_1111509" data-name="Trazado 1111509" d="M114.645,435.06l-2.159-.314,0-.009a3.42,3.42,0,0,1-2.524,1.851l-.368,2.144,1.931-1.015,1.931,1.015-.369-2.15Z" transform="translate(-103.189 -427.425)" fill="#ffce71"/>
    </g>
  </g>
  <g id="Grupo_1195877" data-name="Grupo 1195877" transform="translate(0 0)">
    <path id="Trazado_1111510" data-name="Trazado 1111510" d="M57.966,31.067a1.005,1.005,0,1,0,1.008,1.005A1.007,1.007,0,0,0,57.966,31.067Z" transform="translate(-52.449 -26.901)"/>
    <path id="Trazado_1111511" data-name="Trazado 1111511" d="M90.069,33.074a1.006,1.006,0,1,0-1.006-1.006A1.007,1.007,0,0,0,90.069,33.074Z" transform="translate(-80.244 -26.897)"/>
    <path id="Trazado_1111512" data-name="Trazado 1111512" d="M122.169,33.074a1.006,1.006,0,1,0-1.006-1.006A1.009,1.009,0,0,0,122.169,33.074Z" transform="translate(-108.04 -26.897)"/>
    <path id="Trazado_1111513" data-name="Trazado 1111513" d="M56.964,119.83v2.959a1.947,1.947,0,0,0,1.944,1.944H82.064a1.947,1.947,0,0,0,1.944-1.944V119.83a5.8,5.8,0,0,0-3.415-5.272,5.38,5.38,0,0,0,.691-2.651V104.23a3.012,3.012,0,0,0,.569-1.766,3.787,3.787,0,0,0-.573-2.481V96.557a6.345,6.345,0,0,0-6.338-6.338h-.274a5.083,5.083,0,0,0-3.515-1.408H67.717a8,8,0,0,0-7.995,7.995v3.135a3.77,3.77,0,0,0-.6,2.522,3.014,3.014,0,0,0,.607,1.817v7.626a5.425,5.425,0,0,0,.687,2.636,5.805,5.805,0,0,0-3.449,5.287ZM74.757,97.524q.088-.088.172-.18a2.833,2.833,0,0,1,1.029,2.386v5.212a4.983,4.983,0,0,1-4.977,4.977h-.989a4.983,4.983,0,0,1-4.977-4.977V99.589a.582.582,0,0,1,.2-.433c.291-.259.01-.124,5.925-.143h.014A5.066,5.066,0,0,0,74.757,97.524Zm3.721,16.57h-.2l-2.533-.9v-3.139a6.975,6.975,0,0,0,2.206-4.561,9.863,9.863,0,0,0,1.325-.033v6.447A3.373,3.373,0,0,1,78.477,114.094Zm-11.235-.655v-2.07a8.519,8.519,0,0,0,3.739.564,6.951,6.951,0,0,0,2.75-.564v2.07A5.257,5.257,0,0,1,67.242,113.439Zm12.6-11.684v.71a1.019,1.019,0,0,1-1.018,1.018h-.855v-2.745h.855A1.019,1.019,0,0,1,79.842,101.755ZM63,103.482h-.855a1.019,1.019,0,0,1-1.018-1.018v-.71a1.019,1.019,0,0,1,1.018-1.018H63Zm-1.266,1.984a10.672,10.672,0,0,0,1.287.028,6.974,6.974,0,0,0,2.206,4.561V113.2l-2.5.9h-.2a3.362,3.362,0,0,1-.8-2.186Zm2.178,10.341,2.118-.761a7.276,7.276,0,0,0,3.448,1.446v2.324a1.006,1.006,0,0,0,2.011,0v-2.324a7.277,7.277,0,0,0,3.449-1.447l2.154.765v6.912H63.915ZM82,119.83v2.892h-2.89v-6.556A3.783,3.783,0,0,1,82,119.83ZM79.27,96.557v2.2a10.61,10.61,0,0,0-1.39-.033,4.424,4.424,0,0,0-1.914-3.109,5.128,5.128,0,0,0,.05-3.251A4.334,4.334,0,0,1,79.27,96.557ZM67.717,90.823h3.438a3.056,3.056,0,0,1,2.436,1.191A3.089,3.089,0,0,1,71.155,97h-.008l-5.264-.014a2.657,2.657,0,0,0-2.729,1.737,11.933,11.933,0,0,0-1.421.028V96.807A5.99,5.99,0,0,1,67.717,90.823ZM58.976,119.83a3.783,3.783,0,0,1,2.928-3.673v6.565H58.976Z" transform="translate(-52.45 -76.902)"/>
    <path id="Trazado_1111514" data-name="Trazado 1111514" d="M83.768,31.17a1.947,1.947,0,0,0,1.944-1.944V18.606a1.947,1.947,0,0,0-1.944-1.944H68.47V6.11a1.947,1.947,0,0,0-1.944-1.944H52.551l-3.6-3.6A1.932,1.932,0,0,0,47.58,0H25.246A1.947,1.947,0,0,0,23.3,1.944V13.192a1.006,1.006,0,1,0,2.011,0V2.012H39.221l3.6,3.6a1.932,1.932,0,0,0,1.375.569H66.458V16.662H59.321a1.947,1.947,0,0,0-1.944,1.944V29.225a1.947,1.947,0,0,0,1.944,1.944h7.137v2.154H59.321a1.947,1.947,0,0,0-1.944,1.944V45.887a1.947,1.947,0,0,0,1.944,1.944h7.137v4.237H42.678a9.327,9.327,0,0,0-11.1-.489,1.006,1.006,0,0,0,1.126,1.667,7.326,7.326,0,1,1-2.519,2.921,1.006,1.006,0,1,0-1.815-.867,9.345,9.345,0,0,0-.358,7.181h-2.7V17.415a1.006,1.006,0,1,0-2.011,0V62.548a1.947,1.947,0,0,0,1.944,1.944h3.785a9.33,9.33,0,0,0,13.646,2.083h41.09a1.947,1.947,0,0,0,1.944-1.944V54.012a1.947,1.947,0,0,0-1.944-1.944H68.47V47.831h15.3a1.947,1.947,0,0,0,1.944-1.944V43.151a1.006,1.006,0,1,0-2.011,0V45.82H59.388V35.335H83.7v3.433a1.006,1.006,0,1,0,2.011,0v-3.5a1.947,1.947,0,0,0-1.944-1.944H68.47V31.17h15.3ZM42.066,2.012h5.486l2.154,2.154H44.22ZM83.7,64.564H44.528a9.318,9.318,0,0,0,0-10.485H83.7ZM59.388,18.673H83.7V29.158H59.388Z" transform="translate(-23.302 0)"/>
    <path id="Trazado_1111515" data-name="Trazado 1111515" d="M333.994,155.312h-15.6a1.006,1.006,0,1,0,0,2.012h15.6a1.006,1.006,0,1,0,0-2.012Z" transform="translate(-277.952 -134.485)"/>
    <path id="Trazado_1111516" data-name="Trazado 1111516" d="M331.484,186.374h-13.09a1.006,1.006,0,1,0,0,2.012h13.09a1.006,1.006,0,1,0,0-2.012Z" transform="translate(-277.952 -161.381)"/>
    <path id="Trazado_1111517" data-name="Trazado 1111517" d="M335,280.567a1.006,1.006,0,0,0-1.006-1.006h-15.6a1.006,1.006,0,1,0,0,2.012h15.6A1.006,1.006,0,0,0,335,280.567Z" transform="translate(-277.952 -242.072)"/>
    <path id="Trazado_1111518" data-name="Trazado 1111518" d="M318.395,310.623a1.006,1.006,0,1,0,0,2.012h13.09a1.006,1.006,0,1,0,0-2.012Z" transform="translate(-277.952 -268.968)"/>
    <path id="Trazado_1111519" data-name="Trazado 1111519" d="M218.306,421.352h29.021a1.006,1.006,0,0,0,0-2.012H218.306a1.006,1.006,0,0,0,0,2.012Z" transform="translate(-191.285 -363.107)"/>
    <path id="Trazado_1111520" data-name="Trazado 1111520" d="M218.306,452.415h26.512a1.006,1.006,0,0,0,0-2.012H218.306a1.006,1.006,0,1,0,0,2.012Z" transform="translate(-191.285 -390.004)"/>
    <path id="Trazado_1111521" data-name="Trazado 1111521" d="M100.588,415l-1.635-.238-.731-1.482a1.006,1.006,0,0,0-1.8,0l-.731,1.482L94.05,415a1.006,1.006,0,0,0-.557,1.715l1.183,1.154L94.4,419.5a1.006,1.006,0,0,0,1.459,1.06l1.463-.769,1.463.769a1.006,1.006,0,0,0,1.459-1.06l-.279-1.629,1.183-1.154A1.006,1.006,0,0,0,100.588,415Zm-2.409,1.8a1,1,0,0,0-.289.89l.024.141-.127-.067a1.006,1.006,0,0,0-.936,0l-.127.067.024-.141a1,1,0,0,0-.289-.89l-.1-.1.142-.021a1,1,0,0,0,.757-.55l.063-.129.063.129a1.006,1.006,0,0,0,.757.55l.142.021Z" transform="translate(-83.817 -357.376)"/>
  </g>
</svg>
