<svg xmlns="http://www.w3.org/2000/svg" xmlns:xlink="http://www.w3.org/1999/xlink" width="99.958" height="100.923" viewBox="0 0 99.958 100.923">
  <defs>
    <filter id="Elipse_4909" x="0" y="0" width="99.958" height="100.923" filterUnits="userSpaceOnUse">
      <feOffset dy="3" input="SourceAlpha"/>
      <feGaussianBlur stdDeviation="3" result="blur"/>
      <feFlood flood-opacity="0.161"/>
      <feComposite operator="in" in2="blur"/>
      <feComposite in="SourceGraphic"/>
    </filter>
  </defs>
  <g id="Grupo_1193279" data-name="Grupo 1193279" transform="translate(-171 -777)">
    <g id="Grupo_1099185" data-name="Grupo 1099185" transform="translate(180 783)">
      <g transform="matrix(1, 0, 0, 1, -9, -6)" filter="url(#Elipse_4909)">
        <ellipse id="Elipse_4909-2" data-name="Elipse 4909" cx="40.979" cy="41.461" rx="40.979" ry="41.461" transform="translate(9 6)" fill="#fff"/>
      </g>
      <g id="comunidad" transform="translate(13.431 14.122)">
        <path id="Trazado_972465" data-name="Trazado 972465" d="M12.457,37.229v1.743H2V37.229a5.229,5.229,0,0,1,10.457,0Z" transform="translate(-1.129 -4.986)" fill="#fcd770"/>
        <path id="Trazado_972466" data-name="Trazado 972466" d="M34.008,54.8a5.217,5.217,0,0,1,2.449,4.427v1.743H26V59.229A5.227,5.227,0,0,1,34.008,54.8Z" transform="translate(-4.214 -7.814)" fill="#fcd770"/>
        <path id="Trazado_972467" data-name="Trazado 972467" d="M18.457,57.229v1.743H8V57.229a5.229,5.229,0,0,1,10.457,0Z" transform="translate(-1.9 -7.557)" fill="#ff826e"/>
        <path id="Trazado_972468" data-name="Trazado 972468" d="M60.457,37.229v1.743H50V37.229a5.229,5.229,0,0,1,10.457,0Z" transform="translate(-7.3 -4.986)" fill="#ff826e"/>
        <path id="Trazado_972469" data-name="Trazado 972469" d="M16.008,12.8a5.217,5.217,0,0,1,2.449,4.427v1.743H8V17.229A5.227,5.227,0,0,1,16.008,12.8Z" transform="translate(-1.9 -2.414)" fill="#e6e9ed"/>
        <path id="Trazado_972470" data-name="Trazado 972470" d="M46.449,12.8a5.227,5.227,0,0,1,8.008,4.427v1.743H44V17.229A5.217,5.217,0,0,1,46.449,12.8Z" transform="translate(-6.529 -2.414)" fill="#e6e9ed"/>
        <path id="Trazado_972471" data-name="Trazado 972471" d="M36.457,15.229v1.743H26V15.229a5.229,5.229,0,1,1,10.457,0Z" transform="translate(-4.214 -2.157)" fill="#b4dd7f"/>
        <path id="Trazado_972472" data-name="Trazado 972472" d="M36.457,37.229v1.743H26V37.229a5.229,5.229,0,0,1,10.457,0Z" transform="translate(-4.214 -4.986)" fill="#b4dd7f"/>
        <path id="Trazado_972473" data-name="Trazado 972473" d="M54.457,57.229v1.743H44V57.229a5.229,5.229,0,0,1,10.457,0Z" transform="translate(-6.529 -7.557)" fill="#b4dd7f"/>
        <g id="Grupo_1193291" data-name="Grupo 1193291" transform="translate(2.614 0.871)">
          <path id="Trazado_972474" data-name="Trazado 972474" d="M46.549,49.359A3.447,3.447,0,0,1,46,47.486,3.486,3.486,0,0,1,49.486,44a3.5,3.5,0,0,1,3.486,3.486,3.484,3.484,0,0,1-6.422,1.874Z" transform="translate(-9.4 -7.4)" fill="#f0d0b4"/>
          <circle id="Elipse_11684" data-name="Elipse 11684" cx="3.486" cy="3.486" r="3.486" transform="translate(20.914 38.343)" fill="#f0d0b4"/>
          <path id="Trazado_972475" data-name="Trazado 972475" d="M16.422,49.359A3.484,3.484,0,0,1,10,47.486,3.5,3.5,0,0,1,13.486,44a3.486,3.486,0,0,1,3.486,3.486A3.447,3.447,0,0,1,16.422,49.359Z" transform="translate(-4.771 -7.4)" fill="#f0d0b4"/>
          <circle id="Elipse_11685" data-name="Elipse 11685" cx="3.486" cy="3.486" r="3.486" transform="translate(20.914 19.171)" fill="#f0d0b4"/>
          <path id="Trazado_972476" data-name="Trazado 972476" d="M55.486,24a3.488,3.488,0,1,1-.845.1A3.4,3.4,0,0,1,55.486,24Z" transform="translate(-10.171 -4.829)" fill="#f0d0b4"/>
          <circle id="Elipse_11686" data-name="Elipse 11686" cx="3.486" cy="3.486" r="3.486" transform="translate(36.6 1.743)" fill="#f0d0b4"/>
          <path id="Trazado_972477" data-name="Trazado 972477" d="M34.422,7.359a3.482,3.482,0,1,1,.549-1.874A3.479,3.479,0,0,1,34.422,7.359Z" transform="translate(-7.086 -2)" fill="#f0d0b4"/>
          <circle id="Elipse_11687" data-name="Elipse 11687" cx="3.486" cy="3.486" r="3.486" transform="translate(5.229 1.743)" fill="#f0d0b4"/>
          <path id="Trazado_972478" data-name="Trazado 972478" d="M8.331,24.1a3.484,3.484,0,1,1-.845-.1A3.4,3.4,0,0,1,8.331,24.1Z" transform="translate(-4 -4.829)" fill="#f0d0b4"/>
        </g>
        <path id="Trazado_972479" data-name="Trazado 972479" d="M55.029,35.857V33.243a6.1,6.1,0,0,0-3.293-5.41,4.338,4.338,0,0,0-2.807-7.662c-.108,0-.21.024-.316.032l-.888-1.775H49.8V15.814a6.1,6.1,0,0,0-3.293-5.41,4.357,4.357,0,1,0-5.614,0,.35.35,0,0,0-.031.016L32.114,6.775a4.3,4.3,0,0,0,.257-1.418,4.357,4.357,0,1,0-8.714,0,4.3,4.3,0,0,0,.257,1.418L15.168,10.42c-.01-.005-.022-.01-.031-.016a4.358,4.358,0,1,0-5.615,0,6.1,6.1,0,0,0-3.293,5.41v2.614H8.3L7.417,20.2c-.107-.008-.209-.032-.317-.032a4.338,4.338,0,0,0-2.807,7.662A6.1,6.1,0,0,0,1,33.243v2.614H7.423l1.589,3.308a4.283,4.283,0,0,0,.51,6.1,6.1,6.1,0,0,0-3.293,5.41v2.614h12.2V50.671a6.1,6.1,0,0,0-3.293-5.41,4.314,4.314,0,0,0,.395-.373l8.047,3.353a6.071,6.071,0,0,0-1.663,4.172v2.614h12.2V52.414a6.071,6.071,0,0,0-1.663-4.172L40.5,44.889a4.315,4.315,0,0,0,.395.373,6.1,6.1,0,0,0-3.293,5.41v2.614H49.8V50.671a6.1,6.1,0,0,0-3.293-5.41,4.283,4.283,0,0,0,.51-6.1l1.589-3.308Zm-1.743-2.614v.871H44.571v-.871a4.357,4.357,0,0,1,8.714,0Zm-1.743-8.714a2.614,2.614,0,1,1-2.614-2.614A2.617,2.617,0,0,1,51.543,24.529Zm-4.635-3.837a4.3,4.3,0,0,0-1.442,6.451H31.477a4.313,4.313,0,0,0,.853-2.213l6.5-6.5h6.944ZM32.371,33.243v.871H23.657v-.871a4.357,4.357,0,1,1,8.714,0ZM28.014,46.314A2.614,2.614,0,1,1,30.629,43.7,2.617,2.617,0,0,1,28.014,46.314ZM25.4,24.529a2.614,2.614,0,1,1,2.614,2.614A2.617,2.617,0,0,1,25.4,24.529Zm-1.743-9.586v-.871a4.357,4.357,0,1,1,8.714,0v.871Zm24.4.871v.871H39.343v-.871a4.357,4.357,0,1,1,8.714,0ZM41.086,7.1A2.614,2.614,0,1,1,43.7,9.714,2.617,2.617,0,0,1,41.086,7.1Zm-1.823,4.542A6.071,6.071,0,0,0,37.6,15.814V17.2l-5.595,5.595a4.369,4.369,0,0,0-3.12-2.531V16.686h5.229V14.071a6.1,6.1,0,0,0-3.293-5.41,4.314,4.314,0,0,0,.395-.373Zm-11.248-8.9A2.614,2.614,0,1,1,25.4,5.357,2.617,2.617,0,0,1,28.014,2.743ZM25.207,8.662a6.1,6.1,0,0,0-3.293,5.41v2.614h5.229v3.574a4.369,4.369,0,0,0-3.12,2.531L18.429,17.2V15.814a6.071,6.071,0,0,0-1.663-4.172l8.047-3.353a4.315,4.315,0,0,0,.395.373ZM9.714,7.1a2.614,2.614,0,1,1,2.614,2.614A2.617,2.617,0,0,1,9.714,7.1ZM7.971,15.814a4.357,4.357,0,0,1,8.714,0v.871H7.971Zm2.281,2.614H17.2l6.5,6.5a4.313,4.313,0,0,0,.853,2.213H10.563a4.3,4.3,0,0,0-1.442-6.451Zm-5.767,6.1A2.614,2.614,0,1,1,7.1,27.143,2.617,2.617,0,0,1,4.486,24.529ZM2.743,33.243a4.357,4.357,0,0,1,8.714,0v.871H2.743ZM13.2,35.857V33.243a6.077,6.077,0,0,0-1.84-4.357H23.753a6.078,6.078,0,0,0-1.82,3.977l-6.294,6.294a4.261,4.261,0,0,0-5.222-1.1l-1.06-2.2Zm3.486,14.814v.871H7.971v-.871a4.357,4.357,0,0,1,8.714,0ZM9.714,41.957a2.614,2.614,0,1,1,2.614,2.614A2.617,2.617,0,0,1,9.714,41.957Zm6.971,0a4.3,4.3,0,0,0-.187-1.195l5.416-5.416v.511h5.229v3.574A4.335,4.335,0,0,0,25.207,47c-.01.005-.022.01-.031.016L16.43,43.376a4.334,4.334,0,0,0,.256-1.419ZM32.371,53.286H23.657v-.871a4.357,4.357,0,1,1,8.714,0ZM30.853,47.02c-.01-.005-.022-.01-.031-.016a4.336,4.336,0,0,0-1.936-7.574V35.857h5.229v-.511l5.416,5.416a3.976,3.976,0,0,0,.07,2.613Zm17.2,3.651v.871H39.343v-.871a4.357,4.357,0,1,1,8.714,0Zm-6.971-8.714A2.614,2.614,0,1,1,43.7,44.571,2.617,2.617,0,0,1,41.086,41.957Zm4.527-3.9a4.262,4.262,0,0,0-5.223,1.1L34.1,32.863a6.078,6.078,0,0,0-1.82-3.977H44.667a6.08,6.08,0,0,0-1.839,4.357v2.614h3.844Z" transform="translate(-1 -1)"/>
      </g>
    </g>
  </g>
</svg>
