<svg id="Grupo_1100161" data-name="Grupo 1100161" xmlns="http://www.w3.org/2000/svg" xmlns:xlink="http://www.w3.org/1999/xlink" width="16.993" height="25.5" viewBox="0 0 16.993 25.5">
  <defs>
    <clipPath id="clip-path">
      <rect id="Rectángulo_401570" data-name="Rectángulo 401570" width="16.993" height="25.5" transform="translate(0 0)" fill="#adecd1"/>
    </clipPath>
  </defs>
  <g id="Grupo_1100160" data-name="Grupo 1100160" clip-path="url(#clip-path)">
    <path id="Trazado_874970" data-name="Trazado 874970" d="M31.847,72.3h0a8.511,8.511,0,0,0,8.511-8.511A8.511,8.511,0,0,0,31.847,72.3Z" transform="translate(-23.366 -46.804)" fill="#adecd1"/>
    <path id="Trazado_874971" data-name="Trazado 874971" d="M31.847,40.407h0A8.511,8.511,0,0,0,40.358,31.9,8.511,8.511,0,0,0,31.847,40.407Z" transform="translate(-23.366 -23.402)" fill="#adecd1"/>
    <path id="Trazado_874972" data-name="Trazado 874972" d="M31.847,8.511h0A8.511,8.511,0,0,0,40.358,0,8.511,8.511,0,0,0,31.847,8.511Z" transform="translate(-23.366 0)" fill="#adecd1"/>
    <path id="Trazado_874973" data-name="Trazado 874973" d="M8.511,72.3h0A8.511,8.511,0,0,1,0,63.793,8.511,8.511,0,0,1,8.511,72.3Z" transform="translate(0 -46.804)" fill="#adecd1"/>
    <path id="Trazado_874974" data-name="Trazado 874974" d="M8.511,40.407h0A8.511,8.511,0,0,1,0,31.9,8.511,8.511,0,0,1,8.511,40.407Z" transform="translate(0 -23.402)" fill="#adecd1"/>
    <path id="Trazado_874975" data-name="Trazado 874975" d="M8.511,8.511h0A8.511,8.511,0,0,1,0,0,8.511,8.511,0,0,1,8.511,8.511Z" transform="translate(0 0)" fill="#adecd1"/>
  </g>
</svg>
