<svg xmlns="http://www.w3.org/2000/svg" xmlns:xlink="http://www.w3.org/1999/xlink" width="130.113" height="130.788" viewBox="0 0 130.113 130.788">
  <defs>
    <filter id="_52" x="0" y="0" width="130.113" height="130.788" filterUnits="userSpaceOnUse">
      <feOffset dx="3" dy="3" input="SourceAlpha"/>
      <feGaussianBlur stdDeviation="3" result="blur"/>
      <feFlood flood-opacity="0.161"/>
      <feComposite operator="in" in2="blur"/>
      <feComposite in="SourceGraphic"/>
    </filter>
  </defs>
  <g id="Grupo_1195568" data-name="Grupo 1195568" transform="translate(11256.287 -4286.52)">
    <g transform="matrix(1, 0, 0, 1, -11256.29, 4286.52)" filter="url(#_52)">
      <g id="_52-2" data-name="52" transform="translate(6 6)" fill="#fff" stroke="#fff" stroke-width="3">
        <ellipse cx="56.056" cy="56.394" rx="56.056" ry="56.394" stroke="none"/>
        <ellipse cx="56.056" cy="56.394" rx="54.556" ry="54.894" fill="none"/>
      </g>
    </g>
    <g id="surface1" transform="translate(-11220.837 4314.972)">
      <path id="Trazado_1110696" data-name="Trazado 1110696" d="M90.4,334.255l-5.271-1.08-3.05,3.159-10.4-8.207,6.934-4.732,7.373-8.069a2.775,2.775,0,0,1,4.4.393l8.735,10.018a3.22,3.22,0,0,1-.779,4.883L93.2,333.685A4.783,4.783,0,0,1,90.4,334.255Zm0,0" transform="translate(-62.023 -272.051)" fill="#ffe7cf"/>
      <path id="Trazado_1110697" data-name="Trazado 1110697" d="M131.345,382.683l-2.131-2.445-8.889,5.3a4.794,4.794,0,0,1-2.795.57l-4.617-.5-3.988,3.425,5.378,4.245,3.05-3.159,5.271,1.081a4.794,4.794,0,0,0,2.795-.57l5.146-3.065A3.22,3.22,0,0,0,131.345,382.683Zm0,0" transform="translate(-94.247 -328.995)" fill="#efd5bd"/>
      <path id="Trazado_1110698" data-name="Trazado 1110698" d="M169.037,296.985c-1.029-1.6-2.283-.788-3.312-2.385s.224-2.4-.8-4-2.283-.789-3.312-2.386.224-2.4-.806-4c-.629-.976-1.769-2.99-2.463-3.268l-5.555,2.745,9.667,15.246a3.153,3.153,0,0,0,4.358.941l1.849-1.192a1.229,1.229,0,0,0,.386-1.687Zm0,0" transform="translate(-132.195 -243.083)" fill="#344a5d"/>
      <path id="Trazado_1110699" data-name="Trazado 1110699" d="M93.7,272.858l-4.364,2.692a1.762,1.762,0,0,1-2.425-.574l-2.467-4a1.762,1.762,0,0,1,.574-2.425l4.364-2.692a1.09,1.09,0,0,1,1.5.355l3.172,5.141A1.09,1.09,0,0,1,93.7,272.858Zm0,0" transform="translate(-72.84 -229.892)" fill="#344a5d"/>
      <path id="Trazado_1110700" data-name="Trazado 1110700" d="M110.245,69.633,101.387,75.1a2.48,2.48,0,0,0-.808,3.413l4.368,7.079a2.48,2.48,0,0,0,3.413.809l8.858-5.465,28.017-6.1L128.262,47.328Zm0,0" transform="translate(-86.705 -40.95)" fill="#fed066"/>
      <path id="Trazado_1110701" data-name="Trazado 1110701" d="M155.27,203.344,127.4,209.677l-10.968,6.768,2.552,4.136a2.48,2.48,0,0,0,3.413.809l8.858-5.465,28.017-6.1Zm0,0" transform="translate(-100.739 -175.94)" fill="#f5b556"/>
      <path id="Trazado_1110702" data-name="Trazado 1110702" d="M117.218,224.136,108.36,229.6a2.48,2.48,0,0,1-3.413-.809l-4.368-7.079a2.48,2.48,0,0,1,.808-3.413l8.858-5.465Zm0,0" transform="translate(-86.705 -184.153)" fill="#fd715c"/>
      <path id="Trazado_1110703" data-name="Trazado 1110703" d="M127.4,250.336,116.43,257.1l2.552,4.136a2.48,2.48,0,0,0,3.413.809l8.858-5.465Zm0,0" transform="translate(-100.739 -216.599)" fill="#d83e3a"/>
      <path id="Trazado_1110704" data-name="Trazado 1110704" d="M308.819,60.239l-1.209.746a1.334,1.334,0,0,1-1.835-.435L287.529,30.98a1.334,1.334,0,0,1,.435-1.835l1.209-.746a1.334,1.334,0,0,1,1.835.434L309.253,58.4A1.334,1.334,0,0,1,308.819,60.239Zm0,0" transform="translate(-248.608 -24.399)" fill="#fd715c"/>
      <path id="Trazado_1110705" data-name="Trazado 1110705" d="M408.4,221.084l-3-4.865-3.479,2.147,3,4.865a1.334,1.334,0,0,0,1.835.435l1.209-.746A1.334,1.334,0,0,0,408.4,221.084Zm0,0" transform="translate(-347.753 -187.08)" fill="#d83e3a"/>
      <path id="Trazado_1110706" data-name="Trazado 1110706" d="M250.823,394.373a2.29,2.29,0,0,0,3.148.76l3.339-2.04a2.29,2.29,0,0,0-2.388-3.908l-3.339,2.041A2.289,2.289,0,0,0,250.823,394.373Zm0,0" transform="translate(-216.73 -336.445)" fill="#ffe7cf"/>
      <path id="Trazado_1110707" data-name="Trazado 1110707" d="M258.209,390.986a2.276,2.276,0,0,0-1.115-.935,2.29,2.29,0,0,1-1.074,2.261l-3.339,2.04a2.285,2.285,0,0,1-2.033.174,2.288,2.288,0,0,0,3.462,1.647l3.338-2.04A2.289,2.289,0,0,0,258.209,390.986Zm0,0" transform="translate(-216.869 -337.486)" fill="#efd5bd"/>
      <path id="Trazado_1110708" data-name="Trazado 1110708" d="M240.181,360.831a2.324,2.324,0,0,0,3.2.772l3.279-2a2.324,2.324,0,0,0-2.424-3.967l-3.28,2A2.324,2.324,0,0,0,240.181,360.831Zm0,0" transform="translate(-207.517 -307.41)" fill="#ffe7cf"/>
      <path id="Trazado_1110709" data-name="Trazado 1110709" d="M247.555,357.558a2.315,2.315,0,0,0-1.093-.933,2.324,2.324,0,0,1-1.092,2.276l-3.279,2a2.32,2.32,0,0,1-2.1.161,2.322,2.322,0,0,0,3.517,1.69l3.279-2A2.325,2.325,0,0,0,247.555,357.558Zm0,0" transform="translate(-207.646 -308.564)" fill="#efd5bd"/>
      <path id="Trazado_1110710" data-name="Trazado 1110710" d="M222.045,331.589a2.325,2.325,0,0,0,3.2.772l3.279-2a2.324,2.324,0,1,0-2.424-3.966l-3.279,2A2.325,2.325,0,0,0,222.045,331.589Zm0,0" transform="translate(-191.826 -282.108)" fill="#ffe7cf"/>
      <path id="Trazado_1110711" data-name="Trazado 1110711" d="M229.4,328.383a2.315,2.315,0,0,0-1.067-.922,2.323,2.323,0,0,1-1.1,2.242l-3.279,2a2.319,2.319,0,0,1-2.129.151,2.321,2.321,0,0,0,3.52,1.725l3.279-2A2.325,2.325,0,0,0,229.4,328.383Zm0,0" transform="translate(-191.933 -283.331)" fill="#efd5bd"/>
      <path id="Trazado_1110712" data-name="Trazado 1110712" d="M204.949,301.6a2.325,2.325,0,0,0,3.2.772l3.279-2A2.324,2.324,0,1,0,209,296.4l-3.279,2A2.325,2.325,0,0,0,204.949,301.6Zm0,0" transform="translate(-177.034 -256.158)" fill="#ffe7cf"/>
      <path id="Trazado_1110713" data-name="Trazado 1110713" d="M212.538,297.844a2.312,2.312,0,0,0-1.3-1.008,2.324,2.324,0,0,1-1.059,2.468l-3.279,2a2.318,2.318,0,0,1-1.895.236,2.32,2.32,0,0,0,3.483,1.5l3.28-2A2.325,2.325,0,0,0,212.538,297.844Zm0,0" transform="translate(-177.377 -256.833)" fill="#efd5bd"/>
      <path id="Trazado_1110714" data-name="Trazado 1110714" d="M139.377,301.369l-.608.372a2,2,0,0,1-2.763-.626L135,299.467a1.727,1.727,0,0,0-2.392-.534c-.829,6.08-9.469,5.531-9.469,5.531l5.355-8.065a4.31,4.31,0,0,1,1.458-1.5l3.022-1.874a3.077,3.077,0,0,1,4.258.949l2.848,4.648A2.005,2.005,0,0,1,139.377,301.369Zm0,0" transform="translate(-106.542 -253.118)" fill="#ffe7cf"/>
      <path id="Trazado_1110715" data-name="Trazado 1110715" d="M177.463,324.345l-.023-.038a2.071,2.071,0,0,1-.678.673l-.609.372a2,2,0,0,1-2.763-.626l-1.008-1.647a1.728,1.728,0,0,0-2.392-.534,12.031,12.031,0,0,1-3.646,6.667,5.686,5.686,0,0,0,3.646-4.553,1.728,1.728,0,0,1,2.392.534l1.008,1.647a2,2,0,0,0,2.763.626l.609-.372A2.005,2.005,0,0,0,177.463,324.345Zm0,0" transform="translate(-143.927 -278.843)" fill="#efd5bd"/>
      <path id="Trazado_1110716" data-name="Trazado 1110716" d="M95.392,398.03l-8.517-10.122,2.8-2.36a.21.21,0,0,1,.3.025l8.248,9.8a.209.209,0,0,1-.025.295Zm0,0" transform="translate(-75.167 -333.547)" fill="#cdd6df"/>
      <path id="Trazado_1110717" data-name="Trazado 1110717" d="M123.869,425.3l-4.388-5.214-2.965,2.495,4.522,5.374,2.8-2.36A.209.209,0,0,0,123.869,425.3Zm0,0" transform="translate(-100.814 -363.473)" fill="#96a4aa"/>
      <path id="Trazado_1110718" data-name="Trazado 1110718" d="M27.322,407.946l-9.206-10.8a.221.221,0,0,0-.293-.039l-9.8,7.739a1.364,1.364,0,0,0-.519,1.071v3.148a1.364,1.364,0,0,0,1.364,1.364H24.9a1.365,1.365,0,0,0,1.063-.51l1.348-1.677A.222.222,0,0,0,27.322,407.946Zm0,0" transform="translate(-6.489 -343.558)" fill="#3c5666"/>
      <path id="Trazado_1110719" data-name="Trazado 1110719" d="M85.3,444.9l-4.365-5.121-6.426,7.6h8.371a1.365,1.365,0,0,0,1.063-.51l1.348-1.677A.221.221,0,0,0,85.3,444.9Zm0,0" transform="translate(-64.47 -380.514)" fill="#194451"/>
      <path id="Trazado_1110720" data-name="Trazado 1110720" d="M403.445,91.148a1.011,1.011,0,0,0,1.391.331l5.479-3.37a1.011,1.011,0,1,0-1.06-1.721l-5.479,3.37A1.011,1.011,0,0,0,403.445,91.148Zm0,0" transform="translate(-348.945 -74.616)"/>
      <path id="Trazado_1110721" data-name="Trazado 1110721" d="M446.539,167.468l-8.032-.78a1.011,1.011,0,1,0-.2,2.012l8.032.78c.034,0,.066,0,.1,0a1.011,1.011,0,0,0,.1-2.017Zm0,0" transform="translate(-378.452 -144.219)"/>
      <path id="Trazado_1110722" data-name="Trazado 1110722" d="M369.836,9.474a1.008,1.008,0,0,0,1.308-.575l2.925-7.521a1.011,1.011,0,0,0-1.884-.733L369.26,8.166A1.01,1.01,0,0,0,369.836,9.474Zm0,0" transform="translate(-319.437 0)"/>
      <path id="Trazado_1110723" data-name="Trazado 1110723" d="M43.26,21.818a2.347,2.347,0,0,0-3.226-.764l-1.209.746a2.344,2.344,0,0,0-.764,3.226l.7,1.127L22.863,45.828,19.506,47.9a1.011,1.011,0,0,0,1.062,1.72l2.643-1.631,5.151,8.349a4.13,4.13,0,0,0-2.161.452l-.036.018c-.091.048-.181.1-.268.152l-3.022,1.874a5.422,5.422,0,0,0-1.784,1.827l-.746,1.124-.548.825-.014,0-.025-.012c-.043-.019-.085-.04-.125-.063l-.026-.014a1.514,1.514,0,0,1-.13-.087l-.026-.02c-.038-.03-.075-.061-.111-.095l-.013-.012a1.55,1.55,0,0,1-.108-.118l-.022-.027a1.533,1.533,0,0,1-.095-.134l-4.368-7.079a1.469,1.469,0,0,1,.479-2.022l1.308-.806A1.011,1.011,0,0,0,15.46,50.4l-1.308.807a3.492,3.492,0,0,0-1.529,3.914l-.972.6a2.776,2.776,0,0,0-.9,3.815l2.467,4a2.755,2.755,0,0,0,1.72,1.242,2.8,2.8,0,0,0,.644.076,2.751,2.751,0,0,0,1.45-.414l.974-.6a3.49,3.49,0,0,0,.665.476l-2.806,4.227-.662.452a1.221,1.221,0,0,0-1.339.154L12.12,70.608a1.229,1.229,0,0,0-1.355.021c-.019.014-.039.027-.057.042L.9,78.41A2.361,2.361,0,0,0,0,80.274v3.149A2.378,2.378,0,0,0,2.375,85.8H18.413a2.363,2.363,0,0,0,1.851-.888l1.33-1.655a1.226,1.226,0,0,0,.3-.939l1.789-1.506a1.212,1.212,0,0,0,.371-.546l4.125.846a.992.992,0,0,0,.185.02c.121,0,.241,0,.361,0a5.375,5.375,0,0,0,2.97-.716l4.155-2.475c.07,0,.139.007.208.007a3.278,3.278,0,0,0,1.715-.486l3.338-2.04a3.3,3.3,0,0,0-.227-5.756,3.331,3.331,0,0,0-2.141-4.781,3.324,3.324,0,0,0-2.335-3.91,3.326,3.326,0,0,0-.378-2.578,3.38,3.38,0,0,0-.441-.571l20.027-4.359.7,1.127a2.346,2.346,0,0,0,3.226.764l1.209-.746a2.344,2.344,0,0,0,.764-3.226Zm-27.292,40.9a.752.752,0,0,1-1.034-.245l-2.467-4a.753.753,0,0,1,.245-1.034l.858-.529,3.256,5.276Zm2.72,20.93a.35.35,0,0,1-.275.132H2.375a.354.354,0,0,1-.353-.353V80.274A.352.352,0,0,1,2.156,80l9.2-7.259,8.288,9.723Zm2.055-3-7.27-8.529,1.077-.906,7.216,8.575Zm9.907-1.955a3.683,3.683,0,0,1-2.162.426l-5.178-1.062a1.008,1.008,0,0,0-.366-.008l-6.357-7.553.576-.393h0l.028-.022c.022-.016.043-.033.063-.05l.029-.027c.021-.019.039-.038.058-.059l.022-.025c.023-.027.044-.055.064-.084l.006-.007,0-.007,0-.008,5.345-8.051c.012-.017.023-.035.033-.053a3.306,3.306,0,0,1,1.116-1.149l3.022-1.874c.056-.035.113-.066.17-.095.026-.013.052-.024.078-.036s.061-.027.092-.039.07-.027.107-.039l.056-.018c.044-.014.089-.027.134-.038h0a2.146,2.146,0,0,1,.493-.06H28.1c.049,0,.1,0,.144.005l.046,0c.043,0,.085.008.127.015l.075.014a1.952,1.952,0,0,1,.191.046l.073.02c.032.011.063.023.095.036s.05.019.074.03.062.028.093.043l.068.035c.03.016.061.034.091.052l.061.039c.03.02.06.04.089.062s.035.027.052.041.059.047.088.073a1.937,1.937,0,0,1,.358.429l.074.122,1.078,1.758,1.352,2.207.344.562a.885.885,0,0,1,.08.166.944.944,0,0,1,.028.548,1.039,1.039,0,0,1-.475.645l-.608.372h0a1.066,1.066,0,0,1-.129.066l-.028.012a1.047,1.047,0,0,1-.133.044l-.016,0a1.059,1.059,0,0,1-.126.022l-.025,0a1.166,1.166,0,0,1-.135,0l-.025,0a1.04,1.04,0,0,1-.136-.017h0a.988.988,0,0,1-.14-.04l-.012,0a.948.948,0,0,1-.262-.151h0a.975.975,0,0,1-.109-.1l-.008-.01a.884.884,0,0,1-.086-.116l-1.008-1.647a2.672,2.672,0,0,0-1.677-1.212,2.762,2.762,0,0,0-2.11.346,1.011,1.011,0,0,0-.469.722c-.012.086-.026.171-.041.255-.012.061-.025.122-.038.182,0,.02-.008.04-.013.061-.018.076-.037.151-.059.224l0,.009a4.282,4.282,0,0,1-.476,1.074,0,0,0,0,0,0,0,4.746,4.746,0,0,1-1.605,1.537,1.011,1.011,0,1,0,1.05,1.727,7.4,7.4,0,0,0,1.31-1.005l4.221,6.657A4.188,4.188,0,0,0,32.92,76.22c.074,0,.147,0,.221-.008.029.053.058.1.09.157a3.334,3.334,0,0,0,.408.536Zm.858-7.431v0c.017.047.035.094.055.141l.007.017c.017.042.036.084.056.125,0,.009.008.019.013.028.018.039.039.077.059.116.006.012.012.023.018.034.027.049.055.1.085.147.051.083.106.163.163.24l.063.081c.037.047.076.093.115.139s.055.064.084.095.045.044.068.067a3.33,3.33,0,0,0,.256.231l.028.022a3.283,3.283,0,0,0,.559.358,3.328,3.328,0,0,0-.357,1.1,2.146,2.146,0,0,1-1.669-.97L26.464,65.9a6.5,6.5,0,0,0,.494-1.426.754.754,0,0,1,.216.019.668.668,0,0,1,.42.3L28.6,66.438l0,.007a2.808,2.808,0,0,0,.16.234c.042.055.087.107.133.158.016.018.03.037.046.055l.007.027q.024.1.054.208c.006.02.012.04.018.06.025.078.051.155.082.231,0,.008.006.015.009.023.028.07.059.137.092.2.009.02.019.039.029.058.038.074.077.146.12.218a3.312,3.312,0,0,0,2.031,1.494A3.322,3.322,0,0,0,31.508,71.254Zm.645-12.029.339-.207a1.314,1.314,0,1,1,1.37,2.242l-.337.206-1-1.63Zm7.533,12.141a1.279,1.279,0,0,1,.366,2.335l-3.338,2.04a1.269,1.269,0,0,1-.886.167l-.053-.011-.027-.005a1.271,1.271,0,0,1-.952-.989.077.077,0,0,0,0-.012,1.287,1.287,0,0,1,.339-1.134l.023-.024.045-.042c.015-.014.031-.027.048-.04l.036-.029c.03-.022.06-.043.092-.063h0l.663-.405a3.445,3.445,0,0,0,.343-.182l2.554-1.561A1.273,1.273,0,0,1,39.686,71.365Zm-2.325-4.43a1.314,1.314,0,0,1,1.251,2.306l-.6.368a3.377,3.377,0,0,0-.346.184l-2.54,1.552a1.317,1.317,0,0,1-1.371-.258h0c-.028-.026-.055-.053-.081-.082l-.02-.024c-.019-.022-.038-.044-.056-.068s-.048-.067-.07-.1-.042-.074-.061-.112l-.016-.037c-.012-.026-.023-.052-.033-.079s-.009-.028-.014-.042-.016-.051-.023-.077-.007-.029-.011-.043-.011-.052-.016-.079l-.006-.041c0-.027-.006-.055-.008-.082s0-.026,0-.039c0-.028,0-.057,0-.085,0-.013,0-.025,0-.037,0-.029,0-.057.008-.086,0-.012,0-.024,0-.036s.009-.051.014-.076a1.311,1.311,0,0,1,.421-.718l.026-.025.038-.033c.032-.018.064-.034.095-.053l3.28-2Q37.293,66.981,37.361,66.935ZM35.79,62.9a1.314,1.314,0,0,1,.5,2.315c-.034.018-.067.037-.1.057l-2.532,1.548.025-.02c.049-.038.1-.077.142-.118.028-.025.055-.052.083-.078s.082-.081.121-.123.052-.058.077-.088.072-.086.106-.131.047-.063.07-.1.063-.093.093-.141.041-.066.06-.1c.029-.051.055-.1.081-.155.016-.033.034-.065.048-.1.026-.058.049-.118.073-.179.011-.029.023-.057.033-.087.031-.091.059-.183.082-.277s.038-.18.052-.271c0-.029.006-.058.01-.087.007-.062.013-.124.017-.186,0-.034,0-.067,0-.1,0-.058,0-.115,0-.173,0-.034,0-.068-.005-.1,0-.058-.011-.116-.018-.173,0-.032-.008-.064-.013-.1-.011-.065-.025-.13-.041-.194-.005-.023-.009-.047-.015-.07-.023-.087-.049-.173-.081-.257-.006-.016-.014-.033-.02-.049-.022-.057-.044-.114-.07-.17l.232-.142A1.306,1.306,0,0,1,35.79,62.9ZM59.824,52.693a.322.322,0,0,1-.145.2l-1.209.746a.324.324,0,0,1-.444-.105L45.3,32.9a1.01,1.01,0,1,0-1.72,1.061l10.91,17.682L31,56.758,24.777,46.676l15.1-18.7,1.22,1.978a1.011,1.011,0,1,0,1.72-1.062l-3.041-4.928a.323.323,0,0,1,.105-.444l1.209-.746a.323.323,0,0,1,.444.105L59.785,52.45A.321.321,0,0,1,59.824,52.693Zm0,0" transform="translate(0 -17.915)"/>
    </g>
  </g>
</svg>
