<svg xmlns="http://www.w3.org/2000/svg" xmlns:xlink="http://www.w3.org/1999/xlink" width="91.674" height="91.674" viewBox="0 0 91.674 91.674">
  <defs>
    <filter id="Elipse_13737" x="0" y="0" width="91.674" height="91.674" filterUnits="userSpaceOnUse">
      <feOffset dy="3" input="SourceAlpha"/>
      <feGaussianBlur stdDeviation="3" result="blur"/>
      <feFlood flood-opacity="0.161"/>
      <feComposite operator="in" in2="blur"/>
      <feComposite in="SourceGraphic"/>
    </filter>
  </defs>
  <g id="Grupo_1195004" data-name="Grupo 1195004" transform="translate(1928.842 8666.668)">
    <g id="Grupo_1193951" data-name="Grupo 1193951" transform="translate(-1919.842 -8660.668)">
      <g transform="matrix(1, 0, 0, 1, -9, -6)" filter="url(#Elipse_13737)">
        <circle id="Elipse_13737-2" data-name="Elipse 13737" cx="36.837" cy="36.837" r="36.837" transform="translate(9 6)" fill="#fff"/>
      </g>
    </g>
    <g id="financiero" transform="translate(-1902.791 -8651.141)">
      <circle id="Elipse_13994" data-name="Elipse 13994" cx="9.226" cy="9.226" r="9.226" transform="translate(25.838 10.013)" fill="#ffe66d"/>
      <path id="Trazado_1109503" data-name="Trazado 1109503" d="M52.349,17.7A9.22,9.22,0,0,1,37.63,28.558,9.226,9.226,0,1,0,52.349,17.7Z" transform="translate(-10.635 -4.849)" fill="#e6cf62"/>
      <rect id="Rectángulo_461338" data-name="Rectángulo 461338" width="4" height="20" rx="1" transform="translate(10 24)" fill="#7083a6"/>
      <rect id="Rectángulo_461339" data-name="Rectángulo 461339" width="4" height="20" rx="1" transform="translate(2 24)" fill="#677999"/>
      <rect id="Rectángulo_461340" data-name="Rectángulo 461340" width="4.258" height="19.871" rx="1" transform="translate(17.189 24.848) rotate(-12.007)" fill="#798db3"/>
      <rect id="Rectángulo_461341" data-name="Rectángulo 461341" width="4.258" height="19.871" rx="1" transform="translate(23.507 28.489) rotate(-36.011)" fill="#8197bf"/>
      <path id="Trazado_1109504" data-name="Trazado 1109504" d="M7,18.258l5.677,4.258V20.387h8.516V16.129H12.677V14Z" transform="translate(-1.742 -3.774)" fill="#d98285"/>
      <path id="Trazado_1109505" data-name="Trazado 1109505" d="M41.452,12.7a9.919,9.919,0,0,0-7.316,16.635,1.419,1.419,0,0,0-1.793-.1l-2.3,1.668a1.419,1.419,0,0,0-.581,1.152l-.88-4.14a1.419,1.419,0,0,0-1.681-1.1l-2.777.59a1.419,1.419,0,0,0-1.093,1.683L26.869,47.14a1.419,1.419,0,0,0,1.388,1.124,1.4,1.4,0,0,0,.3-.031l2.776-.59a1.419,1.419,0,0,0,1.094-1.683L29.59,32.642a1.479,1.479,0,0,0,.142.243L40.578,47.811a1.412,1.412,0,0,0,.923.568,1.518,1.518,0,0,0,.229.018,1.411,1.411,0,0,0,.832-.271l2.3-1.668a1.419,1.419,0,0,0,.313-1.983L34.326,29.547a1.42,1.42,0,0,0-.147-.165A9.929,9.929,0,1,0,41.452,12.7ZM31.034,46.255l-2.776.59L24.42,28.8l2.776-.59Zm12.987-.947-2.294,1.669L30.878,32.049l2.3-1.668ZM41.452,31.151a8.516,8.516,0,1,1,8.516-8.516A8.516,8.516,0,0,1,41.452,31.151Z" transform="translate(-6.388 -3.397)"/>
      <path id="Trazado_1109506" data-name="Trazado 1109506" d="M13.419,33A1.419,1.419,0,0,0,12,34.419V52.871a1.419,1.419,0,0,0,1.419,1.419h2.839a1.419,1.419,0,0,0,1.419-1.419V34.419A1.419,1.419,0,0,0,16.258,33Zm0,19.871V34.419h2.839V52.871Z" transform="translate(-3.194 -9.291)"/>
      <path id="Trazado_1109507" data-name="Trazado 1109507" d="M2.419,54.29H5.258a1.419,1.419,0,0,0,1.419-1.419V34.419A1.419,1.419,0,0,0,5.258,33H2.419A1.419,1.419,0,0,0,1,34.419V52.871A1.419,1.419,0,0,0,2.419,54.29Zm0-19.871H5.258V52.871H2.419Z" transform="translate(0 -9.291)"/>
      <path id="Trazado_1109508" data-name="Trazado 1109508" d="M48,1h1.419V5.258H48Z" transform="translate(-13.646)"/>
      <path id="Trazado_1109509" data-name="Trazado 1109509" d="M39,5h1.419V9.258H39Z" transform="translate(-11.033 -1.161)"/>
      <path id="Trazado_1109510" data-name="Trazado 1109510" d="M57,5h1.419V9.258H57Z" transform="translate(-16.258 -1.161)"/>
      <path id="Trazado_1109511" data-name="Trazado 1109511" d="M21.613,20.1V15.839a.71.71,0,0,0-.71-.71H13.1V13.71a.71.71,0,0,0-1.135-.568L6.284,17.4a.71.71,0,0,0,0,1.135l5.677,4.258a.71.71,0,0,0,1.135-.568V20.806H20.9A.71.71,0,0,0,21.613,20.1Zm-1.419-.71H12.387a.71.71,0,0,0-.71.71v.71L7.893,17.968l3.785-2.839v.71a.71.71,0,0,0,.71.71h7.806Z" transform="translate(-1.452 -3.484)"/>
      <path id="Trazado_1109512" data-name="Trazado 1109512" d="M48.323,18.419h-.355V17H46.548v1.419h-.355a3.194,3.194,0,0,0,0,6.387h2.129a1.774,1.774,0,1,1,0,3.548H46.194a1.774,1.774,0,0,1-1.774-1.774v-.355H43v.355a3.2,3.2,0,0,0,3.194,3.194h.355v1.419h1.419V29.774h.355a3.194,3.194,0,0,0,0-6.387H46.194a1.774,1.774,0,0,1,0-3.548h2.129A1.774,1.774,0,0,1,50.1,21.613v.355h1.419v-.355A3.2,3.2,0,0,0,48.323,18.419Z" transform="translate(-12.194 -4.645)"/>
    </g>
  </g>
</svg>
