<svg xmlns="http://www.w3.org/2000/svg" xmlns:xlink="http://www.w3.org/1999/xlink" width="130.113" height="130.788" viewBox="0 0 130.113 130.788">
  <defs>
    <filter id="_52" x="0.001" y="0" width="130.113" height="130.788" filterUnits="userSpaceOnUse">
      <feOffset dx="3" dy="3" input="SourceAlpha"/>
      <feGaussianBlur stdDeviation="3" result="blur"/>
      <feFlood flood-opacity="0.161"/>
      <feComposite operator="in" in2="blur"/>
      <feComposite in="SourceGraphic"/>
    </filter>
  </defs>
  <g id="Grupo_1195604" data-name="Grupo 1195604" transform="translate(8547.113 6805.61)">
    <g id="Grupo_1195598" data-name="Grupo 1195598" transform="translate(-23054.082 1299.803)">
      <g transform="matrix(1, 0, 0, 1, 14506.97, -8105.41)" filter="url(#_52)">
        <g id="_52-2" data-name="52" transform="translate(6 6)" fill="#fff" stroke="#fff" stroke-width="3">
          <ellipse cx="56.056" cy="56.394" rx="56.056" ry="56.394" stroke="none"/>
          <ellipse cx="56.056" cy="56.394" rx="54.556" ry="54.894" fill="none"/>
        </g>
      </g>
    </g>
    <g id="informe-seo" transform="translate(-8513.156 -6769.784)">
      <rect id="Rectángulo_461459" data-name="Rectángulo 461459" width="42" height="56" rx="3" transform="translate(8 6)" fill="#c0dafb"/>
      <rect id="Rectángulo_461460" data-name="Rectángulo 461460" width="42" height="56" rx="3" transform="translate(4 2)" fill="#e3e8f6"/>
      <path id="Trazado_1110836" data-name="Trazado 1110836" d="M43,2H7V51a3,3,0,0,0,3,3H46V5A3,3,0,0,0,43,2Z" fill="#f8f7fe"/>
      <path id="Trazado_1110837" data-name="Trazado 1110837" d="M52,36V58a4,4,0,0,1-4,4H6a4,4,0,0,1-4-4V30a4,4,0,0,1,4-4H18l4,6H48A4,4,0,0,1,52,36Z" fill="#f3a845"/>
      <path id="Trazado_1110838" data-name="Trazado 1110838" d="M22,32H36l-3-4H19.333Z" fill="#f3a845"/>
      <path id="Trazado_1110839" data-name="Trazado 1110839" d="M48,32H22l-4-6H6a3.974,3.974,0,0,0-.892.108A3.974,3.974,0,0,0,5,27V55a4,4,0,0,0,4,4H51a3.973,3.973,0,0,0,.892-.108A3.974,3.974,0,0,0,52,58V36A4,4,0,0,0,48,32Z" fill="#eecc61"/>
      <path id="Trazado_1110840" data-name="Trazado 1110840" d="M8,6h6v4H8Z" fill="#f3a845"/>
      <path id="Trazado_1110841" data-name="Trazado 1110841" d="M12,8h2V6H10A2,2,0,0,0,12,8Z" fill="#eecc61"/>
      <path id="Trazado_1110842" data-name="Trazado 1110842" d="M8,16h6v4H8Z" fill="#f3a845"/>
      <path id="Trazado_1110843" data-name="Trazado 1110843" d="M12,18h2V16H10A2,2,0,0,0,12,18Z" fill="#eecc61"/>
      <path id="Trazado_1110844" data-name="Trazado 1110844" d="M62,54l-8-8-3,3L62,60Z" fill="#939393"/>
      <circle id="Elipse_14019" data-name="Elipse 14019" cx="12" cy="12" r="12" transform="translate(30 24)" fill="#939393"/>
      <path id="Trazado_1110845" data-name="Trazado 1110845" d="M52.237,42.237a12.023,12.023,0,0,1-5.306,4.694L50,50l5-5Z" fill="#686868"/>
      <circle id="Elipse_14020" data-name="Elipse 14020" cx="8" cy="8" r="8" transform="translate(34 28)" fill="#e3e8f6"/>
      <ellipse id="Elipse_14021" data-name="Elipse 14021" cx="6.5" cy="7.855" rx="6.5" ry="7.855" transform="translate(37 28.145)" fill="#f8f7fe"/>
      <path id="Trazado_1110846" data-name="Trazado 1110846" d="M54,47.414l7.293,7.293,1.414-1.415L55.414,46l.293-.293a1,1,0,0,0,0-1.414l-2.221-2.221A12.943,12.943,0,0,0,51,26.641V9a4,4,0,0,0-4-4,4,4,0,0,0-4-4H7A4,4,0,0,0,3,5V26.026A4.977,4.977,0,0,0,1,30V58a5.006,5.006,0,0,0,5,5H48a5.006,5.006,0,0,0,5-5V52.414l8.293,8.293,1.414-1.414L52.414,49ZM53.586,45,50,48.586l-1.4-1.4A13.063,13.063,0,0,0,52.384,43.8ZM53,36A11,11,0,1,1,42,25,11,11,0,0,1,53,36ZM30,31H22.535L21.2,29h9.861A12.862,12.862,0,0,0,30,31ZM49,9V25.063A12.907,12.907,0,0,0,47,24V7A2,2,0,0,1,49,9ZM5,5A2,2,0,0,1,7,3H43a2,2,0,0,1,2,2V23.363A12.867,12.867,0,0,0,32.641,27H19.868l-1.036-1.555A1,1,0,0,0,18,25H6a5,5,0,0,0-1,.1ZM51,58a3,3,0,0,1-3,3H6a3,3,0,0,1-3-3V30a3,3,0,0,1,3-3H17.465l3.7,5.555A1,1,0,0,0,22,33h7.363A12.968,12.968,0,0,0,46.7,48.109l2.6,2.6a1,1,0,0,0,1.414,0L51,50.414Z"/>
      <path id="Trazado_1110847" data-name="Trazado 1110847" d="M42,27a9,9,0,1,0,9,9,9,9,0,0,0-9-9Zm0,16a7,7,0,1,1,7-7,7,7,0,0,1-7,7Z"/>
      <path id="Trazado_1110848" data-name="Trazado 1110848" d="M8,11h6a1,1,0,0,0,1-1V6a1,1,0,0,0-1-1H8A1,1,0,0,0,7,6v4A1,1,0,0,0,8,11ZM9,7h4V9H9Z"/>
      <path id="Trazado_1110849" data-name="Trazado 1110849" d="M17,5H34V7H17Z"/>
      <path id="Trazado_1110850" data-name="Trazado 1110850" d="M17,9H39v2H17Z"/>
      <path id="Trazado_1110851" data-name="Trazado 1110851" d="M41,9h2v2H41Z"/>
      <path id="Trazado_1110852" data-name="Trazado 1110852" d="M8,21h6a1,1,0,0,0,1-1V16a1,1,0,0,0-1-1H8a1,1,0,0,0-1,1v4A1,1,0,0,0,8,21Zm1-4h4v2H9Z"/>
      <path id="Trazado_1110853" data-name="Trazado 1110853" d="M17,15H34v2H17Z"/>
      <path id="Trazado_1110854" data-name="Trazado 1110854" d="M17,19H39v2H17Z"/>
      <path id="Trazado_1110855" data-name="Trazado 1110855" d="M41,19h2v2H41Z"/>
    </g>
  </g>
</svg>
