<svg xmlns="http://www.w3.org/2000/svg" xmlns:xlink="http://www.w3.org/1999/xlink" width="130.113" height="130.788" viewBox="0 0 130.113 130.788">
  <defs>
    <filter id="_52" x="0.001" y="0" width="130.113" height="130.788" filterUnits="userSpaceOnUse">
      <feOffset dx="3" dy="3" input="SourceAlpha"/>
      <feGaussianBlur stdDeviation="3" result="blur"/>
      <feFlood flood-opacity="0.161"/>
      <feComposite operator="in" in2="blur"/>
      <feComposite in="SourceGraphic"/>
    </filter>
  </defs>
  <g id="Grupo_1195603" data-name="Grupo 1195603" transform="translate(8547.113 6679.466)">
    <g id="Grupo_1195599" data-name="Grupo 1195599" transform="translate(-23054.082 1425.947)">
      <g transform="matrix(1, 0, 0, 1, 14506.97, -8105.41)" filter="url(#_52)">
        <g id="_52-2" data-name="52" transform="translate(6 6)" fill="#fff" stroke="#fff" stroke-width="3">
          <ellipse cx="56.056" cy="56.394" rx="56.056" ry="56.394" stroke="none"/>
          <ellipse cx="56.056" cy="56.394" rx="54.556" ry="54.894" fill="none"/>
        </g>
      </g>
    </g>
    <g id="formulario-de-llenado" transform="translate(-8514.931 -6647.445)">
      <path id="Trazado_1110794" data-name="Trazado 1110794" d="M63.73,86.916H16V24H55.052l8.678,8.678Z" transform="translate(-14.915 -22.915)" fill="#e8edf1"/>
      <path id="Trazado_1110795" data-name="Trazado 1110795" d="M197.553,177.085,193.214,176,180.2,179.254l-6.612,12.278a2.17,2.17,0,0,0,.794,2.889l1.639.983a2.17,2.17,0,0,0,3.057-.89l4.376-8.752,7.593-2.17,6.509-2.17Z" transform="translate(-150.909 -154.305)" fill="#eec5a5"/>
      <path id="Trazado_1110796" data-name="Trazado 1110796" d="M170.17,352,168,359.593l7.593-2.17Z" transform="translate(-146.305 -306.44)" fill="#6a7073"/>
      <path id="Trazado_1110797" data-name="Trazado 1110797" d="M220.75,115.716l-.822-.821a3.254,3.254,0,0,0-4.6,0L184,146.221l5.424,5.424,31.327-31.327A3.254,3.254,0,0,0,220.75,115.716Z" transform="translate(-160.135 -100.661)" fill="#7e8488"/>
      <path id="Trazado_1110798" data-name="Trazado 1110798" d="M274.712,236.611h-4.339l-1.983,1.983a4.339,4.339,0,0,1-3.068,1.271H243.254A3.254,3.254,0,0,1,240,236.611v-1.085a3.254,3.254,0,0,1,3.254-3.254h9.763s3.875-2.09,1.085-8.678l4.339-4.339L261.7,216l6.509,6.509h6.509Z" transform="translate(-208.542 -188.881)" fill="#eec5a5"/>
      <path id="Trazado_1110799" data-name="Trazado 1110799" d="M312.678,32.678H304V24Z" transform="translate(-263.864 -22.915)" fill="#d9dbdd"/>
      <path id="Trazado_1110800" data-name="Trazado 1110800" d="M0,0H4.6V7.671H0Z" transform="translate(35.789 33.628) rotate(-45)" fill="#6a7073"/>
      <path id="Trazado_1110801" data-name="Trazado 1110801" d="M81.085,66.17h24.95a1.085,1.085,0,0,0,0-2.17H81.085a1.085,1.085,0,0,0,0,2.17Z" transform="translate(-70.237 -57.491)"/>
      <path id="Trazado_1110802" data-name="Trazado 1110802" d="M41.085,114.17H59.526a1.085,1.085,0,1,0,0-2.17H41.085a1.085,1.085,0,1,0,0,2.17Z" transform="translate(-35.661 -98.983)"/>
      <path id="Trazado_1110803" data-name="Trazado 1110803" d="M41.085,162.17h3.254a1.085,1.085,0,1,0,0-2.17H41.085a1.085,1.085,0,0,0,0,2.17Z" transform="translate(-35.661 -140.474)"/>
      <path id="Trazado_1110804" data-name="Trazado 1110804" d="M109.017,160H97.085a1.085,1.085,0,1,0,0,2.17h11.932a1.085,1.085,0,1,0,0-2.17Z" transform="translate(-84.068 -140.474)"/>
      <path id="Trazado_1110805" data-name="Trazado 1110805" d="M57.356,209.085A1.085,1.085,0,0,0,56.271,208H41.085a1.085,1.085,0,0,0,0,2.17H56.271A1.085,1.085,0,0,0,57.356,209.085Z" transform="translate(-35.661 -181.966)"/>
      <path id="Trazado_1110806" data-name="Trazado 1110806" d="M94.509,258.17a1.085,1.085,0,1,0,0-2.17H89.085a1.085,1.085,0,1,0,0,2.17Z" transform="translate(-77.152 -223.457)"/>
      <path id="Trazado_1110807" data-name="Trazado 1110807" d="M41.085,354.17h5.424a1.085,1.085,0,0,0,0-2.17H41.085a1.085,1.085,0,0,0,0,2.17Z" transform="translate(-35.661 -306.44)"/>
      <path id="Trazado_1110808" data-name="Trazado 1110808" d="M53.017,400H41.085a1.085,1.085,0,1,0,0,2.17H53.017a1.085,1.085,0,1,0,0-2.17Z" transform="translate(-35.661 -347.931)"/>
      <path id="Trazado_1110809" data-name="Trazado 1110809" d="M55.187,304h-14.1a1.085,1.085,0,1,0,0,2.17h14.1a1.085,1.085,0,1,0,0-2.17Z" transform="translate(-35.661 -264.948)"/>
      <path id="Trazado_1110810" data-name="Trazado 1110810" d="M115.254,352h-2.17a1.085,1.085,0,0,0,0,2.17h2.17a1.085,1.085,0,0,0,0-2.17Z" transform="translate(-97.898 -306.44)"/>
      <path id="Trazado_1110811" data-name="Trazado 1110811" d="M41.085,258.17h2.17a1.085,1.085,0,1,0,0-2.17h-2.17a1.085,1.085,0,1,0,0,2.17Z" transform="translate(-35.661 -223.457)"/>
      <path id="Trazado_1110812" data-name="Trazado 1110812" d="M208,113.085a1.085,1.085,0,0,0,1.085,1.085h9.763a1.085,1.085,0,0,0,0-2.17h-9.763A1.085,1.085,0,0,0,208,113.085Z" transform="translate(-180.881 -98.983)"/>
      <path id="Trazado_1110813" data-name="Trazado 1110813" d="M74.171,48.543H68.111l-2.17-2.17L70.6,41.717a1.085,1.085,0,0,0,0-1.534L68.111,37.7l1.271-1.271a4.344,4.344,0,0,0,0-6.136l-.821-.821a4.339,4.339,0,0,0-6.136,0L57.9,33.992V25.763A1.085,1.085,0,0,0,57.581,25L48.9,16.318A1.085,1.085,0,0,0,48.136,16H9.085A1.085,1.085,0,0,0,8,17.085V80a1.085,1.085,0,0,0,1.085,1.085h47.73A1.085,1.085,0,0,0,57.9,80V68.069H64.78a5.387,5.387,0,0,0,3.835-1.589l1.666-1.666h3.89a1.085,1.085,0,0,0,1.085-1.085v-14.1a1.085,1.085,0,0,0-1.085-1.085Zm-9.763-3.7-1.72-1.72,3.89-3.89,1.72,1.72ZM63.958,31a2.17,2.17,0,0,1,3.068,0l.821.821a2.172,2.172,0,0,1,0,3.068l-1.271,1.271-3.89-3.89ZM65.043,37.7,52.475,50.263l-3.89-3.89L61.153,33.806Zm-12.9,20.611H47.5l5.616-5.616C54.157,56.3,52.7,57.863,52.142,58.306ZM38.373,62.645V63.73a4.355,4.355,0,0,0,.042.594L37.289,65.45,33.4,61.56l10.4-10.4,3.89,3.89-3.254,3.254h-1.72a4.344,4.344,0,0,0-4.339,4.339Zm-5.972.986,2.817,2.817-3.943,1.127Zm16.82-10.113-3.89-3.89,1.72-1.72,3.89,3.89Zm-1.653-9.195-7.323,2.092a1.085,1.085,0,0,0-.672.558L35.2,55.725a1.085,1.085,0,0,1-1.528.445l-1.639-.983a1.083,1.083,0,0,1-.4-1.444l6.384-11.857,12.289-3.072,2.217.554ZM41.3,48.37l3.109-.888-5.331,5.33ZM49.221,19.7,54.2,24.678H49.221ZM55.73,78.916H10.169V18.17H47.051v7.593a1.085,1.085,0,0,0,1.085,1.085H55.73v9.314l-1.418,1.418-3.743-.936a1.086,1.086,0,0,0-.526,0L37.026,39.9a1.085,1.085,0,0,0-.692.538L29.722,52.714a3.25,3.25,0,0,0,1.191,4.333l1.639.983a3.247,3.247,0,0,0,.933.375L31.1,60.793a1.08,1.08,0,0,0-.276.469l-2.17,7.593A1.085,1.085,0,0,0,29.994,70.2l7.593-2.17a1.083,1.083,0,0,0,.469-.275l1.289-1.289a4.332,4.332,0,0,0,3.366,1.607H55.73ZM73.086,62.645H69.832a1.085,1.085,0,0,0-.767.318l-1.983,1.983a3.232,3.232,0,0,1-2.3.953H42.712a2.172,2.172,0,0,1-2.17-2.17V62.645a2.172,2.172,0,0,1,2.17-2.17h9.763a1.084,1.084,0,0,0,.515-.13,5.215,5.215,0,0,0,2.059-2.37c.883-1.916.807-4.269-.218-7l6.322-6.322,1.72,1.72L59.3,49.945a1.085,1.085,0,0,0,1.534,1.534l3.572-3.572,2.487,2.487a1.085,1.085,0,0,0,.767.318h5.424Z" transform="translate(-8 -16)"/>
    </g>
  </g>
</svg>
