<svg xmlns="http://www.w3.org/2000/svg" xmlns:xlink="http://www.w3.org/1999/xlink" width="130.113" height="130.788" viewBox="0 0 130.113 130.788">
  <defs>
    <filter id="_52" x="0" y="0" width="130.113" height="130.788" filterUnits="userSpaceOnUse">
      <feOffset dx="3" dy="3" input="SourceAlpha"/>
      <feGaussianBlur stdDeviation="3" result="blur"/>
      <feFlood flood-opacity="0.161"/>
      <feComposite operator="in" in2="blur"/>
      <feComposite in="SourceGraphic"/>
    </filter>
  </defs>
  <g id="Grupo_1195606" data-name="Grupo 1195606" transform="translate(8679.112 6684.466)">
    <g id="Grupo_1195600" data-name="Grupo 1195600" transform="translate(-23186.082 1420.947)">
      <g transform="matrix(1, 0, 0, 1, 14506.97, -8105.41)" filter="url(#_52)">
        <g id="_52-2" data-name="52" transform="translate(6 6)" fill="#fff" stroke="#fff" stroke-width="3">
          <ellipse cx="56.056" cy="56.394" rx="56.056" ry="56.394" stroke="none"/>
          <ellipse cx="56.056" cy="56.394" rx="54.556" ry="54.894" fill="none"/>
        </g>
      </g>
    </g>
    <g id="declaracion" transform="translate(-8654.854 -6656.784)">
      <g id="Grupo_1195595" data-name="Grupo 1195595" transform="translate(1.017 1.017)">
        <path id="Trazado_1110766" data-name="Trazado 1110766" d="M156.578,102.578H119.933a1.81,1.81,0,0,1-1.81-1.81V41.34a1.81,1.81,0,0,1,1.81-1.81h36.645a1.81,1.81,0,0,1,1.81,1.81v59.427A1.81,1.81,0,0,1,156.578,102.578Z" transform="translate(-103.123 -35.187)" fill="#f4f8f9"/>
        <path id="Trazado_1110767" data-name="Trazado 1110767" d="M380.827,39.53h-3.278a1.81,1.81,0,0,1,1.81,1.81v59.427a1.81,1.81,0,0,1-1.81,1.81h3.278a1.81,1.81,0,0,0,1.81-1.81V41.34A1.81,1.81,0,0,0,380.827,39.53Z" transform="translate(-327.372 -35.187)" fill="#e7eef3"/>
        <path id="Trazado_1110768" data-name="Trazado 1110768" d="M226.91,84.182H215.176A1.279,1.279,0,0,1,213.9,82.9V80.852a1.279,1.279,0,0,1,1.279-1.279H226.91a1.279,1.279,0,0,1,1.279,1.279V82.9A1.279,1.279,0,0,1,226.91,84.182Z" transform="translate(-185.91 -69.8)" fill="#ff7bba"/>
        <path id="Trazado_1110769" data-name="Trazado 1110769" d="M293.116,79.573h-2.627a1.279,1.279,0,0,1,1.279,1.279V82.9a1.279,1.279,0,0,1-1.279,1.279h2.627A1.279,1.279,0,0,0,294.4,82.9V80.852A1.279,1.279,0,0,0,293.116,79.573Z" transform="translate(-252.117 -69.8)" fill="#ff5cab"/>
        <path id="Trazado_1110770" data-name="Trazado 1110770" d="M21.84,313.985l2.716-.236,6.791-2.1,3.374-2.483,1.443-4.8-.127-5.581-.913-3.8-3.8-2.423-2.751-1.755L22.5,289.3l-7.4,1.838a8.488,8.488,0,0,0-2.321.959l-2.686,1.611A5.329,5.329,0,0,0,7.5,298.281v7.174a6.341,6.341,0,0,0,3.472,5.642,25.939,25.939,0,0,0,9.985,2.911Z" transform="translate(-7.5 -251.092)" fill="#a2dbff"/>
        <path id="Trazado_1110771" data-name="Trazado 1110771" d="M120.3,293.711l-2.686-1.611a8.487,8.487,0,0,0-2.321-.959l-7.4-1.838-1.6.4,7.033,1.746,3.775,2.264a5.329,5.329,0,0,1,2.587,4.57v7.2a6.34,6.34,0,0,1-3.444,5.628,25.377,25.377,0,0,1-9.889,2.9,24.392,24.392,0,0,0,13.123-2.911,6.324,6.324,0,0,0,3.418-5.615v-7.2a5.329,5.329,0,0,0-2.588-4.57Z" transform="translate(-92.894 -251.091)" fill="#64caff"/>
        <path id="Trazado_1110772" data-name="Trazado 1110772" d="M99.5,317.611l-1.665-21.473-.159-2.434H94.386l-.162,2.477-1.66,21.412a22.615,22.615,0,0,0,6.932.019Z" transform="translate(-81.03 -254.895)" fill="#ff7bba"/>
        <path id="Trazado_1110773" data-name="Trazado 1110773" d="M100.4,242.348H105.2v6.367H100.4Z" transform="translate(-87.8 -210.504)" fill="#ffcfc0"/>
        <path id="Trazado_1110774" data-name="Trazado 1110774" d="M52.619,101.794l1.292-2.684-.371-3.156-1.272-2.8L49.78,92.113s-2.516-.057-2.6,0a18.611,18.611,0,0,1-1.329-1.979l-2.6-2.912-2.771.255-4.015,1.074-1.869,1.3-.682.77-.6.718c-.137.246-.265.5-.381.757l-.052.117a6.775,6.775,0,0,0,1.922,7.96l2.542,2.083,13.206,1.182,1.4-1c.181-.129.352-.267.517-.412Z" transform="translate(-28.943 -76.412)" fill="#5844a0"/>
        <path id="Trazado_1110775" data-name="Trazado 1110775" d="M60.924,88.513l-.518-1.885a2.855,2.855,0,0,0-3.475-2.005A2.856,2.856,0,0,1,53.51,82.8l-.165-.475a3.934,3.934,0,0,0-3.071-2.607,11.345,11.345,0,0,0-1.761-.14A10.06,10.06,0,0,0,39.7,84.732a10.057,10.057,0,0,1,7.145-2.949,11.345,11.345,0,0,1,1.761.14,3.934,3.934,0,0,1,3.071,2.607l.165.475a2.856,2.856,0,0,0,3.42,1.827,2.856,2.856,0,0,1,3.475,2.005l.518,1.885a6.782,6.782,0,0,1-.407,4.7A6.786,6.786,0,0,0,60.924,88.513Z" transform="translate(-35.334 -69.8)" fill="#483887"/>
        <path id="Trazado_1110776" data-name="Trazado 1110776" d="M76.027,166.6a6.6,6.6,0,0,1-6.6-6.6v-5.785a.818.818,0,0,1,.834-.818,11.319,11.319,0,0,0,6.748-1.626.811.811,0,0,1,1.088.152,4.864,4.864,0,0,0,3.74,1.438.821.821,0,0,1,.8.818V160A6.6,6.6,0,0,1,76.027,166.6Z" transform="translate(-61.027 -132.081)" fill="#ffe0cf"/>
        <path id="Trazado_1110777" data-name="Trazado 1110777" d="M81.834,153.356a4.863,4.863,0,0,1-3.74-1.438.811.811,0,0,0-1.088-.152,11.32,11.32,0,0,1-6.748,1.626.818.818,0,0,0-.834.818v2.54a.818.818,0,0,1,.834-.818,11.319,11.319,0,0,0,6.748-1.626.811.811,0,0,1,1.088.152,4.864,4.864,0,0,0,3.74,1.438.821.821,0,0,1,.8.818v-2.539a.821.821,0,0,0-.8-.818Z" transform="translate(-61.027 -132.08)" fill="#ffcfc0"/>
        <path id="Trazado_1110778" data-name="Trazado 1110778" d="M58.128,280.159l-1.935,2.4a2.326,2.326,0,0,1-2.72.68l-4.394-1.868a.594.594,0,0,1-.09-1.046l1.351-.873a4.538,4.538,0,0,1,3.8-.523Z" transform="translate(-43.129 -241.948)" fill="#e7eef3"/>
        <path id="Trazado_1110779" data-name="Trazado 1110779" d="M118.118,280.159l1.935,2.4a2.326,2.326,0,0,0,2.72.68l4.394-1.868a.594.594,0,0,0,.09-1.046l-1.351-.873a4.538,4.538,0,0,0-3.8-.523Z" transform="translate(-103.119 -241.948)" fill="#e7eef3"/>
        <path id="Trazado_1110780" data-name="Trazado 1110780" d="M359.569,8.2v3.854a.7.7,0,0,1-.351.608l-3.138,1.812a.7.7,0,0,0,0,1.217l3.138,1.812a.7.7,0,0,1,.351.608v3.854a.7.7,0,0,0,.7.7H375.2a.7.7,0,0,0,.7-.7V8.2a.7.7,0,0,0-.7-.7H360.271a.7.7,0,0,0-.7.7Z" transform="translate(-308.51 -7.5)" fill="#9ff497"/>
        <path id="Trazado_1110781" data-name="Trazado 1110781" d="M482.9,7.5H480.32a.7.7,0,0,1,.7.7V21.967a.7.7,0,0,1-.7.7H482.9a.7.7,0,0,0,.7-.7V8.2A.7.7,0,0,0,482.9,7.5Z" transform="translate(-416.208 -7.5)" fill="#6ce79a"/>
        <path id="Trazado_1110782" data-name="Trazado 1110782" d="M421.8,243.725h-6.733V215.96a.775.775,0,0,1,.775-.775h5.183a.775.775,0,0,1,.775.775Z" transform="translate(-359.807 -187.024)" fill="#5844a0"/>
        <g id="Grupo_1195594" data-name="Grupo 1195594" transform="translate(55.265 23.62)">
          <path id="Trazado_1110783" data-name="Trazado 1110783" d="M421.8,425.661h-6.733l2.293,3.965a1.24,1.24,0,0,0,2.148,0Z" transform="translate(-415.072 -392.581)" fill="#7361ba"/>
          <path id="Trazado_1110784" data-name="Trazado 1110784" d="M429.3,186.238h-3.946V183.67a1.973,1.973,0,0,1,3.946,0Z" transform="translate(-423.955 -181.697)" fill="#7361ba"/>
        </g>
      </g>
      <g id="Grupo_1195596" data-name="Grupo 1195596" transform="translate(0 0)">
        <path id="Trazado_1110785" data-name="Trazado 1110785" d="M208.692,72.072a2.3,2.3,0,0,0-2.3,2.3v2.051a2.3,2.3,0,0,0,2.3,2.3h11.734a2.3,2.3,0,0,0,2.3-2.3V74.368a2.3,2.3,0,0,0-2.3-2.3Zm12,2.3v2.051a.263.263,0,0,1-.262.263H208.692a.263.263,0,0,1-.262-.263V74.368a.263.263,0,0,1,.262-.263h11.734A.263.263,0,0,1,220.688,74.368Z" transform="translate(-178.41 -62.299)"/>
        <path id="Trazado_1110786" data-name="Trazado 1110786" d="M185.158,204.138h20.328a1.017,1.017,0,1,0,0-2.034H185.158a1.017,1.017,0,1,0,0,2.034Z" transform="translate(-159.172 -174.7)"/>
        <path id="Trazado_1110787" data-name="Trazado 1110787" d="M185.158,235.845h20.328a1.017,1.017,0,0,0,0-2.034H185.158a1.017,1.017,0,0,0,0,2.034Z" transform="translate(-159.172 -202.107)"/>
        <path id="Trazado_1110788" data-name="Trazado 1110788" d="M185.158,267.551h20.328a1.017,1.017,0,1,0,0-2.034H185.158a1.017,1.017,0,1,0,0,2.034Z" transform="translate(-159.172 -229.514)"/>
        <path id="Trazado_1110789" data-name="Trazado 1110789" d="M418.215,26.95H410.93a1.017,1.017,0,1,0,0,2.034h7.285a1.017,1.017,0,1,0,0-2.034Z" transform="translate(-354.331 -23.296)"/>
        <path id="Trazado_1110790" data-name="Trazado 1110790" d="M418.215,55.936H410.93a1.017,1.017,0,0,0,0,2.034h7.285a1.017,1.017,0,0,0,0-2.034Z" transform="translate(-354.331 -48.351)"/>
        <path id="Trazado_1110791" data-name="Trazado 1110791" d="M418.215,84.921H410.93a1.017,1.017,0,0,0,0,2.034h7.285a1.017,1.017,0,0,0,0-2.034Z" transform="translate(-354.331 -73.406)"/>
        <path id="Trazado_1110792" data-name="Trazado 1110792" d="M67.705,0h-5.5a1.017,1.017,0,1,0,0,2.034h5.183V15.169h-14.3V11.63a1.724,1.724,0,0,0-.86-1.489L49.567,8.6l2.666-1.539a1.725,1.725,0,0,0,.86-1.489V2.034h5.183a1.017,1.017,0,1,0,0-2.034h-5.5a1.722,1.722,0,0,0-1.719,1.72V4.343H17.827A2.83,2.83,0,0,0,15,7.17V9.8q-.395-.026-.8-.028h-.049A11.056,11.056,0,0,0,4.075,16.288l-.056.125a7.813,7.813,0,0,0,2.208,9.156L8.4,27.346v1.586a7.628,7.628,0,0,0,4.2,6.808v1.366l-.264-.082a5.541,5.541,0,0,0-4.655.641l-1.352.873A1.612,1.612,0,0,0,6.031,41q-.133.074-.264.153L3.081,42.765A6.377,6.377,0,0,0,0,48.206v1.735a1.017,1.017,0,0,0,2.034,0V48.206a4.333,4.333,0,0,1,2.094-3.7L6.814,42.9a7.468,7.468,0,0,1,1.628-.728l2.523,1.072a3.32,3.32,0,0,0,1.3.264,3.377,3.377,0,0,0,.843-.107L11.623,62.527a26.689,26.689,0,0,1-6.687-2.418,5.293,5.293,0,0,1-2.9-4.729V53.874a1.017,1.017,0,1,0-2.034,0V55.38a7.318,7.318,0,0,0,4.011,6.54A26.84,26.84,0,0,0,15,64.981V66.6a2.83,2.83,0,0,0,2.827,2.827h23.5a1.017,1.017,0,0,0,0-2.034h-23.5a.794.794,0,0,1-.793-.793V64.987a26.261,26.261,0,0,0,11.018-3.055,7.323,7.323,0,0,0,3.981-6.525v-7.2a6.291,6.291,0,0,0-.2-1.571H46.313a1.017,1.017,0,0,0,0-2.034H30.9a6.329,6.329,0,0,0-1.952-1.837l-.714-.429H46.313a1.017,1.017,0,1,0,0-2.034H26.39a1.613,1.613,0,0,0-.684-1.764l-1.351-.873a5.541,5.541,0,0,0-4.654-.641l-.264.082V35.74a7.628,7.628,0,0,0,4.2-6.808V28.57l.972-.7a7.772,7.772,0,0,0,2.367-2.734H46.313a1.017,1.017,0,0,0,0-2.034H27.7a7.807,7.807,0,0,0,.135-2.265H46.313a1.017,1.017,0,1,0,0-2.034H27.407l-.339-1.231a3.887,3.887,0,0,0-4.713-2.72,1.848,1.848,0,0,1-2.2-1.176l-.165-.475a4.96,4.96,0,0,0-2.955-3.037v-3a.794.794,0,0,1,.793-.793H49.352l-1.274.735a1.719,1.719,0,0,0,0,2.978l2.981,1.721v3.672a1.722,1.722,0,0,0,1.719,1.72h2.487V66.6a.794.794,0,0,1-.793.793h-9.21a1.017,1.017,0,1,0,0,2.034h9.21A2.83,2.83,0,0,0,57.3,66.6v-5.09l.4.683a2.247,2.247,0,0,0,.937.889v1.325a1.017,1.017,0,1,0,2.034,0V63.081a2.245,2.245,0,0,0,.937-.889l2.283-3.949a1.014,1.014,0,0,0,.146-.525V32.494h.752a.349.349,0,0,1,.349.349v8.979a1.017,1.017,0,0,0,2.034,0V32.843a2.386,2.386,0,0,0-2.383-2.383h-.752v-.507a1.8,1.8,0,0,0-1.393-1.747v-1.6A2.989,2.989,0,0,0,57.3,24.763V17.2H67.706a1.722,1.722,0,0,0,1.719-1.72V1.72A1.722,1.722,0,0,0,67.705,0ZM16.767,41.779l.558,7.284h-.1a1.017,1.017,0,1,0,0,2.034h.257l.911,11.751a21.681,21.681,0,0,1-4.755-.014l1.626-21.056.751-.931ZM11.76,41.37,8.1,39.814l.682-.44a3.512,3.512,0,0,1,2.95-.406l2.552.789-.993,1.231a1.313,1.313,0,0,1-1.53.383ZM30,48.206v7.2a5.3,5.3,0,0,1-2.881,4.718,25.9,25.9,0,0,1-6.707,2.426L19.523,51.1h.813a1.017,1.017,0,0,0,0-2.034h-.971L18.926,43.4a3.375,3.375,0,0,0,.843.107,3.32,3.32,0,0,0,1.3-.264l2.523-1.072a7.468,7.468,0,0,1,1.628.728L27.9,44.509A4.333,4.333,0,0,1,30,48.206Zm-9.7-9.239a3.513,3.513,0,0,1,2.95.406l.681.44-3.66,1.556a1.314,1.314,0,0,1-1.53-.383l-.993-1.231Zm-2.9-1.233-1.386.428-1.386-.429v-1.31a7.666,7.666,0,0,0,2.772,0Zm-1.386-3.218a5.592,5.592,0,0,1-5.586-5.586V23.349a12.322,12.322,0,0,0,6.99-1.706A5.831,5.831,0,0,0,21.6,23.3v5.631A5.592,5.592,0,0,1,16.016,34.518ZM18.067,13.87l.165.475a3.891,3.891,0,0,0,4.638,2.477,1.847,1.847,0,0,1,2.238,1.291L25.626,20a5.793,5.793,0,0,1-1.99,6.061V23.111a1.832,1.832,0,0,0-1.776-1.834,3.9,3.9,0,0,1-2.994-1.071,1.824,1.824,0,0,0-2.444-.341,10.393,10.393,0,0,1-6.151,1.448A1.835,1.835,0,0,0,8.4,23.147v1.57L7.516,24A5.771,5.771,0,0,1,5.88,17.232l.049-.11a9.021,9.021,0,0,1,8.222-5.316h.04a10.384,10.384,0,0,1,1.6.127,2.908,2.908,0,0,1,2.273,1.936ZM62,30.2V56.7H57.3V30.2ZM59.842,61.173a.223.223,0,0,1-.387,0l-1.41-2.439h3.207ZM58.692,26.61a.956.956,0,1,1,1.912,0v1.551H58.692Z" transform="translate(0 0)"/>
        <path id="Trazado_1110793" data-name="Trazado 1110793" d="M264.513,392.39a7.18,7.18,0,0,0,.148-2.475c-.013-.222-.03-.515-.029-.739a2.749,2.749,0,0,0,1.7-1.019,3.963,3.963,0,0,0,.578-2.936,1.017,1.017,0,0,0-2,.385,1.977,1.977,0,0,1-.2,1.316.849.849,0,0,1-.686.286,1.493,1.493,0,0,0-1.385,1.393,6.939,6.939,0,0,0-.01,1.432c.114,1.979-.12,2.2-.722,2.257a.832.832,0,0,1-.541-.078c-.336-.312-.307-1.628-.285-2.59a10.916,10.916,0,0,0-.2-2.977,2.76,2.76,0,0,0-2.359-2.2c-2.216-.33-3.82,1.189-4.883,2.84l-1.514-.226a1.017,1.017,0,1,0-.3,2.012l.806.12a14.477,14.477,0,0,0-.634,1.727,1.017,1.017,0,1,0,1.958.551,12.471,12.471,0,0,1,.769-1.965l1.7.254a1.03,1.03,0,0,0,.152.011,1.017,1.017,0,0,0,.149-2.023l-.815-.122a2.638,2.638,0,0,1,2.314-1.167c.766.114.869,1.013.822,3.12-.035,1.569-.072,3.191.934,4.126a2.472,2.472,0,0,0,1.746.631A2.7,2.7,0,0,0,264.513,392.39Z" transform="translate(-216.933 -332.276)"/>
      </g>
    </g>
  </g>
</svg>
