<svg xmlns="http://www.w3.org/2000/svg" xmlns:xlink="http://www.w3.org/1999/xlink" width="130.113" height="130.788" viewBox="0 0 130.113 130.788">
  <defs>
    <filter id="_52" x="0" y="0" width="130.113" height="130.788" filterUnits="userSpaceOnUse">
      <feOffset dx="3" dy="3" input="SourceAlpha"/>
      <feGaussianBlur stdDeviation="3" result="blur"/>
      <feFlood flood-opacity="0.161"/>
      <feComposite operator="in" in2="blur"/>
      <feComposite in="SourceGraphic"/>
    </filter>
  </defs>
  <g id="Grupo_1196047" data-name="Grupo 1196047" transform="translate(2194.792 7535.462)">
    <g id="Grupo_1196043" data-name="Grupo 1196043" transform="translate(-16701.762 569.951)">
      <g transform="matrix(1, 0, 0, 1, 14506.97, -8105.41)" filter="url(#_52)">
        <g id="_52-2" data-name="52" transform="translate(6 6)" fill="#fff" stroke="#fff" stroke-width="3">
          <ellipse cx="56.056" cy="56.394" rx="56.056" ry="56.394" stroke="none"/>
          <ellipse cx="56.056" cy="56.394" rx="54.556" ry="54.894" fill="none"/>
        </g>
      </g>
    </g>
    <g id="development" transform="translate(-2166.94 -7504.207)">
      <g id="Grupo_1196028" data-name="Grupo 1196028" transform="translate(0.933 0.936)">
        <path id="Trazado_1113122" data-name="Trazado 1113122" d="M73.545,253.243A33.6,33.6,0,0,1,73,259.254l-6.837,1.891a26.969,26.969,0,0,1-2,4.818l3.491,6.176a33.441,33.441,0,0,1-8.492,8.492l-6.172-3.495a26.966,26.966,0,0,1-4.818,2l-1.9,6.838a33.66,33.66,0,0,1-12.01,0l-1.9-6.838a26.968,26.968,0,0,1-4.818-2l-6.172,3.5a33.441,33.441,0,0,1-8.492-8.492l3.491-6.176a26.968,26.968,0,0,1-2-4.818l-6.838-1.9A33.586,33.586,0,0,1,7,253.243Z" transform="translate(-7 -220.707)" fill="#ffba57" fill-rule="evenodd"/>
        <path id="Trazado_1113123" data-name="Trazado 1113123" d="M160.111,253.243a17.486,17.486,0,1,1-34.972,0Z" transform="translate(-109.353 -220.707)" fill="#eaf6ff" fill-rule="evenodd"/>
        <path id="Trazado_1113124" data-name="Trazado 1113124" d="M7,166.769H28.129v-7.306a6.048,6.048,0,0,0-6.032-6.031H13.035A6.052,6.052,0,0,0,7,159.464Z" transform="translate(-7 -134.234)" fill="#0091ca" fill-rule="evenodd"/>
        <path id="Trazado_1113125" data-name="Trazado 1113125" d="M61.252,153.432l.141.586-.08.247c-.981,3.137-7.865,3.137-8.846,0l-.076-.247.137-.586Z" transform="translate(-46.325 -134.234)" fill="#0076a4" fill-rule="evenodd"/>
        <path id="Trazado_1113126" data-name="Trazado 1113126" d="M65.274,111.681l1.46,6.13c-.7,2.251-6.351,2.251-7.055,0l1.456-6.13Z" transform="translate(-52.641 -98.061)" fill="#fbbd80" fill-rule="evenodd"/>
        <path id="Trazado_1113127" data-name="Trazado 1113127" d="M70.177,115.172a4.732,4.732,0,0,1-5.8,0l.828-3.491h4.138Z" transform="translate(-56.711 -98.061)" fill="#e2aa73" fill-rule="evenodd"/>
        <path id="Trazado_1113128" data-name="Trazado 1113128" d="M63.919,62.871v6.24a4.041,4.041,0,1,1-8.081,0v-6.24Z" transform="translate(-49.312 -55.774)" fill="#ffd18d" fill-rule="evenodd"/>
        <path id="Trazado_1113129" data-name="Trazado 1113129" d="M57.2,49.579V45.4c0-5.552-10.53-5.187-10.53,0v4.176c.042-.011,3.525-2.21,5.374-3.407a1.174,1.174,0,0,1,.92-.164,1.157,1.157,0,0,1,.761.54A8.435,8.435,0,0,0,57.2,49.579Z" transform="translate(-41.373 -37.15)" fill="#fbbd80" fill-rule="evenodd"/>
        <path id="Trazado_1113130" data-name="Trazado 1113130" d="M165.126,153.873h24.286V145.48a6.954,6.954,0,0,0-6.933-6.933h-10.42a6.954,6.954,0,0,0-6.933,6.933Z" transform="translate(-143.997 -121.338)" fill="#3bb54a" fill-rule="evenodd"/>
        <path id="Trazado_1113131" data-name="Trazado 1113131" d="M228.274,138.547l.16.666-.076.247c-1.088,3.476-8.815,3.476-9.9,0l-.076-.247.16-.666Z" transform="translate(-190.134 -121.338)" fill="#30933c" fill-rule="evenodd"/>
        <path id="Trazado_1113132" data-name="Trazado 1113132" d="M232.092,90.563l1.677,7.043c-.81,2.59-7.3,2.59-8.108,0l1.677-7.043Z" transform="translate(-196.443 -79.765)" fill="#fbbd80" fill-rule="evenodd"/>
        <path id="Trazado_1113133" data-name="Trazado 1113133" d="M237.878,94.461a5.343,5.343,0,0,1-6.61,0l.928-3.9h4.754Z" transform="translate(-201.301 -79.765)" fill="#e2aa73" fill-rule="evenodd"/>
        <path id="Trazado_1113134" data-name="Trazado 1113134" d="M230.537,34.468V41.64a4.643,4.643,0,0,1-9.287,0V34.468Z" transform="translate(-192.621 -31.166)" fill="#ffd18d" fill-rule="evenodd"/>
        <path id="Trazado_1113135" data-name="Trazado 1113135" d="M222.821,19.189v-4.8c0-6.381-12.1-5.96-12.1,0v4.8c.049-.015,4.252-2.666,6.332-4.016a1.206,1.206,0,0,1,1.692.392A9.631,9.631,0,0,0,222.821,19.189Z" transform="translate(-183.498 -9.756)" fill="#fbbd80" fill-rule="evenodd"/>
        <path id="Trazado_1113136" data-name="Trazado 1113136" d="M346.874,166.769H368v-7.306a6.052,6.052,0,0,0-6.035-6.032h-9.062a6.048,6.048,0,0,0-6.031,6.032Z" transform="translate(-301.459 -134.234)" fill="#ff4755" fill-rule="evenodd"/>
        <path id="Trazado_1113137" data-name="Trazado 1113137" d="M401.1,153.432l.137.586-.076.247c-.981,3.137-7.865,3.137-8.85,0l-.076-.247.141-.586Z" transform="translate(-340.763 -134.234)" fill="#cf3a45" fill-rule="evenodd"/>
        <path id="Trazado_1113138" data-name="Trazado 1113138" d="M405.124,111.681l1.457,6.13c-.7,2.251-6.351,2.251-7.055,0l1.46-6.13Z" transform="translate(-347.075 -98.061)" fill="#fbbd80" fill-rule="evenodd"/>
        <path id="Trazado_1113139" data-name="Trazado 1113139" d="M410.023,115.172a4.732,4.732,0,0,1-5.8,0l.833-3.491h4.138Z" transform="translate(-351.146 -98.061)" fill="#e2aa73" fill-rule="evenodd"/>
        <path id="Trazado_1113140" data-name="Trazado 1113140" d="M403.765,62.871v6.24a4.041,4.041,0,1,1-8.081,0v-6.24Z" transform="translate(-343.747 -55.774)" fill="#ffd18d" fill-rule="evenodd"/>
        <path id="Trazado_1113141" data-name="Trazado 1113141" d="M397.05,49.579V45.4c0-5.552-10.531-5.187-10.531,0v4.176c.046-.011,3.525-2.21,5.377-3.407a1.21,1.21,0,0,1,1.681.377,8.423,8.423,0,0,0,3.472,3.031Z" transform="translate(-335.806 -37.15)" fill="#fbbd80" fill-rule="evenodd"/>
      </g>
      <path id="Trazado_1113142" data-name="Trazado 1113142" d="M61.1,21.894l-.335-1.553a5.061,5.061,0,0,0,1.163-3.089A1.066,1.066,0,0,0,63.154,16.2V12.034a4.634,4.634,0,0,0-2.048-3.9,7.291,7.291,0,0,0-4.129-1.177c-3.2,0-6.447,1.745-6.447,5.079V16.2A1.069,1.069,0,0,0,51.6,17.266a1.192,1.192,0,0,0,.155-.012,5.064,5.064,0,0,0,1.161,3.085l-.335,1.555a7.893,7.893,0,0,0-5.893,3.041,8.656,8.656,0,0,0-7.693-5.026l-.426-1.986a5.665,5.665,0,0,0,1.35-3.673v-.029a1.067,1.067,0,0,0,1.4-1.013V8.429a5.17,5.17,0,0,0-2.285-4.355A8.222,8.222,0,0,0,34.377,2.75c-3.6,0-7.249,1.951-7.249,5.679v4.78A1.066,1.066,0,0,0,28.2,14.276a1.047,1.047,0,0,0,.231-.025.962.962,0,0,0,.106-.028v.028a5.671,5.671,0,0,0,1.35,3.675l-.426,1.983a8.659,8.659,0,0,0-7.693,5.027,7.893,7.893,0,0,0-5.893-3.041l-.335-1.555A5.071,5.071,0,0,0,16.7,17.252,1.066,1.066,0,0,0,17.92,16.2V12.034a4.633,4.633,0,0,0-2.047-3.9,7.292,7.292,0,0,0-4.13-1.177C8.54,6.955,5.3,8.7,5.3,12.034V16.2a1.069,1.069,0,0,0,1.069,1.068,1.229,1.229,0,0,0,.155-.012,5.074,5.074,0,0,0,1.16,3.085l-.334,1.555C3.06,22.2.02,25.263.02,29.405v6.817a34.649,34.649,0,0,0,.553,6.16,1.068,1.068,0,0,0,.767.847l6.252,1.734a28.3,28.3,0,0,0,1.617,3.907L6.018,54.514a1.068,1.068,0,0,0,.051,1.133,34.183,34.183,0,0,0,8.73,8.73,1.069,1.069,0,0,0,1.132.052l5.647-3.192a27.929,27.929,0,0,0,3.9,1.618l1.734,6.251a1.071,1.071,0,0,0,.836.766,34.381,34.381,0,0,0,12.344,0,1.071,1.071,0,0,0,.836-.766l1.734-6.252a28.06,28.06,0,0,0,3.9-1.617l5.648,3.192a1.071,1.071,0,0,0,1.133-.052,34.242,34.242,0,0,0,8.728-8.73,1.068,1.068,0,0,0,.051-1.133l-3.191-5.643a28.132,28.132,0,0,0,1.617-3.907L67.11,43.23a1.068,1.068,0,0,0,.766-.839,34.693,34.693,0,0,0,.555-6.168V29.405c0-4.142-3.041-7.206-7.327-7.511Zm-8.438-7.623V12.034c0-2.159,2.579-2.942,4.312-2.942a5.236,5.236,0,0,1,2.912.8,2.488,2.488,0,0,1,1.129,2.147v2.228a6.413,6.413,0,0,1-1.976-2.607,1.067,1.067,0,0,0-1.654-.424C57.077,11.465,54.438,13.15,52.665,14.271Zm6.26,4.925a1.033,1.033,0,0,0-.1.1,2.95,2.95,0,0,1-3.971-.011,1.1,1.1,0,0,0-.082-.076,2.948,2.948,0,0,1-.883-2.1V16.028l1.4-.891c1.11-.707,1.857-1.187,2.361-1.514a8.671,8.671,0,0,0,2.15,2.395V17.1a2.945,2.945,0,0,1-.873,2.094Zm.306,4.146a3.332,3.332,0,0,1-2.392.775,3.263,3.263,0,0,1-2.387-.778l.339-1.578a5.077,5.077,0,0,0,4.1,0ZM29.265,11.289V8.429c0-2.326,2.572-3.542,5.112-3.542a6.07,6.07,0,0,1,3.437.943,3.009,3.009,0,0,1,1.367,2.6v2.88a7.587,7.587,0,0,1-2.575-3.256,1.069,1.069,0,0,0-.728-.627,1.122,1.122,0,0,0-.257-.031,1.059,1.059,0,0,0-.672.238c-.337.255-3.639,2.365-5.684,3.656Zm4.959,6.518a3.529,3.529,0,0,1-2.405-.942c-.021-.021-.043-.041-.065-.061a3.548,3.548,0,0,1-1.082-2.552V12.928l1.682-1.069c1.384-.881,2.276-1.454,2.853-1.831a9.783,9.783,0,0,0,2.574,2.894v1.328A3.56,3.56,0,0,1,34.224,17.807Zm2.917,3.655a3.8,3.8,0,0,1-2.917,1.009,3.786,3.786,0,0,1-2.914-1.009l.446-2.082a5.683,5.683,0,0,0,4.939,0ZM23.2,28.39c0-3.464,2.435-5.96,6.026-6.32.583,1.5,2.6,2.536,5,2.536s4.416-1.034,5-2.536c3.592.361,6.026,2.857,6.026,6.32v6.765H42.2V28.837a1.069,1.069,0,1,0-2.137,0v6.318H28.383V28.837a1.069,1.069,0,1,0-2.137,0v6.318H23.2Zm27.338,8.9a16.349,16.349,0,0,1-32.628,0ZM7.432,14.271V12.034c0-2.159,2.578-2.942,4.311-2.942a5.23,5.23,0,0,1,2.912.8,2.488,2.488,0,0,1,1.129,2.147V14.26a6.4,6.4,0,0,1-1.975-2.606,1.068,1.068,0,0,0-1.654-.424c-.311.234-2.95,1.919-4.722,3.04Zm6.248,4.936a1.06,1.06,0,0,0-.079.076A2.956,2.956,0,0,1,8.652,17.1V16.028l1.4-.891c1.112-.707,1.859-1.187,2.362-1.514a8.643,8.643,0,0,0,2.15,2.393V17.1a2.944,2.944,0,0,1-.885,2.1ZM14,23.34a3.263,3.263,0,0,1-2.387.778,3.338,3.338,0,0,1-2.392-.775l.341-1.582a5.073,5.073,0,0,0,4.1,0ZM2.155,29.405a5.293,5.293,0,0,1,5.015-5.35c.58,1.307,2.353,2.2,4.44,2.2s3.86-.893,4.436-2.2a5.294,5.294,0,0,1,5.018,5.35v5.75h-2.37V29.8a1.069,1.069,0,0,0-2.137,0v5.36H6.664V29.8a1.069,1.069,0,0,0-2.137,0v5.36H2.155Zm63.73,11.947-6.157,1.709a1.068,1.068,0,0,0-.736.718,26.016,26.016,0,0,1-1.909,4.613,1.067,1.067,0,0,0,.013,1.028l3.144,5.559a32.093,32.093,0,0,1-7.26,7.258l-5.561-3.144a1.07,1.07,0,0,0-1.029-.013,25.757,25.757,0,0,1-4.609,1.909,1.069,1.069,0,0,0-.716.736l-1.709,6.159a32.4,32.4,0,0,1-10.262,0l-1.709-6.159a1.065,1.065,0,0,0-.719-.736,25.532,25.532,0,0,1-4.606-1.909,1.067,1.067,0,0,0-1.029.013l-5.563,3.144A32.033,32.033,0,0,1,8.21,54.978l3.144-5.559a1.068,1.068,0,0,0,.013-1.028,25.973,25.973,0,0,1-1.909-4.613,1.068,1.068,0,0,0-.736-.718L2.564,41.353a32.275,32.275,0,0,1-.389-4.061H15.77a18.486,18.486,0,0,0,36.909,0H66.275a32.552,32.552,0,0,1-.389,4.061Zm.409-6.2H63.923V29.8a1.069,1.069,0,0,0-2.137,0v5.36H51.893V29.8a1.069,1.069,0,0,0-2.137,0v5.36h-2.37v-5.75a5.294,5.294,0,0,1,5.018-5.35c.576,1.307,2.348,2.2,4.436,2.2s3.86-.893,4.439-2.2a5.293,5.293,0,0,1,5.016,5.35Z" transform="translate(-0.02 -2.75)" fill="#231f20"/>
    </g>
  </g>
</svg>
