<svg xmlns="http://www.w3.org/2000/svg" xmlns:xlink="http://www.w3.org/1999/xlink" width="130.113" height="130.788" viewBox="0 0 130.113 130.788">
  <defs>
    <filter id="_52" x="0" y="0" width="130.113" height="130.788" filterUnits="userSpaceOnUse">
      <feOffset dx="3" dy="3" input="SourceAlpha"/>
      <feGaussianBlur stdDeviation="3" result="blur"/>
      <feFlood flood-opacity="0.161"/>
      <feComposite operator="in" in2="blur"/>
      <feComposite in="SourceGraphic"/>
    </filter>
  </defs>
  <g id="Grupo_1196049" data-name="Grupo 1196049" transform="translate(2431.792 7518.462)">
    <g id="Grupo_1196042" data-name="Grupo 1196042" transform="translate(-16938.762 586.951)">
      <g transform="matrix(1, 0, 0, 1, 14506.97, -8105.41)" filter="url(#_52)">
        <g id="_52-2" data-name="52" transform="translate(6 6)" fill="#fff" stroke="#fff" stroke-width="3">
          <ellipse cx="56.056" cy="56.394" rx="56.056" ry="56.394" stroke="none"/>
          <ellipse cx="56.056" cy="56.394" rx="54.556" ry="54.894" fill="none"/>
        </g>
      </g>
    </g>
    <g id="colaborar" transform="translate(-2400.061 -7488.034)">
      <g id="Grupo_1196027" data-name="Grupo 1196027" transform="translate(1.069 1.069)">
        <g id="Grupo_1196023" data-name="Grupo 1196023" transform="translate(7.916 11.547)">
          <path id="Trazado_1113111" data-name="Trazado 1113111" d="M120.334,110.188a2.216,2.216,0,1,1-2.216,2.216A2.217,2.217,0,0,1,120.334,110.188Zm-43.875,0a2.216,2.216,0,1,1-2.216,2.216A2.217,2.217,0,0,1,76.459,110.188Z" transform="translate(-74.243 -110.188)" fill="#8ac9fe" fill-rule="evenodd"/>
          <path id="Trazado_1113112" data-name="Trazado 1113112" d="M131.551,110.228a2.216,2.216,0,1,1,0,4.352,2.216,2.216,0,0,0,0-4.352Zm-43.875,0a2.216,2.216,0,1,1,0,4.352,2.216,2.216,0,0,0,0-4.352Z" transform="translate(-85.881 -110.188)" fill="#60b7ff" fill-rule="evenodd"/>
        </g>
        <g id="Grupo_1196024" data-name="Grupo 1196024" transform="translate(18.306)">
          <path id="Trazado_1113113" data-name="Trazado 1113113" d="M168.5,26.052a11.735,11.735,0,0,1,3.44,1.426l2.235-.992,2.633,2.633-.992,2.235a11.734,11.734,0,0,1,1.426,3.44l2.281.878V39.4l-2.281.878a11.742,11.742,0,0,1-1.426,3.438l.992,2.235-2.633,2.635-2.235-.993a11.739,11.739,0,0,1-3.44,1.427l-.878,2.279H163.9l-.878-2.281a11.74,11.74,0,0,1-3.438-1.426l-2.235.993-2.635-2.635.993-2.234a11.773,11.773,0,0,1-1.427-3.44L152,39.4V35.672l2.279-.878a11.738,11.738,0,0,1,1.427-3.44l-.993-2.235,2.635-2.633,2.234.992a11.771,11.771,0,0,1,3.44-1.426l.878-2.281h3.726Z" transform="translate(-152 -23.771)" fill="#ffe177" fill-rule="evenodd"/>
          <path id="Trazado_1113114" data-name="Trazado 1113114" d="M205.943,26.819l.751-.333,2.633,2.633-.992,2.235a11.734,11.734,0,0,1,1.426,3.44l2.281.878V39.4l-2.281.878a11.742,11.742,0,0,1-1.426,3.438l.992,2.235-2.633,2.635-.751-.333,2.3-2.3-.993-2.235a11.738,11.738,0,0,0,1.426-3.438l2.281-.878V35.672l-2.281-.878a11.73,11.73,0,0,0-1.426-3.44l.993-2.235Zm-16.412,0,.333-.333,2.234.992c-.158.088-.314.179-.466.275Zm11.488-.767a11.735,11.735,0,0,1,3.44,1.426l-.616.275a15.347,15.347,0,0,0-3.908-1.7l-.878-2.281h1.084ZM192.1,47.591l-2.235.993-.333-.333,2.1-.933Q191.86,47.459,192.1,47.591Zm12.36,0a11.739,11.739,0,0,1-3.44,1.427l-.878,2.279h-1.084l.878-2.279a15.387,15.387,0,0,0,3.91-1.7Z" transform="translate(-184.516 -23.771)" fill="#ffd064" fill-rule="evenodd"/>
          <path id="Trazado_1113115" data-name="Trazado 1113115" d="M204.013,67.921a7.864,7.864,0,1,1-7.863,7.865A7.864,7.864,0,0,1,204.013,67.921Z" transform="translate(-190.251 -62.022)" fill="#eceff1" fill-rule="evenodd"/>
          <path id="Trazado_1113116" data-name="Trazado 1113116" d="M204.013,67.921c.179,0,.356.006.534.019a7.863,7.863,0,0,0,0,15.691c-.177.011-.355.018-.534.018a7.864,7.864,0,0,1,0-15.727Z" transform="translate(-190.251 -62.022)" fill="#d1d1d6" fill-rule="evenodd"/>
        </g>
        <g id="Grupo_1196025" data-name="Grupo 1196025" transform="translate(0 23.251)">
          <path id="Trazado_1113117" data-name="Trazado 1113117" d="M29.768,215.893H42.24a4.83,4.83,0,0,1,4.83,4.83v15.6h-22V221.106a1.58,1.58,0,0,0-.555-1.2l-8.686-7.4A2.369,2.369,0,0,1,15,210.7v-9.978a2.946,2.946,0,0,1,2.946-2.946h0a2.946,2.946,0,0,1,2.946,2.946v7.259a2.37,2.37,0,0,0,.832,1.8l6.507,5.546A2.369,2.369,0,0,0,29.768,215.893Z" transform="translate(-15 -197.773)" fill="#ffe177" fill-rule="evenodd"/>
          <ellipse id="Elipse_14053" data-name="Elipse 14053" cx="5.684" cy="5.866" rx="5.684" ry="5.866" transform="translate(13.14 3.179)" fill="#f6dccd"/>
          <path id="Trazado_1113118" data-name="Trazado 1113118" d="M119.686,233.254a5.576,5.576,0,0,1-.668.04,5.868,5.868,0,0,1,0-11.731,5.544,5.544,0,0,1,.668.04,5.891,5.891,0,0,0,0,11.651Z" transform="translate(-100.194 -218.384)" fill="#f1cbbc" fill-rule="evenodd"/>
        </g>
        <g id="Grupo_1196026" data-name="Grupo 1196026" transform="translate(32.07 23.251)">
          <path id="Trazado_1113119" data-name="Trazado 1113119" d="M272.3,215.893H259.83a4.83,4.83,0,0,0-4.83,4.83v15.6h22V221.106a1.58,1.58,0,0,1,.555-1.2l8.686-7.4a2.369,2.369,0,0,0,.832-1.8v-9.978a2.946,2.946,0,0,0-2.946-2.946h0a2.946,2.946,0,0,0-2.946,2.946v7.259a2.37,2.37,0,0,1-.832,1.8l-6.507,5.546A2.369,2.369,0,0,1,272.3,215.893Z" transform="translate(-255 -197.773)" fill="#8ac9fe" fill-rule="evenodd"/>
          <ellipse id="Elipse_14054" data-name="Elipse 14054" cx="5.684" cy="5.866" rx="5.684" ry="5.866" transform="translate(7.561 3.179)" fill="#f6dccd"/>
          <path id="Trazado_1113120" data-name="Trazado 1113120" d="M349.126,233.254a5.891,5.891,0,0,0,0-11.651,5.545,5.545,0,0,1,.668-.04,5.868,5.868,0,0,1,0,11.731A5.576,5.576,0,0,1,349.126,233.254Z" transform="translate(-336.549 -218.384)" fill="#f1cbbc" fill-rule="evenodd"/>
        </g>
      </g>
      <path id="Trazado_1113121" data-name="Trazado 1113121" d="M62.135,79.7H18.142a1.069,1.069,0,0,1-1.069-1.069V63.424a.51.51,0,0,0-.179-.389l-8.686-7.4A3.438,3.438,0,0,1,7,53.016V43.037a4.014,4.014,0,0,1,4.015-4.015h0a4.014,4.014,0,0,1,4.015,4.015V50.3a1.3,1.3,0,0,0,.457.99l6.507,5.546a1.3,1.3,0,0,0,.844.311H35.309a5.9,5.9,0,0,1,4.83,2.512,5.9,5.9,0,0,1,4.83-2.512H57.44a1.3,1.3,0,0,0,.844-.311l6.507-5.546a1.3,1.3,0,0,0,.457-.99V43.037a4.015,4.015,0,0,1,4.015-4.015h0a4.014,4.014,0,0,1,4.015,4.015v9.978a3.438,3.438,0,0,1-1.208,2.617l-8.686,7.4a.51.51,0,0,0-.179.389V78.636A1.069,1.069,0,0,1,62.135,79.7ZM39.07,63.041a3.761,3.761,0,0,0-3.761-3.761H22.837a3.438,3.438,0,0,1-2.23-.822L14.1,52.913A3.438,3.438,0,0,1,12.892,50.3V43.037a1.877,1.877,0,0,0-1.877-1.877h0a1.877,1.877,0,0,0-1.877,1.877v9.978a1.3,1.3,0,0,0,.457.99l8.686,7.4a2.649,2.649,0,0,1,.93,2.016V77.567H33.178V64.75a1.069,1.069,0,0,1,2.138,0V77.567H39.07ZM47.1,77.567H61.066V63.424A2.649,2.649,0,0,1,62,61.408l8.686-7.4a1.3,1.3,0,0,0,.457-.99V43.037a1.877,1.877,0,0,0-1.877-1.877h0a1.877,1.877,0,0,0-1.877,1.877V50.3a3.438,3.438,0,0,1-1.208,2.617l-6.507,5.546a3.438,3.438,0,0,1-2.23.822H44.968a3.761,3.761,0,0,0-3.761,3.761V77.567h3.754V64.75a1.069,1.069,0,0,1,2.138,0ZM21.308,31.673a3.285,3.285,0,1,1,0-2.138h4v-.791a1.069,1.069,0,0,1,.685-1l1.77-.681a12.864,12.864,0,0,1,1.124-2.708l-.771-1.734a1.069,1.069,0,0,1,.221-1.19L30.968,18.8a1.069,1.069,0,0,1,1.19-.221l1.734.771A12.778,12.778,0,0,1,36.6,18.229l.684-1.773a1.069,1.069,0,0,1,1-.684H42a1.069,1.069,0,0,1,1,.686l.681,1.772a12.773,12.773,0,0,1,2.7,1.121l1.734-.771a1.069,1.069,0,0,1,1.19.221l2.633,2.633a1.069,1.069,0,0,1,.222,1.189L51.4,24.356a12.747,12.747,0,0,1,1.122,2.709l1.768.681a1.069,1.069,0,0,1,.685,1v.791h4a3.285,3.285,0,1,1,0,2.138h-4v.795a1.069,1.069,0,0,1-.685,1l-1.769.681a12.884,12.884,0,0,1-1.122,2.7l.769,1.736a1.069,1.069,0,0,1-.222,1.189L49.31,42.407a1.069,1.069,0,0,1-1.189.222l-1.734-.768a12.74,12.74,0,0,1-2.706,1.121L43,44.751a1.069,1.069,0,0,1-1,.685H38.279a1.069,1.069,0,0,1-1-.685L36.6,42.982a12.854,12.854,0,0,1-2.708-1.122l-1.736.769a1.069,1.069,0,0,1-1.189-.222l-2.633-2.633a1.069,1.069,0,0,1-.221-1.19l.771-1.733a12.859,12.859,0,0,1-1.123-2.7l-1.77-.681a1.069,1.069,0,0,1-.685-1v-.795ZM18.2,29.457A1.147,1.147,0,1,0,19.348,30.6,1.147,1.147,0,0,0,18.2,29.457Zm23.681-9.949-.614-1.6H39.012l-.617,1.6a1.069,1.069,0,0,1-.75.655,10.643,10.643,0,0,0-3.125,1.3,1.069,1.069,0,0,1-1,.067l-1.564-.7-1.594,1.594.7,1.564a1.069,1.069,0,0,1-.067,1,10.732,10.732,0,0,0-1.3,3.131,1.069,1.069,0,0,1-.656.748l-1.6.614v2.256l1.6.614a1.069,1.069,0,0,1,.655.747,10.714,10.714,0,0,0,1.3,3.127,1.069,1.069,0,0,1,.068,1l-.7,1.564,1.595,1.595,1.565-.693a1.069,1.069,0,0,1,.991.066,10.726,10.726,0,0,0,3.131,1.3,1.069,1.069,0,0,1,.751.656l.614,1.6h2.256l.614-1.6a1.069,1.069,0,0,1,.75-.656,10.6,10.6,0,0,0,3.124-1.294,1.069,1.069,0,0,1,1-.068l1.565.693,1.6-1.6-.693-1.565a1.069,1.069,0,0,1,.066-.991,10.739,10.739,0,0,0,1.3-3.128,1.069,1.069,0,0,1,.656-.75l1.6-.614V29.478l-1.6-.614a1.069,1.069,0,0,1-.656-.751,10.622,10.622,0,0,0-1.295-3.128,1.069,1.069,0,0,1-.067-.994l.693-1.565-1.595-1.595-1.564.7a1.069,1.069,0,0,1-1-.067,10.643,10.643,0,0,0-3.125-1.3,1.069,1.069,0,0,1-.751-.657Zm-1.744,2.164A8.933,8.933,0,1,1,31.207,30.6a8.932,8.932,0,0,1,8.931-8.931Zm0,2.138a6.8,6.8,0,1,0,6.8,6.793,6.791,6.791,0,0,0-6.8-6.793Zm-4.2,7.754a1.069,1.069,0,1,1,1.512-1.512l1.291,1.291L42.871,27.6a1.069,1.069,0,0,1,1.436,1.583l-4.885,4.432a1.069,1.069,0,0,1-1.474-.036Zm26.14-2.107A1.147,1.147,0,1,0,63.223,30.6,1.147,1.147,0,0,0,62.076,29.457ZM26.893,42.2a6.937,6.937,0,1,1-6.753,6.935A6.849,6.849,0,0,1,26.893,42.2Zm0,2.138a4.8,4.8,0,1,0,4.615,4.8A4.71,4.71,0,0,0,26.893,44.339ZM53.384,42.2a6.937,6.937,0,1,1-6.753,6.935A6.849,6.849,0,0,1,53.384,42.2Zm0,2.138A4.8,4.8,0,1,0,58,49.136,4.71,4.71,0,0,0,53.384,44.339Z" transform="translate(-7 -15.772)" fill-rule="evenodd"/>
    </g>
  </g>
</svg>
