<svg xmlns="http://www.w3.org/2000/svg" xmlns:xlink="http://www.w3.org/1999/xlink" width="130.113" height="130.788" viewBox="0 0 130.113 130.788">
  <defs>
    <filter id="_52" x="0" y="0" width="130.113" height="130.788" filterUnits="userSpaceOnUse">
      <feOffset dx="3" dy="3" input="SourceAlpha"/>
      <feGaussianBlur stdDeviation="3" result="blur"/>
      <feFlood flood-opacity="0.161"/>
      <feComposite operator="in" in2="blur"/>
      <feComposite in="SourceGraphic"/>
    </filter>
  </defs>
  <g id="Grupo_1196046" data-name="Grupo 1196046" transform="translate(2293.249 7458.602)">
    <g id="Grupo_1196045" data-name="Grupo 1196045" transform="translate(-16800.219 646.812)">
      <g transform="matrix(1, 0, 0, 1, 14506.97, -8105.41)" filter="url(#_52)">
        <g id="_52-2" data-name="52" transform="translate(6 6)" fill="#fff" stroke="#fff" stroke-width="3">
          <ellipse cx="56.056" cy="56.394" rx="56.056" ry="56.394" stroke="none"/>
          <ellipse cx="56.056" cy="56.394" rx="54.556" ry="54.894" fill="none"/>
        </g>
      </g>
    </g>
    <g id="organizar" transform="translate(-2264.331 -7429.347)">
      <g id="Grupo_1196041" data-name="Grupo 1196041" transform="translate(1.069 1.069)">
        <g id="Grupo_1196034" data-name="Grupo 1196034" transform="translate(0 57.184)">
          <path id="Trazado_1113167" data-name="Trazado 1113167" d="M22.955,445.334v4.19a1.387,1.387,0,0,1-1.382,1.382h-4.19A1.386,1.386,0,0,1,16,449.524v-4.19a1.387,1.387,0,0,1,1.383-1.382h4.19A1.386,1.386,0,0,1,22.955,445.334Z" transform="translate(-16 -443.952)" fill="#fe646f" fill-rule="evenodd"/>
          <path id="Trazado_1113168" data-name="Trazado 1113168" d="M50.422,445.334v4.19a1.387,1.387,0,0,1-1.382,1.382H47.7a1.387,1.387,0,0,0,1.383-1.382v-4.19a1.387,1.387,0,0,0-1.383-1.382h1.336A1.386,1.386,0,0,1,50.422,445.334Z" transform="translate(-43.467 -443.952)" fill="#fd4755" fill-rule="evenodd"/>
        </g>
        <g id="Grupo_1196035" data-name="Grupo 1196035" transform="translate(18.408 57.184)">
          <path id="Trazado_1113169" data-name="Trazado 1113169" d="M160.718,445.334v4.19a1.387,1.387,0,0,1-1.382,1.382h-4.19a1.387,1.387,0,0,1-1.383-1.382v-4.19a1.387,1.387,0,0,1,1.383-1.382h4.19A1.386,1.386,0,0,1,160.718,445.334Z" transform="translate(-153.763 -443.952)" fill="#ffe177" fill-rule="evenodd"/>
          <path id="Trazado_1113170" data-name="Trazado 1113170" d="M188.185,445.334v4.19a1.387,1.387,0,0,1-1.382,1.382h-1.336a1.386,1.386,0,0,0,1.382-1.382v-4.19a1.386,1.386,0,0,0-1.382-1.382H186.8A1.386,1.386,0,0,1,188.185,445.334Z" transform="translate(-181.23 -443.952)" fill="#ffd064" fill-rule="evenodd"/>
        </g>
        <g id="Grupo_1196036" data-name="Grupo 1196036" transform="translate(38.776 57.184)">
          <path id="Trazado_1113171" data-name="Trazado 1113171" d="M313.144,445.334v4.19a1.387,1.387,0,0,1-1.382,1.382h-4.19a1.387,1.387,0,0,1-1.382-1.382v-4.19a1.386,1.386,0,0,1,1.382-1.382h4.19A1.386,1.386,0,0,1,313.144,445.334Z" transform="translate(-306.189 -443.952)" fill="#c2ed56" fill-rule="evenodd"/>
          <path id="Trazado_1113172" data-name="Trazado 1113172" d="M340.61,445.334v4.19a1.387,1.387,0,0,1-1.382,1.382h-1.336a1.387,1.387,0,0,0,1.382-1.382v-4.19a1.386,1.386,0,0,0-1.382-1.382h1.336A1.386,1.386,0,0,1,340.61,445.334Z" transform="translate(-333.655 -443.952)" fill="#b7e546" fill-rule="evenodd"/>
        </g>
        <g id="Grupo_1196037" data-name="Grupo 1196037" transform="translate(57.185 57.184)">
          <path id="Trazado_1113173" data-name="Trazado 1113173" d="M450.908,445.334v4.19a1.387,1.387,0,0,1-1.382,1.382h-4.19a1.387,1.387,0,0,1-1.382-1.382v-4.19a1.386,1.386,0,0,1,1.382-1.382h4.19A1.386,1.386,0,0,1,450.908,445.334Z" transform="translate(-443.953 -443.952)" fill="#8ac9fe" fill-rule="evenodd"/>
          <path id="Trazado_1113174" data-name="Trazado 1113174" d="M478.373,445.334v4.19a1.387,1.387,0,0,1-1.382,1.382h-1.336a1.387,1.387,0,0,0,1.383-1.382v-4.19a1.387,1.387,0,0,0-1.383-1.382h1.336A1.386,1.386,0,0,1,478.373,445.334Z" transform="translate(-471.418 -443.952)" fill="#60b7ff" fill-rule="evenodd"/>
        </g>
        <g id="Grupo_1196038" data-name="Grupo 1196038" transform="translate(4.664 29.645)">
          <ellipse id="Elipse_14056" data-name="Elipse 14056" cx="8.017" cy="8.017" rx="8.017" ry="8.017" fill="#837683"/>
          <path id="Trazado_1113175" data-name="Trazado 1113175" d="M112.878,245.868a7.98,7.98,0,0,1-1.337,4.435,8.027,8.027,0,0,1-5.967,3.551q.352.031.713.031a8.082,8.082,0,0,0,1.147-.082l.145-.022a8.018,8.018,0,0,0-1.292-15.931q-.36,0-.713.031A8.018,8.018,0,0,1,112.878,245.868Z" transform="translate(-98.268 -237.851)" fill="#685e68" fill-rule="evenodd"/>
          <path id="Trazado_1113176" data-name="Trazado 1113176" d="M74.812,303.638a5.6,5.6,0,0,0-5.567,5,7.99,7.99,0,0,0,5.567,2.248,8.082,8.082,0,0,0,1.147-.082,7.993,7.993,0,0,0,4.419-2.166,5.6,5.6,0,0,0-5.566-5Z" transform="translate(-66.794 -294.847)" fill="#8ac9fe" fill-rule="evenodd"/>
          <path id="Trazado_1113177" data-name="Trazado 1113177" d="M105.573,303.683c3.333.423,4.676,2.945,4.984,5.967a8.055,8.055,0,0,0,1.295-1.016,5.6,5.6,0,0,0-6.279-4.951Z" transform="translate(-98.268 -294.847)" fill="#60b7ff" fill-rule="evenodd"/>
          <circle id="Elipse_14057" data-name="Elipse 14057" cx="2.831" cy="2.831" r="2.831" transform="translate(4.009 5.957) rotate(-45)" fill="#f6dccd"/>
          <path id="Trazado_1113178" data-name="Trazado 1113178" d="M110.713,264.1a2.831,2.831,0,0,1-2.474,2.809,2.831,2.831,0,1,0,0-5.617A2.831,2.831,0,0,1,110.713,264.1Z" transform="translate(-100.578 -258.139)" fill="#f1cbbc" fill-rule="evenodd"/>
        </g>
        <g id="Grupo_1196039" data-name="Grupo 1196039" transform="translate(43.216 29.449)">
          <ellipse id="Elipse_14058" data-name="Elipse 14058" cx="8.017" cy="8.017" rx="8.017" ry="8.017" transform="translate(0 0.465) rotate(-1.661)" fill="#837683"/>
          <path id="Trazado_1113179" data-name="Trazado 1113179" d="M403.066,245.868a8.018,8.018,0,0,1-7.3,7.986q.352.031.713.031a8.083,8.083,0,0,0,1.147-.082l.145-.022a8.018,8.018,0,0,0-1.292-15.931q-.36,0-.713.031A8.018,8.018,0,0,1,403.066,245.868Z" transform="translate(-388.232 -237.656)" fill="#685e68" fill-rule="evenodd"/>
          <path id="Trazado_1113180" data-name="Trazado 1113180" d="M365,303.638a5.6,5.6,0,0,0-5.567,5A7.99,7.99,0,0,0,365,310.882a8.083,8.083,0,0,0,1.147-.082,7.993,7.993,0,0,0,4.419-2.166A5.6,5.6,0,0,0,365,303.638Z" transform="translate(-356.759 -294.652)" fill="#8ac9fe" fill-rule="evenodd"/>
          <path id="Trazado_1113181" data-name="Trazado 1113181" d="M395.762,303.683c3.333.423,4.676,2.945,4.985,5.967a8.056,8.056,0,0,0,1.295-1.016,5.6,5.6,0,0,0-6.279-4.951Z" transform="translate(-388.233 -294.652)" fill="#60b7ff" fill-rule="evenodd"/>
          <ellipse id="Elipse_14059" data-name="Elipse 14059" cx="2.831" cy="2.831" rx="2.831" ry="2.831" transform="translate(4.84 8.281) rotate(-76.7)" fill="#f6dccd"/>
          <path id="Trazado_1113182" data-name="Trazado 1113182" d="M400.9,264.1a2.831,2.831,0,0,1-2.474,2.809,2.831,2.831,0,1,0,.356-5.639,2.88,2.88,0,0,0-.356.022A2.831,2.831,0,0,1,400.9,264.1Z" transform="translate(-390.543 -257.945)" fill="#f1cbbc" fill-rule="evenodd"/>
        </g>
        <g id="Grupo_1196040" data-name="Grupo 1196040" transform="translate(18.086)">
          <path id="Trazado_1113183" data-name="Trazado 1113183" d="M168.115,18.317a11.933,11.933,0,0,1,3.495,1.449l2.271-1.009,2.676,2.676-1.008,2.27A11.932,11.932,0,0,1,177,27.2l2.317.892v3.785L177,32.768a11.933,11.933,0,0,1-1.449,3.495l1.009,2.271-2.676,2.676-2.27-1.008a11.931,11.931,0,0,1-3.5,1.449l-.892,2.317h-3.785l-.892-2.317a11.936,11.936,0,0,1-3.495-1.449l-2.271,1.009L154.1,38.533l1.008-2.27a11.934,11.934,0,0,1-1.449-3.5l-2.317-.892V28.091l2.317-.892a11.934,11.934,0,0,1,1.449-3.495L154.1,21.434l2.676-2.676,2.271,1.009a11.936,11.936,0,0,1,3.495-1.449L163.439,16h3.785Z" transform="translate(-151.347 -16)" fill="#ffe177" fill-rule="evenodd"/>
          <path id="Trazado_1113184" data-name="Trazado 1113184" d="M192.019,40.2l-2.271,1.009-.35-.35,2.129-.946Q191.771,40.064,192.019,40.2Zm9.063-21.884a11.933,11.933,0,0,1,3.495,1.449l-.646.287a15.738,15.738,0,0,0-3.986-1.735L199.054,16h1.137Zm3.5,21.884a11.931,11.931,0,0,1-3.5,1.449l-.892,2.317h-1.137l.892-2.317a15.736,15.736,0,0,0,3.987-1.736ZM189.4,19.107l.35-.35,2.271,1.009q-.249.137-.491.287Zm16.662,0,.787-.35,2.676,2.676-1.008,2.27a11.932,11.932,0,0,1,1.449,3.5l2.317.892v3.785l-2.317.892a11.934,11.934,0,0,1-1.449,3.495l1.009,2.271-2.676,2.676-.787-.35,2.327-2.327-1.009-2.271a11.933,11.933,0,0,0,1.449-3.495l2.317-.892V28.091l-2.317-.892a11.931,11.931,0,0,0-1.449-3.5l1.008-2.27Z" transform="translate(-184.314 -16)" fill="#ffd064" fill-rule="evenodd"/>
          <circle id="Elipse_14060" data-name="Elipse 14060" cx="8.198" cy="8.198" r="8.198" transform="translate(2.609 16.181) rotate(-55.881)" fill="#eceff1"/>
          <path id="Trazado_1113185" data-name="Trazado 1113185" d="M202.849,59.3a8.2,8.2,0,0,0,0,16.4q.329,0,.652-.026a8.2,8.2,0,0,1,0-16.343Q203.179,59.3,202.849,59.3Z" transform="translate(-188.865 -53.516)" fill="#d1d1d6" fill-rule="evenodd"/>
          <path id="Trazado_1113186" data-name="Trazado 1113186" d="M241.513,103.929a2.234,2.234,0,1,0,2.234,2.234A2.234,2.234,0,0,0,241.513,103.929Z" transform="translate(-227.529 -92.18)" fill="#ffe177" fill-rule="evenodd"/>
          <path id="Trazado_1113187" data-name="Trazado 1113187" d="M241.513,103.929a2.234,2.234,0,1,0,.38,4.436,2.235,2.235,0,0,1,0-4.4A2.252,2.252,0,0,0,241.513,103.929Z" transform="translate(-227.529 -92.18)" fill="#ffd064" fill-rule="evenodd"/>
        </g>
      </g>
      <path id="Trazado_1113188" data-name="Trazado 1113188" d="M72.139,71.826a.318.318,0,0,1-.313.314h-4.19a.318.318,0,0,1-.314-.314V67.636a.318.318,0,0,1,.314-.314h4.19a.317.317,0,0,1,.313.314ZM53.731,67.636v4.19a.319.319,0,0,1-.314.314H49.227a.318.318,0,0,1-.314-.314v-4.19a.317.317,0,0,1,.314-.314h4.189A.319.319,0,0,1,53.731,67.636Zm6.8-27.854a6.942,6.942,0,0,1,6.01,10.427,6.655,6.655,0,0,0-3-3.061,3.9,3.9,0,1,0-6.022,0,6.652,6.652,0,0,0-3,3.061,6.944,6.944,0,0,1,6.012-10.427Zm0,8.791a4.517,4.517,0,0,0-4.416,3.519,6.935,6.935,0,0,0,8.831,0A4.516,4.516,0,0,0,60.526,48.573Zm-1.762-3.9a1.762,1.762,0,1,0,1.762-1.762A1.765,1.765,0,0,0,58.764,44.673ZM49.451,33l-1.6-.711a1.07,1.07,0,0,0-.994.067,10.845,10.845,0,0,1-3.181,1.32,1.07,1.07,0,0,0-.752.656L42.3,35.967H39.979l-.628-1.632a1.072,1.072,0,0,0-.75-.656,10.84,10.84,0,0,1-3.182-1.319,1.07,1.07,0,0,0-1-.067l-1.6.711-1.638-1.638.71-1.6a1.067,1.067,0,0,0-.065-.994,10.873,10.873,0,0,1-1.321-3.183,1.068,1.068,0,0,0-.656-.75l-1.632-.628V21.894l1.633-.628a1.068,1.068,0,0,0,.655-.75,10.9,10.9,0,0,1,1.321-3.182,1.072,1.072,0,0,0,.067-.994l-.711-1.6L32.825,13.1l1.6.711a1.071,1.071,0,0,0,1-.067A10.826,10.826,0,0,1,38.6,12.427a1.072,1.072,0,0,0,.75-.656l.628-1.632H42.3l.628,1.632a1.07,1.07,0,0,0,.752.656,10.857,10.857,0,0,1,3.181,1.319,1.068,1.068,0,0,0,.994.067l1.6-.711,1.638,1.638-.709,1.6a1.066,1.066,0,0,0,.066.994,10.827,10.827,0,0,1,1.32,3.183,1.069,1.069,0,0,0,.656.75l1.632.628v2.317l-1.632.629a1.065,1.065,0,0,0-.656.75,10.873,10.873,0,0,1-1.32,3.182,1.066,1.066,0,0,0-.066.994l.709,1.6ZM28.7,46.731a6.9,6.9,0,0,1-.938,3.479,6.653,6.653,0,0,0-3-3.061,3.9,3.9,0,1,0-6.021,0,6.652,6.652,0,0,0-3,3.061A6.947,6.947,0,1,1,28.7,46.731ZM21.75,48.573a4.518,4.518,0,0,0-4.417,3.519,6.935,6.935,0,0,0,8.831,0A4.516,4.516,0,0,0,21.75,48.573Zm0-2.138a1.762,1.762,0,1,0-1.762-1.762A1.764,1.764,0,0,0,21.75,46.436Zm11.612,21.2v4.19a.317.317,0,0,1-.313.314H28.86a.319.319,0,0,1-.314-.314v-4.19a.319.319,0,0,1,.314-.314h4.19A.317.317,0,0,1,33.362,67.636Zm-18.408,0v4.19a.318.318,0,0,1-.314.314H10.451a.319.319,0,0,1-.314-.314v-4.19a.319.319,0,0,1,.314-.314H14.64A.317.317,0,0,1,14.954,67.636Zm56.872-2.452H70.8V60.5a1.069,1.069,0,0,0-1.069-1.069H61.6v-3.68a9.085,9.085,0,1,0-5.586-16.9l-4-5.385,1.108-1.108a1.069,1.069,0,0,0,.221-1.189L52.555,29.4a12.952,12.952,0,0,0,1.145-2.76l1.806-.695a1.07,1.07,0,0,0,.684-1V21.161a1.07,1.07,0,0,0-.684-1L53.7,19.468a13,13,0,0,0-1.144-2.762l.786-1.769a1.07,1.07,0,0,0-.221-1.19l-2.677-2.677a1.07,1.07,0,0,0-1.189-.221l-1.77.786a12.957,12.957,0,0,0-2.761-1.145l-.695-1.806a1.069,1.069,0,0,0-1-.685H39.246a1.071,1.071,0,0,0-1,.685l-.694,1.806a12.985,12.985,0,0,0-2.76,1.145l-1.771-.786a1.07,1.07,0,0,0-1.189.221l-2.676,2.677a1.068,1.068,0,0,0-.22,1.19l.786,1.769a12.957,12.957,0,0,0-1.145,2.761l-1.8.695a1.07,1.07,0,0,0-.686,1v3.785a1.069,1.069,0,0,0,.686,1l1.8.695A12.958,12.958,0,0,0,29.721,29.4l-.786,1.769a1.066,1.066,0,0,0,.22,1.189l1.108,1.108-4,5.385a9.084,9.084,0,1,0-5.586,16.9v3.68H12.546A1.068,1.068,0,0,0,11.478,60.5v4.684H10.451A2.455,2.455,0,0,0,8,67.636v4.19a2.454,2.454,0,0,0,2.452,2.452H14.64a2.454,2.454,0,0,0,2.452-2.452v-4.19a2.455,2.455,0,0,0-2.452-2.452H13.616V61.57h16.27v3.615H28.86a2.455,2.455,0,0,0-2.452,2.452v4.19a2.455,2.455,0,0,0,2.452,2.452h4.19a2.454,2.454,0,0,0,2.45-2.452v-4.19a2.454,2.454,0,0,0-2.45-2.452H32.023V60.5a1.068,1.068,0,0,0-1.069-1.069H22.819v-3.68a9.078,9.078,0,0,0,5.164-15.624l3.809-5.134.04.04a1.067,1.067,0,0,0,1.189.221l1.771-.786a12.957,12.957,0,0,0,2.76,1.145l.694,1.806a1.07,1.07,0,0,0,1,.685h3.784a1.068,1.068,0,0,0,1-.685l.695-1.805a12.968,12.968,0,0,0,2.762-1.145l1.769.786a1.067,1.067,0,0,0,1.189-.221l.042-.04,3.809,5.134a9.078,9.078,0,0,0,5.164,15.624v3.68H51.321A1.069,1.069,0,0,0,50.252,60.5v4.684H49.227a2.455,2.455,0,0,0-2.452,2.452v4.19a2.454,2.454,0,0,0,2.452,2.452h4.189a2.454,2.454,0,0,0,2.452-2.452v-4.19a2.455,2.455,0,0,0-2.452-2.452H52.39V61.57H68.661v3.615H67.635a2.455,2.455,0,0,0-2.452,2.452v4.19a2.454,2.454,0,0,0,2.452,2.452h4.19a2.454,2.454,0,0,0,2.451-2.452v-4.19a2.454,2.454,0,0,0-2.451-2.452ZM41.138,24.218a1.165,1.165,0,1,0-1.165-1.165,1.166,1.166,0,0,0,1.165,1.165Zm0-4.468a3.3,3.3,0,1,0,3.3,3.3A3.307,3.307,0,0,0,41.138,19.75Zm0,10.431a7.128,7.128,0,1,0-7.127-7.128,7.136,7.136,0,0,0,7.127,7.128Zm0-16.395A9.267,9.267,0,1,0,50.4,23.053a9.276,9.276,0,0,0-9.267-9.267Z" transform="translate(-7.999 -8)" fill-rule="evenodd"/>
    </g>
  </g>
</svg>
