<svg xmlns="http://www.w3.org/2000/svg" xmlns:xlink="http://www.w3.org/1999/xlink" width="130.113" height="130.788" viewBox="0 0 130.113 130.788">
  <defs>
    <filter id="_52" x="0" y="0" width="130.113" height="130.788" filterUnits="userSpaceOnUse">
      <feOffset dx="3" dy="3" input="SourceAlpha"/>
      <feGaussianBlur stdDeviation="3" result="blur"/>
      <feFlood flood-opacity="0.161"/>
      <feComposite operator="in" in2="blur"/>
      <feComposite in="SourceGraphic"/>
    </filter>
  </defs>
  <g id="Grupo_1196050" data-name="Grupo 1196050" transform="translate(2634.792 7518.462)">
    <g id="Grupo_1195600" data-name="Grupo 1195600" transform="translate(-17141.762 586.951)">
      <g transform="matrix(1, 0, 0, 1, 14506.97, -8105.41)" filter="url(#_52)">
        <g id="_52-2" data-name="52" transform="translate(6 6)" fill="#fff" stroke="#fff" stroke-width="3">
          <ellipse cx="56.056" cy="56.394" rx="56.056" ry="56.394" stroke="none"/>
          <ellipse cx="56.056" cy="56.394" rx="54.556" ry="54.894" fill="none"/>
        </g>
      </g>
    </g>
    <g id="bombilla" transform="translate(-2604.938 -7489.207)">
      <path id="Trazado_1113046" data-name="Trazado 1113046" d="M18.263,33.324c-.091-.111-.181-.211-.282-.322A19.121,19.121,0,1,1,46.26,33c-.1.111-.191.211-.282.322A27.531,27.531,0,0,0,44.1,35.649a25.016,25.016,0,0,0-3.925,8.021l-1.006,3.623H25.076L24.07,43.669a25.016,25.016,0,0,0-3.925-8.021A27.532,27.532,0,0,0,18.263,33.324Z" transform="translate(0.083 0.006)" fill="#40bcb2"/>
      <path id="Trazado_1113047" data-name="Trazado 1113047" d="M27.358,45.267a1,1,0,0,1-.969-.737L26,43.118a26.994,26.994,0,0,0-4.236-8.665,29.711,29.711,0,0,0-2.018-2.493c-.049-.062-.158-.185-.28-.32A17.112,17.112,0,1,1,49.135,21.79a17.575,17.575,0,0,1-4.475,9.954c-.087.1-.167.189-.249.289a28.54,28.54,0,0,0-1.956,2.422,27.005,27.005,0,0,0-4.236,8.665l-.391,1.41a1.007,1.007,0,0,1-.971.738Z" transform="translate(0.096 0.019)" fill="#6ccfca"/>
      <path id="Trazado_1113048" data-name="Trazado 1113048" d="M25,59H39.089a4.035,4.035,0,0,1-4.025,4.025H29.025A4.035,4.035,0,0,1,25,59Z" transform="translate(0.159 0.375)" fill="#999"/>
      <path id="Trazado_1113049" data-name="Trazado 1113049" d="M25,51H39.089v4.025H25Z" transform="translate(0.159 0.324)" fill="#999"/>
      <path id="Trazado_1113050" data-name="Trazado 1113050" d="M39.089,57.194v1.832H25V55H39.089Z" transform="translate(0.159 0.349)" fill="gray"/>
      <path id="Trazado_1113051" data-name="Trazado 1113051" d="M39.089,47v4.025H25V47H39.089Z" transform="translate(0.159 0.299)" fill="gray"/>
      <path id="Trazado_1113052" data-name="Trazado 1113052" d="M32.335,59a10.389,10.389,0,0,1-5.921,3.058c.068.057.135.119.207.171a3.975,3.975,0,0,0,2.4.8h6.038A4.035,4.035,0,0,0,39.08,59Z" transform="translate(0.168 0.375)" fill="gray"/>
      <path id="Trazado_1113053" data-name="Trazado 1113053" d="M39.026,51H36.357a21.764,21.764,0,0,1-1.374,4.025h4.043Z" transform="translate(0.223 0.324)" fill="gray"/>
      <path id="Trazado_1113054" data-name="Trazado 1113054" d="M35,55a14.191,14.191,0,0,1-2.7,4.025h6.745V55Z" transform="translate(0.206 0.349)" fill="#666"/>
      <path id="Trazado_1113055" data-name="Trazado 1113055" d="M39.017,47h-2a29.671,29.671,0,0,1-.667,4.025h2.669Z" transform="translate(0.231 0.299)" fill="#666"/>
      <circle id="Elipse_14052" data-name="Elipse 14052" cx="4" cy="4" r="4" transform="translate(32.004 11.207)" fill="#ffca3a"/>
      <path id="Trazado_1113056" data-name="Trazado 1113056" d="M40.049,15.023a4.02,4.02,0,0,1-7.689,1.65,3.956,3.956,0,0,0,1.65.362,4.024,4.024,0,0,0,4.025-4.025,3.956,3.956,0,0,0-.362-1.65A4.013,4.013,0,0,1,40.049,15.023Z" transform="translate(0.206 0.072)" fill="#ff9700"/>
      <path id="Trazado_1113057" data-name="Trazado 1113057" d="M44.192,25.1,39.15,29.991c-.01,0-.01,0-.02.01,1.439-1.4.06-4.267.06-4.267v-.01a24.494,24.494,0,0,1,5-.624Z" transform="translate(0.249 0.159)" fill="#76991f"/>
      <path id="Trazado_1113058" data-name="Trazado 1113058" d="M43.424,30.044h.01a15.53,15.53,0,0,1-1.288,3.4,10.024,10.024,0,0,0-7.306.715l4.317-4.186c.01-.01.01-.01.02-.01C40.627,28.585,43.424,30.044,43.424,30.044Z" transform="translate(0.222 0.187)" fill="#76991f"/>
      <path id="Trazado_1113059" data-name="Trazado 1113059" d="M34.839,34.186l-2.164,2.1c-2.164-5.112.07-7.89,3.13-9.4A10.085,10.085,0,0,1,34.839,34.186Z" transform="translate(0.202 0.171)" fill="#76991f"/>
      <path id="Trazado_1113060" data-name="Trazado 1113060" d="M26.844,30.472c-5.464,1.006-7.689-1.781-8.5-5.092a10.067,10.067,0,0,1,6.924,2.526Z" transform="translate(0.117 0.161)" fill="#76991f"/>
      <path id="Trazado_1113061" data-name="Trazado 1113061" d="M25.242,27.939l-3.16-5.132c-1.057-1.721.986-4.156.986-4.156l.01-.02a16.218,16.218,0,0,1,3.029,1.993,10.154,10.154,0,0,0-.865,7.316Z" transform="translate(0.139 0.118)" fill="#76991f"/>
      <path id="Trazado_1113062" data-name="Trazado 1113062" d="M22.106,22.818c-1.057-1.721-4.156-1-4.156-1h-.02a25.173,25.173,0,0,1,.483-5.012Z" transform="translate(0.114 0.107)" fill="#76991f"/>
      <path id="Trazado_1113063" data-name="Trazado 1113063" d="M27.044,30.17c-.07.111-.161.221-.242.332l-1.58-2.566v-.01a10.154,10.154,0,0,1,.865-7.316c2.526,2.164,4.005,5.3.956,9.56Z" transform="translate(0.158 0.131)" fill="#90b541"/>
      <path id="Trazado_1113064" data-name="Trazado 1113064" d="M25.266,27.92v.01A10.067,10.067,0,0,0,18.343,25.4a15.859,15.859,0,0,1-.413-3.613h.02s3.1-.725,4.156,1Z" transform="translate(0.114 0.137)" fill="#90b541"/>
      <path id="Trazado_1113065" data-name="Trazado 1113065" d="M23.1,18.642l-.01.02S21.047,21.1,22.1,22.818L18.41,16.81A25.314,25.314,0,0,1,23.1,18.642Z" transform="translate(0.117 0.107)" fill="#90b541"/>
      <path id="Trazado_1113066" data-name="Trazado 1113066" d="M26.811,30.456,25.237,27.9a5.32,5.32,0,0,1-1.71,2.679,10.232,10.232,0,0,0,3.284-.123Z" transform="translate(0.15 0.177)" fill="#627c12"/>
      <path id="Trazado_1113067" data-name="Trazado 1113067" d="M23.88,19.1c.444,1.364.929,2.808,1.245,4.233a12.177,12.177,0,0,1,.969-2.712A14.694,14.694,0,0,0,23.88,19.1Z" transform="translate(0.152 0.121)" fill="#627c12"/>
      <path id="Trazado_1113068" data-name="Trazado 1113068" d="M25.119,23.3a8.8,8.8,0,0,0,.1,4.6v.01l.006.01a9.716,9.716,0,0,0-.11-4.624Z" transform="translate(0.158 0.148)" fill="#90b541"/>
      <path id="Trazado_1113069" data-name="Trazado 1113069" d="M26.086,20.61a12.2,12.2,0,0,0-.969,2.712,9.716,9.716,0,0,1,.11,4.624L26.8,30.5c.081-.111.171-.221.242-.332,3.049-4.257,1.57-7.4-.956-9.56Z" transform="translate(0.16 0.131)" fill="#76991f"/>
      <path id="Trazado_1113070" data-name="Trazado 1113070" d="M39.15,29.991,44.192,25.1a24.788,24.788,0,0,1-.785,4.971H43.4s-2.8-1.459-4.247-.081Z" transform="translate(0.249 0.159)" fill="#90b541"/>
      <path id="Trazado_1113071" data-name="Trazado 1113071" d="M39.218,25.73S40.6,28.6,39.157,30L34.84,34.183c-.01,0-.01.01-.02.01a10.085,10.085,0,0,0,.966-7.3,15.743,15.743,0,0,1,3.432-1.177Z" transform="translate(0.222 0.163)" fill="#90b541"/>
      <path id="Trazado_1113072" data-name="Trazado 1113072" d="M32.67,36.25l2.164-2.1c.01,0,.01-.01.02-.01a10.024,10.024,0,0,1,7.306-.715c-1.58,2.959-4.358,5.072-9.238,2.939a2.736,2.736,0,0,1-.252-.111Z" transform="translate(0.208 0.21)" fill="#90b541"/>
      <path id="Trazado_1113073" data-name="Trazado 1113073" d="M32.675,36.251l1.757-1.708a6.408,6.408,0,0,1-2.6-1.626,10.064,10.064,0,0,0,.845,3.334Z" transform="translate(0.203 0.209)" fill="#627c12"/>
      <path id="Trazado_1113074" data-name="Trazado 1113074" d="M34.427,34.54,32.67,36.247a2.734,2.734,0,0,0,.252.111c4.848,2.118,7.618.048,9.2-2.878C39.328,34.277,36.828,35.291,34.427,34.54Z" transform="translate(0.208 0.213)" fill="#76991f"/>
      <path id="Trazado_1113075" data-name="Trazado 1113075" d="M63.067,31.01c-.2.171-2.466,2.154-4.2,7.387-2.778-.06-6.028.382-8.021,2.355A24.96,24.96,0,0,1,63.067,31.01Z" transform="translate(0.323 0.197)" fill="#90b541"/>
      <path id="Trazado_1113076" data-name="Trazado 1113076" d="M50.884,40.76a29.481,29.481,0,0,0-2.858,5.334,27.015,27.015,0,0,1-1.187,2.5s-.282-7.4-2.939-13.133a27.531,27.531,0,0,1,1.882-2.325,31.687,31.687,0,0,1,6.441-1.8,23.8,23.8,0,0,1-1.328,9.419Z" transform="translate(0.279 0.199)" fill="#90b541"/>
      <path id="Trazado_1113077" data-name="Trazado 1113077" d="M57.273,46.264c-.07.564-.121,1.147-.171,1.751a19.451,19.451,0,0,1-2.043,7.558c-3.975-1.187-9.3-1.942-14.059.171A25.274,25.274,0,0,0,46.857,48.5C50.248,45.106,54.344,45.378,57.273,46.264Z" transform="translate(0.261 0.29)" fill="#90b541"/>
      <path id="Trazado_1113078" data-name="Trazado 1113078" d="M25.1,59.03a4,4,0,0,0,1.63,3.23c-7.88,2.2-14.481-.564-17.7-6.743,3.975-1.187,9.3-1.942,14.059.171A22.32,22.32,0,0,0,25.1,57.2Z" transform="translate(0.058 0.345)" fill="#90b541"/>
      <path id="Trazado_1113079" data-name="Trazado 1113079" d="M23.037,55.809a25.274,25.274,0,0,1-5.857-7.246s.282-7.4,2.939-13.133a25.016,25.016,0,0,1,3.925,8.021l1.006,3.623V57.318A22.321,22.321,0,0,1,23.037,55.809Z" transform="translate(0.109 0.225)" fill="#90b541"/>
      <path id="Trazado_1113080" data-name="Trazado 1113080" d="M11.9,31.334a23.8,23.8,0,0,0,1.328,9.419A24.96,24.96,0,0,0,1.01,31.012L1,31a37.34,37.34,0,0,1,10.9.332Z" transform="translate(0.007 0.195)" fill="#90b541"/>
      <path id="Trazado_1113081" data-name="Trazado 1113081" d="M16.069,46.049a27.015,27.015,0,0,0,1.187,2.5c-3.391-3.391-7.487-3.12-10.416-2.234a38.61,38.61,0,0,0-1.66-7.96c2.778-.06,6.028.382,8.021,2.355l.01.01A29.481,29.481,0,0,1,16.069,46.049Z" transform="translate(0.033 0.244)" fill="#90b541"/>
      <path id="Trazado_1113082" data-name="Trazado 1113082" d="M17.246,48.5A25.274,25.274,0,0,0,23.1,55.743c-4.76-2.113-10.084-1.359-14.059-.171A19.451,19.451,0,0,1,7,48.015c-.05-.6-.1-1.187-.171-1.751C9.758,45.378,13.854,45.106,17.246,48.5Z" transform="translate(0.044 0.29)" fill="#76991f"/>
      <path id="Trazado_1113083" data-name="Trazado 1113083" d="M13.169,40.76l-.01-.01A23.8,23.8,0,0,1,11.83,31.33a31.687,31.687,0,0,1,6.441,1.8,27.53,27.53,0,0,1,1.882,2.325c-2.657,5.736-2.939,13.133-2.939,13.133a27.015,27.015,0,0,1-1.187-2.5,29.481,29.481,0,0,0-2.858-5.334Z" transform="translate(0.075 0.199)" fill="#76991f"/>
      <path id="Trazado_1113084" data-name="Trazado 1113084" d="M1.01,31.01a24.96,24.96,0,0,1,12.217,9.741c-1.993-1.972-5.243-2.415-8.021-2.355-1.731-5.233-4-7.216-4.2-7.387Z" transform="translate(0.007 0.197)" fill="#76991f"/>
      <path id="Trazado_1113085" data-name="Trazado 1113085" d="M63.077,31l-.01.01A24.96,24.96,0,0,0,50.85,40.753a23.8,23.8,0,0,0,1.328-9.419A37.34,37.34,0,0,1,63.077,31Z" transform="translate(0.323 0.195)" fill="#76991f"/>
      <path id="Trazado_1113086" data-name="Trazado 1113086" d="M50.876,40.7c1.993-1.972,5.243-2.415,8.021-2.355a38.61,38.61,0,0,0-1.66,7.96c-2.928-.886-7.024-1.157-10.416,2.234a27.013,27.013,0,0,0,1.187-2.5,29.481,29.481,0,0,1,2.858-5.334Z" transform="translate(0.298 0.244)" fill="#76991f"/>
      <path id="Trazado_1113087" data-name="Trazado 1113087" d="M41.013,55.809A22.321,22.321,0,0,1,39,57.318V47.073l1.006-3.623a25.016,25.016,0,0,1,3.925-8.021c2.657,5.736,2.939,13.133,2.939,13.133A25.274,25.274,0,0,1,41.013,55.809Z" transform="translate(0.248 0.225)" fill="#76991f"/>
      <path id="Trazado_1113088" data-name="Trazado 1113088" d="M41.023,55.688c4.76-2.113,10.084-1.359,14.059-.171-3.22,6.179-9.822,8.946-17.7,6.743a4,4,0,0,0,1.63-3.23V57.2a22.321,22.321,0,0,0,2.013-1.51Z" transform="translate(0.238 0.345)" fill="#76991f"/>
      <path id="Trazado_1113089" data-name="Trazado 1113089" d="M58.225,33.423A49.249,49.249,0,0,0,56,38.547a18.752,18.752,0,0,1,2.836-.15c1.731-5.233,4-7.216,4.2-7.387A20.408,20.408,0,0,0,58.225,33.423Z" transform="translate(0.356 0.197)" fill="#76991f"/>
      <path id="Trazado_1113090" data-name="Trazado 1113090" d="M53.452,45.69a33.1,33.1,0,0,1-4.41,8.769,27.316,27.316,0,0,1,5.966,1.113,19.451,19.451,0,0,0,2.043-7.558c.05-.6.1-1.187.171-1.751A12.712,12.712,0,0,0,53.452,45.69Z" transform="translate(0.312 0.29)" fill="#76991f"/>
      <path id="Trazado_1113091" data-name="Trazado 1113091" d="M53.424,45.737a12.712,12.712,0,0,1,3.77.574,38.61,38.61,0,0,1,1.66-7.96,18.752,18.752,0,0,0-2.836.15c-.9,2.4-1.72,4.869-2.594,7.237Z" transform="translate(0.34 0.244)" fill="#627c12"/>
      <path id="Trazado_1113092" data-name="Trazado 1113092" d="M39,59.276A4,4,0,0,1,37.38,62.26c7.88,2.2,14.481-.564,17.7-6.743A27.316,27.316,0,0,0,49.116,54.4,11.892,11.892,0,0,1,39,59.276Z" transform="translate(0.238 0.346)" fill="#627c12"/>
      <path id="Trazado_1113093" data-name="Trazado 1113093" d="M5.819,33.423a49.247,49.247,0,0,1,2.222,5.123,18.752,18.752,0,0,0-2.836-.15c-1.731-5.233-4-7.216-4.2-7.387A20.407,20.407,0,0,1,5.819,33.423Z" transform="translate(0.007 0.197)" fill="#627c12"/>
      <path id="Trazado_1113094" data-name="Trazado 1113094" d="M10.6,45.69a33.1,33.1,0,0,0,4.41,8.769,27.316,27.316,0,0,0-5.966,1.113A19.451,19.451,0,0,1,7,48.015c-.05-.6-.1-1.187-.171-1.751A12.712,12.712,0,0,1,10.6,45.69Z" transform="translate(0.044 0.29)" fill="#627c12"/>
      <path id="Trazado_1113095" data-name="Trazado 1113095" d="M10.61,45.737a12.712,12.712,0,0,0-3.77.574,38.61,38.61,0,0,0-1.66-7.96,18.752,18.752,0,0,1,2.836.15c.9,2.4,1.72,4.869,2.594,7.237Z" transform="translate(0.033 0.244)" fill="#76991f"/>
      <path id="Trazado_1113096" data-name="Trazado 1113096" d="M25.117,59.276a4,4,0,0,0,1.615,2.984c-7.88,2.2-14.481-.564-17.7-6.743A27.316,27.316,0,0,1,15,54.4,11.892,11.892,0,0,0,25.117,59.276Z" transform="translate(0.058 0.346)" fill="#76991f"/>
      <path id="Trazado_1113097" data-name="Trazado 1113097" d="M23.038,7.995c-1.026-2.259-5.093,1.247-4.065,3.51.486,1.07,1.3-.354,2.354-.91,1.172-.618,2.252-1.409,1.711-2.6Z" transform="translate(0.12 0.046)" fill="#bdefeb"/>
      <path id="Trazado_1113098" data-name="Trazado 1113098" d="M18.606,12.17c-.8-.624-1.792.81-.987,1.435S19.412,12.795,18.606,12.17Z" transform="translate(0.11 0.076)" fill="#bdefeb"/>
      <path id="Trazado_1113099" data-name="Trazado 1113099" d="M35.049,13.022a1.007,1.007,0,0,0,0,2.013A1.007,1.007,0,0,0,35.049,13.022Z" transform="translate(0.217 0.083)" fill="#f9e4af"/>
      <path id="Trazado_1113100" data-name="Trazado 1113100" d="M27.025,52.326a.5.5,0,0,0,0,1.006A.5.5,0,0,0,27.025,52.326Z" transform="translate(0.169 0.332)" fill="#ccc"/>
      <g id="Grupo_1196022" data-name="Grupo 1196022" transform="translate(0)">
        <path id="Trazado_1113101" data-name="Trazado 1113101" d="M6.041,48.382c.449,5.844,2.875,10.586,6.831,13.353A15.031,15.031,0,0,0,21.6,64.356a20.142,20.142,0,0,0,5.025-.675,4.981,4.981,0,0,0,2.563.726h6.038a4.981,4.981,0,0,0,2.563-.726,20.1,20.1,0,0,0,5.025.675,15.033,15.033,0,0,0,8.724-2.621c3.956-2.767,6.382-7.509,6.831-13.353.952-12.381,5.622-16.365,5.664-16.4A1.006,1.006,0,0,0,63.55,30.2a38.529,38.529,0,0,0-13.271.748,1.007,1.007,0,0,0,.462,1.959c.276-.065.545-.115.817-.171a23.453,23.453,0,0,1-1.3,7.76,30.456,30.456,0,0,0-2.5,4.534A36.95,36.95,0,0,0,45.331,35.8c.542-.718,1.12-1.425,1.75-2.115a20.142,20.142,0,1,0-31.6-2.386A38.375,38.375,0,0,0,.856,30.2a1.006,1.006,0,0,0-.479,1.781c.047.037,4.7,3.9,5.664,16.4Zm3.466-10.39a17.094,17.094,0,0,0-3.568-.387,24.428,24.428,0,0,0-1.7-3.776,25.456,25.456,0,0,1,5.268,4.163Zm3.34-5.26a30.5,30.5,0,0,1,4.911,1.451q.694.8,1.315,1.613a36.939,36.939,0,0,0-2.424,9.233,30.485,30.485,0,0,0-2.5-4.536,23.434,23.434,0,0,1-1.3-7.762ZM26.165,48.3H38.241v2.013H26.165Zm7.6-18.151a5.768,5.768,0,0,1,1.474-1.483,8.39,8.39,0,0,1-1.007,5.074l-.922.894a5.325,5.325,0,0,1,.455-4.484Zm1.87,5.036a8.39,8.39,0,0,1,5.1-.846,5.753,5.753,0,0,1-1.528,1.427,5.326,5.326,0,0,1-4.5.314Zm6.191-2.715a12.493,12.493,0,0,0-3.188-.2l1.443-1.4c.532-.517,1.6-.321,2.367-.061a14.774,14.774,0,0,1-.622,1.654Zm1.127-3.612c-.191-.061-.4-.117-.617-.167l.794-.769C43.077,28.225,43.017,28.54,42.95,28.863ZM40.932,27.25c-.043-.22-.092-.43-.147-.622.325-.056.641-.107.941-.147Zm-2.119-.179c.235.781.4,1.848-.137,2.365h0l-1.441,1.4a12.536,12.536,0,0,0-.1-3.193,15.031,15.031,0,0,1,1.674-.57ZM28.178,56.356H38.241v2.013H26.165V52.33H38.241v2.013H28.178a1.006,1.006,0,1,0,0,2.013Zm-4.025-.8a23.807,23.807,0,0,1-5.839-7.019,41.639,41.639,0,0,1,2.128-10.748,23.446,23.446,0,0,1,2.745,6.161l.965,3.488ZM12.425,41.588a27.926,27.926,0,0,1,2.364,4.257,11.24,11.24,0,0,0-7.054-.554,40.572,40.572,0,0,0-1.152-5.665C8.623,39.722,10.94,40.189,12.425,41.588Zm-4.461,5.73a8.612,8.612,0,0,1,8.56,2.135,26.737,26.737,0,0,0,3.123,4.506,23.938,23.938,0,0,0-10,.7,18.919,18.919,0,0,1-1.6-6.434c-.024-.312-.055-.607-.084-.91Zm6.061,12.769a12.625,12.625,0,0,1-3.4-3.6c3.446-.87,7.979-1.334,12.038.442q.725.6,1.486,1.128v1.317a4.978,4.978,0,0,0,.764,2.633,14.042,14.042,0,0,1-10.891-1.921Zm15.159,2.308a3.015,3.015,0,0,1-2.834-2.013h11.7a3.015,3.015,0,0,1-2.834,2.013Zm21.2-2.308a14.045,14.045,0,0,1-10.89,1.921,4.978,4.978,0,0,0,.764-2.633V58.057q.762-.531,1.486-1.128c4.059-1.776,8.591-1.312,12.038-.442a12.656,12.656,0,0,1-3.4,3.6Zm4.375-5.425a23.918,23.918,0,0,0-10-.7,26.737,26.737,0,0,0,3.123-4.506,8.609,8.609,0,0,1,8.56-2.135c-.028.3-.06.6-.084.91A18.919,18.919,0,0,1,54.755,54.661ZM51.981,41.588c1.485-1.4,3.795-1.869,5.842-1.963a40.619,40.619,0,0,0-1.152,5.666,11.24,11.24,0,0,0-7.054.554A27.877,27.877,0,0,1,51.981,41.588Zm8.187-7.758a24.377,24.377,0,0,0-1.7,3.776,17.1,17.1,0,0,0-3.568.388A25.439,25.439,0,0,1,60.168,33.83Zm-6.6-1.454a39,39,0,0,1,5.749-.415,26.859,26.859,0,0,0-6.039,4.764A22.277,22.277,0,0,0,53.565,32.375ZM46.093,48.534a23.822,23.822,0,0,1-5.839,7.019V47.434l.965-3.487a23.446,23.446,0,0,1,2.745-6.161,41.594,41.594,0,0,1,2.128,10.748ZM32.2,2.013A18.115,18.115,0,0,1,45.595,32.326,27.251,27.251,0,0,0,39.28,43.412l-.8,2.88H32.34c.726-5.645.922-6.407,1.46-8.385a9.385,9.385,0,0,0,2.993.543,6.485,6.485,0,0,0,3.472-.969c4.821-2.98,5.164-11.818,5.176-12.192a1.006,1.006,0,0,0-1.005-1.04h0c-.375,0-9.219.065-12.349,4.79-1.394,2.1-1.441,4.734-.14,7.813.009.022.028.038.039.059-.035.131-.072.266-.1.386a30.992,30.992,0,0,0-.766,3.317c-.976-4.143-2.323-8.6-2.806-10.157,1.569-2.38,2-4.67,1.249-6.818-1.864-5.353-10.418-7.6-10.781-7.7a1.007,1.007,0,0,0-1.232.758c-.081.366-1.934,9.015,2,13.094a7.029,7.029,0,0,0,5.29,2.054,12.44,12.44,0,0,0,1.751-.145c.9,2.977,3.161,10.687,3.547,14.586H25.926l-.8-2.881a27.262,27.262,0,0,0-6.315-11.086A18.113,18.113,0,0,1,32.2,2.013ZM26.989,28.764l-.673-1.095A8.383,8.383,0,0,1,26.6,22.5a5.724,5.724,0,0,1,1.062,1.8A5.322,5.322,0,0,1,26.989,28.764Zm-2.863-4.656-1.054-1.715c-.386-.634.034-1.626.454-2.323a14.829,14.829,0,0,1,1.481.966A12.611,12.611,0,0,0,24.126,24.107Zm-2.7-4.388-.58-.943c.28.113.575.241.876.375-.1.174-.2.364-.3.568Zm-1.715,1.054c-.224-.006-.44,0-.639.008.015-.329.035-.65.06-.951Zm1.644,2.675,1.049,1.706a12.052,12.052,0,0,0-3.137-.608,14.75,14.75,0,0,1-.191-1.742c.814-.06,1.891.012,2.279.644ZM24.6,28.724l.672,1.094A5.318,5.318,0,0,1,21,28.4a5.744,5.744,0,0,1-1.128-1.761A8.4,8.4,0,0,1,24.6,28.724ZM10.841,32.375a22.356,22.356,0,0,0,.29,4.349,26.878,26.878,0,0,0-6.038-4.763A38.879,38.879,0,0,1,10.841,32.375Z" transform="translate(0)" fill="#472b3c"/>
        <path id="Trazado_1113102" data-name="Trazado 1113102" d="M36.032,20.064A5.032,5.032,0,1,0,31,15.032,5.037,5.037,0,0,0,36.032,20.064Zm0-8.051a3.019,3.019,0,1,1-3.019,3.019A3.023,3.023,0,0,1,36.032,12.013Z" transform="translate(0.197 0.064)" fill="#472b3c"/>
        <path id="Trazado_1113103" data-name="Trazado 1113103" d="M42,14.006a1.006,1.006,0,0,0,1.006,1.006h2.013a1.006,1.006,0,0,0,0-2.013H43.006A1.006,1.006,0,0,0,42,14.006Z" transform="translate(0.267 0.083)" fill="#472b3c"/>
        <path id="Trazado_1113104" data-name="Trazado 1113104" d="M27.006,15.013h2.013a1.006,1.006,0,1,0,0-2.013H27.006a1.006,1.006,0,0,0,0,2.013Z" transform="translate(0.166 0.083)" fill="#472b3c"/>
        <path id="Trazado_1113105" data-name="Trazado 1113105" d="M40.956,10.072a1,1,0,0,0,.711-.295l1.423-1.423a1.006,1.006,0,0,0-1.423-1.423L40.245,8.354a1.006,1.006,0,0,0,.711,1.718Z" transform="translate(0.254 0.042)" fill="#472b3c"/>
        <path id="Trazado_1113106" data-name="Trazado 1113106" d="M30.354,18.245l-1.423,1.423a1.006,1.006,0,1,0,1.423,1.423l1.423-1.423a1.006,1.006,0,1,0-1.423-1.423Z" transform="translate(0.182 0.114)" fill="#472b3c"/>
        <path id="Trazado_1113107" data-name="Trazado 1113107" d="M36.006,9.025a1.006,1.006,0,0,0,1.006-1.006V6.006a1.006,1.006,0,1,0-2.013,0V8.019A1.006,1.006,0,0,0,36.006,9.025Z" transform="translate(0.223 0.032)" fill="#472b3c"/>
        <path id="Trazado_1113108" data-name="Trazado 1113108" d="M36.006,21A1.006,1.006,0,0,0,35,22.006v2.013a1.006,1.006,0,1,0,2.013,0V22.006A1.006,1.006,0,0,0,36.006,21Z" transform="translate(0.223 0.133)" fill="#472b3c"/>
        <path id="Trazado_1113109" data-name="Trazado 1113109" d="M30.354,10.777a1.006,1.006,0,1,0,1.423-1.423L30.354,7.931a1.006,1.006,0,0,0-1.423,1.423Z" transform="translate(0.182 0.049)" fill="#472b3c"/>
        <path id="Trazado_1113110" data-name="Trazado 1113110" d="M41.668,19.245a1.006,1.006,0,1,0-1.423,1.423l1.423,1.423a1.006,1.006,0,1,0,1.423-1.423Z" transform="translate(0.254 0.12)" fill="#472b3c"/>
      </g>
    </g>
  </g>
</svg>
