<svg xmlns="http://www.w3.org/2000/svg" xmlns:xlink="http://www.w3.org/1999/xlink" width="96" height="95" viewBox="0 0 96 95">
  <defs>
    <linearGradient id="linear-gradient" x1="0.5" x2="0.5" y2="1" gradientUnits="objectBoundingBox">
      <stop offset="0" stop-color="#fff"/>
      <stop offset="1" stop-color="#e9e9e9"/>
    </linearGradient>
    <filter id="Elipse_14037" x="0" y="0" width="96" height="95" filterUnits="userSpaceOnUse">
      <feOffset dy="3" input="SourceAlpha"/>
      <feGaussianBlur stdDeviation="3" result="blur"/>
      <feFlood flood-opacity="0.161"/>
      <feComposite operator="in" in2="blur"/>
      <feComposite in="SourceGraphic"/>
    </filter>
  </defs>
  <g id="Grupo_1195771" data-name="Grupo 1195771" transform="translate(5557 10225)">
    <g transform="matrix(1, 0, 0, 1, -5557, -10225)" filter="url(#Elipse_14037)">
      <ellipse id="Elipse_14037-2" data-name="Elipse 14037" cx="39" cy="38.5" rx="39" ry="38.5" transform="translate(9 6)" fill="url(#linear-gradient)"/>
    </g>
    <g id="gestion-de-proyectos_2_" data-name="gestion-de-proyectos (2)" transform="translate(-5528.777 -10202.133)">
      <g id="Grupo_1195622" data-name="Grupo 1195622" transform="translate(0.722 0.721)">
        <path id="Trazado_1110998" data-name="Trazado 1110998" d="M30.658,7.5H55.506a1.944,1.944,0,0,1,1.374.569l8.19,8.19a1.943,1.943,0,0,1,.569,1.374V53.365A1.943,1.943,0,0,1,63.7,55.308H30.658a1.943,1.943,0,0,1-1.943-1.943V9.443A1.943,1.943,0,0,1,30.658,7.5Z" transform="translate(-28.715 -7.5)" fill="#e6f7fe"/>
      </g>
      <g id="Grupo_1195623" data-name="Grupo 1195623" transform="translate(25.792 0.721)">
        <path id="Trazado_1110999" data-name="Trazado 1110999" d="M300.623,16.259l-8.19-8.19a1.944,1.944,0,0,0-1.374-.569h-1.721v7.385a4.47,4.47,0,0,0,4.47,4.47h2.915a1.943,1.943,0,0,1,1.943,1.943V53.365a1.943,1.943,0,0,1-1.943,1.943h2.526a1.943,1.943,0,0,0,1.943-1.943V17.633a1.943,1.943,0,0,0-.569-1.374Z" transform="translate(-289.337 -7.5)" fill="#d3effd"/>
      </g>
      <g id="Grupo_1195624" data-name="Grupo 1195624" transform="translate(28.318 0.898)">
        <path id="Trazado_1111000" data-name="Trazado 1111000" d="M315.6,16.547a1.943,1.943,0,0,0,1.943,1.943h7.208a1.941,1.941,0,0,0-.392-.569l-8.19-8.19a1.939,1.939,0,0,0-.569-.392Z" transform="translate(-315.601 -9.339)" fill="#b2e5fb"/>
      </g>
      <g id="Grupo_1195629" data-name="Grupo 1195629" transform="translate(5.58 13.937)">
        <g id="Grupo_1195626" data-name="Grupo 1195626">
          <g id="Grupo_1195625" data-name="Grupo 1195625">
            <path id="Trazado_1111001" data-name="Trazado 1111001" d="M89.524,158.486h-8.94a1.36,1.36,0,0,1-1.36-1.36V146.242a1.36,1.36,0,0,1,1.36-1.36h8.94a1.36,1.36,0,0,1,1.36,1.36v10.883A1.36,1.36,0,0,1,89.524,158.486Z" transform="translate(-79.224 -144.882)" fill="#f7e365"/>
          </g>
        </g>
        <g id="Grupo_1195628" data-name="Grupo 1195628" transform="translate(15.547)">
          <g id="Grupo_1195627" data-name="Grupo 1195627">
            <path id="Trazado_1111002" data-name="Trazado 1111002" d="M251.15,158.486h-8.94a1.36,1.36,0,0,1-1.36-1.36V146.242a1.36,1.36,0,0,1,1.36-1.36h8.94a1.36,1.36,0,0,1,1.36,1.36v10.883A1.36,1.36,0,0,1,251.15,158.486Z" transform="translate(-240.85 -144.882)" fill="#f7e365"/>
          </g>
        </g>
      </g>
      <g id="Grupo_1195634" data-name="Grupo 1195634" transform="translate(21.128 22.099)">
        <g id="Grupo_1195630" data-name="Grupo 1195630">
          <path id="Trazado_1111003" data-name="Trazado 1111003" d="M264.169,242.484v-2.177l-2.47-.515a9.261,9.261,0,0,0-.429-1.605l1.88-1.679-1.088-1.885-2.4.79a9.4,9.4,0,0,0-1.174-1.174l.79-2.4-1.885-1.088-1.679,1.88a9.271,9.271,0,0,0-1.605-.429l-.515-2.47H251.42l-.515,2.47a9.261,9.261,0,0,0-1.605.429l-1.679-1.88-1.885,1.088.79,2.4a9.389,9.389,0,0,0-1.174,1.174l-2.4-.79-1.088,1.885,1.88,1.679a9.262,9.262,0,0,0-.429,1.605l-2.47.515v2.177l2.47.515a9.262,9.262,0,0,0,.429,1.605l-1.88,1.679,1.088,1.885,2.4-.79a9.4,9.4,0,0,0,1.174,1.174l-.79,2.4,1.885,1.088,1.679-1.88a9.27,9.27,0,0,0,1.605.429l.515,2.47H253.6l.515-2.47a9.262,9.262,0,0,0,1.605-.429l1.679,1.88,1.885-1.088-.79-2.4a9.389,9.389,0,0,0,1.174-1.174l2.4.79,1.088-1.885-1.88-1.679A9.273,9.273,0,0,0,261.7,243Z" transform="translate(-240.848 -229.735)" fill="#62a4fb"/>
        </g>
        <g id="Grupo_1195631" data-name="Grupo 1195631" transform="translate(4.888 4.888)">
          <path id="Trazado_1111004" data-name="Trazado 1111004" d="M310.093,288.408v-2.177l-2.47-.515a9.262,9.262,0,0,0-.429-1.605l1.88-1.679-1.088-1.885-2.172.715a11.91,11.91,0,0,1-13.51,13.654l-.645,1.958,1.885,1.088,1.679-1.88a9.272,9.272,0,0,0,1.605.429l.515,2.47h2.177l.515-2.47a9.264,9.264,0,0,0,1.605-.429l1.679,1.88,1.885-1.088-.79-2.4a9.388,9.388,0,0,0,1.174-1.174l2.4.79,1.088-1.885-1.88-1.679a9.267,9.267,0,0,0,.429-1.605Z" transform="translate(-291.66 -280.547)" fill="#5392f9"/>
        </g>
        <g id="Grupo_1195632" data-name="Grupo 1195632" transform="translate(5.345 5.344)">
          <ellipse id="Elipse_14023" data-name="Elipse 14023" cx="6.316" cy="6.316" rx="6.316" ry="6.316" fill="#e6f7fe"/>
        </g>
        <g id="Grupo_1195633" data-name="Grupo 1195633" transform="translate(9.329 9.328)">
          <ellipse id="Elipse_14024" data-name="Elipse 14024" cx="2.332" cy="2.332" rx="2.332" ry="2.332" fill="#62a4fb"/>
        </g>
      </g>
      <g id="Grupo_1195635" data-name="Grupo 1195635" transform="translate(5.58 3.831)">
        <path id="Trazado_1111005" data-name="Trazado 1111005" d="M79.223,39.825H96.131v3.109H79.223Z" transform="translate(-79.223 -39.825)" fill="#e175a5"/>
      </g>
      <g id="Grupo_1195636" data-name="Grupo 1195636" transform="translate(5.58 42.311)">
        <path id="Trazado_1111006" data-name="Trazado 1111006" d="M79.223,439.85H91.661v3.109H79.223Z" transform="translate(-79.223 -439.85)" fill="#ad7fdd"/>
      </g>
      <g id="Grupo_1195637" data-name="Grupo 1195637" transform="translate(0 0)">
        <path id="Trazado_1111007" data-name="Trazado 1111007" d="M21.933,39.439a.721.721,0,0,0,.721-.721V2.665a1.224,1.224,0,0,1,1.223-1.222H48.725c.028,0,.056,0,.084,0V8.106a2.668,2.668,0,0,0,2.665,2.665h6.66c0,.028,0,.055,0,.083v3.8a.721.721,0,1,0,1.443,0v-3.8A2.682,2.682,0,0,0,58.8,8.971L50.61.781A2.648,2.648,0,0,0,48.725,0H23.878a2.668,2.668,0,0,0-2.666,2.665V38.718A.721.721,0,0,0,21.933,39.439ZM57.117,9.328H51.474a1.223,1.223,0,0,1-1.222-1.222V2.463Z" transform="translate(-21.212 0)"/>
        <path id="Trazado_1111008" data-name="Trazado 1111008" d="M71.722,150.345a2.084,2.084,0,0,0,2.082,2.082h8.94a2.084,2.084,0,0,0,2.082-2.082V145.2a.721.721,0,0,0-1.443,0v5.145a.639.639,0,0,1-.639.639H73.8a.639.639,0,0,1-.639-.639V139.462a.639.639,0,0,1,.639-.639h8.94a.639.639,0,0,1,.639.639v2.373a.721.721,0,0,0,1.443,0v-2.373a2.084,2.084,0,0,0-2.082-2.082H73.8a2.084,2.084,0,0,0-2.082,2.082Z" transform="translate(-66.863 -124.165)"/>
        <path id="Trazado_1111009" data-name="Trazado 1111009" d="M104.77,171.151H107.1a.721.721,0,0,0,0-1.443H104.77a.721.721,0,0,0,0,1.443Z" transform="translate(-96.081 -153.383)"/>
        <path id="Trazado_1111010" data-name="Trazado 1111010" d="M110.211,202.033h-5.442a.721.721,0,1,0,0,1.443h5.442a.721.721,0,1,0,0-1.443Z" transform="translate(-96.08 -182.599)"/>
        <path id="Trazado_1111011" data-name="Trazado 1111011" d="M110.211,234.358h-5.442a.721.721,0,1,0,0,1.443h5.442a.721.721,0,1,0,0-1.443Z" transform="translate(-96.08 -211.814)"/>
        <path id="Trazado_1111012" data-name="Trazado 1111012" d="M266.4,171.151h2.332a.721.721,0,1,0,0-1.443H266.4a.721.721,0,0,0,0,1.443Z" transform="translate(-242.159 -153.383)"/>
        <path id="Trazado_1111013" data-name="Trazado 1111013" d="M266.4,203.476h4.859a.721.721,0,1,0,0-1.443H266.4a.721.721,0,0,0,0,1.443Z" transform="translate(-242.159 -182.599)"/>
        <path id="Trazado_1111014" data-name="Trazado 1111014" d="M65.808,156.132l-2-.417c-.059-.261-.128-.521-.207-.776l1.525-1.362a.722.722,0,0,0,.144-.9l-1.088-1.885a.722.722,0,0,0-.85-.325l-1.945.641q-.272-.294-.566-.566l.641-1.945a.722.722,0,0,0-.325-.851l-1.553-.9v-4.667a.721.721,0,1,0-1.443,0v4.857l-1.15,1.288q-.383-.119-.776-.207l-.417-2a.721.721,0,0,0-.706-.574h-.367v-6.08a2.084,2.084,0,0,0-2.082-2.082H43.7a2.084,2.084,0,0,0-2.082,2.082v10.883a2.085,2.085,0,0,0,1.338,1.944l-.223.387a.722.722,0,0,0,.144.9l1.525,1.362q-.119.383-.207.776l-2,.417a.721.721,0,0,0-.574.706v2.177a.721.721,0,0,0,.574.706l2,.417q.088.392.207.776l-1.525,1.362a.722.722,0,0,0-.144.9l1.088,1.885a.721.721,0,0,0,.85.325l1.945-.641q.272.294.566.566l-.641,1.945a.722.722,0,0,0,.325.851l1.885,1.088a.722.722,0,0,0,.9-.144l1.362-1.525q.383.119.776.207l.417,2a.721.721,0,0,0,.706.574h2.177a.721.721,0,0,0,.706-.574l.417-2c.261-.059.521-.128.776-.207l1.15,1.288v1.941a1.224,1.224,0,0,1-1.223,1.222H23.878a1.224,1.224,0,0,1-1.223-1.222v-4.5a.721.721,0,0,0-1.443,0v4.5a2.668,2.668,0,0,0,2.666,2.665H56.915a2.668,2.668,0,0,0,2.666-2.665V169l1.553-.9a.721.721,0,0,0,.325-.851l-.641-1.945q.294-.272.566-.566l1.945.641a.722.722,0,0,0,.85-.325l1.088-1.885a.722.722,0,0,0-.144-.9L63.6,160.914q.119-.383.207-.776l2-.417a.721.721,0,0,0,.574-.706v-2.177A.722.722,0,0,0,65.808,156.132ZM43.7,150.986a.64.64,0,0,1-.639-.639V139.464a.64.64,0,0,1,.639-.639h8.94a.64.64,0,0,1,.639.639v6.08h-.367a.721.721,0,0,0-.706.574l-.417,2c-.262.059-.521.128-.776.207L49.651,146.8a.721.721,0,0,0-.9-.144l-1.885,1.088a.721.721,0,0,0-.325.85l.641,1.945q-.294.272-.566.566l-1.945-.641a.721.721,0,0,0-.851.325l-.111.193H43.7Zm21.239,7.442-1.9.395a.721.721,0,0,0-.564.583,8.566,8.566,0,0,1-.4,1.481.722.722,0,0,0,.2.786l1.443,1.289-.5.869-1.84-.606a.722.722,0,0,0-.779.222,8.685,8.685,0,0,1-1.083,1.083.722.722,0,0,0-.222.779l.606,1.84-.869.5-1.289-1.443a.721.721,0,0,0-.786-.2,8.568,8.568,0,0,1-1.481.4.721.721,0,0,0-.583.564l-.395,1.9h-1l-.395-1.9a.721.721,0,0,0-.583-.564,8.568,8.568,0,0,1-1.481-.4.721.721,0,0,0-.786.2l-1.289,1.443-.869-.5.606-1.84a.721.721,0,0,0-.222-.779,8.68,8.68,0,0,1-1.083-1.083.722.722,0,0,0-.779-.222l-1.84.606-.5-.869,1.443-1.289a.721.721,0,0,0,.2-.786,8.562,8.562,0,0,1-.4-1.48.721.721,0,0,0-.564-.583l-1.9-.395v-1l1.9-.395a.721.721,0,0,0,.564-.583,8.563,8.563,0,0,1,.4-1.48.722.722,0,0,0-.2-.786l-1.443-1.289.5-.869,1.84.606a.722.722,0,0,0,.779-.222,8.68,8.68,0,0,1,1.083-1.083.721.721,0,0,0,.222-.779L48.1,148.7l.869-.5,1.289,1.443a.721.721,0,0,0,.786.2,8.558,8.558,0,0,1,1.481-.4.721.721,0,0,0,.583-.564l.395-1.9h1l.395,1.9a.721.721,0,0,0,.583.564,8.57,8.57,0,0,1,1.481.4.722.722,0,0,0,.786-.2l1.289-1.443.869.5-.606,1.84a.722.722,0,0,0,.222.779,8.683,8.683,0,0,1,1.083,1.083.721.721,0,0,0,.779.222l1.84-.606.5.869-1.443,1.289a.721.721,0,0,0-.2.786,8.566,8.566,0,0,1,.4,1.481.721.721,0,0,0,.564.583l1.9.395v1Z" transform="translate(-21.212 -124.167)"/>
        <path id="Trazado_1111015" data-name="Trazado 1111015" d="M333.379,319.211a3.054,3.054,0,1,0,3.054,3.054A3.057,3.057,0,0,0,333.379,319.211Zm0,4.664a1.611,1.611,0,1,1,1.611-1.611A1.613,1.613,0,0,1,333.379,323.875Z" transform="translate(-300.59 -288.505)"/>
        <path id="Trazado_1111016" data-name="Trazado 1111016" d="M295.947,277.8a7.038,7.038,0,1,0,7.038,7.038A7.045,7.045,0,0,0,295.947,277.8Zm0,12.632a5.595,5.595,0,1,1,5.595-5.595A5.6,5.6,0,0,1,295.947,290.427Z" transform="translate(-263.158 -251.073)"/>
        <path id="Trazado_1111017" data-name="Trazado 1111017" d="M90.074,33.046a.721.721,0,0,0-.721-.721H72.444a.721.721,0,0,0-.721.721v3.109a.721.721,0,0,0,.721.721H89.352a.721.721,0,0,0,.721-.721Zm-1.443,2.388H73.166V33.768H88.631Z" transform="translate(-66.864 -29.216)"/>
        <path id="Trazado_1111018" data-name="Trazado 1111018" d="M72.444,436.9H84.882a.721.721,0,0,0,.721-.721v-3.109a.721.721,0,0,0-.721-.721H72.444a.721.721,0,0,0-.721.721v3.109A.721.721,0,0,0,72.444,436.9Zm.721-3.109H84.161v1.667H73.166Z" transform="translate(-66.864 -390.761)"/>
        <path id="Trazado_1111019" data-name="Trazado 1111019" d="M75.554,98.419a.721.721,0,0,0,0-1.443h-3.11a.721.721,0,0,0,0,1.443Z" transform="translate(-66.864 -87.648)"/>
        <path id="Trazado_1111020" data-name="Trazado 1111020" d="M148.506,97.7a.721.721,0,0,0-.721-.721H137.1a.721.721,0,0,0,0,1.443h10.689A.721.721,0,0,0,148.506,97.7Z" transform="translate(-125.296 -87.648)"/>
        <path id="Trazado_1111021" data-name="Trazado 1111021" d="M159.747,329.313h-4.47a.721.721,0,0,0,0,1.443h4.47a.721.721,0,1,0,0-1.443Z" transform="translate(-141.729 -297.635)"/>
        <path id="Trazado_1111022" data-name="Trazado 1111022" d="M102.749,329.313a.721.721,0,0,0,0,1.443h1.943a.721.721,0,1,0,0-1.443Z" transform="translate(-94.254 -297.635)"/>
        <path id="Trazado_1111023" data-name="Trazado 1111023" d="M84.882,361.638H72.444a.721.721,0,1,0,0,1.443H84.882a.721.721,0,1,0,0-1.443Z" transform="translate(-66.864 -326.851)"/>
        <path id="Trazado_1111024" data-name="Trazado 1111024" d="M72.444,395.406h7.385a.721.721,0,0,0,0-1.443H72.444a.721.721,0,0,0,0,1.443Z" transform="translate(-66.864 -356.066)"/>
        <path id="Trazado_1111025" data-name="Trazado 1111025" d="M183.486,393.963h-1.943a.721.721,0,0,0,0,1.443h1.943a.721.721,0,0,0,0-1.443Z" transform="translate(-165.468 -356.066)"/>
      </g>
    </g>
  </g>
</svg>
