<svg id="trabajo-en-equipo" xmlns="http://www.w3.org/2000/svg" width="76.685" height="76.685" viewBox="0 0 76.685 76.685">
  <g id="Grupo_1195767" data-name="Grupo 1195767" transform="translate(1.123 1.123)">
    <g id="Grupo_1195696" data-name="Grupo 1195696" transform="translate(18.957 36.3)">
      <g id="Grupo_1195695" data-name="Grupo 1195695">
        <path id="Trazado_1111171" data-name="Trazado 1111171" d="M152.179,265.978H134.067V255.406a5.539,5.539,0,0,1,5.539-5.539h7.035a5.539,5.539,0,0,1,4.215,1.945l.218.256a4.626,4.626,0,0,1,1.106,3v10.908Z" transform="translate(-134.067 -249.867)" fill="#4f66d0"/>
      </g>
    </g>
    <g id="Grupo_1195698" data-name="Grupo 1195698" transform="translate(25.425 32.035)">
      <g id="Grupo_1195697" data-name="Grupo 1195697">
        <path id="Trazado_1111172" data-name="Trazado 1111172" d="M182.431,225.646v-4.26h-5.175v4.26a2.587,2.587,0,1,0,5.175,0Z" transform="translate(-177.256 -221.386)" fill="#ffcebf"/>
      </g>
    </g>
    <g id="Grupo_1195700" data-name="Grupo 1195700" transform="translate(9.868 48.992)">
      <g id="Grupo_1195699" data-name="Grupo 1195699">
        <path id="Trazado_1111173" data-name="Trazado 1111173" d="M91.5,341.444H74.159a.776.776,0,0,1-.776-.776v-.523a5.539,5.539,0,0,1,5.539-5.539h7.035a5.539,5.539,0,0,1,4.215,1.945l.218.256a4.626,4.626,0,0,1,1.106,3v1.636Z" transform="translate(-73.383 -334.606)" fill="#ffc344"/>
      </g>
    </g>
    <g id="Grupo_1195702" data-name="Grupo 1195702" transform="translate(16.336 44.726)">
      <g id="Grupo_1195701" data-name="Grupo 1195701">
        <path id="Trazado_1111174" data-name="Trazado 1111174" d="M121.747,310.385v-4.26h-5.175v4.26a2.587,2.587,0,1,0,5.175,0Z" transform="translate(-116.572 -306.125)" fill="#ea9b58"/>
      </g>
    </g>
    <g id="Grupo_1195704" data-name="Grupo 1195704" transform="translate(12.15 32.437)">
      <g id="Grupo_1195703" data-name="Grupo 1195703">
        <path id="Trazado_1111175" data-name="Trazado 1111175" d="M95.4,238.844a6.773,6.773,0,0,1-6.773-6.773v-3.822A4.178,4.178,0,0,1,92.8,224.07h5.191a4.178,4.178,0,0,1,4.178,4.178v3.822A6.774,6.774,0,0,1,95.4,238.844Z" transform="translate(-88.624 -224.07)" fill="#ea9b58"/>
      </g>
    </g>
    <g id="Grupo_1195706" data-name="Grupo 1195706" transform="translate(17.187 32.437)">
      <g id="Grupo_1195705" data-name="Grupo 1195705">
        <path id="Trazado_1111176" data-name="Trazado 1111176" d="M126.586,224.069h-3.473a4.178,4.178,0,0,1,4.178,4.178v3.822a6.775,6.775,0,0,1-5.037,6.548,6.776,6.776,0,0,0,8.51-6.548v-3.822A4.178,4.178,0,0,0,126.586,224.069Z" transform="translate(-122.254 -224.069)" fill="#d88a55"/>
      </g>
    </g>
    <g id="Grupo_1195708" data-name="Grupo 1195708" transform="translate(37.043 36.3)">
      <g id="Grupo_1195707" data-name="Grupo 1195707">
        <path id="Trazado_1111177" data-name="Trazado 1111177" d="M254.822,265.978h18.112V255.12a4.764,4.764,0,0,0-1.138-3.09l-.185-.217a5.539,5.539,0,0,0-4.215-1.945h-7.035a5.539,5.539,0,0,0-5.539,5.539v10.572Z" transform="translate(-254.822 -249.867)" fill="#ffc344"/>
      </g>
    </g>
    <g id="Grupo_1195710" data-name="Grupo 1195710" transform="translate(43.511 32.035)">
      <g id="Grupo_1195709" data-name="Grupo 1195709">
        <path id="Trazado_1111178" data-name="Trazado 1111178" d="M298.011,225.646v-4.26h5.175v4.26a2.587,2.587,0,1,1-5.175,0Z" transform="translate(-298.011 -221.386)" fill="#db7360"/>
      </g>
    </g>
    <g id="Grupo_1195712" data-name="Grupo 1195712" transform="translate(39.441 19.745)">
      <g id="Grupo_1195711" data-name="Grupo 1195711">
        <path id="Trazado_1111179" data-name="Trazado 1111179" d="M277.609,154.1a6.773,6.773,0,0,0,6.773-6.773v-3.822a4.178,4.178,0,0,0-4.178-4.178h-5.191a4.178,4.178,0,0,0-4.178,4.178v3.822A6.774,6.774,0,0,0,277.609,154.1Z" transform="translate(-270.835 -139.331)" fill="#db7360"/>
      </g>
    </g>
    <g id="Grupo_1195714" data-name="Grupo 1195714" transform="translate(44.478 19.745)">
      <g id="Grupo_1195713" data-name="Grupo 1195713">
        <path id="Trazado_1111180" data-name="Trazado 1111180" d="M308.8,139.33h-3.473a4.178,4.178,0,0,1,4.178,4.178v3.822a6.775,6.775,0,0,1-5.037,6.548,6.776,6.776,0,0,0,8.51-6.548v-3.822A4.178,4.178,0,0,0,308.8,139.33Z" transform="translate(-304.466 -139.33)" fill="#c5715a"/>
      </g>
    </g>
    <g id="Grupo_1195716" data-name="Grupo 1195716" transform="translate(21.239 19.745)">
      <g id="Grupo_1195715" data-name="Grupo 1195715">
        <path id="Trazado_1111181" data-name="Trazado 1111181" d="M156.081,154.1a6.773,6.773,0,0,1-6.773-6.773v-3.822a4.178,4.178,0,0,1,4.178-4.178h5.191a4.178,4.178,0,0,1,4.178,4.178v3.822A6.774,6.774,0,0,1,156.081,154.1Z" transform="translate(-149.308 -139.331)" fill="#ffcebf"/>
      </g>
    </g>
    <g id="Grupo_1195718" data-name="Grupo 1195718" transform="translate(26.276 19.745)">
      <g id="Grupo_1195717" data-name="Grupo 1195717">
        <path id="Trazado_1111182" data-name="Trazado 1111182" d="M187.27,139.33H183.8a4.178,4.178,0,0,1,4.178,4.178v3.822a6.775,6.775,0,0,1-5.037,6.548,6.776,6.776,0,0,0,8.51-6.548v-3.822A4.178,4.178,0,0,0,187.27,139.33Z" transform="translate(-182.938 -139.33)" fill="#ffb09e"/>
      </g>
    </g>
    <g id="Grupo_1195720" data-name="Grupo 1195720" transform="translate(56.263 26.957)">
      <g id="Grupo_1195719" data-name="Grupo 1195719">
        <ellipse id="Elipse_14034" data-name="Elipse 14034" cx="4.024" cy="4.024" rx="4.024" ry="4.024" fill="#3e5959"/>
      </g>
    </g>
    <g id="Grupo_1195722" data-name="Grupo 1195722" transform="translate(19.188 14.613)">
      <g id="Grupo_1195721" data-name="Grupo 1195721">
        <ellipse id="Elipse_14035" data-name="Elipse 14035" cx="4.024" cy="4.024" rx="4.024" ry="4.024" fill="#c5715a"/>
      </g>
    </g>
    <g id="Grupo_1195724" data-name="Grupo 1195724" transform="translate(11.388 30.981)">
      <g id="Grupo_1195723" data-name="Grupo 1195723">
        <path id="Trazado_1111183" data-name="Trazado 1111183" d="M91.069,214.348a7.538,7.538,0,0,0-7.536,7.536v1.284a.447.447,0,0,0,.574.428l.162-.048a4.466,4.466,0,0,0,2.626-2.1.516.516,0,0,1,.842-.086,6.882,6.882,0,0,0,5.23,2.409h5.19a.447.447,0,0,0,.447-.447v-1.436A7.536,7.536,0,0,0,91.069,214.348Z" transform="translate(-83.533 -214.348)" fill="#678d98"/>
      </g>
    </g>
    <g id="Grupo_1195726" data-name="Grupo 1195726" transform="translate(46.458 48.992)">
      <g id="Grupo_1195725" data-name="Grupo 1195725">
        <path id="Trazado_1111184" data-name="Trazado 1111184" d="M317.687,341.444h17.337a.776.776,0,0,0,.776-.776v-.523a5.539,5.539,0,0,0-5.539-5.539h-7.035a5.538,5.538,0,0,0-5.539,5.539Z" transform="translate(-317.687 -334.606)" fill="#26a6fe"/>
      </g>
    </g>
    <g id="Grupo_1195728" data-name="Grupo 1195728" transform="translate(52.927 44.726)">
      <g id="Grupo_1195727" data-name="Grupo 1195727">
        <path id="Trazado_1111185" data-name="Trazado 1111185" d="M360.876,310.385v-4.26h5.175v4.26a2.587,2.587,0,1,1-5.175,0Z" transform="translate(-360.876 -306.125)" fill="#ffcebf"/>
      </g>
    </g>
    <g id="Grupo_1195730" data-name="Grupo 1195730" transform="translate(48.741 32.437)">
      <g id="Grupo_1195729" data-name="Grupo 1195729">
        <path id="Trazado_1111186" data-name="Trazado 1111186" d="M339.7,238.844a6.773,6.773,0,0,0,6.773-6.773v-3.822a4.178,4.178,0,0,0-4.178-4.178H337.1a4.178,4.178,0,0,0-4.178,4.178v3.822A6.774,6.774,0,0,0,339.7,238.844Z" transform="translate(-332.927 -224.07)" fill="#ffcebf"/>
      </g>
    </g>
    <g id="Grupo_1195732" data-name="Grupo 1195732" transform="translate(53.778 32.437)">
      <g id="Grupo_1195731" data-name="Grupo 1195731">
        <path id="Trazado_1111187" data-name="Trazado 1111187" d="M370.889,224.069h-3.473a4.178,4.178,0,0,1,4.178,4.178v3.822a6.775,6.775,0,0,1-5.037,6.548,6.775,6.775,0,0,0,8.51-6.548v-3.822A4.178,4.178,0,0,0,370.889,224.069Z" transform="translate(-366.557 -224.069)" fill="#ffb09e"/>
      </g>
    </g>
    <g id="Grupo_1195734" data-name="Grupo 1195734" transform="translate(28.218 48.992)">
      <g id="Grupo_1195733" data-name="Grupo 1195733">
        <path id="Trazado_1111188" data-name="Trazado 1111188" d="M195.9,341.444h17.337a.776.776,0,0,0,.776-.776v-.523a5.539,5.539,0,0,0-5.539-5.539h-7.035a5.539,5.539,0,0,0-5.539,5.539Z" transform="translate(-195.902 -334.606)" fill="#fe7ab6"/>
      </g>
    </g>
    <g id="Grupo_1195736" data-name="Grupo 1195736" transform="translate(34.687 44.726)">
      <g id="Grupo_1195735" data-name="Grupo 1195735">
        <path id="Trazado_1111189" data-name="Trazado 1111189" d="M239.092,310.385v-4.26h5.175v4.26a2.588,2.588,0,1,1-5.175,0Z" transform="translate(-239.092 -306.125)" fill="#ffcebf"/>
      </g>
    </g>
    <g id="Grupo_1195738" data-name="Grupo 1195738" transform="translate(38.679 18.289)">
      <g id="Grupo_1195737" data-name="Grupo 1195737">
        <path id="Trazado_1111190" data-name="Trazado 1111190" d="M273.281,129.609a7.538,7.538,0,0,1,7.536,7.536v1.284a.447.447,0,0,1-.574.428l-.162-.048a4.466,4.466,0,0,1-2.626-2.1.516.516,0,0,0-.842-.086,6.882,6.882,0,0,1-5.23,2.409h-5.19a.447.447,0,0,1-.447-.447v-1.436A7.536,7.536,0,0,1,273.281,129.609Z" transform="translate(-265.745 -129.609)" fill="#fed2a4"/>
      </g>
    </g>
    <g id="Grupo_1195740" data-name="Grupo 1195740" transform="translate(44.479 18.289)">
      <g id="Grupo_1195739" data-name="Grupo 1195739">
        <path id="Trazado_1111191" data-name="Trazado 1111191" d="M311.6,131.881a7.529,7.529,0,0,0-7.128-2.069,7.534,7.534,0,0,1,5.773,6.735.517.517,0,0,1,.136.158,4.465,4.465,0,0,0,2.626,2.1l.162.048a.447.447,0,0,0,.574-.428v-1.284A7.51,7.51,0,0,0,311.6,131.881Z" transform="translate(-304.471 -129.609)" fill="#f6bb8c"/>
      </g>
    </g>
    <g id="Grupo_1195742" data-name="Grupo 1195742" transform="translate(20.477 18.289)">
      <g id="Grupo_1195741" data-name="Grupo 1195741">
        <path id="Trazado_1111192" data-name="Trazado 1111192" d="M151.753,129.609a7.538,7.538,0,0,0-7.536,7.536v1.284a.447.447,0,0,0,.574.428l.162-.048a4.466,4.466,0,0,0,2.626-2.1.516.516,0,0,1,.842-.086,6.882,6.882,0,0,0,5.23,2.409h5.19a.447.447,0,0,0,.447-.447v-1.436A7.536,7.536,0,0,0,151.753,129.609Z" transform="translate(-144.217 -129.609)" fill="#ec806b"/>
      </g>
    </g>
    <g id="Grupo_1195744" data-name="Grupo 1195744" transform="translate(26.275 18.289)">
      <g id="Grupo_1195743" data-name="Grupo 1195743">
        <path id="Trazado_1111193" data-name="Trazado 1111193" d="M184.669,129.61a7.54,7.54,0,0,0-1.737.2,7.537,7.537,0,0,1,5.8,7.333v1.436a.447.447,0,0,1-.447.447h3.473a.447.447,0,0,0,.447-.447v-1.436A7.536,7.536,0,0,0,184.669,129.61Z" transform="translate(-182.932 -129.61)" fill="#c5715a"/>
      </g>
    </g>
    <g id="Grupo_1195746" data-name="Grupo 1195746" transform="translate(17.186 30.981)">
      <g id="Grupo_1195745" data-name="Grupo 1195745">
        <path id="Trazado_1111194" data-name="Trazado 1111194" d="M123.985,214.348a7.538,7.538,0,0,0-1.737.2,7.537,7.537,0,0,1,5.8,7.333v1.436a.447.447,0,0,1-.447.447h3.473a.447.447,0,0,0,.447-.447v-1.436A7.536,7.536,0,0,0,123.985,214.348Z" transform="translate(-122.248 -214.348)" fill="#537983"/>
      </g>
    </g>
    <g id="Grupo_1195748" data-name="Grupo 1195748" transform="translate(47.978 30.981)">
      <g id="Grupo_1195747" data-name="Grupo 1195747">
        <path id="Trazado_1111195" data-name="Trazado 1111195" d="M335.373,214.348a7.538,7.538,0,0,1,7.536,7.536v1.284a.447.447,0,0,1-.574.428l-.162-.048a4.466,4.466,0,0,1-2.626-2.1.516.516,0,0,0-.842-.086,6.882,6.882,0,0,1-5.23,2.409h-5.19a.447.447,0,0,1-.447-.447v-1.436A7.536,7.536,0,0,1,335.373,214.348Z" transform="translate(-327.837 -214.348)" fill="#678d98"/>
      </g>
    </g>
    <g id="Grupo_1195750" data-name="Grupo 1195750" transform="translate(53.778 30.981)">
      <g id="Grupo_1195749" data-name="Grupo 1195749">
        <path id="Trazado_1111196" data-name="Trazado 1111196" d="M373.691,216.621a7.529,7.529,0,0,0-7.128-2.069,7.483,7.483,0,0,1,1.475.514,7.542,7.542,0,0,1,4.3,6.22.517.517,0,0,1,.136.158,4.466,4.466,0,0,0,2.626,2.1l.162.048a.447.447,0,0,0,.574-.428v-1.283A7.51,7.51,0,0,0,373.691,216.621Z" transform="translate(-366.563 -214.349)" fill="#537983"/>
      </g>
    </g>
    <g id="Grupo_1195752" data-name="Grupo 1195752" transform="translate(30.501 32.437)">
      <g id="Grupo_1195751" data-name="Grupo 1195751">
        <path id="Trazado_1111197" data-name="Trazado 1111197" d="M217.917,238.844a6.773,6.773,0,0,0,6.773-6.773v-3.822a4.178,4.178,0,0,0-4.178-4.178h-5.191a4.178,4.178,0,0,0-4.178,4.178v3.822A6.774,6.774,0,0,0,217.917,238.844Z" transform="translate(-211.143 -224.07)" fill="#ffcebf"/>
      </g>
    </g>
    <g id="Grupo_1195754" data-name="Grupo 1195754" transform="translate(35.537 32.437)">
      <g id="Grupo_1195753" data-name="Grupo 1195753">
        <path id="Trazado_1111198" data-name="Trazado 1111198" d="M249.105,224.069h-3.473a4.178,4.178,0,0,1,4.178,4.178v3.822a6.775,6.775,0,0,1-5.037,6.548,6.776,6.776,0,0,0,8.51-6.548v-3.822A4.178,4.178,0,0,0,249.105,224.069Z" transform="translate(-244.773 -224.069)" fill="#ffb09e"/>
      </g>
    </g>
    <g id="Grupo_1195756" data-name="Grupo 1195756" transform="translate(29.738 30.981)">
      <g id="Grupo_1195755" data-name="Grupo 1195755">
        <path id="Trazado_1111199" data-name="Trazado 1111199" d="M213.589,214.348a7.538,7.538,0,0,1,7.536,7.536v1.284a.447.447,0,0,1-.574.428l-.162-.048a4.466,4.466,0,0,1-2.626-2.1.516.516,0,0,0-.842-.086,6.882,6.882,0,0,1-5.23,2.409H206.5a.447.447,0,0,1-.447-.447v-1.436A7.536,7.536,0,0,1,213.589,214.348Z" transform="translate(-206.053 -214.348)" fill="#ec806b"/>
      </g>
    </g>
    <g id="Grupo_1195758" data-name="Grupo 1195758" transform="translate(35.538 30.981)">
      <g id="Grupo_1195757" data-name="Grupo 1195757">
        <path id="Trazado_1111200" data-name="Trazado 1111200" d="M251.907,216.621a7.529,7.529,0,0,0-7.128-2.069,7.482,7.482,0,0,1,1.475.514,7.541,7.541,0,0,1,4.3,6.22.517.517,0,0,1,.136.158,4.466,4.466,0,0,0,2.626,2.1l.162.048a.447.447,0,0,0,.574-.428v-1.283A7.51,7.51,0,0,0,251.907,216.621Z" transform="translate(-244.779 -214.349)" fill="#c5715a"/>
      </g>
    </g>
    <g id="Grupo_1195760" data-name="Grupo 1195760" transform="translate(36.182)">
      <g id="Grupo_1195759" data-name="Grupo 1195759">
        <path id="Trazado_1111201" data-name="Trazado 1111201" d="M249.077,13.011c.344-.011.69-.019,1.037-.019a31.727,31.727,0,0,1,31.727,31.727q0,1.181-.086,2.341L284.6,49.9l2.647-2.647c.056-.838.088-1.684.088-2.536A37.219,37.219,0,0,0,250.114,7.5q-.454,0-.906.012l2.684,2.684Z" transform="translate(-249.077 -7.5)" fill="#0593fc"/>
      </g>
    </g>
    <g id="Grupo_1195762" data-name="Grupo 1195762" transform="translate(33.045 39.559)">
      <g id="Grupo_1195761" data-name="Grupo 1195761">
        <path id="Trazado_1111202" data-name="Trazado 1111202" d="M266.787,274.47l-2.843-2.843A31.728,31.728,0,0,1,232.3,301.013c-.477,0-.951-.012-1.423-.033l-2.751,2.751,2.744,2.744c.475.018.951.03,1.43.03a37.219,37.219,0,0,0,37.131-34.682Z" transform="translate(-228.129 -271.627)" fill="#feb237"/>
      </g>
    </g>
    <g id="Grupo_1195764" data-name="Grupo 1195764" transform="translate(0.049 36.45)">
      <g id="Grupo_1195763" data-name="Grupo 1195763">
        <path id="Trazado_1111203" data-name="Trazado 1111203" d="M43.575,283.329a31.727,31.727,0,0,1-30.236-29.637l-2.825-2.825-2.686,2.686a37.219,37.219,0,0,0,35.74,35.272l-2.744-2.744Z" transform="translate(-7.828 -250.867)" fill="#4f66d0"/>
      </g>
    </g>
    <g id="Grupo_1195766" data-name="Grupo 1195766" transform="translate(0 0.012)">
      <g id="Grupo_1195765" data-name="Grupo 1195765">
        <path id="Trazado_1111204" data-name="Trazado 1111204" d="M13.06,46.841c-.044-.68-.068-1.365-.068-2.056a31.726,31.726,0,0,1,30.69-31.708L46.5,10.261,43.813,7.577A37.219,37.219,0,0,0,7.5,44.784q0,.964.049,1.917l2.686-2.686Z" transform="translate(-7.5 -7.577)" fill="#fe7ab6"/>
      </g>
    </g>
  </g>
  <path id="Trazado_1111205" data-name="Trazado 1111205" d="M65.454,11.23A38.342,38.342,0,0,0,12.4,10.111a1.123,1.123,0,1,0,1.521,1.654,35.978,35.978,0,0,1,23.068-9.49l1.545,1.545L36.823,5.528A32.848,32.848,0,0,0,5.5,37.627l-.848-.848a1.123,1.123,0,0,0-1.589,0l-.81.81a35.7,35.7,0,0,1,7.729-21.58,1.123,1.123,0,0,0-1.764-1.391A38.346,38.346,0,0,0,11.23,65.454,38.342,38.342,0,0,0,65.454,11.23Zm8.984,27.112c0,.684-.021,1.364-.059,2.042l-1.553,1.553-1.69-1.69q.055-.951.056-1.9A32.852,32.852,0,0,0,40,5.533l.919-.919a1.124,1.124,0,0,0,0-1.589l-.732-.732A36.1,36.1,0,0,1,74.438,38.342Zm-36.1-30.6a30.638,30.638,0,0,1,30.6,30.6A30.256,30.256,0,0,1,65.73,52.008,6.646,6.646,0,0,0,60.348,49v-.469A7.91,7.91,0,0,0,64.5,42.289a1.558,1.558,0,0,0,.8-1.366V39.64a8.635,8.635,0,0,0-.727-3.476,5.146,5.146,0,1,0-8.183-5.177,8.65,8.65,0,0,0-1.491.17A7.9,7.9,0,0,0,55.2,29.6a1.557,1.557,0,0,0,.8-1.365V26.948a8.659,8.659,0,1,0-17.318,0v1.436a1.57,1.57,0,0,0,.689,1.3,7.852,7.852,0,0,0,.269,1.389,8.606,8.606,0,0,0-2.943.078,7.913,7.913,0,0,0,.286-1.39,1.571,1.571,0,0,0,.815-1.376V26.948a8.668,8.668,0,0,0-8.526-8.656,5.147,5.147,0,1,0-8.182,5.457,8.647,8.647,0,0,0-.61,3.2v1.283a1.577,1.577,0,0,0,.632,1.259,1.552,1.552,0,0,0,.165.106,7.844,7.844,0,0,0,.288,1.519A8.658,8.658,0,0,0,11.388,39.64v1.284a1.558,1.558,0,0,0,.8,1.366,7.909,7.909,0,0,0,4.151,6.239V49a6.612,6.612,0,0,0-5.375,3A30.595,30.595,0,0,1,38.342,7.739ZM48.05,51.332a6.67,6.67,0,0,0-.533.718A6.65,6.65,0,0,0,42.108,49v-.469a7.91,7.91,0,0,0,4.151-6.239,1.553,1.553,0,0,0,.784-1.169c.06,0,.119.009.179.009a3.7,3.7,0,0,0,.756-.082v.029a1.571,1.571,0,0,0,.814,1.375,7.912,7.912,0,0,0,4.134,6.077V49a6.65,6.65,0,0,0-4.876,2.335Zm-18.24,0a6.653,6.653,0,0,0-.567.773,5.75,5.75,0,0,0-.391-.517l-.218-.256A6.651,6.651,0,0,0,23.758,49v-.469a7.911,7.911,0,0,0,4.134-6.077A1.571,1.571,0,0,0,28.7,41.1a3.723,3.723,0,0,0,.431.027,3.676,3.676,0,0,0,.6-.05,1.571,1.571,0,0,0,.814,1.373,7.912,7.912,0,0,0,4.134,6.077V49A6.65,6.65,0,0,0,29.81,51.332Zm-16.567,4.5q-.492-.7-.944-1.435a4.409,4.409,0,0,1,4.214-3.157,3.711,3.711,0,0,0,7.069,0,4.409,4.409,0,0,1,3.343,1.55l.218.256a3.506,3.506,0,0,1,.837,2.272v.512H13.274l-.03,0ZM21.435,19.76a2.9,2.9,0,0,1,5.54-1.2A8.607,8.607,0,0,0,22.94,20.9a8.782,8.782,0,0,0-.721.841A2.9,2.9,0,0,1,21.435,19.76ZM55.173,49.318a7.822,7.822,0,0,0,2.928,0v.791a1.464,1.464,0,0,1-2.928,0Zm1.464-2.108a5.659,5.659,0,0,1-5.544-4.564h3.645a8.007,8.007,0,0,0,5.535-2.222,5.54,5.54,0,0,0,1.991,1.625A5.657,5.657,0,0,1,56.638,47.21Zm-9.616-8.343a8.618,8.618,0,0,0-.467-2.142c.259.025.52.04.784.04A7.968,7.968,0,0,0,48.5,36.68a8.6,8.6,0,0,0-.461,1.954,1.445,1.445,0,0,1-.817.249A1.49,1.49,0,0,1,47.021,38.867ZM36.933,49.318a7.822,7.822,0,0,0,2.928,0v.791a1.464,1.464,0,0,1-2.928,0ZM38.4,47.21a5.659,5.659,0,0,1-5.544-4.564H36.5a8.007,8.007,0,0,0,5.535-2.222,5.542,5.542,0,0,0,1.991,1.625A5.657,5.657,0,0,1,38.4,47.21Zm-9.261-8.328a1.462,1.462,0,0,1-.471-.081,8.586,8.586,0,0,0-.471-2.095,7.775,7.775,0,0,0,2.064-.021,8.589,8.589,0,0,0-.471,2.044,1.45,1.45,0,0,1-.65.153Zm34.255-4.661q-.262-.326-.558-.629a8.624,8.624,0,0,0-4.182-2.374,2.9,2.9,0,1,1,4.74,3Zm-6.754-.993A6.415,6.415,0,0,1,63.05,39.64v.285a3.323,3.323,0,0,1-1.258-1.273,1.639,1.639,0,0,0-2.677-.269A5.758,5.758,0,0,1,54.739,40.4H50.225V39.64a6.42,6.42,0,0,1,6.412-6.413Zm-6.168.342a5.65,5.65,0,0,1-5.509.425c-.118-.137-.239-.272-.367-.4a8.64,8.64,0,0,0-2.042-1.549,5.6,5.6,0,0,1-.871-2.089h3.759a8.006,8.006,0,0,0,5.535-2.222,5.542,5.542,0,0,0,1.992,1.626,5.626,5.626,0,0,1-1.433,3.294A8.763,8.763,0,0,0,50.47,33.57Zm3.281-6.336a3.324,3.324,0,0,1-1.258-1.273,1.64,1.64,0,0,0-2.677-.269,5.757,5.757,0,0,1-4.376,2.016H40.925v-.759a6.413,6.413,0,0,1,12.825,0v.285Zm-12.62,6.6a6.423,6.423,0,0,1,3.68,5.8v.285a3.324,3.324,0,0,1-1.258-1.273,1.639,1.639,0,0,0-2.677-.269A5.758,5.758,0,0,1,36.5,40.4H31.985V39.64A6.42,6.42,0,0,1,38.4,33.227,6.349,6.349,0,0,1,41.13,33.838Zm-5.582-6.13H31.035a5.756,5.756,0,0,1-4.377-2.016,1.637,1.637,0,0,0-1.244-.572c-.054,0-.108,0-.163.008a1.643,1.643,0,0,0-1.27.833,3.326,3.326,0,0,1-1.258,1.273v-.285a6.413,6.413,0,0,1,12.825,0v.759Zm-10.89,4.607a5.584,5.584,0,0,1-1.151-2.957A5.543,5.543,0,0,0,25.5,27.732a8,8,0,0,0,5.535,2.222h3.644a5.653,5.653,0,0,1-1.162,2.483,1.111,1.111,0,0,0-.079.111,8.719,8.719,0,0,0-1.269,1.085,5.638,5.638,0,0,1-5.684.222,8.723,8.723,0,0,0-1.825-1.539Zm1.8,7.325V40.4H21.946a5.757,5.757,0,0,1-4.376-2.016,1.638,1.638,0,0,0-1.244-.573c-.054,0-.108,0-.162.008a1.643,1.643,0,0,0-1.271.833,3.323,3.323,0,0,1-1.258,1.273V39.64a6.413,6.413,0,0,1,12.825,0Zm-10.049.784a8.006,8.006,0,0,0,5.535,2.222h3.645a5.649,5.649,0,0,1-11.172-.6,5.542,5.542,0,0,0,1.991-1.625Zm3.636,9.033a7.9,7.9,0,0,0,1.464-.138v.791a1.464,1.464,0,0,1-2.928,0v-.791A7.9,7.9,0,0,0,20.047,49.457Zm10.417,6.2a4.415,4.415,0,0,1,4.4-4.415,3.711,3.711,0,0,0,7.069,0,4.415,4.415,0,0,1,4.4,4.415v.176H30.464Zm18.24,0a4.415,4.415,0,0,1,4.4-4.415,3.711,3.711,0,0,0,7.069,0,4.406,4.406,0,0,1,4.217,3.171q-.448.723-.935,1.42H48.7ZM2.324,40.7l1.534-1.534L5.59,40.894A32.86,32.86,0,0,0,34.407,70.959l-1.033,1.033a1.123,1.123,0,0,0,0,1.589l.595.595A36.1,36.1,0,0,1,2.324,40.7ZM63.866,63.866A35.859,35.859,0,0,1,38.342,74.438q-.475,0-.947-.013l-1.638-1.638,1.61-1.61c.324.009.649.016.975.016A32.54,32.54,0,0,0,52.686,67.9a1.123,1.123,0,1,0-.982-2.02,30.6,30.6,0,0,1-36.732-7.807H61.727a30.823,30.823,0,0,1-5.264,4.931,1.123,1.123,0,1,0,1.331,1.809,33.181,33.181,0,0,0,8.726-9.585,1.114,1.114,0,0,0,.06-.1q.506-.847.96-1.723a32.829,32.829,0,0,0,3.3-10.284l1.192,1.192a1.124,1.124,0,0,0,1.589,0l.388-.388A35.825,35.825,0,0,1,63.866,63.866Z" transform="translate(0)"/>
</svg>
