<svg xmlns="http://www.w3.org/2000/svg" xmlns:xlink="http://www.w3.org/1999/xlink" width="96" height="95" viewBox="0 0 96 95">
  <defs>
    <linearGradient id="linear-gradient" x1="0.5" x2="0.5" y2="1" gradientUnits="objectBoundingBox">
      <stop offset="0" stop-color="#fff"/>
      <stop offset="1" stop-color="#e9e9e9"/>
    </linearGradient>
    <filter id="Elipse_14040" x="0" y="0" width="96" height="95" filterUnits="userSpaceOnUse">
      <feOffset dy="3" input="SourceAlpha"/>
      <feGaussianBlur stdDeviation="3" result="blur"/>
      <feFlood flood-opacity="0.161"/>
      <feComposite operator="in" in2="blur"/>
      <feComposite in="SourceGraphic"/>
    </filter>
  </defs>
  <g id="Grupo_1195768" data-name="Grupo 1195768" transform="translate(5292 10225)">
    <g transform="matrix(1, 0, 0, 1, -5292, -10225)" filter="url(#Elipse_14040)">
      <ellipse id="Elipse_14040-2" data-name="Elipse 14040" cx="39" cy="38.5" rx="39" ry="38.5" transform="translate(9 6)" fill="url(#linear-gradient)"/>
    </g>
    <g id="idea" transform="translate(-5267.792 -10203.453)">
      <path id="Trazado_1111059" data-name="Trazado 1111059" d="M77.014,57.327H43.924A1.924,1.924,0,0,1,42,55.4V11.924A1.924,1.924,0,0,1,43.924,10H77.014a1.924,1.924,0,0,1,1.924,1.924V55.4A1.924,1.924,0,0,1,77.014,57.327Zm0,0" transform="translate(-37.96 -9.038)" fill="#fff"/>
      <path id="Trazado_1111060" data-name="Trazado 1111060" d="M428.853,73.235H426V64h2.854a1.764,1.764,0,0,1,1.764,1.763v5.707a1.763,1.763,0,0,1-1.764,1.764Zm0,0" transform="translate(-385.022 -57.844)" fill="#cbe558"/>
      <path id="Trazado_1111061" data-name="Trazado 1111061" d="M428.853,169.235H426V160h2.854a1.764,1.764,0,0,1,1.764,1.763v5.707a1.763,1.763,0,0,1-1.764,1.764Zm0,0" transform="translate(-385.022 -144.609)" fill="#00ccf2"/>
      <path id="Trazado_1111062" data-name="Trazado 1111062" d="M428.853,265.235H426V256h2.854a1.764,1.764,0,0,1,1.764,1.763v5.707a1.763,1.763,0,0,1-1.764,1.764Zm0,0" transform="translate(-385.022 -231.374)" fill="#d675a7"/>
      <path id="Trazado_1111063" data-name="Trazado 1111063" d="M153.643,166.233a9.561,9.561,0,1,0-14.8,8,3.489,3.489,0,0,1,1.519,2.28h7.44a3.457,3.457,0,0,1,1.5-2.267A9.553,9.553,0,0,0,153.643,166.233Zm0,0" transform="translate(-121.58 -141.601)" fill="#ffcb7c"/>
      <path id="Trazado_1111064" data-name="Trazado 1111064" d="M200.663,369.28h-3.4a2.019,2.019,0,0,0-2.02-2.019v-4.339h7.44v4.339A2.019,2.019,0,0,0,200.663,369.28Zm0,0" transform="translate(-176.461 -328.011)" fill="#b0aeed"/>
      <path id="Trazado_1111065" data-name="Trazado 1111065" d="M301.056,297.235l11.652,11.652A2.694,2.694,0,0,1,308.9,312.7l-11.652-11.652-3.814-7.623Zm0,0" transform="translate(-265.207 -265.196)" fill="#00ccf2"/>
      <path id="Trazado_1111066" data-name="Trazado 1111066" d="M297.243,301.045l3.809-3.809-7.623-3.814Zm0,0" transform="translate(-265.204 -265.197)" fill="#fff"/>
      <path id="Trazado_1111067" data-name="Trazado 1111067" d="M440.6,444.4l1.31,1.31a2.694,2.694,0,0,0,3.809-3.809l-1.31-1.309Zm0,0" transform="translate(-398.215 -398.208)" fill="#d675a7"/>
      <path id="Trazado_1111068" data-name="Trazado 1111068" d="M201.621,197.793l-4.351,6.946H199.9v4.277l4.617-6.73h-2.894Zm0,0" transform="translate(-178.294 -178.767)" fill="#fff"/>
      <path id="Trazado_1111069" data-name="Trazado 1111069" d="M224.876,96.985a.962.962,0,0,0,.962-.962V94.751a.962.962,0,1,0-1.924,0v1.272A.962.962,0,0,0,224.876,96.985Zm0,0" transform="translate(-202.375 -84.767)"/>
      <path id="Trazado_1111070" data-name="Trazado 1111070" d="M72.681,246.152a.962.962,0,1,0,0,1.924h1.476a.962.962,0,0,0,0-1.924Zm0,0" transform="translate(-64.82 -222.474)"/>
      <path id="Trazado_1111071" data-name="Trazado 1111071" d="M361.659,247.908a.962.962,0,1,0,0-1.924H360a.962.962,0,0,0,0,1.924Zm0,0" transform="translate(-324.502 -222.322)"/>
      <path id="Trazado_1111072" data-name="Trazado 1111072" d="M116.664,344.778a.962.962,0,0,0,1.361,0l1.136-1.136a.962.962,0,0,0-1.361-1.36l-1.136,1.136A.962.962,0,0,0,116.664,344.778Zm0,0" transform="translate(-105.187 -309.102)"/>
      <path id="Trazado_1111073" data-name="Trazado 1111073" d="M323.068,140.955l.98-.98a.962.962,0,0,0-1.36-1.36l-.98.98a.962.962,0,1,0,1.36,1.36Zm0,0" transform="translate(-290.507 -125.026)"/>
      <path id="Trazado_1111074" data-name="Trazado 1111074" d="M118.193,141.342a.962.962,0,0,0,.68-1.642l-.969-.969a.962.962,0,0,0-1.361,1.36l.969.969A.959.959,0,0,0,118.193,141.342Zm0,0" transform="translate(-105.078 -125.131)"/>
      <path id="Trazado_1111075" data-name="Trazado 1111075" d="M48.181,43.011,46.873,41.7h0L41.94,36.77V34.822h1.892A2.729,2.729,0,0,0,46.558,32.1V26.389a2.712,2.712,0,0,0-.65-1.764,2.711,2.711,0,0,0,.65-1.763V17.155a2.71,2.71,0,0,0-.65-1.763,2.713,2.713,0,0,0,.65-1.764V7.92a2.729,2.729,0,0,0-2.725-2.725H41.94V2.886A2.889,2.889,0,0,0,39.055,0H26.35a.962.962,0,0,0,0,1.924H39.055a.963.963,0,0,1,.962.962v31.96l-3.487-3.487a.958.958,0,0,0-.25-.18l-4.233-2.118A10.523,10.523,0,0,0,22.5,14.109h0a10.523,10.523,0,0,0-5.764,19.326,2.54,2.54,0,0,1,1.084,1.575v4.24a.962.962,0,0,0,.962.962,1.059,1.059,0,0,1,1.058,1.058.962.962,0,0,0,.962.962h3.4a.962.962,0,0,0,.962-.962,1.059,1.059,0,0,1,1.057-1.058.962.962,0,0,0,.962-.962V35.01a2.5,2.5,0,0,1,1.064-1.561,10.591,10.591,0,0,0,1.1-.829l1.83,3.659a.966.966,0,0,0,.18.25L40.027,45.2a1,1,0,0,0-.011.139v1.03a.963.963,0,0,1-.962.962H5.964A.963.963,0,0,1,5,46.365V40.209h.192a.963.963,0,0,1,.962.962.962.962,0,1,0,1.924,0,2.889,2.889,0,0,0-2.886-2.886H5V29.179h.192a.963.963,0,0,1,.962.962.962.962,0,1,0,1.924,0,2.889,2.889,0,0,0-2.886-2.886H5V18.148h.192a.963.963,0,0,1,.962.962.962.962,0,1,0,1.924,0,2.889,2.889,0,0,0-2.886-2.886H5V7.118h.192a.963.963,0,0,1,.962.962.962.962,0,1,0,1.924,0A2.889,2.889,0,0,0,5.194,5.195H5V2.886a.963.963,0,0,1,.962-.962h12.69a.962.962,0,0,0,0-1.924H5.964A2.889,2.889,0,0,0,3.078,2.886V5.195H2.886a2.886,2.886,0,0,0,0,5.772h.192v5.259H2.886a2.886,2.886,0,0,0,0,5.772h.192v5.259H2.886a2.886,2.886,0,0,0,0,5.772h.192v5.258H2.886a2.886,2.886,0,0,0,0,5.772h.192v2.309a2.889,2.889,0,0,0,2.886,2.886H39.055a2.891,2.891,0,0,0,2.808-2.22l1.15,1.15a3.655,3.655,0,0,0,5.169-5.17ZM44.634,17.154v5.707a.8.8,0,0,1-.8.8H41.94V16.353h1.892a.8.8,0,0,1,.8.8Zm0,14.942a.8.8,0,0,1-.8.8H41.94V25.588h1.892a.8.8,0,0,1,.8.8Zm-.8-24.978a.8.8,0,0,1,.8.8v5.707a.8.8,0,0,1-.8.8H41.94V7.118ZM2.886,9.042a.962.962,0,0,1,0-1.924h.192V9.042Zm0,11.03a.962.962,0,0,1,0-1.924h.192v1.924Zm0,11.03a.962.962,0,0,1,0-1.924h.192V31.1Zm0,11.03a.962.962,0,0,1,0-1.924h.192v1.924ZM33.4,35.848,35.849,33.4l8.982,8.982-2.449,2.449Zm-8.141,2.6a2.994,2.994,0,0,0-1.86,1.86H21.6a2.994,2.994,0,0,0-1.86-1.86V35.873h5.516Zm1.937-6.61a4.418,4.418,0,0,0-1.7,2.111H19.5a4.482,4.482,0,0,0-1.713-2.122A8.6,8.6,0,0,1,22.5,16.033h0A8.6,8.6,0,0,1,30.326,28.2l-1.669-.835a.962.962,0,0,0-1.291,1.291l1.09,2.178a8.655,8.655,0,0,1-1.26,1Zm3.183-1.459L34.225,32.3,32.3,34.225ZM46.821,46.82a1.731,1.731,0,0,1-2.448,0l-.629-.629,2.449-2.448.629.629a1.731,1.731,0,0,1,0,2.448Zm0,0" transform="translate(0 0)"/>
      <path id="Trazado_1111076" data-name="Trazado 1111076" d="M195.476,192.285h-1.932v-3.531a.962.962,0,0,0-1.777-.511l-4.351,6.946a.962.962,0,0,0,.815,1.473H189.9v3.315a.962.962,0,0,0,1.755.544l4.617-6.73a.962.962,0,0,0-.793-1.506Zm-3.655,4.589V195.7a.962.962,0,0,0-.962-.962h-.89l1.651-2.636v1.145a.962.962,0,0,0,.962.962h1.067Zm0,0" transform="translate(-169.255 -169.728)"/>
      <path id="Trazado_1111077" data-name="Trazado 1111077" d="M224.884,1.924A.962.962,0,0,1,224.2.282a.962.962,0,1,1,1.36,1.36A.969.969,0,0,1,224.884,1.924Zm0,0" transform="translate(-202.382)"/>
    </g>
  </g>
</svg>
