<svg xmlns="http://www.w3.org/2000/svg" xmlns:xlink="http://www.w3.org/1999/xlink" width="130.113" height="130.788" viewBox="0 0 130.113 130.788">
  <defs>
    <filter id="_52" x="0" y="0" width="130.113" height="130.788" filterUnits="userSpaceOnUse">
      <feOffset dx="3" dy="3" input="SourceAlpha"/>
      <feGaussianBlur stdDeviation="3" result="blur"/>
      <feFlood flood-opacity="0.161"/>
      <feComposite operator="in" in2="blur"/>
      <feComposite in="SourceGraphic"/>
    </filter>
  </defs>
  <g id="Grupo_1195602" data-name="Grupo 1195602" transform="translate(8679.112 6561.466)">
    <g id="Grupo_1195601" data-name="Grupo 1195601" transform="translate(-23186.082 1543.947)">
      <g transform="matrix(1, 0, 0, 1, 14506.97, -8105.41)" filter="url(#_52)">
        <g id="_52-2" data-name="52" transform="translate(6 6)" fill="#fff" stroke="#fff" stroke-width="3">
          <ellipse cx="56.056" cy="56.394" rx="56.056" ry="56.394" stroke="none"/>
          <ellipse cx="56.056" cy="56.394" rx="54.556" ry="54.894" fill="none"/>
        </g>
      </g>
    </g>
    <g id="chequeo" transform="translate(-8649.854 -6529.784)">
      <g id="Grupo_1195592" data-name="Grupo 1195592" transform="translate(2.073 2.073)">
        <g id="Grupo_1195569" data-name="Grupo 1195569" transform="translate(7.51)">
          <path id="Trazado_1110735" data-name="Trazado 1110735" d="M25.974,4.929a4.147,4.147,0,0,1,2.436-.783,4.176,4.176,0,0,1,4.2,4.2,4.388,4.388,0,0,1-4.292,4.388H21.875a4.275,4.275,0,0,1-3.573-1.91l-1.427.236a4.282,4.282,0,0,0-3.562,3.82H12.219a3.143,3.143,0,0,0-2.4,1.094L9.8,15.959l-.633-2.554A5.413,5.413,0,0,1,9,12.032a5.667,5.667,0,0,1,4.571-5.579l.343-.075h.011A6.811,6.811,0,0,1,20.287,2a6.968,6.968,0,0,1,5.687,2.929Z" transform="translate(-9 -2)" fill="#b27946"/>
        </g>
        <g id="Grupo_1195570" data-name="Grupo 1195570" transform="translate(0 31.115)">
          <path id="Trazado_1110736" data-name="Trazado 1110736" d="M10.583,49.24v6.438a8.84,8.84,0,0,1-2.146-.268A8.59,8.59,0,0,1,2,47.094v-.923A17.487,17.487,0,0,1,10.8,31l.858,4.292h4.817c.043.139.075.29.118.429l-3.863,3.863a11.158,11.158,0,0,0,.558,1.2V40.8a1.045,1.045,0,0,0-.558.933v7.51Z" transform="translate(-2 -31)" fill="#4fc1e9"/>
        </g>
        <g id="Grupo_1195571" data-name="Grupo 1195571" transform="translate(6.438 30.042)">
          <path id="Trazado_1110737" data-name="Trazado 1110737" d="M40.413,38.98,42.334,30h6.438V44.882a6.575,6.575,0,0,1-11.631,4.206l-3.39-4.066V64.334H8V55.482a8.84,8.84,0,0,0,2.146.268h2.146v3.219a1.076,1.076,0,0,0,1.073,1.073H26.24a1.076,1.076,0,0,0,1.073-1.073V43.176a12.152,12.152,0,0,0,2.146-3.519L25.6,35.794c.043-.139.075-.29.118-.429h4.817l.9-4.506A21.492,21.492,0,0,1,40.413,38.98Z" transform="translate(-8 -30)" fill="#4fc1e9"/>
        </g>
        <g id="Grupo_1195572" data-name="Grupo 1195572" transform="translate(8.798 29.162)">
          <path id="Trazado_1110738" data-name="Trazado 1110738" d="M15.49,33.225a16.841,16.841,0,0,0,.386,2.2H11.058L10.2,31.133v-.011a17.214,17.214,0,0,1,5.15-1.942v1.878A16.218,16.218,0,0,0,15.49,33.225Z" transform="translate(-10.2 -29.18)" fill="#3bafda"/>
        </g>
        <g id="Grupo_1195573" data-name="Grupo 1195573" transform="translate(10.729 35.836)">
          <path id="Trazado_1110739" data-name="Trazado 1110739" d="M17.633,39.66a7.233,7.233,0,0,0,.386.676H13.073a.953.953,0,0,0-.515.139v-.011a11.158,11.158,0,0,1-.558-1.2L15.863,35.4a17.613,17.613,0,0,0,1.77,4.26Z" transform="translate(-12 -35.4)" fill="#3bafda"/>
        </g>
        <g id="Grupo_1195574" data-name="Grupo 1195574" transform="translate(21.877 35.836)">
          <path id="Trazado_1110740" data-name="Trazado 1110740" d="M22.776,39.66a17.613,17.613,0,0,0,1.77-4.26l3.863,3.863a12.152,12.152,0,0,1-2.146,3.519V41.408a1.076,1.076,0,0,0-1.073-1.073h-2.8a7.232,7.232,0,0,0,.386-.676Z" transform="translate(-22.39 -35.4)" fill="#3bafda"/>
        </g>
        <g id="Grupo_1195575" data-name="Grupo 1195575" transform="translate(24.152 29.151)">
          <path id="Trazado_1110741" data-name="Trazado 1110741" d="M24.9,33.226a16.218,16.218,0,0,0,.139-2.167V29.17a21.131,21.131,0,0,1,5.193,1.738v.011l-.9,4.506H24.51A16.841,16.841,0,0,0,24.9,33.226Z" transform="translate(-24.51 -29.17)" fill="#3bafda"/>
        </g>
        <g id="Grupo_1195576" data-name="Grupo 1195576" transform="translate(38.625 21.459)">
          <path id="Trazado_1110742" data-name="Trazado 1110742" d="M48.729,26.292v.365a4.3,4.3,0,0,1-1.255,3.036l-.891.891H40.146l-.891-.891A4.3,4.3,0,0,1,38,26.657V24.146A2.161,2.161,0,0,1,40.146,22a2.152,2.152,0,0,1,2.146,2.146,2.161,2.161,0,0,0,2.146,2.146Z" transform="translate(-38 -22)" fill="#f0d0b4"/>
        </g>
        <g id="Grupo_1195577" data-name="Grupo 1195577" transform="translate(42.917 21.459)">
          <path id="Trazado_1110743" data-name="Trazado 1110743" d="M48.438,24.146v2.146H44.146A2.161,2.161,0,0,1,42,24.146,2.152,2.152,0,0,1,44.146,22h2.146A2.152,2.152,0,0,1,48.438,24.146Z" transform="translate(-42 -22)" fill="#f0d0b4"/>
        </g>
        <g id="Grupo_1195578" data-name="Grupo 1195578" transform="translate(40.771 15.021)">
          <path id="Trazado_1110744" data-name="Trazado 1110744" d="M44.292,18.146v4.292a2.152,2.152,0,0,0-2.146,2.146A2.152,2.152,0,0,0,40,22.438V18.146A2.152,2.152,0,0,1,42.146,16a2.161,2.161,0,0,1,2.146,2.146Z" transform="translate(-40 -16)" fill="#f0d0b4"/>
        </g>
        <g id="Grupo_1195579" data-name="Grupo 1195579" transform="translate(26.823 12.875)">
          <path id="Trazado_1110745" data-name="Trazado 1110745" d="M28.073,14a3.219,3.219,0,0,1,0,6.438H27V14Z" transform="translate(-27 -14)" fill="#f0d0b4"/>
        </g>
        <g id="Grupo_1195580" data-name="Grupo 1195580" transform="translate(11.802 8.819)">
          <path id="Trazado_1110746" data-name="Trazado 1110746" d="M28.021,20.713v1.073a5.363,5.363,0,0,1-4.066,5.2,5.185,5.185,0,0,1-1.3.161H18.365a5.185,5.185,0,0,1-1.3-.161A5.363,5.363,0,0,1,13,21.786V14.694c0-.139.011-.279.021-.418a4.282,4.282,0,0,1,3.562-3.82l1.427-.236a4.275,4.275,0,0,0,3.573,1.91h6.438v8.583Z" transform="translate(-13 -10.22)" fill="#f0d0b4"/>
        </g>
        <g id="Grupo_1195581" data-name="Grupo 1195581" transform="translate(10.729 40.771)">
          <path id="Trazado_1110747" data-name="Trazado 1110747" d="M27.021,42.446V58.24a1.076,1.076,0,0,1-1.073,1.073H13.073A1.076,1.076,0,0,1,12,58.24V55.021h3.219a3.219,3.219,0,0,0,0-6.438H12v-7.51a1.045,1.045,0,0,1,.558-.933A.953.953,0,0,1,13.073,40h3.219v3.219a1.076,1.076,0,0,0,1.073,1.073h4.292a1.076,1.076,0,0,0,1.073-1.073V40h3.219a1.076,1.076,0,0,1,1.073,1.073Z" transform="translate(-12 -40)" fill="#e6e9ed"/>
        </g>
        <g id="Grupo_1195582" data-name="Grupo 1195582" transform="translate(19.313 28.969)">
          <path id="Trazado_1110748" data-name="Trazado 1110748" d="M25.365,29.182v1.888a16.218,16.218,0,0,1-.139,2.167l-2.543-1.019L20,31.146,24.292,29C24.657,29.054,25.011,29.107,25.365,29.182Z" transform="translate(-20 -29)" fill="#ccd1d9"/>
        </g>
        <g id="Grupo_1195583" data-name="Grupo 1195583" transform="translate(20.386 32.188)">
          <path id="Trazado_1110749" data-name="Trazado 1110749" d="M22.609,32l2.543,1.019a16.84,16.84,0,0,1-.386,2.2c-.043.139-.075.29-.118.429a17.614,17.614,0,0,1-1.77,4.26L21,34.146Z" transform="translate(-21 -32)" fill="#e6e9ed"/>
        </g>
        <g id="Grupo_1195584" data-name="Grupo 1195584" transform="translate(15.021 25.589)">
          <path id="Trazado_1110750" data-name="Trazado 1110750" d="M23.736,25.85l.848,3.38-4.292,2.146L16,29.23l.848-3.38a5.185,5.185,0,0,0,1.3.161h4.292A5.185,5.185,0,0,0,23.736,25.85Z" transform="translate(-16 -25.85)" fill="#f0d0b4"/>
        </g>
        <g id="Grupo_1195585" data-name="Grupo 1195585" transform="translate(16.362 34.334)">
          <path id="Trazado_1110751" data-name="Trazado 1110751" d="M21.273,34l1.878,5.762a7.233,7.233,0,0,1-.386.676H17.636a7.232,7.232,0,0,1-.386-.676L19.128,34Z" transform="translate(-17.25 -34)" fill="#fcd770"/>
        </g>
        <g id="Grupo_1195586" data-name="Grupo 1195586" transform="translate(16.63 31.115)">
          <path id="Trazado_1110752" data-name="Trazado 1110752" d="M22.865,32.073l-1.609,2.146H19.109L17.5,32.073,20.182,31Z" transform="translate(-17.5 -31)" fill="#ffc729"/>
        </g>
        <g id="Grupo_1195587" data-name="Grupo 1195587" transform="translate(15.021 40.771)">
          <path id="Trazado_1110753" data-name="Trazado 1110753" d="M22.438,40v3.219a1.076,1.076,0,0,1-1.073,1.073H17.073A1.076,1.076,0,0,1,16,43.219V40h6.438Z" transform="translate(-16 -40)" fill="#b4dd7f"/>
        </g>
        <g id="Grupo_1195588" data-name="Grupo 1195588" transform="translate(13.948 28.969)">
          <path id="Trazado_1110754" data-name="Trazado 1110754" d="M20.365,31.146l-2.682,1.073-2.543,1.019A16.218,16.218,0,0,1,15,31.071V29.193c.354-.075.708-.139,1.073-.193Z" transform="translate(-15 -29)" fill="#ccd1d9"/>
        </g>
        <g id="Grupo_1195589" data-name="Grupo 1195589" transform="translate(14.088 32.188)">
          <path id="Trazado_1110755" data-name="Trazado 1110755" d="M17.673,32l1.609,2.146L17.4,39.907a17.613,17.613,0,0,1-1.77-4.26c-.043-.139-.075-.29-.118-.429a16.84,16.84,0,0,1-.386-2.2Z" transform="translate(-15.13 -32)" fill="#e6e9ed"/>
        </g>
        <g id="Grupo_1195590" data-name="Grupo 1195590" transform="translate(8.583 49.355)">
          <path id="Trazado_1110756" data-name="Trazado 1110756" d="M17.639,48.944a3.217,3.217,0,0,1-2.275,5.493H10V48h5.365a3.211,3.211,0,0,1,2.275.944Z" transform="translate(-10 -48)" fill="#f0d0b4"/>
        </g>
        <g id="Grupo_1195591" data-name="Grupo 1195591" transform="translate(7.51 12.875)">
          <path id="Trazado_1110757" data-name="Trazado 1110757" d="M13.313,14c-.011.139-.021.279-.021.418v6.019H12.219a3.207,3.207,0,0,1-2.4-5.343A3.143,3.143,0,0,1,12.219,14Z" transform="translate(-9 -14)" fill="#f0d0b4"/>
        </g>
      </g>
      <g id="Grupo_1195593" data-name="Grupo 1195593" transform="translate(1 1)">
        <path id="Trazado_1110758" data-name="Trazado 1110758" d="M49.282,22.459H48.209V19.24a3.219,3.219,0,1,0-6.438,0v3.416a3.214,3.214,0,0,0-2.146,3.021v2.514A5.331,5.331,0,0,0,41.2,31.984l.475.476-1.283,5.989A22.729,22.729,0,0,0,26.549,30.1l-.438-1.751a6.445,6.445,0,0,0,3.858-5.895,4.292,4.292,0,1,0,0-8.583v-.133a5.467,5.467,0,0,0,4.292-5.329,5.251,5.251,0,0,0-7.443-4.787A8.077,8.077,0,0,0,20.866,1a7.94,7.94,0,0,0-7.133,4.533,6.746,6.746,0,0,0-5.021,8.209L9.227,15.8A4.285,4.285,0,0,0,12.8,22.459a6.445,6.445,0,0,0,3.858,5.895l-.442,1.765A18.65,18.65,0,0,0,1,48.362v.919a9.663,9.663,0,0,0,6.438,9.093v9.147h27.9V50.1l1.5,1.794A7.649,7.649,0,0,0,50.355,47V32.559l.574-.575A5.331,5.331,0,0,0,52.5,28.191V25.677a3.223,3.223,0,0,0-3.219-3.219ZM44.99,18.167a1.074,1.074,0,0,1,1.073,1.073v3.416a3.207,3.207,0,0,0-1.073.639,3.189,3.189,0,0,0-1.073-.639V19.24A1.074,1.074,0,0,1,44.99,18.167Zm-16.6,24.385a2.132,2.132,0,0,0-1.642-.781H25.77a19.547,19.547,0,0,0,.819-1.864l2.105,2.105C28.605,42.2,28.491,42.371,28.392,42.552Zm-8.7-.781,1.4-4.292h.589l1.4,4.292Zm3.957-5.166.782-1.042,1,.4a17.216,17.216,0,0,1-.906,3.326Zm-1.281-1.868-.447.6H20.849l-.447-.6.984-.394Zm-4.031.825.782,1.042-.874,2.683a17.217,17.217,0,0,1-.906-3.326Zm-.172,8.355h4.292v2.146H18.167Zm7.51-11.676v.87c0,.21-.014.42-.023.63L24,33.081Zm-8.561,1.5c-.009-.209-.023-.418-.023-.629v-.87l1.675.838Zm-1.875,2.666H12.608l-.527-2.634a16.328,16.328,0,0,1,2.867-1.151v.49A19.4,19.4,0,0,0,15.241,36.407ZM17,41.771H14.319l1.864-1.864A19.018,19.018,0,0,0,17,41.771ZM16.021,52.5a2.146,2.146,0,1,1,0,4.292H11.729V52.5Zm-2.146,6.438h2.146a4.292,4.292,0,1,0,0-8.583H13.875V43.917h2.146v2.146a2.148,2.148,0,0,0,2.146,2.146h4.292A2.148,2.148,0,0,0,24.6,46.063V43.917H26.75V61.084H13.875ZM27.823,33.112v-.535a20.3,20.3,0,0,1,2.9,1.018l-.562,2.812H27.53A19.4,19.4,0,0,0,27.823,33.112Zm4.292-14.945a2.148,2.148,0,0,1-2.146,2.146V16.021A2.148,2.148,0,0,1,32.115,18.167Zm-21.459,0A2.148,2.148,0,0,1,12.8,16.021v4.292A2.148,2.148,0,0,1,10.656,18.167Zm2.375-4.292H12.8a4.243,4.243,0,0,0-1.75.382l-.259-1.036A4.6,4.6,0,0,1,13,8.094l-.191,1.338,2.124.3.236-1.652a5.779,5.779,0,0,1,5.693-4.937,5.919,5.919,0,0,1,4.2,1.765,5.222,5.222,0,0,0-.453.58l-.9,1.352L25.5,8.033l.9-1.352a3.12,3.12,0,0,1,5.715,1.731A3.321,3.321,0,0,1,28.8,11.729H22.459A3.223,3.223,0,0,1,19.24,8.51H17.094a5.282,5.282,0,0,0,.256,1.553l-.064.011a5.326,5.326,0,0,0-4.254,3.8Zm1.916,8.583V15.365a3.209,3.209,0,0,1,2.69-3.175l.823-.137a5.333,5.333,0,0,0,4,1.822h5.365v8.583a4.3,4.3,0,0,1-4.292,4.292H19.24A4.3,4.3,0,0,1,14.948,22.459ZM19.24,28.9h4.292c.167,0,.333-.013.5-.025l.4,1.6-3.042,1.52-3.042-1.52.4-1.6c.164.012.329.025.5.025ZM3.146,49.282v-.919a16.483,16.483,0,0,1,6.985-13.4l.719,3.594H14.5l-2.96,2.96.263.657c.079.2.181.389.271.585a2.13,2.13,0,0,0-.348,1.163v6.438H10.656a1.073,1.073,0,0,1-1.073-1.073v-7.51H7.438v7.51A3.214,3.214,0,0,0,9.583,52.3v4.4a7.517,7.517,0,0,1-6.438-7.425ZM42.706,52.5a5.488,5.488,0,0,1-4.227-1.981l-3.145-3.773V41.771H33.188v23.6H9.583v-6.5a9.586,9.586,0,0,0,1.073.063h1.073v2.146a2.148,2.148,0,0,0,2.146,2.146H26.75A2.148,2.148,0,0,0,28.9,61.084V45.669a13.544,13.544,0,0,0,2.07-3.5l.263-.657-2.961-2.962h3.654l.791-3.958a20.446,20.446,0,0,1,7.065,6.711l-1.2,5.6,2.1.451,3.036-14.172h4.5V47a5.509,5.509,0,0,1-5.5,5.5Zm6.706-22.034-.574.575H43.289l-.574-.575a3.233,3.233,0,0,1-.944-2.276V25.677a1.073,1.073,0,1,1,2.146,0A3.223,3.223,0,0,0,47.136,28.9h3.139a3.246,3.246,0,0,1-.864,1.571Zm.943-3.717H47.136a1.073,1.073,0,1,1,0-2.146h2.146a1.074,1.074,0,0,1,1.073,1.073Z" transform="translate(-1 -1)"/>
        <path id="Trazado_1110759" data-name="Trazado 1110759" d="M18,23.292h2.146A4.3,4.3,0,0,0,24.438,19H22.292a2.148,2.148,0,0,1-2.146,2.146H18Z" transform="translate(0.24 0.313)"/>
        <circle id="Elipse_14017" data-name="Elipse 14017" cx="1.073" cy="1.073" r="1.073" transform="translate(16.094 15.021)"/>
        <circle id="Elipse_14018" data-name="Elipse 14018" cx="1.073" cy="1.073" r="1.073" transform="translate(22.531 15.021)"/>
        <path id="Trazado_1110760" data-name="Trazado 1110760" d="M48.248,2.81,46.731,1.293,43.2,4.826,41.81,3.439,40.293,4.956l2.9,2.9Z" transform="translate(1.866 -0.979)"/>
        <path id="Trazado_1110761" data-name="Trazado 1110761" d="M49,5H64.021V7.146H49Z" transform="translate(2.501 -0.708)"/>
        <path id="Trazado_1110762" data-name="Trazado 1110762" d="M48.248,8.81,46.731,7.293,43.2,10.826,41.81,9.439l-1.517,1.517,2.9,2.9Z" transform="translate(1.866 -0.541)"/>
        <path id="Trazado_1110763" data-name="Trazado 1110763" d="M49,11H64.021v2.146H49Z" transform="translate(2.501 -0.271)"/>
        <path id="Trazado_1110764" data-name="Trazado 1110764" d="M61,17h2.146v2.146H61Z" transform="translate(3.376 0.167)"/>
        <path id="Trazado_1110765" data-name="Trazado 1110765" d="M49,17H59.729v2.146H49Z" transform="translate(2.501 0.167)"/>
      </g>
    </g>
  </g>
</svg>
