<svg xmlns="http://www.w3.org/2000/svg" xmlns:xlink="http://www.w3.org/1999/xlink" width="96" height="95" viewBox="0 0 96 95">
  <defs>
    <linearGradient id="linear-gradient" x1="0.5" x2="0.5" y2="1" gradientUnits="objectBoundingBox">
      <stop offset="0" stop-color="#fff"/>
      <stop offset="1" stop-color="#e9e9e9"/>
    </linearGradient>
    <filter id="Elipse_14001" x="0" y="0" width="96" height="95" filterUnits="userSpaceOnUse">
      <feOffset dy="3" input="SourceAlpha"/>
      <feGaussianBlur stdDeviation="3" result="blur"/>
      <feFlood flood-opacity="0.161"/>
      <feComposite operator="in" in2="blur"/>
      <feComposite in="SourceGraphic"/>
    </filter>
  </defs>
  <g id="Grupo_1195773" data-name="Grupo 1195773" transform="translate(-738 -1791)">
    <g transform="matrix(1, 0, 0, 1, 738, 1791)" filter="url(#Elipse_14001)">
      <ellipse id="Elipse_14001-2" data-name="Elipse 14001" cx="39" cy="38.5" rx="39" ry="38.5" transform="translate(9 6)" fill="url(#linear-gradient)"/>
    </g>
    <g id="estudio" transform="translate(759.855 1810.8)">
      <path id="Trazado_1110931" data-name="Trazado 1110931" d="M27.239,291.078v3.078H8L12.394,288h7.149v3.078Z" transform="translate(-7.23 -260.147)" fill="#aedef8"/>
      <path id="Trazado_1110932" data-name="Trazado 1110932" d="M58.2,291.078v3.078H56.664v-1.539h-7.7v-3.078H42.26l1.1-1.539h7.149v3.078Z" transform="translate(-38.195 -260.147)" fill="#479f35"/>
      <path id="Trazado_1110933" data-name="Trazado 1110933" d="M68.525,250.774V247.7h-7.7v-3.078H53.68l3.3-4.617H89.3L97,250.774Z" transform="translate(-48.516 -216.764)" fill="#acdd12"/>
      <path id="Trazado_1110934" data-name="Trazado 1110934" d="M225.539,384h0a1.539,1.539,0,0,1,1.539,1.539v1.539H231.7l2.214-2.214a1.222,1.222,0,0,1,1.729,0h0a1.222,1.222,0,0,1,.184,1.493l-2.587,3.029-3.078,1.539v1.539H224v-6.926A1.539,1.539,0,0,1,225.539,384Z" transform="translate(-202.453 -346.912)" fill="#fac8b2"/>
      <path id="Trazado_1110935" data-name="Trazado 1110935" d="M224,472h6.156v3.078H224Z" transform="translate(-202.453 -426.447)" fill="#00587e"/>
      <path id="Trazado_1110936" data-name="Trazado 1110936" d="M416.77,275.078a.769.769,0,0,1-.77-.77V272.77a.77.77,0,0,1,1.539,0v1.539A.769.769,0,0,1,416.77,275.078Z" transform="translate(-375.984 -245.686)" fill="#914d1a"/>
      <path id="Trazado_1110937" data-name="Trazado 1110937" d="M176,184h4.617v8.465H176Z" transform="translate(-159.07 -166.151)" fill="#c4d4de"/>
      <path id="Trazado_1110938" data-name="Trazado 1110938" d="M288,216h4.617v5.387H288Z" transform="translate(-260.296 -195.073)" fill="#c4d4de"/>
      <g id="Grupo_1195621" data-name="Grupo 1195621" transform="translate(0.183 7.845)">
        <path id="Trazado_1110939" data-name="Trazado 1110939" d="M64.77,82.309a.77.77,0,0,1-.77-.77v-.77a.77.77,0,0,1,1.539,0v.77A.77.77,0,0,1,64.77,82.309Z" transform="translate(-58.026 -80)" fill="#ffec00"/>
        <path id="Trazado_1110940" data-name="Trazado 1110940" d="M14.942,106.609a.766.766,0,0,1-.473-.163l-.606-.474a.77.77,0,0,1,.948-1.213l.606.474a.77.77,0,0,1-.474,1.376Z" transform="translate(-12.445 -102.23)" fill="#ffec00"/>
        <path id="Trazado_1110941" data-name="Trazado 1110941" d="M2.668,159.272a.77.77,0,0,1-.186-1.516l.747-.186a.77.77,0,1,1,.372,1.493l-.747.186a.773.773,0,0,1-.187.023Z" transform="translate(-1.899 -150.087)" fill="#ffec00"/>
        <path id="Trazado_1110942" data-name="Trazado 1110942" d="M38.736,197.4a.744.744,0,0,1-.313-.064.769.769,0,0,1-.39-1.016l.313-.7a.77.77,0,0,1,1.406.626l-.313.7A.785.785,0,0,1,38.736,197.4Z" transform="translate(-34.497 -184.079)" fill="#ffec00"/>
        <path id="Trazado_1110943" data-name="Trazado 1110943" d="M91.42,195.662a.769.769,0,0,1-.68-.408l-.361-.68a.77.77,0,1,1,1.359-.723l.361.68a.77.77,0,0,1-.679,1.131Z" transform="translate(-81.786 -182.53)" fill="#ffec00"/>
        <path id="Trazado_1110944" data-name="Trazado 1110944" d="M120.676,155.4a.773.773,0,0,1-.135-.012l-.758-.134a.77.77,0,0,1,.267-1.516l.758.134a.77.77,0,0,1-.133,1.528Z" transform="translate(-107.869 -146.631)" fill="#ffec00"/>
        <path id="Trazado_1110945" data-name="Trazado 1110945" d="M106.386,103.23a.77.77,0,0,1-.515-1.341l.572-.515a.77.77,0,0,1,1.03,1.144l-.572.515a.767.767,0,0,1-.515.2Z" transform="translate(-95.64 -99.139)" fill="#ffec00"/>
        <ellipse id="Elipse_14022" data-name="Elipse 14022" cx="2.309" cy="2.309" rx="2.309" ry="2.309" transform="translate(4.435 4.617)" fill="#ffec00"/>
      </g>
      <path id="Trazado_1110946" data-name="Trazado 1110946" d="M8,352H55.712v3.078H8Z" transform="translate(-7.23 -317.991)" fill="#fbe2bc"/>
      <path id="Trazado_1110947" data-name="Trazado 1110947" d="M391.7,167.7a3.848,3.848,0,1,1-5.271-3.578,2.275,2.275,0,0,1-.885-1.808,2.309,2.309,0,1,1,4.617,0,2.275,2.275,0,0,1-.885,1.808A3.861,3.861,0,0,1,391.7,167.7Z" transform="translate(-347.062 -144.46)" fill="#ddf216"/>
      <path id="Trazado_1110948" data-name="Trazado 1110948" d="M413.369,167.7a3.849,3.849,0,0,1-5.389,3.526,3.849,3.849,0,0,0,0-7.056l.115-.049c-.039-.031-.078-.063-.115-.1a2.271,2.271,0,0,0,.77-1.712,2.3,2.3,0,0,0-.77-1.722,2.306,2.306,0,1,1,2.963,3.53A3.861,3.861,0,0,1,413.369,167.7Z" transform="translate(-368.735 -144.46)" fill="#95d202"/>
      <path id="Trazado_1110949" data-name="Trazado 1110949" d="M8,355.078,55.712,352v3.078Z" transform="translate(-7.23 -317.991)" fill="#c99d66"/>
      <path id="Trazado_1110950" data-name="Trazado 1110950" d="M288,216h2.309v5.387H288Z" transform="translate(-260.296 -195.073)" fill="#b1cedd"/>
      <path id="Trazado_1110951" data-name="Trazado 1110951" d="M200,184h2.309v8.465H200Z" transform="translate(-180.761 -166.151)" fill="#b1cedd"/>
      <path id="Trazado_1110952" data-name="Trazado 1110952" d="M8,352H25.7v1.539H8Z" transform="translate(-7.23 -317.991)" fill="#00a8e7"/>
      <path id="Trazado_1110953" data-name="Trazado 1110953" d="M192,352h1.539v1.539H192Z" transform="translate(-173.531 -317.991)" fill="#319201"/>
      <path id="Trazado_1110954" data-name="Trazado 1110954" d="M224,120h6.156v14.621H224Z" transform="translate(-202.453 -108.308)" fill="#efeeef"/>
      <path id="Trazado_1110955" data-name="Trazado 1110955" d="M230.156,120,224,134.621h6.156Z" transform="translate(-202.453 -108.308)" fill="#c4d4de"/>
      <path id="Trazado_1110956" data-name="Trazado 1110956" d="M248.77,146.309a.77.77,0,0,1-.77-.77v-.77a.77.77,0,1,1,1.539,0v.77A.77.77,0,0,1,248.77,146.309Z" transform="translate(-224.144 -129.999)" fill="#00a8e7"/>
      <path id="Trazado_1110957" data-name="Trazado 1110957" d="M248.77,186.309a.77.77,0,0,1-.77-.77v-.77a.77.77,0,1,1,1.539,0v.77A.77.77,0,0,1,248.77,186.309Z" transform="translate(-224.144 -166.151)" fill="#00a8e7"/>
      <path id="Trazado_1110958" data-name="Trazado 1110958" d="M248.77,226.309a.77.77,0,0,1-.77-.77v-.77a.77.77,0,0,1,1.539,0v.77A.77.77,0,0,1,248.77,226.309Z" transform="translate(-224.144 -202.303)" fill="#00a8e7"/>
      <path id="Trazado_1110959" data-name="Trazado 1110959" d="M53.548,131.24a2.309,2.309,0,0,1-4.518.67,2.31,2.31,0,0,0,2.88-2.88,2.31,2.31,0,0,1,1.638,2.21Z" transform="translate(-44.314 -116.469)" fill="#fcc200"/>
      <path id="Trazado_1110960" data-name="Trazado 1110960" d="M361.764,44.392a.77.77,0,0,0,1.088-1.088l-.225-.225h.264a3.058,3.058,0,0,0,2.177-.9,1.541,1.541,0,0,1,2.177,0l.583.583a3.082,3.082,0,0,0,4.353,0,1.529,1.529,0,0,1,1.088-.451h.583a.77.77,0,0,0,0-1.539h-.583a3.058,3.058,0,0,0-2.177.9,1.541,1.541,0,0,1-2.177,0l-.583-.583a3.078,3.078,0,0,0-4.353,0,1.529,1.529,0,0,1-1.088.451h-.264l.225-.225a.77.77,0,0,0-1.088-1.088l-1.539,1.539a.77.77,0,0,0,0,1.088Z" transform="translate(-325.37 -36.003)" fill="#00a8e7"/>
      <path id="Trazado_1110961" data-name="Trazado 1110961" d="M373.852,96.77h-.583a3.058,3.058,0,0,0-2.177.9,1.541,1.541,0,0,1-2.177,0l-.583-.583a3.078,3.078,0,0,0-4.353,0,1.529,1.529,0,0,1-1.088.451h-.264l.225-.225a.77.77,0,0,0-1.088-1.088l-1.539,1.539a.769.769,0,0,0,0,1.088l1.539,1.539a.77.77,0,1,0,1.088-1.088l-.225-.225h.264a3.058,3.058,0,0,0,2.177-.9,1.541,1.541,0,0,1,2.177,0l.583.583a3.082,3.082,0,0,0,4.353,0,1.529,1.529,0,0,1,1.088-.451h.583a.77.77,0,0,0,0-1.539Z" transform="translate(-325.37 -86.617)" fill="#00a8e7"/>
      <path id="Trazado_1110962" data-name="Trazado 1110962" d="M101.88,7.491a.79.79,0,0,0,1.086-.075A16.99,16.99,0,0,1,113.777,1.81c3.681-.424,5.658-.153,8.274,1.161l-.6.276a.749.749,0,0,0-.37,1,.771.771,0,0,0,.7.435.78.78,0,0,0,.326-.072l2.2-1.013a.749.749,0,0,0,.37-1L123.646.434a.776.776,0,0,0-1.023-.363.749.749,0,0,0-.37,1l.191.4C119.353,0,116.99-.079,113.6.311A18.535,18.535,0,0,0,101.8,6.426a.745.745,0,0,0,.077,1.065Z" transform="translate(-91.84 0.149)" fill="#f05a29"/>
      <path id="Trazado_1110963" data-name="Trazado 1110963" d="M361.314,290.853l.225-.225v.355a.77.77,0,0,0,1.539,0v-.355l.225.225a.77.77,0,1,0,1.088-1.088l-1.539-1.539a.77.77,0,0,0-1.088,0l-1.539,1.539a.77.77,0,1,0,1.088,1.088Z" transform="translate(-325.37 -260.148)" fill="#f98800"/>
      <path id="Trazado_1110964" data-name="Trazado 1110964" d="M297.314,290.853l.225-.225v.451a.77.77,0,0,0,1.539,0v-.451l.225.225a.77.77,0,1,0,1.088-1.088l-1.539-1.539a.77.77,0,0,0-1.088,0l-1.539,1.539a.77.77,0,1,0,1.088,1.088Z" transform="translate(-267.527 -260.148)" fill="#f98800"/>
      <path id="Trazado_1110965" data-name="Trazado 1110965" d="M233.314,290.853l.225-.225v.355a.77.77,0,0,0,1.539,0v-.355l.225.225a.77.77,0,1,0,1.088-1.088l-1.539-1.539a.769.769,0,0,0-1.088,0l-1.539,1.539a.77.77,0,1,0,1.088,1.088Z" transform="translate(-209.683 -260.148)" fill="#f98800"/>
      <path id="Trazado_1110966" data-name="Trazado 1110966" d="M49.248,135.022a.77.77,0,0,0-.013-.094h0a.762.762,0,0,0-.026-.09l-.007-.02a.762.762,0,0,0-.034-.077l-.006-.012a.769.769,0,0,0-.051-.082l0-.006-5.049-7.072a4.618,4.618,0,0,0-.637-7.05,3.048,3.048,0,0,0,.443-1.592,3.078,3.078,0,1,0-6.156,0,3.048,3.048,0,0,0,.443,1.592,4.6,4.6,0,0,0-1.917,3.025H33.09V122a.77.77,0,0,0-.77-.77H28.473v-8.465a.77.77,0,0,0-.77-.77H21.547a.77.77,0,0,0-.77.77v5.387H16.93a.77.77,0,0,0-.77.77v4.617h-7.7a.77.77,0,0,0-.626.322l-3.3,4.617h0L.143,134.639h0a.765.765,0,0,0-.144.447v3.078a.77.77,0,0,0,.77.77H20.91a2.3,2.3,0,0,0-.132.77v10a.77.77,0,0,0,.77.77H27.7a.77.77,0,0,0,.77-.77v-4.142l2.653-1.326a.77.77,0,0,0,.241-.189l2.587-3.029a.772.772,0,0,0,.075-.1,1.988,1.988,0,0,0,.037-1.984H48.481a.77.77,0,0,0,.77-.77v-3.078c0-.013,0-.026,0-.038s0-.017,0-.026Zm-9.6-13.574a.77.77,0,0,0,.183-1.323,1.5,1.5,0,0,1-.585-1.2,1.539,1.539,0,1,1,3.078,0,1.5,1.5,0,0,1-.585,1.2.77.77,0,0,0,.183,1.323,3.078,3.078,0,1,1-2.273,0Zm-8.1,1.325v3.848H28.473v-3.848Zm-9.235-9.235h4.617v13.082H22.317ZM17.7,119.7h3.078v6.926H17.7Zm-8.839,5.387h7.3v2.309a.77.77,0,0,0,.77.77H32.321a.77.77,0,0,0,.77-.77v-2.309h3.144a4.628,4.628,0,0,0,3.782,3.782v.835a.77.77,0,1,0,1.539,0v-.834a4.606,4.606,0,0,0,1.252-.4l4.179,5.853H20.778v-2.309a.77.77,0,0,0-.77-.77H13.082V128.93a.77.77,0,0,0-.77-.77H6.66ZM5.56,129.7h5.983v2.309a.77.77,0,0,0,.77.77h6.926v1.539H2.264Zm21.374,19.239H22.317V147.4h4.617Zm5.8-8.855-2.434,2.85L27.359,144.4a.769.769,0,0,0-.425.688v.77H22.317V139.7a.77.77,0,0,1,1.539,0v1.539a.77.77,0,0,0,.77.77h4.617a.769.769,0,0,0,.544-.225L32,139.573a.453.453,0,0,1,.731.51Zm-3.808.39H25.395v-.77a2.3,2.3,0,0,0-.132-.77h5.2Zm18.788-3.078H1.539v-1.539H47.712Z" transform="translate(0 -101.077)"/>
      <path id="Trazado_1110967" data-name="Trazado 1110967" d="M64.77,82.309a.77.77,0,0,0,.77-.77v-.77a.77.77,0,0,0-1.539,0v.77A.77.77,0,0,0,64.77,82.309Z" transform="translate(-57.844 -72.155)"/>
      <path id="Trazado_1110968" data-name="Trazado 1110968" d="M13.863,105.973l.606.474a.779.779,0,0,0,1.08-.133.77.77,0,0,0-.133-1.08l-.606-.474a.77.77,0,0,0-.948,1.213Z" transform="translate(-12.262 -94.386)"/>
      <path id="Trazado_1110969" data-name="Trazado 1110969" d="M2.668,159.272a.773.773,0,0,0,.187-.023l.747-.186a.77.77,0,1,0-.372-1.493l-.747.186a.77.77,0,0,0,.186,1.516Z" transform="translate(-1.716 -142.242)"/>
      <path id="Trazado_1110970" data-name="Trazado 1110970" d="M38.424,197.332a.777.777,0,0,0,1.016-.39l.313-.7a.77.77,0,0,0-1.406-.626l-.313.7A.769.769,0,0,0,38.424,197.332Z" transform="translate(-34.315 -176.235)"/>
      <path id="Trazado_1110971" data-name="Trazado 1110971" d="M90.7,193.533a.77.77,0,0,0-.318,1.041l.361.68a.781.781,0,0,0,1.041.318.77.77,0,0,0,.318-1.041l-.361-.68A.769.769,0,0,0,90.7,193.533Z" transform="translate(-81.604 -174.685)"/>
      <path id="Trazado_1110972" data-name="Trazado 1110972" d="M119.784,155.251l.758.134a.77.77,0,0,0,.267-1.516l-.758-.134a.77.77,0,0,0-.267,1.516Z" transform="translate(-107.687 -138.787)"/>
      <path id="Trazado_1110973" data-name="Trazado 1110973" d="M106.9,103.032l.572-.515a.77.77,0,1,0-1.03-1.144l-.572.515a.769.769,0,0,0-.057,1.087.779.779,0,0,0,1.087.057Z" transform="translate(-95.456 -91.294)"/>
      <path id="Trazado_1110974" data-name="Trazado 1110974" d="M43.078,126.156A3.078,3.078,0,1,0,40,123.078,3.082,3.082,0,0,0,43.078,126.156Zm0-4.617a1.539,1.539,0,1,1-1.539,1.539A1.541,1.541,0,0,1,43.078,121.539Z" transform="translate(-36.152 -108.308)"/>
      <path id="Trazado_1110975" data-name="Trazado 1110975" d="M361.764,44.392a.77.77,0,0,0,1.088-1.088l-.225-.225h.264a3.058,3.058,0,0,0,2.177-.9,1.541,1.541,0,0,1,2.177,0l.583.583a3.082,3.082,0,0,0,4.353,0,1.529,1.529,0,0,1,1.088-.451h.583a.77.77,0,0,0,0-1.539h-.583a3.058,3.058,0,0,0-2.177.9,1.541,1.541,0,0,1-2.177,0l-.583-.583a3.078,3.078,0,0,0-4.353,0,1.529,1.529,0,0,1-1.088.451h-.264l.225-.225a.77.77,0,0,0-1.088-1.088l-1.539,1.539a.77.77,0,0,0,0,1.088Z" transform="translate(-325.37 -36.003)"/>
      <path id="Trazado_1110976" data-name="Trazado 1110976" d="M373.852,96.77h-.583a3.058,3.058,0,0,0-2.177.9,1.541,1.541,0,0,1-2.177,0l-.583-.583a3.078,3.078,0,0,0-4.353,0,1.529,1.529,0,0,1-1.088.451h-.264l.225-.225a.77.77,0,0,0-1.088-1.088l-1.539,1.539a.769.769,0,0,0,0,1.088l1.539,1.539a.77.77,0,1,0,1.088-1.088l-.225-.225h.264a3.058,3.058,0,0,0,2.177-.9,1.541,1.541,0,0,1,2.177,0l.583.583a3.082,3.082,0,0,0,4.353,0,1.529,1.529,0,0,1,1.088-.451h.583a.77.77,0,0,0,0-1.539Z" transform="translate(-325.37 -86.617)"/>
      <path id="Trazado_1110977" data-name="Trazado 1110977" d="M101.88,6.086a.78.78,0,0,0,1.086-.077A16.887,16.887,0,0,1,113.777.3c3.681-.432,5.658-.156,8.274,1.183l-.6.281a.77.77,0,1,0,.653,1.393l2.2-1.033a.77.77,0,0,0,.37-1.023l-1.033-2.2a.769.769,0,0,0-1.023-.37.77.77,0,0,0-.37,1.023l.191.408c-3.09-1.508-5.454-1.586-8.846-1.188A18.423,18.423,0,0,0,101.8,5a.77.77,0,0,0,.077,1.086Z" transform="translate(-91.84 1.55)"/>
      <path id="Trazado_1110978" data-name="Trazado 1110978" d="M248.77,144a.77.77,0,0,0-.77.77v.77a.77.77,0,1,0,1.539,0v-.77A.77.77,0,0,0,248.77,144Z" transform="translate(-224.144 -129.999)"/>
      <path id="Trazado_1110979" data-name="Trazado 1110979" d="M248.77,184a.77.77,0,0,0-.77.77v.77a.77.77,0,0,0,1.539,0v-.77A.77.77,0,0,0,248.77,184Z" transform="translate(-224.144 -166.151)"/>
      <path id="Trazado_1110980" data-name="Trazado 1110980" d="M248.77,224a.77.77,0,0,0-.77.77v.77a.77.77,0,0,0,1.539,0v-.77A.77.77,0,0,0,248.77,224Z" transform="translate(-224.144 -202.303)"/>
      <path id="Trazado_1110981" data-name="Trazado 1110981" d="M361.314,290.853l.225-.225v.355a.77.77,0,0,0,1.539,0v-.355l.225.225a.77.77,0,1,0,1.088-1.088l-1.539-1.539a.77.77,0,0,0-1.088,0l-1.539,1.539a.77.77,0,1,0,1.088,1.088Z" transform="translate(-325.37 -260.148)"/>
      <path id="Trazado_1110982" data-name="Trazado 1110982" d="M297.314,290.853l.225-.225v.451a.77.77,0,0,0,1.539,0v-.451l.225.225a.77.77,0,1,0,1.088-1.088l-1.539-1.539a.77.77,0,0,0-1.088,0l-1.539,1.539a.77.77,0,1,0,1.088,1.088Z" transform="translate(-267.527 -260.148)"/>
      <path id="Trazado_1110983" data-name="Trazado 1110983" d="M233.314,290.853l.225-.225v.355a.77.77,0,0,0,1.539,0v-.355l.225.225a.77.77,0,1,0,1.088-1.088l-1.539-1.539a.769.769,0,0,0-1.088,0l-1.539,1.539a.77.77,0,1,0,1.088,1.088Z" transform="translate(-209.683 -260.148)"/>
    </g>
  </g>
</svg>
