<svg xmlns="http://www.w3.org/2000/svg" width="83" height="83" viewBox="0 0 83 83">
  <g id="plan-estrategico" transform="translate(-16 -16)">
    <path id="Trazado_1113006" data-name="Trazado 1113006" d="M55.182,213.833a13.721,13.721,0,0,0-1.048-2.468L57.2,208.3l-5.533-5.533L48.6,205.832a13.721,13.721,0,0,0-2.468-1.048V200h-8.3v4.785a13.721,13.721,0,0,0-2.468,1.048L32.3,202.767,26.767,208.3l3.066,3.066a13.721,13.721,0,0,0-1.048,2.468H24v8.3h4.785a13.721,13.721,0,0,0,1.048,2.467l-3.066,3.066L32.3,233.2l3.066-3.066a13.722,13.722,0,0,0,2.468,1.048v4.785h8.3v-4.785a13.722,13.722,0,0,0,2.468-1.048l3.066,3.066,5.533-5.533L54.134,224.6a13.72,13.72,0,0,0,1.048-2.467h4.785v-8.3Z" transform="translate(-6.617 -152.183)" fill="#3397e8"/>
    <circle id="Elipse_14049" data-name="Elipse 14049" cx="9.5" cy="9.5" r="9.5" transform="translate(26 56)" fill="#e9eef2"/>
    <circle id="Elipse_14050" data-name="Elipse 14050" cx="4" cy="4" r="4" transform="translate(32 62)" fill="#2978b8"/>
    <path id="Trazado_1113007" data-name="Trazado 1113007" d="M191.333,104.233a5.533,5.533,0,0,0,5.533-5.533V24H136v80.233Z" transform="translate(-99.25 -6.617)" fill="#e9eef2"/>
    <path id="Trazado_1113008" data-name="Trazado 1113008" d="M59.357,50.352a11.068,11.068,0,0,0-2.851-4.913L36.533,25.467A5.01,5.01,0,0,0,32.992,24h0a5.009,5.009,0,0,0-3.542,1.467l-3.982,3.982a5.01,5.01,0,0,0,0,7.084L45.439,56.506a11.067,11.067,0,0,0,4.913,2.851l12.381,3.376Z" transform="translate(-6.617 -6.617)" fill="#fbe9d8"/>
    <path id="Trazado_1113009" data-name="Trazado 1113009" d="M29.449,25.467l-3.982,3.982A5.01,5.01,0,0,0,24,32.992h0a5.01,5.01,0,0,0,1.467,3.542L29.533,40.6,40.6,29.533l-4.066-4.066A5.01,5.01,0,0,0,32.992,24h0a5.009,5.009,0,0,0-3.542,1.467Z" transform="translate(-6.617 -6.617)" fill="#eb423f"/>
    <path id="Trazado_1113010" data-name="Trazado 1113010" d="M104,408h55.333v8.3a5.533,5.533,0,0,0,5.533,5.533H109.533A5.533,5.533,0,0,1,104,416.3Z" transform="translate(-72.783 -324.217)" fill="#dadcde"/>
    <rect id="Rectángulo_461528" data-name="Rectángulo 461528" width="12" height="25" transform="translate(77 26)" fill="#dadcde"/>
    <path id="Trazado_1113011" data-name="Trazado 1113011" d="M197.72,204.042l8.694,2.372-2.372-8.694Z" transform="translate(-150.298 -150.298)" fill="#414649"/>
    <path id="Trazado_1113012" data-name="Trazado 1113012" d="M56,67.067l15.9,15.9,0,0L82.975,71.908l0,0L67.067,56Z" transform="translate(-33.083 -33.083)" fill="#3397e8"/>
    <rect id="Rectángulo_461529" data-name="Rectángulo 461529" width="5.869" height="23.476" transform="translate(25.683 29.833) rotate(-45)" fill="#2978b8"/>
    <circle id="Elipse_14051" data-name="Elipse 14051" cx="3" cy="3" r="3" transform="translate(64 64)" fill="#3397e8"/>
    <rect id="Rectángulo_461530" data-name="Rectángulo 461530" width="14" height="11" transform="translate(45 62)" fill="#eb423f"/>
    <rect id="Rectángulo_461531" data-name="Rectángulo 461531" width="14" height="11" transform="translate(75 62)" fill="#3dc285"/>
    <rect id="Rectángulo_461532" data-name="Rectángulo 461532" width="13" height="4" transform="translate(61 79)" fill="#ffd33a"/>
    <rect id="Rectángulo_461533" data-name="Rectángulo 461533" width="15.651" height="3.913" transform="translate(20.15 31.217) rotate(-45)" fill="#ffd33a"/>
    <path id="Trazado_1113013" data-name="Trazado 1113013" d="M97.617,16H36.75a1.383,1.383,0,0,0-1.383,1.383v4.96L30.9,17.872a6.393,6.393,0,0,0-9.041,0l-3.982,3.982a6.393,6.393,0,0,0,0,9.041L33.41,46.433H31.217a1.383,1.383,0,0,0-1.383,1.383v3.805q-.41.16-.811.344l-2.361-2.361a1.383,1.383,0,0,0-1.956,0l-5.533,5.533a1.383,1.383,0,0,0,0,1.956l2.362,2.361q-.184.4-.344.811H17.383A1.383,1.383,0,0,0,16,61.65v8.3a1.383,1.383,0,0,0,1.383,1.383h3.805q.16.41.344.811l-2.361,2.361a1.383,1.383,0,0,0,0,1.956l5.533,5.533a1.383,1.383,0,0,0,1.956,0l2.361-2.361q.4.184.811.344V92.083A6.924,6.924,0,0,0,36.75,99H92.083A6.924,6.924,0,0,0,99,92.083v-74.7A1.383,1.383,0,0,0,97.617,16ZM47.935,38.825l-1.5,1.5L32.481,26.375l1.5-1.5Zm6.21,15.32-4.06-1.107,2.953-2.954ZM47.011,52.2,44.1,51.405a9.7,9.7,0,0,1-3.246-1.585l8.967-8.967A9.7,9.7,0,0,1,51.4,44.1l.794,2.912Zm-24.9-20.983,9.11-9.11.81.81-9.11,9.11Zm8.419-2.885L44.477,42.283l-2.194,2.194L28.331,30.525Zm-10.7-4.521,3.982-3.982a3.626,3.626,0,0,1,5.128,0l.321.321-9.11,9.11-.321-.321a3.626,3.626,0,0,1,0-5.128Zm6.546,8.671L40.327,46.433l-1.5,1.5L24.873,33.983Zm8.992,36.085a2.767,2.767,0,1,1,0-5.533Zm0-8.3a5.533,5.533,0,1,0,0,11.067V74.1a8.3,8.3,0,1,1,0-16.6Zm-5.955,16.47a1.383,1.383,0,0,0-1.641.236L25.683,79.06l-3.577-3.577L24.194,73.4a1.383,1.383,0,0,0,.236-1.641,12.344,12.344,0,0,1-.942-2.219,1.383,1.383,0,0,0-1.32-.97h-3.4V63.033h3.4a1.383,1.383,0,0,0,1.32-.97,12.344,12.344,0,0,1,.942-2.219,1.383,1.383,0,0,0-.236-1.641l-2.088-2.088,3.577-3.577,2.088,2.088a1.383,1.383,0,0,0,1.641.236,12.355,12.355,0,0,1,2.219-.942,1.383,1.383,0,0,0,.97-1.32V49.2h2.767v5.533a11.067,11.067,0,1,0,0,22.133V82.4H32.6V79a1.383,1.383,0,0,0-.97-1.32A12.356,12.356,0,0,1,29.412,76.736Zm7.338,19.5a4.155,4.155,0,0,1-4.15-4.15V85.167H85.167v6.917a6.881,6.881,0,0,0,1.387,4.15ZM65.8,67.183a1.383,1.383,0,1,1,1.383,1.383A1.383,1.383,0,0,1,65.8,67.183Zm6.917,12.45V82.4H61.65V79.633Zm23.517,12.45a4.15,4.15,0,0,1-8.3,0v-8.3A1.383,1.383,0,0,0,86.55,82.4H75.483V78.25A1.383,1.383,0,0,0,74.1,76.867H68.567V71.1A4.17,4.17,0,0,0,71.1,68.567h3v4.15A1.383,1.383,0,0,0,75.483,74.1H89.317A1.383,1.383,0,0,0,90.7,72.717V61.65a1.383,1.383,0,0,0-1.383-1.383H75.483A1.383,1.383,0,0,0,74.1,61.65V65.8h-3a4.15,4.15,0,0,0-7.824,0h-3V61.65a1.383,1.383,0,0,0-1.383-1.383H45.05a1.383,1.383,0,0,0-1.383,1.383V72.717A1.383,1.383,0,0,0,45.05,74.1H58.883a1.383,1.383,0,0,0,1.383-1.383v-4.15h3A4.17,4.17,0,0,0,65.8,71.1v5.771H60.267a1.383,1.383,0,0,0-1.383,1.383V82.4H38.133V51.147a12.473,12.473,0,0,0,5.238,2.927l12.381,3.377a1.378,1.378,0,0,0,.364.049H78.25a1.383,1.383,0,0,0,1.383-1.383v-4.15h9.683A1.383,1.383,0,0,0,90.7,50.583v-24.9A1.383,1.383,0,0,0,89.317,24.3H78.25a1.383,1.383,0,0,0-1.383,1.383v29.05H57.173L55.664,49.2H69.95a1.383,1.383,0,0,0,0-2.767H54.91l-.755-2.767h15.8a1.383,1.383,0,0,0,0-2.767H53.1a12.469,12.469,0,0,0-1.958-2.767h4.97a1.383,1.383,0,0,0,0-2.767H50.583a1.383,1.383,0,0,0-1.294.9L38.133,25.11V18.767h58.1ZM76.867,71.333v-8.3H87.933v8.3ZM57.5,63.033v8.3H46.433v-8.3ZM79.633,49.2V27.067h8.3V49.2Z"/>
    <path id="Trazado_1113014" data-name="Trazado 1113014" d="M225.383,66.767h5.533a1.383,1.383,0,1,0,0-2.767h-5.533a1.383,1.383,0,0,0,0,2.767Z" transform="translate(-172.033 -39.7)"/>
    <path id="Trazado_1113015" data-name="Trazado 1113015" d="M209.383,98.767H228.75a1.383,1.383,0,1,0,0-2.767H209.383a1.383,1.383,0,1,0,0,2.767Z" transform="translate(-158.8 -66.167)"/>
    <path id="Trazado_1113016" data-name="Trazado 1113016" d="M289.383,66.767h5.533a1.383,1.383,0,0,0,0-2.767h-5.533a1.383,1.383,0,0,0,0,2.767Z" transform="translate(-224.967 -39.7)"/>
    <path id="Trazado_1113017" data-name="Trazado 1113017" d="M281.683,128h-8.3a1.383,1.383,0,0,0,0,2.767h8.3a1.383,1.383,0,0,0,0-2.767Z" transform="translate(-211.733 -92.633)"/>
  </g>
</svg>
