<svg xmlns="http://www.w3.org/2000/svg" xmlns:xlink="http://www.w3.org/1999/xlink" width="96" height="95" viewBox="0 0 96 95">
  <defs>
    <linearGradient id="linear-gradient" x1="0.5" x2="0.5" y2="1" gradientUnits="objectBoundingBox">
      <stop offset="0" stop-color="#fff"/>
      <stop offset="1" stop-color="#e9e9e9"/>
    </linearGradient>
    <filter id="Elipse_14036" x="0" y="0" width="96" height="95" filterUnits="userSpaceOnUse">
      <feOffset dy="3" input="SourceAlpha"/>
      <feGaussianBlur stdDeviation="3" result="blur"/>
      <feFlood flood-opacity="0.161"/>
      <feComposite operator="in" in2="blur"/>
      <feComposite in="SourceGraphic"/>
    </filter>
  </defs>
  <g id="Grupo_1195772" data-name="Grupo 1195772" transform="translate(5658 10225)">
    <g transform="matrix(1, 0, 0, 1, -5658, -10225)" filter="url(#Elipse_14036)">
      <ellipse id="Elipse_14036-2" data-name="Elipse 14036" cx="39" cy="38.5" rx="39" ry="38.5" transform="translate(9 6)" fill="url(#linear-gradient)"/>
    </g>
    <g id="gestion-de-proyectos_1_" data-name="gestion-de-proyectos (1)" transform="translate(-5634.976 -10202.118)">
      <path id="Trazado_1110984" data-name="Trazado 1110984" d="M43.42,21.71A14.71,14.71,0,1,0,20.773,34.1a4.686,4.686,0,0,1,2.216,3.924v3.3a2.452,2.452,0,0,0,2.452,2.452h6.538a2.452,2.452,0,0,0,2.452-2.452V38.089a4.814,4.814,0,0,1,2.264-4.022A14.7,14.7,0,0,0,43.42,21.71Z" transform="translate(-3.977 -2.711)" fill="#e39d10"/>
      <path id="Trazado_1110985" data-name="Trazado 1110985" d="M27,56.9a2.452,2.452,0,0,0,2.452,2.452h3.269A2.452,2.452,0,0,0,35.172,56.9V52H27Z" transform="translate(-6.354 -10.936)" fill="#ebebeb"/>
      <path id="Trazado_1110986" data-name="Trazado 1110986" d="M51.126,12.334,53.7,10.406,50.754,6.484,48.184,8.411a1.634,1.634,0,0,1-2.6-1.539l.454-3.178L41.186,3l-.454,3.178a1.634,1.634,0,0,1-2.926.75L35.88,4.359,31.958,7.3,33.884,9.87a1.634,1.634,0,0,1-1.539,2.6l-3.178-.454-.694,4.854,3.179.454a1.634,1.634,0,0,1,.749,2.926l-2.569,1.927L32.775,26.1l2.569-1.926a1.634,1.634,0,0,1,2.6,1.539l-.458,3.177,4.854.694L42.8,26.4a1.634,1.634,0,0,1,2.926-.749l1.927,2.569,3.923-2.942-1.928-2.569a1.634,1.634,0,0,1,1.539-2.6l3.178.454.694-4.854-3.178-.454a1.634,1.634,0,0,1-.75-2.925Zm-9.362,9.678a5.721,5.721,0,1,1,5.721-5.721A5.721,5.721,0,0,1,41.764,22.011Z" transform="translate(-6.623 -1.98)" fill="#10bde0"/>
      <path id="Trazado_1110987" data-name="Trazado 1110987" d="M18.714,37.387A14.748,14.748,0,0,1,16.7,35.827a4.08,4.08,0,1,1-3.942-5.107c.125,0,.245.026.364.037A14.7,14.7,0,0,1,11.95,25h-1.04l-.565,2.686a.817.817,0,0,1-1.263.505L6.823,26.634,4.371,29.086l1.553,2.258a.817.817,0,0,1-.505,1.263l-2.682.565v3.269l2.685.565a.817.817,0,0,1,.505,1.263L4.371,40.527l2.452,2.452,2.258-1.553a.817.817,0,0,1,1.264.505l.564,2.682h3.269l.564-2.686a.817.817,0,0,1,1.264-.505l2.258,1.557,2.565-2.565a4.758,4.758,0,0,0-2.115-3.027Z" transform="translate(-1.919 -6.001)" fill="#c9dfff"/>
      <path id="Trazado_1110988" data-name="Trazado 1110988" d="M50.284,14.721,47.1,14.267A.817.817,0,0,1,46.73,12.8L49.3,10.877a.817.817,0,0,0,.163-1.144L46.52,5.811a.817.817,0,0,0-1.144-.163L42.808,7.574a.817.817,0,0,1-1.3-.769l.454-3.179a.817.817,0,0,0-.694-.925l-4.851-.693a.817.817,0,0,0-.925.693L35.035,5.88a.817.817,0,0,1-1.463.375L31.646,3.686A.817.817,0,0,0,30.5,3.522L28.046,5.365a15.811,15.811,0,0,0-3.342,0A15.527,15.527,0,0,0,11.013,19.288c-.022.231-.03.461-.042.691h-.245a.817.817,0,0,0-.8.654l-.565,2.685L7.1,21.758a.817.817,0,0,0-1.042.095L3.607,24.3a.817.817,0,0,0-.095,1.041L5.065,27.6l-2.686.565a.817.817,0,0,0-.642.8v3.269a.817.817,0,0,0,.649.8l2.686.565L3.518,35.86A.817.817,0,0,0,3.613,36.9l2.452,2.452a.817.817,0,0,0,1.042.095l2.258-1.557.565,2.686a.817.817,0,0,0,.8.654H14a.817.817,0,0,0,.8-.649l.565-2.686,2.258,1.553a.817.817,0,0,0,1.041-.095l1.269-1.273v2.329a3.258,3.258,0,0,0,1.634,2.815v4.54a3.269,3.269,0,0,0,3.269,3.269H28.1a3.269,3.269,0,0,0,3.269-3.269v-4.54a3.258,3.258,0,0,0,1.634-2.815V37.175a4,4,0,0,1,1.89-3.336,15.678,15.678,0,0,0,1.924-1.471L35.73,31.15a13.91,13.91,0,0,1-1.722,1.317,5.629,5.629,0,0,0-2.636,4.708v3.235a1.634,1.634,0,0,1-1.634,1.634H23.2a1.634,1.634,0,0,1-1.634-1.634v-3.3a5.5,5.5,0,0,0-2.592-4.612,13.851,13.851,0,0,1,7.32-25.579A.891.891,0,0,0,26.261,7a.817.817,0,0,0,.156.606l1.926,2.569a.8.8,0,0,1,.049.907.812.812,0,0,1-.817.393L24.4,11.025a.817.817,0,0,0-.925.694l-.694,4.853a.817.817,0,0,0,.694.925l3.179.454a.817.817,0,0,1,.375,1.463L24.456,21.34a.817.817,0,0,0-.163,1.144l2.942,3.923a.817.817,0,0,0,1.144.163l2.569-1.926a.817.817,0,0,1,1.3.769l-.454,3.179a.817.817,0,0,0,.693.925l4.854.694a.909.909,0,0,0,.115.007.817.817,0,0,0,.81-.7l.454-3.179a.817.817,0,0,1,1.463-.375l1.927,2.569a.817.817,0,0,0,1.144.163l3.923-2.942a.817.817,0,0,0,.163-1.144l-1.926-2.569a.8.8,0,0,1-.049-.907.794.794,0,0,1,.817-.392l3.179.454a.817.817,0,0,0,.925-.693l.693-4.854a.817.817,0,0,0-.693-.925ZM12.391,27.334A15.476,15.476,0,0,0,15.424,31.7a3.264,3.264,0,1,1-3.065-4.369ZM28.1,49.4H24.834A1.634,1.634,0,0,1,23.2,47.764v-.817h6.538v.817A1.634,1.634,0,0,1,28.1,49.4Zm1.634-5.721v1.634H23.2V43.678Zm-10-7.715-1.753,1.75-1.7-1.17a1.634,1.634,0,0,0-2.527,1.009l-.428,2.041H11.389l-.428-2.037a1.634,1.634,0,0,0-2.527-1.009l-1.7,1.167L5.247,36.227l1.169-1.7A1.634,1.634,0,0,0,5.408,32L3.37,31.574V29.632L5.408,29.2A1.634,1.634,0,0,0,6.417,26.68l-1.17-1.7,1.489-1.486,1.7,1.17a1.634,1.634,0,0,0,2.526-1.01l.143-.68a15.56,15.56,0,0,0,.648,2.771,4.9,4.9,0,1,0,4.942,7.11,15.448,15.448,0,0,0,1.4,1.017,3.989,3.989,0,0,1,1.647,2.091Zm29.042-16.5-2.37-.338a2.452,2.452,0,0,0-2.308,3.9l1.436,1.915L42.921,26.9l-1.437-1.914A2.452,2.452,0,0,0,37.1,26.1l-.331,2.373-3.235-.463.338-2.37a2.452,2.452,0,0,0-3.9-2.309l-1.915,1.436-1.961-2.615,1.914-1.437a2.452,2.452,0,0,0-1.124-4.388l-2.37-.338.463-3.235,2.37.338a2.452,2.452,0,0,0,2.309-3.9L28.215,7.282,30.83,5.321l1.437,1.915a2.452,2.452,0,0,0,4.388-1.124l.338-2.37,3.235.462-.338,2.37a2.452,2.452,0,0,0,3.9,2.308L45.7,7.446l1.961,2.615L45.75,11.5a2.452,2.452,0,0,0,1.124,4.388l2.37.338Z" transform="translate(-1.736 -1.797)"/>
      <path id="Trazado_1110989" data-name="Trazado 1110989" d="M43.274,11.264A6.538,6.538,0,1,0,49.812,17.8,6.538,6.538,0,0,0,43.274,11.264Zm0,11.441a4.9,4.9,0,1,1,4.9-4.9A4.9,4.9,0,0,1,43.274,22.705Z" transform="translate(-8.133 -3.49)"/>
      <path id="Trazado_1110990" data-name="Trazado 1110990" d="M31,46h1.634v2.452H31Z" transform="translate(-7.085 -9.839)"/>
      <path id="Trazado_1110991" data-name="Trazado 1110991" d="M25.865,31.971A9.807,9.807,0,0,1,24.21,14.537l-.874-1.383a11.441,11.441,0,0,0,1.936,20.337,5.217,5.217,0,0,1,3.351,4.871h1.634A6.838,6.838,0,0,0,25.865,31.971Z" transform="translate(-4.707 -3.836)"/>
      <path id="Trazado_1110992" data-name="Trazado 1110992" d="M51,39h5.72v1.634H51Z" transform="translate(-10.74 -8.56)"/>
      <path id="Trazado_1110993" data-name="Trazado 1110993" d="M0,0H1.634V6.383H0Z" transform="matrix(0.64, -0.768, 0.768, 0.64, 38.919, 35.972)"/>
      <path id="Trazado_1110994" data-name="Trazado 1110994" d="M45,47h1.634v5.721H45Z" transform="translate(-9.644 -10.022)"/>
      <path id="Trazado_1110995" data-name="Trazado 1110995" d="M0,0H6.739V1.634H0Z" transform="matrix(0.97, -0.243, 0.243, 0.97, 0.835, 14.12)"/>
      <path id="Trazado_1110996" data-name="Trazado 1110996" d="M0,0H1.634V7.03H0Z" transform="matrix(0.581, -0.814, 0.814, 0.581, 2.192, 5.772)"/>
      <path id="Trazado_1110997" data-name="Trazado 1110997" d="M0,0H1.634V6.748H0Z" transform="matrix(0.969, -0.248, 0.248, 0.969, 9.195, 0.405)"/>
    </g>
  </g>
</svg>
