<svg xmlns="http://www.w3.org/2000/svg" xmlns:xlink="http://www.w3.org/1999/xlink" width="130.113" height="130.788" viewBox="0 0 130.113 130.788">
  <defs>
    <filter id="_52" x="0" y="0" width="130.113" height="130.788" filterUnits="userSpaceOnUse">
      <feOffset dx="3" dy="3" input="SourceAlpha"/>
      <feGaussianBlur stdDeviation="3" result="blur"/>
      <feFlood flood-opacity="0.161"/>
      <feComposite operator="in" in2="blur"/>
      <feComposite in="SourceGraphic"/>
    </filter>
  </defs>
  <g id="Grupo_1195779" data-name="Grupo 1195779" transform="translate(5715.265 9838.523)">
    <g id="Grupo_1195381" data-name="Grupo 1195381" transform="translate(-20222.234 -1733.11)">
      <g transform="matrix(1, 0, 0, 1, 14506.97, -8105.41)" filter="url(#_52)">
        <g id="_52-2" data-name="52" transform="translate(6 6)" fill="#fff" stroke="#fff" stroke-width="3">
          <ellipse cx="56.056" cy="56.394" rx="56.056" ry="56.394" stroke="none"/>
          <ellipse cx="56.056" cy="56.394" rx="54.556" ry="54.894" fill="none"/>
        </g>
      </g>
    </g>
    <g id="papel" transform="translate(-5681.502 -9801.422)">
      <g id="Grupo_1195653" data-name="Grupo 1195653" transform="translate(0.829 14.441)">
        <g id="Grupo_1195650" data-name="Grupo 1195650" transform="translate(0 1.989)">
          <path id="Trazado_1111093" data-name="Trazado 1111093" d="M37.612,149.973l3.615.247a193.5,193.5,0,0,0,41.3-.162c2.011.009,3.655,2.877,3.672,6.71s-1.6,7.181-3.611,7.171a193.6,193.6,0,0,0-41.3-.549l-4.471.437Z" transform="translate(-33.574 -149.829)" fill="#e9f2ff"/>
          <path id="Trazado_1111094" data-name="Trazado 1111094" d="M19.713,149.595c.009,1.964-2.463,12.564-2.463,12.564s-5.719.635-6.462.631c-1.511-.007-3.272-3.033-3.289-6.895s1.456-6.989,3.227-7.089Z" transform="translate(-7.5 -148.791)" fill="#91a8dd"/>
          <g id="Grupo_1195648" data-name="Grupo 1195648" transform="translate(2.665 4.099)">
            <path id="Trazado_1111095" data-name="Trazado 1111095" d="M33.041,185.76c-.609,0-1.686.75-1.37,5.356h5.256S37.022,185.76,33.041,185.76Z" transform="translate(-31.614 -185.76)" fill="#e9f2ff"/>
            <path id="Trazado_1111096" data-name="Trazado 1111096" d="M82.57,195.771c2.018.009,3.64-3.338,3.624-7.171a10.38,10.38,0,0,0-.395-2.84H37.665s2.066,0,1.851,4.34c-.192,3.877-2.033,5.214-2.7,5.559l4.312-.438A194.932,194.932,0,0,1,82.57,195.771Z" transform="translate(-36.238 -185.76)" fill="#b5ceff"/>
          </g>
          <g id="Grupo_1195649" data-name="Grupo 1195649" transform="translate(3.227)">
            <path id="Trazado_1111097" data-name="Trazado 1111097" d="M84.726,148.674a216.819,216.819,0,0,1-43.722.3s-1.657-.16-2.211-.2c-1.417-.092-2.094-.092-2.094-.092s4.741-.168,5.827,6.7H88.4C88.279,151.744,86.674,148.683,84.726,148.674Z" transform="translate(-36.699 -148.674)" fill="#e9f2ff"/>
          </g>
        </g>
        <g id="Grupo_1195652" data-name="Grupo 1195652" transform="translate(16.103)">
          <g id="Grupo_1195651" data-name="Grupo 1195651">
            <path id="Trazado_1111098" data-name="Trazado 1111098" d="M171.42,169.921v-11.9a11.343,11.343,0,0,0,4.5-9.055V132.929a2.25,2.25,0,1,0-4.5,0,2.25,2.25,0,1,0-4.5,0,2.25,2.25,0,0,0-4.5,0,2.25,2.25,0,1,0-4.5,0v12.514s-2.573.079-4.727.166v3.357a11.345,11.345,0,0,0,4.69,9.195v11.759Z" transform="translate(-153.194 -130.679)" fill="#ffba47"/>
          </g>
          <path id="Trazado_1111099" data-name="Trazado 1111099" d="M179.6,402.97h17.132v6.864H179.6Z" transform="translate(-176.682 -372.875)" fill="#e9f2ff"/>
          <path id="Trazado_1111100" data-name="Trazado 1111100" d="M284.6,402.97h5.526v5.968H284.6Z" transform="translate(-270.077 -372.875)" fill="#deebff"/>
          <path id="Trazado_1111101" data-name="Trazado 1111101" d="M179.6,456.97h17.132v5.25H179.6Z" transform="translate(-176.682 -420.906)" fill="#f55745"/>
          <path id="Trazado_1111102" data-name="Trazado 1111102" d="M284.6,456.97h5.526v5.25H284.6Z" transform="translate(-270.077 -420.906)" fill="#d94e3e"/>
        </g>
      </g>
      <g id="Grupo_1195654" data-name="Grupo 1195654" transform="translate(0 0)">
        <path id="Trazado_1111103" data-name="Trazado 1111103" d="M55.337,127.634c-.619-1.149-1.866-2.6-3.344-2.434-3.681.409-7.55.721-11.509.934a3.084,3.084,0,0,0-5.325-1.948,3.09,3.09,0,0,0-4.5,0,3.09,3.09,0,0,0-4.5,0,3.089,3.089,0,0,0-5.328,2.145c-4.239-.146-8.445-.52-12.671-.848a27.972,27.972,0,0,0-4.218-.264c-2.271.192-3.961,3.571-3.942,7.913.008,1.923,1.049,8.378,4.288,7.7,3.935-.384,7.866-.761,11.815-.977v2.466a12.238,12.238,0,0,0,4.69,9.608V153.3h-.942a.829.829,0,0,0-.829.829v11.218a.829.829,0,0,0,1.658,0v-4.421h9.965a.829.829,0,1,0,0-1.658H20.681v-4.311H36.155v4.311H34.817a.829.829,0,1,0,0,1.658h1.337v4.421a.829.829,0,0,0,1.658,0V154.13a.829.829,0,0,0-.829-.829h-1V151.78a12.1,12.1,0,0,0,4.5-9.457v-2.256c3.083.222,6.191.521,9.255.89,2.973.028,4.356-4.228,4.519-7.368h1.5a.829.829,0,0,0,.829-.857A11.838,11.838,0,0,0,55.337,127.634ZM1.659,133.123c-.016-3.751,1.383-6.148,2.412-6.253a4.8,4.8,0,0,1,3.765,2.424H4.922c-2.635,0-2.306,4.6-2.2,6.189a.829.829,0,0,0,.827.772H5.69a4.65,4.65,0,0,1-1.766,2.891c-.811-.34-2.249-2.559-2.264-6.022Zm3.259-2.165c1.214.34,1.072,2.768,1.016,3.639h-1.6C4.225,131.574,4.827,131.023,4.918,130.958Zm3.542,7.8-2.133.208a9.19,9.19,0,0,0,.766-8.017H8.6a11.847,11.847,0,0,1,.466,1.937.829.829,0,0,0,.819.7H13.5a.829.829,0,0,0,0-1.658h-2.92a9.486,9.486,0,0,0-2.309-4.78l.026,0c3.949.406,8.166.687,12.539.837v3.941H17.576a.829.829,0,0,0,0,1.658h3.256V138c-4.131.135-8.254.378-12.371.765Zm30.37,3.562a10.46,10.46,0,0,1-4.172,8.394.829.829,0,0,0-.328.66V153.3H22.452v-1.784a.829.829,0,0,0-.342-.67,10.574,10.574,0,0,1-4.348-8.524v-2.55q1.534-.071,3.07-.117v1.962a.829.829,0,0,0,1.658,0V126.284a1.421,1.421,0,0,1,2.842.007s0,9.04,0,9.044a.829.829,0,0,0,1.658,0s0-9.042,0-9.044a1.421,1.421,0,0,1,2.842,0s0,9.04,0,9.044a.829.829,0,0,0,1.658,0s0-9.042,0-9.044a1.421,1.421,0,0,1,2.842,0s0,9.04,0,9.044a.829.829,0,0,0,1.658,0s0-9.042,0-9.044a1.421,1.421,0,0,1,2.842-.007s0,16.038,0,16.038ZM50.8,138.816a1.427,1.427,0,0,1-.914.488c-3.111-.374-6.269-.676-9.4-.9v-4.816H52.6A8.722,8.722,0,0,1,50.8,138.816Zm2.654-6.886H40.488v-4.137c4-.213,7.911-.528,11.633-.94,1.139.053,2.449,2.086,2.754,5.077Z" transform="translate(-0.002 -109.594)"/>
        <path id="Trazado_1111104" data-name="Trazado 1111104" d="M386.656,39.276a.829.829,0,0,0,.829-.829V37.028a.829.829,0,0,0-1.658,0v1.419A.829.829,0,0,0,386.656,39.276Z" transform="translate(-343.183 -32.206)"/>
        <path id="Trazado_1111105" data-name="Trazado 1111105" d="M386.656,99.231a.829.829,0,0,0,.829-.829v-1.42a.829.829,0,0,0-1.658,0V98.4A.829.829,0,0,0,386.656,99.231Z" transform="translate(-343.183 -85.534)"/>
        <path id="Trazado_1111106" data-name="Trazado 1111106" d="M410.261,74.207h1.419a.829.829,0,0,0,0-1.658h-1.419A.829.829,0,0,0,410.261,74.207Z" transform="translate(-364.184 -64.533)"/>
        <path id="Trazado_1111107" data-name="Trazado 1111107" d="M350.306,74.207h1.42a.829.829,0,0,0,0-1.658h-1.42A.829.829,0,0,0,350.306,74.207Z" transform="translate(-310.856 -64.533)"/>
        <path id="Trazado_1111108" data-name="Trazado 1111108" d="M82.024,334.072a.829.829,0,0,0-.829.829v1.419a.829.829,0,0,0,1.658,0V334.9A.829.829,0,0,0,82.024,334.072Z" transform="translate(-72.221 -297.151)"/>
        <path id="Trazado_1111109" data-name="Trazado 1111109" d="M82.024,394.027a.829.829,0,0,0-.829.829v1.419a.829.829,0,0,0,1.658,0v-1.419A.829.829,0,0,0,82.024,394.027Z" transform="translate(-72.221 -350.479)"/>
        <path id="Trazado_1111110" data-name="Trazado 1111110" d="M107.048,370.47h-1.419a.829.829,0,0,0,0,1.658h1.419A.829.829,0,0,0,107.048,370.47Z" transform="translate(-93.222 -329.526)"/>
        <path id="Trazado_1111111" data-name="Trazado 1111111" d="M47.093,370.47H45.674a.829.829,0,0,0,0,1.658h1.419A.829.829,0,0,0,47.093,370.47Z" transform="translate(-39.894 -329.526)"/>
        <path id="Trazado_1111112" data-name="Trazado 1111112" d="M165.3,3.1a.829.829,0,0,0,.829-.829V.848a.829.829,0,0,0-1.658,0V2.267A.829.829,0,0,0,165.3,3.1Z" transform="translate(-146.29 -0.025)"/>
        <path id="Trazado_1111113" data-name="Trazado 1111113" d="M165.3,63.052a.829.829,0,0,0,.829-.829V60.8a.829.829,0,0,0-1.658,0v1.419A.829.829,0,0,0,165.3,63.052Z" transform="translate(-146.29 -53.354)"/>
        <path id="Trazado_1111114" data-name="Trazado 1111114" d="M188.9,38.027h1.419a.829.829,0,0,0,0-1.658H188.9A.829.829,0,0,0,188.9,38.027Z" transform="translate(-167.292 -32.352)"/>
        <path id="Trazado_1111115" data-name="Trazado 1111115" d="M128.947,38.027h1.42a.829.829,0,0,0,0-1.658h-1.42A.829.829,0,0,0,128.947,38.027Z" transform="translate(-113.963 -32.352)"/>
        <path id="Trazado_1111116" data-name="Trazado 1111116" d="M416.634,387.072a.829.829,0,0,0-.829.829v1.419a.829.829,0,0,0,1.658,0V387.9A.829.829,0,0,0,416.634,387.072Z" transform="translate(-369.848 -344.293)"/>
        <path id="Trazado_1111117" data-name="Trazado 1111117" d="M416.634,447.027a.829.829,0,0,0-.829.829v1.419a.829.829,0,0,0,1.658,0v-1.419A.829.829,0,0,0,416.634,447.027Z" transform="translate(-369.848 -397.621)"/>
        <path id="Trazado_1111118" data-name="Trazado 1111118" d="M441.658,423.47h-1.419a.829.829,0,0,0,0,1.658h1.419A.829.829,0,0,0,441.658,423.47Z" transform="translate(-390.849 -376.668)"/>
        <path id="Trazado_1111119" data-name="Trazado 1111119" d="M381.7,423.47h-1.419a.829.829,0,0,0,0,1.658H381.7A.829.829,0,0,0,381.7,423.47Z" transform="translate(-337.52 -376.668)"/>
      </g>
    </g>
  </g>
</svg>
