<svg xmlns="http://www.w3.org/2000/svg" xmlns:xlink="http://www.w3.org/1999/xlink" width="130.113" height="130.788" viewBox="0 0 130.113 130.788">
  <defs>
    <filter id="_52" x="0" y="0" width="130.113" height="130.788" filterUnits="userSpaceOnUse">
      <feOffset dx="3" dy="3" input="SourceAlpha"/>
      <feGaussianBlur stdDeviation="3" result="blur"/>
      <feFlood flood-opacity="0.161"/>
      <feComposite operator="in" in2="blur"/>
      <feComposite in="SourceGraphic"/>
    </filter>
  </defs>
  <g id="Grupo_1195776" data-name="Grupo 1195776" transform="translate(5293.507 9835.523)">
    <g transform="matrix(1, 0, 0, 1, -5293.51, -9835.52)" filter="url(#_52)">
      <g id="_52-2" data-name="52" transform="translate(6 6)" fill="#fff" stroke="#fff" stroke-width="3">
        <ellipse cx="56.056" cy="56.394" rx="56.056" ry="56.394" stroke="none"/>
        <ellipse cx="56.056" cy="56.394" rx="54.556" ry="54.894" fill="none"/>
      </g>
    </g>
    <g id="concepto" transform="translate(-5249.925 -9797.394)">
      <path id="Trazado_1111206" data-name="Trazado 1111206" d="M119.273,448.337h-6.808a2.969,2.969,0,0,1-2.969-2.969v-4.009h12.746v4.009A2.969,2.969,0,0,1,119.273,448.337Zm0,0" transform="translate(-97.395 -392.583)" fill="#426175"/>
      <path id="Trazado_1111207" data-name="Trazado 1111207" d="M109.684,360.49h-12.7a1.582,1.582,0,0,1-1.582-1.582V348.1a1.582,1.582,0,0,1,1.582-1.582h12.7a1.582,1.582,0,0,1,1.582,1.582v10.806A1.582,1.582,0,0,1,109.684,360.49Zm0,0" transform="translate(-84.862 -308.224)" fill="#cdd6df"/>
      <path id="Trazado_1111208" data-name="Trazado 1111208" d="M189.561,346.52h-4.354v13.97h4.354a1.582,1.582,0,0,0,1.582-1.582V348.1A1.582,1.582,0,0,0,189.561,346.52Zm0,0" transform="translate(-164.738 -308.224)" fill="#abb2ba"/>
      <path id="Trazado_1111209" data-name="Trazado 1111209" d="M42.791,25.145a17.645,17.645,0,0,0-35.291,0,18.676,18.676,0,0,0,3.066,10.182c2.681,4.109,4.607,7.295,5.032,11.8a2.126,2.126,0,0,0,2.112,1.932h14.87a2.126,2.126,0,0,0,2.112-1.932c.425-4.5,2.351-7.689,5.033-11.8a18.679,18.679,0,0,0,3.065-10.182Zm0,0" transform="translate(-6.671 -6.671)" fill="#fed066"/>
      <path id="Trazado_1111210" data-name="Trazado 1111210" d="M143.273,7.5a17.752,17.752,0,0,0-2.968.25,17.649,17.649,0,0,1,14.677,17.4,18.676,18.676,0,0,1-3.066,10.182C148.868,40,146.8,43.478,146.8,49.057h3.912a2.126,2.126,0,0,0,2.112-1.932c.425-4.5,2.351-7.689,5.033-11.8a18.679,18.679,0,0,0,3.065-10.182A17.645,17.645,0,0,0,143.273,7.5Zm0,0" transform="translate(-124.799 -6.671)" fill="#f5b556"/>
      <path id="Trazado_1111211" data-name="Trazado 1111211" d="M87.946,95.011h-.718a1.073,1.073,0,0,1-1.029-.758,8.672,8.672,0,0,0-.688-1.64,1.075,1.075,0,0,1,.186-1.275l.515-.515a1.078,1.078,0,0,0,0-1.525l-.869-.869a1.078,1.078,0,0,0-1.525,0l-.515.515a1.075,1.075,0,0,1-1.275.186,8.686,8.686,0,0,0-1.641-.688,1.073,1.073,0,0,1-.758-1.029V86.7a1.078,1.078,0,0,0-1.078-1.078H77.323A1.078,1.078,0,0,0,76.245,86.7v.671A1.074,1.074,0,0,1,75.47,88.4a8.639,8.639,0,0,0-1.693.681,1.074,1.074,0,0,1-1.261-.193l-.459-.459a1.078,1.078,0,0,0-1.525,0l-.869.869a1.078,1.078,0,0,0,0,1.525l.412.412a1.074,1.074,0,0,1,.181,1.284,8.637,8.637,0,0,0-.74,1.733,1.079,1.079,0,0,1-1.035.758H67.93a1.078,1.078,0,0,0-1.078,1.078v1.229A1.078,1.078,0,0,0,67.93,98.4h.51a1.074,1.074,0,0,1,1.036.774,8.66,8.66,0,0,0,.732,1.789,1.072,1.072,0,0,1-.188,1.27l-.355.355a1.077,1.077,0,0,0,0,1.524l.869.869a1.078,1.078,0,0,0,1.525,0l.355-.355a1.073,1.073,0,0,1,1.27-.189,8.643,8.643,0,0,0,1.789.733,1.073,1.073,0,0,1,.773,1.036v.51a1.078,1.078,0,0,0,1.078,1.078h1.229a1.078,1.078,0,0,0,1.078-1.078v-.553a1.078,1.078,0,0,1,.759-1.035,8.686,8.686,0,0,0,1.733-.74,1.074,1.074,0,0,1,1.284.18l.412.412a1.078,1.078,0,0,0,1.525,0l.869-.869a1.078,1.078,0,0,0,0-1.524l-.459-.459a1.074,1.074,0,0,1-.193-1.261,8.648,8.648,0,0,0,.681-1.692,1.073,1.073,0,0,1,1.034-.775h.671a1.078,1.078,0,0,0,1.078-1.078V96.09A1.078,1.078,0,0,0,87.946,95.011Zm-10.008,6.909A5.217,5.217,0,1,1,83.154,96.7,5.217,5.217,0,0,1,77.938,101.921Zm0,0" transform="translate(-59.463 -76.155)" fill="#f2f2f2"/>
      <path id="Trazado_1111212" data-name="Trazado 1111212" d="M33.438,7.639a.829.829,0,1,0-1.342.973,16.694,16.694,0,0,1,3.194,9.863,17.784,17.784,0,0,1-2.931,9.73c-2.835,4.345-4.726,7.54-5.164,12.173a1.3,1.3,0,0,1-.936,1.133.761.761,0,0,0-.1.024,1.315,1.315,0,0,1-.253.025H11.038a1.323,1.323,0,0,1-.253-.025.819.819,0,0,0-.1-.024,1.3,1.3,0,0,1-.935-1.133C9.314,35.743,7.423,32.549,4.588,28.2a17.78,17.78,0,0,1-2.931-9.73,16.817,16.817,0,0,1,28.3-12.287.829.829,0,0,0,1.132-1.211A18.475,18.475,0,0,0,0,18.474,19.433,19.433,0,0,0,3.2,29.11c2.7,4.138,4.5,7.169,4.9,11.423A2.951,2.951,0,0,0,9.714,42.9v7.779a2.415,2.415,0,0,0,1.56,2.256,3.8,3.8,0,0,0,3.8,3.644h6.808a3.8,3.8,0,0,0,3.8-3.644,2.415,2.415,0,0,0,1.56-2.256V42.9a2.949,2.949,0,0,0,1.613-2.372c.4-4.254,2.2-7.285,4.9-11.423a19.436,19.436,0,0,0,3.2-10.636,18.336,18.336,0,0,0-3.51-10.836Zm-16.872,38.8h9.01v1.512h-14.2V46.436H13.25a.829.829,0,1,0,0-1.658H11.372V43.216h14.2v1.562H16.566a.829.829,0,0,0,0,1.658Zm8.3,5H12.084a.754.754,0,0,1-.713-.752V49.606h14.2v1.078a.755.755,0,0,1-.713.752Zm-2.984,3.49H15.07a2.144,2.144,0,0,1-2.118-1.831H24a2.144,2.144,0,0,1-2.118,1.831Zm0,0" transform="translate(0.001 0)"/>
      <path id="Trazado_1111213" data-name="Trazado 1111213" d="M80.363,92.727a.245.245,0,0,1,.237-.173h.671a1.909,1.909,0,0,0,1.907-1.907V89.419a1.909,1.909,0,0,0-1.907-1.907h-.718a.246.246,0,0,1-.236-.169,9.519,9.519,0,0,0-.754-1.8.248.248,0,0,1,.044-.291l.515-.515a1.907,1.907,0,0,0,0-2.7l-.869-.869a1.908,1.908,0,0,0-2.7,0l-.515.515a.247.247,0,0,1-.291.044,9.512,9.512,0,0,0-1.8-.754.246.246,0,0,1-.169-.236v-.718a1.909,1.909,0,0,0-1.907-1.907H70.649a1.909,1.909,0,0,0-1.907,1.907V80.7a.245.245,0,0,1-.173.237,9.5,9.5,0,0,0-1.855.746.246.246,0,0,1-.286-.047l-.459-.459a1.907,1.907,0,0,0-2.7,0l-.869.869a1.907,1.907,0,0,0,0,2.7l.412.412a.245.245,0,0,1,.044.292,9.516,9.516,0,0,0-.81,1.9.25.25,0,0,1-.242.171h-.553a1.909,1.909,0,0,0-1.907,1.907v1.229a1.909,1.909,0,0,0,1.907,1.907h.509a.244.244,0,0,1,.238.171,9.5,9.5,0,0,0,.8,1.96.245.245,0,0,1-.047.287l-.355.355a1.907,1.907,0,0,0,0,2.7l.869.869a1.907,1.907,0,0,0,2.7,0l.355-.355a.243.243,0,0,1,.287-.047,9.5,9.5,0,0,0,1.96.8.244.244,0,0,1,.171.238v.51a1.909,1.909,0,0,0,1.907,1.907h1.229a1.909,1.909,0,0,0,1.907-1.907v-.553a.25.25,0,0,1,.171-.242,9.506,9.506,0,0,0,1.9-.81.247.247,0,0,1,.292.044l.412.412a1.907,1.907,0,0,0,2.7,0l.869-.869a1.907,1.907,0,0,0,0-2.7l-.459-.459a.246.246,0,0,1-.047-.286,9.469,9.469,0,0,0,.746-1.855Zm-1.595-.453a7.862,7.862,0,0,1-.616,1.531,1.891,1.891,0,0,0,.339,2.235l.459.459a.249.249,0,0,1,0,.352l-.869.869a.249.249,0,0,1-.352,0l-.412-.412a1.908,1.908,0,0,0-2.277-.317,7.849,7.849,0,0,1-1.567.669,1.919,1.919,0,0,0-1.347,1.828v.553a.249.249,0,0,1-.249.249H70.649a.249.249,0,0,1-.249-.249v-.51A1.909,1.909,0,0,0,69.024,97.7a7.841,7.841,0,0,1-1.618-.662,1.873,1.873,0,0,0-.9-.229,1.915,1.915,0,0,0-1.353.558l-.355.355a.249.249,0,0,1-.352,0l-.869-.869a.249.249,0,0,1,0-.352l.355-.355a1.91,1.91,0,0,0,.33-2.254,7.843,7.843,0,0,1-.663-1.618A1.909,1.909,0,0,0,61.764,90.9h-.51a.249.249,0,0,1-.249-.249V89.418a.249.249,0,0,1,.249-.249h.553a1.919,1.919,0,0,0,1.828-1.347,7.833,7.833,0,0,1,.669-1.567,1.909,1.909,0,0,0-.317-2.277l-.412-.412a.249.249,0,0,1,0-.352l.869-.869a.25.25,0,0,1,.352,0l.459.459a1.891,1.891,0,0,0,2.236.339,7.845,7.845,0,0,1,1.53-.616A1.909,1.909,0,0,0,70.4,80.7v-.671a.25.25,0,0,1,.25-.249h1.229a.249.249,0,0,1,.249.249v.718a1.891,1.891,0,0,0,1.346,1.823,7.855,7.855,0,0,1,1.484.622,1.914,1.914,0,0,0,2.258-.327l.515-.515a.249.249,0,0,1,.352,0l.869.869a.249.249,0,0,1,0,.352l-.515.515a1.915,1.915,0,0,0-.327,2.258,7.855,7.855,0,0,1,.623,1.484,1.89,1.89,0,0,0,1.822,1.346h.718a.25.25,0,0,1,.249.25v1.229a.249.249,0,0,1-.249.249H80.6a1.91,1.91,0,0,0-1.832,1.378Zm0,0" transform="translate(-52.789 -69.485)"/>
      <path id="Trazado_1111214" data-name="Trazado 1111214" d="M118.506,131.23a6.046,6.046,0,1,0,6.046,6.046A6.052,6.052,0,0,0,118.506,131.23Zm0,10.434a4.388,4.388,0,1,1,4.388-4.388A4.393,4.393,0,0,1,118.506,141.664Zm0,0" transform="translate(-100.032 -116.727)"/>
    </g>
  </g>
</svg>
