<svg xmlns="http://www.w3.org/2000/svg" xmlns:xlink="http://www.w3.org/1999/xlink" width="130.113" height="130.788" viewBox="0 0 130.113 130.788">
  <defs>
    <filter id="_52" x="0.001" y="0" width="130.113" height="130.788" filterUnits="userSpaceOnUse">
      <feOffset dx="3" dy="3" input="SourceAlpha"/>
      <feGaussianBlur stdDeviation="3" result="blur"/>
      <feFlood flood-opacity="0.161"/>
      <feComposite operator="in" in2="blur"/>
      <feComposite in="SourceGraphic"/>
    </filter>
  </defs>
  <g id="Grupo_1196048" data-name="Grupo 1196048" transform="translate(2019.664 7551.602)">
    <g id="Grupo_1196044" data-name="Grupo 1196044" transform="translate(-16526.633 553.812)">
      <g transform="matrix(1, 0, 0, 1, 14506.97, -8105.41)" filter="url(#_52)">
        <g id="_52-2" data-name="52" transform="translate(6 6)" fill="#fff" stroke="#fff" stroke-width="3">
          <ellipse cx="56.056" cy="56.394" rx="56.056" ry="56.394" stroke="none"/>
          <ellipse cx="56.056" cy="56.394" rx="54.556" ry="54.894" fill="none"/>
        </g>
      </g>
    </g>
    <g id="gestion-de-proyectos_5_" data-name="gestion-de-proyectos (5)" transform="translate(-1991.64 -7517.207)">
      <g id="Grupo_1196032" data-name="Grupo 1196032" transform="translate(0.987 1.002)">
        <path id="Trazado_1113143" data-name="Trazado 1113143" d="M86.641,9.878,66.048,46.341a4.677,4.677,0,0,0,4.072,6.977h41.187a4.677,4.677,0,0,0,4.072-6.977L94.786,9.878a4.677,4.677,0,0,0-8.144,0Z" transform="translate(-57.853 -7.501)" fill="#f9f8f9"/>
        <ellipse id="Elipse_14055" data-name="Elipse 14055" cx="13.591" cy="13.591" rx="13.591" ry="13.591" transform="translate(19.476 15.499)" fill="#e8e8e8"/>
        <g id="Grupo_1196029" data-name="Grupo 1196029" transform="translate(50.078 6.068)">
          <path id="Trazado_1113144" data-name="Trazado 1113144" d="M401.536,61.275a8.009,8.009,0,0,0-6.949-7.938,6.473,6.473,0,0,0-.936.034,7.756,7.756,0,0,0-7.813,7.9,7.6,7.6,0,0,0,7.69,7.84,8.643,8.643,0,0,0,.924.114A8.009,8.009,0,0,0,401.536,61.275Z" transform="translate(-385.52 -53.267)" fill="#7dc3ee"/>
          <path id="Trazado_1113145" data-name="Trazado 1113145" d="M392.6,68.846a8.007,8.007,0,1,1,0-15.854,8.008,8.008,0,0,0,0,15.854Z" transform="translate(-383.455 -52.911)" fill="#64acdc"/>
        </g>
        <g id="Grupo_1196030" data-name="Grupo 1196030" transform="translate(0 6.068)">
          <path id="Trazado_1113146" data-name="Trazado 1113146" d="M26.767,61.275a8.009,8.009,0,0,0-6.949-7.938,6.473,6.473,0,0,0-.936.034,7.756,7.756,0,0,0-7.813,7.9,7.6,7.6,0,0,0,7.69,7.84,8.643,8.643,0,0,0,.924.114A8.009,8.009,0,0,0,26.767,61.275Z" transform="translate(-10.751 -53.267)" fill="#ffe07d"/>
          <path id="Trazado_1113147" data-name="Trazado 1113147" d="M17.83,68.846a8.007,8.007,0,1,1,0-15.854,8.008,8.008,0,0,0,0,15.854Z" transform="translate(-8.686 -52.911)" fill="#ffd064"/>
        </g>
        <g id="Grupo_1196031" data-name="Grupo 1196031" transform="translate(25.054 50.396)">
          <path id="Trazado_1113148" data-name="Trazado 1113148" d="M214.267,393.013a8.009,8.009,0,0,0-6.949-7.938,6.471,6.471,0,0,0-.936.034,7.756,7.756,0,0,0-7.813,7.9,7.6,7.6,0,0,0,7.69,7.84,8.641,8.641,0,0,0,.924.114A8.009,8.009,0,0,0,214.267,393.013Z" transform="translate(-198.251 -385.005)" fill="#ff7d91"/>
          <path id="Trazado_1113149" data-name="Trazado 1113149" d="M205.33,400.584a8.007,8.007,0,1,1,0-15.854,8.008,8.008,0,0,0,0,15.854Z" transform="translate(-196.186 -384.649)" fill="#e15f78"/>
        </g>
        <path id="Trazado_1113150" data-name="Trazado 1113150" d="M194.53,149.439a11.727,11.727,0,0,0-10.65-11.677c-.354-.032-.773.045-1.135.045A11.1,11.1,0,0,0,171.5,149.259c0,6.476,4.831,11.782,11.307,11.782.334,0,.665.11.992.082a11.726,11.726,0,0,0,10.733-11.684Z" transform="translate(-149.742 -120.349)" fill="#afefa5"/>
        <path id="Trazado_1113151" data-name="Trazado 1113151" d="M180.09,160.9a11.725,11.725,0,1,1,1.336-23.375,11.726,11.726,0,0,0-10.389,11.649A11.845,11.845,0,0,0,181.1,160.859S180.542,160.9,180.09,160.9Z" transform="translate(-147.028 -120.087)" fill="#8ce1a4"/>
      </g>
      <g id="Grupo_1196033" data-name="Grupo 1196033" transform="translate(0 0)">
        <path id="Trazado_1113152" data-name="Trazado 1113152" d="M234.279,62.688h-4.821a1,1,0,1,0,0,2h4.821a1,1,0,1,0,0-2Z" transform="translate(-198.102 -54.311)"/>
        <path id="Trazado_1113153" data-name="Trazado 1113153" d="M216.134,94.461a1,1,0,0,0,1,1h8.114a1,1,0,1,0,0-2h-8.114A1,1,0,0,0,216.134,94.461Z" transform="translate(-187.427 -80.971)"/>
        <path id="Trazado_1113154" data-name="Trazado 1113154" d="M113.763,271.3a1,1,0,0,0,0-2h-3.909a1,1,0,0,0,0,2Z" transform="translate(-94.481 -233.315)"/>
        <path id="Trazado_1113155" data-name="Trazado 1113155" d="M98.862,301.074a1,1,0,0,0,1,1h6.579a1,1,0,0,0,0-2H99.864A1,1,0,0,0,98.862,301.074Z" transform="translate(-85.826 -259.975)"/>
        <path id="Trazado_1113156" data-name="Trazado 1113156" d="M361.847,271.3a1,1,0,1,0,0-2h-3.909a1,1,0,1,0,0,2Z" transform="translate(-309.415 -233.315)"/>
        <path id="Trazado_1113157" data-name="Trazado 1113157" d="M346.947,301.074a1,1,0,0,0,1,1h6.579a1,1,0,0,0,0-2h-6.579A1,1,0,0,0,346.947,301.074Z" transform="translate(-300.761 -259.975)"/>
        <path id="Trazado_1113158" data-name="Trazado 1113158" d="M228.3,231.349h-7.189a1,1,0,0,0,0,2H228.3a1,1,0,0,0,0-2Z" transform="translate(-190.872 -200.435)"/>
        <path id="Trazado_1113159" data-name="Trazado 1113159" d="M203.248,201.58a1,1,0,0,0,1,1h11.695a1,1,0,1,0,0-2H204.25A1,1,0,0,0,203.248,201.58Z" transform="translate(-176.263 -173.776)"/>
        <path id="Trazado_1113160" data-name="Trazado 1113160" d="M60.359,24.087a9.018,9.018,0,1,0-8.179-5.237l-2.3,1.4-9.8-17.359A5.614,5.614,0,0,0,35.133,0h0a5.614,5.614,0,0,0-4.945,2.886l-9.7,17.177-2-1.213a9.038,9.038,0,1,0-1.039,1.714l2.05,1.245L9.6,39.349a5.679,5.679,0,0,0,4.945,8.472h3.791a1,1,0,0,0,0-2H14.54a3.675,3.675,0,0,1-3.2-5.482L21.216,22.85l2.7,1.636A12.724,12.724,0,0,0,34.333,42.78v3.037H23.005a1,1,0,0,0,0,2H34.333v2.623a9.023,9.023,0,0,0-8.079,8.962,9.119,9.119,0,0,0,.051.964,1,1,0,1,0,1.993-.212,7.111,7.111,0,0,1-.04-.752,7,7,0,1,1,1.617,4.477,1,1,0,1,0-1.541,1.282,9.009,9.009,0,1,0,8-14.7V47.821H55.727a5.679,5.679,0,0,0,4.945-8.472l-3.282-5.812a1,1,0,0,0-1.745.986l3.282,5.812a3.675,3.675,0,0,1-3.2,5.482H36.338V42.78a12.732,12.732,0,0,0,10.426-18.3l2.391-1.451,4.208,7.451a1,1,0,0,0,1.745-.986l-4.239-7.506,2.352-1.428a9,9,0,0,0,7.139,3.523Zm-50.048-2a7.005,7.005,0,1,1,7.005-7.005A7.013,7.013,0,0,1,10.312,22.083Zm35.431.676A12.741,12.741,0,0,0,41.3,18.845a1,1,0,1,0-.941,1.77,10.727,10.727,0,1,1-5.024-1.247c.319,0,.64.014.956.042a1,1,0,1,0,.176-2c-.374-.033-.755-.05-1.132-.05a12.721,12.721,0,0,0-10.4,5.4L22.2,21.1,31.934,3.872a3.675,3.675,0,0,1,6.4,0l9.835,17.414ZM60.359,8.072a7.005,7.005,0,1,1-7.005,7.005,7.013,7.013,0,0,1,7.005-7.005Z" transform="translate(-1.302 0)"/>
        <path id="Trazado_1113161" data-name="Trazado 1113161" d="M46.981,120H41.5a1,1,0,0,0,0,2h5.479a1,1,0,1,0,0-2Z" transform="translate(-35.262 -103.965)"/>
        <path id="Trazado_1113162" data-name="Trazado 1113162" d="M52,92h2.672a1,1,0,1,0,0-2H52a1,1,0,1,0,0,2Z" transform="translate(-44.359 -77.974)"/>
        <path id="Trazado_1113163" data-name="Trazado 1113163" d="M416.5,122h5.479a1,1,0,1,0,0-2H416.5a1,1,0,1,0,0,2Z" transform="translate(-360.153 -103.965)"/>
        <path id="Trazado_1113164" data-name="Trazado 1113164" d="M427,92h2.672a1,1,0,1,0,0-2H427a1,1,0,0,0,0,2Z" transform="translate(-369.25 -77.974)"/>
        <path id="Trazado_1113165" data-name="Trazado 1113165" d="M227.5,453a1,1,0,0,0,1,1h5.479a1,1,0,1,0,0-2H228.5A1,1,0,0,0,227.5,453Z" transform="translate(-197.275 -391.602)"/>
        <path id="Trazado_1113166" data-name="Trazado 1113166" d="M241.675,424a1,1,0,0,0,0-2H239a1,1,0,1,0,0,2Z" transform="translate(-206.372 -365.611)"/>
      </g>
    </g>
  </g>
</svg>
