<svg id="protesta" xmlns="http://www.w3.org/2000/svg" width="73.667" height="73.667" viewBox="0 0 73.667 73.667">
  <g id="Grupo_1196020" data-name="Grupo 1196020" transform="translate(1.188 1.188)">
    <g id="Grupo_1195996" data-name="Grupo 1195996" transform="translate(29.704 61.785)">
      <path id="Trazado_1113018" data-name="Trazado 1113018" d="M37.882,58.941v3.565H26V58.941a5.941,5.941,0,1,1,11.882,0Z" transform="translate(-26 -53)" fill="#b4dd7f"/>
    </g>
    <g id="Grupo_1195997" data-name="Grupo 1195997" transform="translate(54.656 61.785)">
      <path id="Trazado_1113019" data-name="Trazado 1113019" d="M58.68,57.408a5.891,5.891,0,0,1,.2,1.533v3.565H47V58.941a5.892,5.892,0,0,1,.2-1.533,5.949,5.949,0,0,1,9.945-2.673A6.033,6.033,0,0,1,58.68,57.408Z" transform="translate(-47 -53)" fill="#ff826e"/>
    </g>
    <g id="Grupo_1195998" data-name="Grupo 1195998" transform="translate(5.941 61.785)">
      <path id="Trazado_1113020" data-name="Trazado 1113020" d="M17.882,58.941v3.565H6V58.941a5.941,5.941,0,1,1,11.882,0Z" transform="translate(-6 -53)" fill="#75b1f2"/>
    </g>
    <g id="Grupo_1195999" data-name="Grupo 1195999" transform="translate(26.14 42.774)">
      <path id="Trazado_1113021" data-name="Trazado 1113021" d="M26.565,46.505v1.188H25.376a2.335,2.335,0,0,0-1.556.582A7.859,7.859,0,0,1,23,44.794,7.807,7.807,0,0,1,30.794,37h3.422a7.8,7.8,0,0,1,6.975,11.276,2.335,2.335,0,0,0-1.557-.582H38.446V46.505H36.795a14.19,14.19,0,0,1-7.854-2.376,2.394,2.394,0,0,0-2.376,2.376Z" transform="translate(-23 -37)" fill="#656d78"/>
    </g>
    <g id="Grupo_1196000" data-name="Grupo 1196000" transform="translate(49.903 42.774)">
      <path id="Trazado_1113022" data-name="Trazado 1113022" d="M53.694,56.011a5.956,5.956,0,0,0-5.739,4.408A7.124,7.124,0,0,1,43,53.634V47.694a10.694,10.694,0,1,1,21.387,0v5.941a7.124,7.124,0,0,1-4.955,6.784A6.033,6.033,0,0,0,57.9,57.745a5.967,5.967,0,0,0-4.206-1.735h1.188a4.751,4.751,0,0,0,4.753-4.753V45.317h-.2a8.121,8.121,0,0,1-5.739-2.376,8.121,8.121,0,0,1-5.739,2.376h-.2v5.941a4.751,4.751,0,0,0,4.753,4.753Z" transform="translate(-43 -37)" fill="#fcd770"/>
    </g>
    <g id="Grupo_1196001" data-name="Grupo 1196001" transform="translate(2.376 42.774)">
      <path id="Trazado_1113023" data-name="Trazado 1113023" d="M3.82,48.276A7.8,7.8,0,0,1,10.794,37h3.422a7.8,7.8,0,0,1,6.975,11.276,2.335,2.335,0,0,0-1.557-.582H18.446V46.505a2.383,2.383,0,0,0-2.376-2.376H8.941a2.383,2.383,0,0,0-2.376,2.376v1.188H5.376a2.335,2.335,0,0,0-1.557.582Z" transform="translate(-3 -37)" fill="#b27946"/>
    </g>
    <g id="Grupo_1196002" data-name="Grupo 1196002" transform="translate(54.656 48.715)">
      <path id="Trazado_1113024" data-name="Trazado 1113024" d="M58.882,44.376v5.941a4.751,4.751,0,0,1-4.753,4.753H51.753A4.751,4.751,0,0,1,47,50.317V44.376h.2A8.121,8.121,0,0,0,52.941,42a8.121,8.121,0,0,0,5.739,2.376Z" transform="translate(-47 -42)" fill="#cf9e76"/>
    </g>
    <g id="Grupo_1196003" data-name="Grupo 1196003" transform="translate(41.431 53.468)">
      <path id="Trazado_1113025" data-name="Trazado 1113025" d="M35.87,50.753a4.345,4.345,0,0,0,.154-1.188V46h1.188a2.335,2.335,0,0,1,1.557.582,1.12,1.12,0,0,0,.119.119,2.323,2.323,0,0,1,.7,1.675,2.383,2.383,0,0,1-2.376,2.376Z" transform="translate(-35.87 -46)" fill="#cf9e76"/>
    </g>
    <g id="Grupo_1196004" data-name="Grupo 1196004" transform="translate(29.704 49.903)">
      <path id="Trazado_1113026" data-name="Trazado 1113026" d="M37.882,46.565v3.565a4.345,4.345,0,0,1-.154,1.188,4.743,4.743,0,0,1-4.6,3.565H30.753a4.743,4.743,0,0,1-4.6-3.565A4.345,4.345,0,0,1,26,50.129V45.376A2.394,2.394,0,0,1,28.376,43a14.19,14.19,0,0,0,7.854,2.376h1.652Z" transform="translate(-26 -43)" fill="#cf9e76"/>
    </g>
    <g id="Grupo_1196005" data-name="Grupo 1196005" transform="translate(26.14 53.468)">
      <path id="Trazado_1113027" data-name="Trazado 1113027" d="M26.565,49.565a4.345,4.345,0,0,0,.154,1.188H25.376A2.394,2.394,0,0,1,23,48.376a2.392,2.392,0,0,1,.82-1.794A2.335,2.335,0,0,1,25.376,46h1.188Z" transform="translate(-23 -46)" fill="#cf9e76"/>
    </g>
    <g id="Grupo_1196006" data-name="Grupo 1196006" transform="translate(17.668 53.468)">
      <path id="Trazado_1113028" data-name="Trazado 1113028" d="M18.888,46.7a2.323,2.323,0,0,1,.7,1.675,2.383,2.383,0,0,1-2.376,2.376H15.87a4.345,4.345,0,0,0,.154-1.188V46h1.188a2.335,2.335,0,0,1,1.557.582A1.12,1.12,0,0,0,18.888,46.7Z" transform="translate(-15.87 -46)" fill="#cf9e76"/>
    </g>
    <g id="Grupo_1196007" data-name="Grupo 1196007" transform="translate(5.941 49.903)">
      <path id="Trazado_1113029" data-name="Trazado 1113029" d="M17.882,46.565v3.565a4.345,4.345,0,0,1-.154,1.188,4.743,4.743,0,0,1-4.6,3.565H10.753a4.743,4.743,0,0,1-4.6-3.565A4.345,4.345,0,0,1,6,50.129V45.376A2.383,2.383,0,0,1,8.376,43h7.129a2.383,2.383,0,0,1,2.376,2.376Z" transform="translate(-6 -43)" fill="#cf9e76"/>
    </g>
    <g id="Grupo_1196008" data-name="Grupo 1196008" transform="translate(2.376 53.468)">
      <path id="Trazado_1113030" data-name="Trazado 1113030" d="M6.565,49.565a4.345,4.345,0,0,0,.154,1.188H5.376A2.394,2.394,0,0,1,3,48.376a2.392,2.392,0,0,1,.82-1.794A2.335,2.335,0,0,1,5.376,46H6.565Z" transform="translate(-3 -46)" fill="#cf9e76"/>
    </g>
    <g id="Grupo_1196009" data-name="Grupo 1196009" transform="translate(0 19.011)">
      <path id="Trazado_1113031" data-name="Trazado 1113031" d="M20.011,19.376V33.634a2.383,2.383,0,0,1-2.376,2.376H1V17H17.634A2.383,2.383,0,0,1,20.011,19.376Z" transform="translate(-1 -17)" fill="#fcd770"/>
    </g>
    <g id="Grupo_1196010" data-name="Grupo 1196010" transform="translate(33.269 33.269)">
      <path id="Trazado_1113032" data-name="Trazado 1113032" d="M36.129,29a2.383,2.383,0,0,1,2.376,2.376,2.394,2.394,0,0,1-2.376,2.376H31.376A2.383,2.383,0,0,1,29,31.376,2.394,2.394,0,0,1,31.376,29Z" transform="translate(-29 -29)" fill="#f0d0b4"/>
    </g>
    <g id="Grupo_1196011" data-name="Grupo 1196011" transform="translate(33.269 19.011)">
      <path id="Trazado_1113033" data-name="Trazado 1113033" d="M36.129,17a2.383,2.383,0,0,1,2.376,2.376,2.394,2.394,0,0,1-2.376,2.376H31.376A2.383,2.383,0,0,1,29,19.376h2.376A3.526,3.526,0,0,0,34.727,17h1.4Z" transform="translate(-29 -17)" fill="#f0d0b4"/>
    </g>
    <g id="Grupo_1196012" data-name="Grupo 1196012" transform="translate(33.269 23.763)">
      <path id="Trazado_1113034" data-name="Trazado 1113034" d="M36.129,21a2.383,2.383,0,0,1,2.376,2.376,2.394,2.394,0,0,1-2.376,2.376H31.376A2.383,2.383,0,0,1,29,23.376,2.394,2.394,0,0,1,31.376,21Z" transform="translate(-29 -21)" fill="#f0d0b4"/>
    </g>
    <g id="Grupo_1196013" data-name="Grupo 1196013" transform="translate(33.269 28.516)">
      <path id="Trazado_1113035" data-name="Trazado 1113035" d="M36.129,25a2.383,2.383,0,0,1,2.376,2.376,2.394,2.394,0,0,1-2.376,2.376H31.376A2.383,2.383,0,0,1,29,27.376,2.394,2.394,0,0,1,31.376,25Z" transform="translate(-29 -25)" fill="#f0d0b4"/>
    </g>
    <g id="Grupo_1196014" data-name="Grupo 1196014" transform="translate(19.011 16.634)">
      <path id="Trazado_1113036" data-name="Trazado 1113036" d="M26.505,23.091v13.3H23.44a7.258,7.258,0,0,1-3.2-.749L17,34.011V19.753l2.661-2.661a7.016,7.016,0,0,1,3.98-2,5.423,5.423,0,0,1,1.069-.1h11.3A1.192,1.192,0,0,1,37.2,16.188a3.294,3.294,0,0,1-.214,1.188,3.526,3.526,0,0,1-3.351,2.376H31.258l-1.473,1.473a7.052,7.052,0,0,1-3.279,1.865Z" transform="translate(-17 -15)" fill="#f0d0b4"/>
    </g>
    <g id="Grupo_1196015" data-name="Grupo 1196015" transform="translate(28.516 21.387)">
      <path id="Trazado_1113037" data-name="Trazado 1113037" d="M25,22.339a7.052,7.052,0,0,0,3.279-1.865L29.753,19a2.383,2.383,0,0,0,2.376,2.376,2.394,2.394,0,0,0-2.376,2.376,2.383,2.383,0,0,0,2.376,2.376,2.394,2.394,0,0,0-2.376,2.376,2.383,2.383,0,0,0,2.376,2.376,2.394,2.394,0,0,0-2.376,2.376,2.383,2.383,0,0,0,2.376,2.376v4.753H30.418A7.786,7.786,0,0,0,25,42.585V22.339Z" transform="translate(-25 -19)" fill="#aab2bd"/>
    </g>
    <g id="Grupo_1196016" data-name="Grupo 1196016" transform="translate(33.269)">
      <path id="Trazado_1113038" data-name="Trazado 1113038" d="M36.129,20.011h-1.4a3.294,3.294,0,0,0,.214-1.188,1.192,1.192,0,0,0-1.188-1.188H29V5.753h9.909a16.2,16.2,0,0,0,6.214-1.236A16.242,16.242,0,0,0,50.387,1V24.763a16.222,16.222,0,0,0-11.478-4.753Z" transform="translate(-29 -1)" fill="#e6e9ed"/>
    </g>
    <g id="Grupo_1196017" data-name="Grupo 1196017" transform="translate(54.656)">
      <path id="Trazado_1113039" data-name="Trazado 1113039" d="M51.753,18.823v5.941H47V1h4.753V18.823Z" transform="translate(-47 -1)" fill="#ff826e"/>
    </g>
    <g id="Grupo_1196018" data-name="Grupo 1196018" transform="translate(23.763 4.753)">
      <path id="Trazado_1113040" data-name="Trazado 1113040" d="M22.889,16.965A7.13,7.13,0,0,1,28.129,5h2.376V16.882H23.959a5.424,5.424,0,0,0-1.069.1Z" transform="translate(-21 -5)" fill="#ff826e"/>
    </g>
    <g id="Grupo_1196019" data-name="Grupo 1196019" transform="translate(59.408 8.317)">
      <path id="Trazado_1113041" data-name="Trazado 1113041" d="M51,8a4.753,4.753,0,0,1,0,9.505Z" transform="translate(-51 -8)" fill="#fcd770"/>
    </g>
  </g>
  <g id="Grupo_1196021" data-name="Grupo 1196021" transform="translate(0)">
    <path id="Trazado_1113042" data-name="Trazado 1113042" d="M58,11h4.753v2.376H58Z" transform="translate(10.914 2.07)"/>
    <path id="Trazado_1113043" data-name="Trazado 1113043" d="M0,0H4.753V2.376H0Z" transform="translate(65.63 7.543) rotate(-45)"/>
    <path id="Trazado_1113044" data-name="Trazado 1113044" d="M0,0H2.376V4.753H0Z" transform="translate(65.628 20.984) rotate(-45)"/>
    <path id="Trazado_1113045" data-name="Trazado 1113045" d="M61.785,42.774A11.9,11.9,0,0,0,49.9,54.656V60.6a8.269,8.269,0,0,0,4.8,7.52,7.057,7.057,0,0,0-.048.8V71.29H43.962V68.914a7.113,7.113,0,0,0-2.816-5.663A5.963,5.963,0,0,0,43.458,60.6h.5A3.56,3.56,0,0,0,46.9,55.021a8.956,8.956,0,0,0-8.356-12.246h-.523V40.4h3.565a3.549,3.549,0,0,0,2.638-5.941,3.51,3.51,0,0,0,0-4.753,3.51,3.51,0,0,0,0-4.753,3.446,3.446,0,0,0,.716-3.537A14.919,14.919,0,0,1,55,25.792l.348.348h6.433V20.079a5.941,5.941,0,0,0,0-11.642V0H55.352L55,.348a14.939,14.939,0,0,1-10.634,4.4H32.081a8.306,8.306,0,0,0-7.206,12.456,8.3,8.3,0,0,0-2.852,1.862l-1.366,1.366a3.549,3.549,0,0,0-2.834-1.426H0V40.4H17.823a3.551,3.551,0,0,0,3.114-1.867l1.978.989a8.349,8.349,0,0,0,3.719.878h1.882v5.293a8.893,8.893,0,0,0-1.75,9.33A3.56,3.56,0,0,0,29.7,60.6h.5a5.963,5.963,0,0,0,2.312,2.654A7.113,7.113,0,0,0,29.7,68.914V71.29H20.2V68.914a7.113,7.113,0,0,0-2.816-5.663A5.963,5.963,0,0,0,19.7,60.6h.5a3.56,3.56,0,0,0,2.938-5.576,8.956,8.956,0,0,0-8.356-12.246H11.359A8.956,8.956,0,0,0,3,55.021,3.56,3.56,0,0,0,5.941,60.6h.5a5.963,5.963,0,0,0,2.312,2.654,7.113,7.113,0,0,0-2.816,5.663V71.29H0v2.376H73.667V71.29H68.914V68.914a7.059,7.059,0,0,0-.048-.8,8.269,8.269,0,0,0,4.8-7.52V54.656A11.9,11.9,0,0,0,61.785,42.774ZM43.962,58.22V55.844a1.188,1.188,0,1,1,0,2.376Zm-8.84-15.446a8.932,8.932,0,0,0-4.23,1.062V26.781a8.293,8.293,0,0,0,2.929-1.89L34,24.713c.062.082.127.162.2.238a3.51,3.51,0,0,0,0,4.753,3.51,3.51,0,0,0,0,4.753,3.532,3.532,0,0,0,1.45,5.722v2.6Zm5.8-21.387h.661a1.188,1.188,0,1,1,0,2.376H36.833A4.737,4.737,0,0,0,40.925,21.387Zm1.849,5.941a1.189,1.189,0,0,1-1.188,1.188H36.833a1.188,1.188,0,1,1,0-2.376h4.753A1.189,1.189,0,0,1,42.774,27.328Zm0,4.753a1.189,1.189,0,0,1-1.188,1.188H36.833a1.188,1.188,0,1,1,0-2.376h4.753A1.189,1.189,0,0,1,42.774,32.081Zm-1.188,5.941H36.833a1.188,1.188,0,1,1,0-2.376h4.753a1.188,1.188,0,1,1,0,2.376ZM64.161,14.258A3.56,3.56,0,0,1,61.785,17.6V10.912A3.56,3.56,0,0,1,64.161,14.258Zm-4.753,9.505H57.032V2.376h2.376ZM54.656,3.751V22.389A17.276,17.276,0,0,0,44.37,19.011H41.586a2.379,2.379,0,0,0-2.376-2.376H35.645V7.129H44.37A17.276,17.276,0,0,0,54.656,3.751ZM26.14,13.07a5.948,5.948,0,0,1,5.941-5.941h1.188v9.505H27.9c-.177,0-.351.014-.525.026A5.911,5.911,0,0,1,26.14,13.07ZM19.011,36.833a1.189,1.189,0,0,1-1.188,1.188H2.376V21.387H17.823a1.189,1.189,0,0,1,1.188,1.188Zm7.623,1.188a5.973,5.973,0,0,1-2.656-.627l-2.591-1.3V23.067L23.7,20.751a5.905,5.905,0,0,1,4.2-1.741H39.21a2.379,2.379,0,0,1-2.376,2.376H33.965l-1.824,1.824a5.905,5.905,0,0,1-4.2,1.741h-1.8v2.376h1.8c.194,0,.385-.015.576-.029V38.021Zm1.882,19.011A1.189,1.189,0,0,1,29.7,55.844V58.22A1.189,1.189,0,0,1,28.516,57.032ZM29.7,53.468a3.522,3.522,0,0,0-.914.133,6.571,6.571,0,0,1,6.332-8.45h3.423a6.571,6.571,0,0,1,6.332,8.45,3.539,3.539,0,0,0-.915-.133V52.279a4.757,4.757,0,0,0-4.753-4.753V49.9a2.379,2.379,0,0,1,2.376,2.376h-.469a12.916,12.916,0,0,1-7.19-2.177l-.3-.2h-.36A3.569,3.569,0,0,0,29.7,53.468Zm5.941,8.317a3.569,3.569,0,0,1-3.565-3.565V53.468a1.189,1.189,0,0,1,.895-1.151,15.288,15.288,0,0,0,8.141,2.34h.469V58.22a3.569,3.569,0,0,1-3.565,3.565Zm-3.565,7.129a4.753,4.753,0,1,1,9.505,0V71.29H32.081ZM20.2,58.22V55.844a1.188,1.188,0,1,1,0,2.376ZM4.753,57.032a1.189,1.189,0,0,1,1.188-1.188V58.22A1.189,1.189,0,0,1,4.753,57.032Zm1.188-3.565a3.522,3.522,0,0,0-.914.133,6.571,6.571,0,0,1,6.332-8.45h3.423a6.571,6.571,0,0,1,6.332,8.45,3.539,3.539,0,0,0-.915-.133A3.569,3.569,0,0,0,16.634,49.9H9.505a3.569,3.569,0,0,0-3.565,3.565Zm5.941,8.317A3.569,3.569,0,0,1,8.317,58.22V53.468a1.189,1.189,0,0,1,1.188-1.188h7.129a1.189,1.189,0,0,1,1.188,1.188V58.22a3.569,3.569,0,0,1-3.565,3.565ZM8.317,68.914a4.753,4.753,0,1,1,9.505,0V71.29H8.317ZM57.032,71.29V68.914a4.753,4.753,0,0,1,9.505,0V71.29ZM60.6,61.785a3.569,3.569,0,0,1-3.565-3.565v-4.8a9.2,9.2,0,0,0,4.753-1.927,9.213,9.213,0,0,0,4.753,1.927v4.8a3.569,3.569,0,0,1-3.565,3.565ZM71.29,60.6a5.907,5.907,0,0,1-3.1,5.207A7.157,7.157,0,0,0,66.1,63.251a5.93,5.93,0,0,0,2.815-5.031V51.091H67.521a6.876,6.876,0,0,1-4.9-2.028l-.84-.841-.84.841a6.878,6.878,0,0,1-4.9,2.028H54.656V58.22a5.928,5.928,0,0,0,2.816,5.031A7.154,7.154,0,0,0,55.381,65.8a5.906,5.906,0,0,1-3.1-5.207V54.656a9.505,9.505,0,1,1,19.011,0Z" transform="translate(0)"/>
  </g>
</svg>
