<svg xmlns="http://www.w3.org/2000/svg" width="83.597" height="87.5" viewBox="0 0 83.597 87.5">
  <g id="gestion-de-proyectos_4_" data-name="gestion-de-proyectos (4)" transform="translate(-11.419)">
    <g id="Grupo_1195785" data-name="Grupo 1195785" transform="translate(26.64 8.53)">
      <g id="Grupo_1195781" data-name="Grupo 1195781">
        <path id="Trazado_1111215" data-name="Trazado 1111215" d="M114.78,56.962V49.914H102.193a1.709,1.709,0,0,0-1.709,1.709v5.339Z" transform="translate(-100.484 -49.914)" fill="#8ac9fe"/>
      </g>
      <g id="Grupo_1195782" data-name="Grupo 1195782" transform="translate(8.574)">
        <path id="Trazado_1111216" data-name="Trazado 1111216" d="M150.652,49.914h5.722v7.048h-5.722Z" transform="translate(-150.652 -49.914)" fill="#60b7ff"/>
      </g>
      <g id="Grupo_1195783" data-name="Grupo 1195783" transform="translate(38.859 63.392)">
        <path id="Trazado_1111217" data-name="Trazado 1111217" d="M327.864,420.848v7.419h12.4a1.709,1.709,0,0,0,1.709-1.709v-5.71Z" transform="translate(-327.864 -420.848)" fill="#8ac9fe"/>
      </g>
      <g id="Grupo_1195784" data-name="Grupo 1195784" transform="translate(45.473 63.392)">
        <path id="Trazado_1111218" data-name="Trazado 1111218" d="M368.274,420.848v5.71a1.709,1.709,0,0,1-1.709,1.709h5.787a1.709,1.709,0,0,0,1.709-1.709v-5.71Z" transform="translate(-366.565 -420.848)" fill="#60b7ff"/>
      </g>
    </g>
    <g id="Grupo_1195786" data-name="Grupo 1195786" transform="translate(40.765 1.282)">
      <path id="Trazado_1111219" data-name="Trazado 1111219" d="M234.4,7.5H184.845a1.709,1.709,0,0,0-1.709,1.709V21.8h23.2a1.54,1.54,0,0,1,1.538,1.538V78.311H234.4a1.709,1.709,0,0,0,1.709-1.709V9.209A1.709,1.709,0,0,0,234.4,7.5Z" transform="translate(-183.136 -7.5)" fill="#f2fbff"/>
    </g>
    <g id="Grupo_1195787" data-name="Grupo 1195787" transform="translate(84.834 1.282)">
      <path id="Trazado_1111220" data-name="Trazado 1111220" d="M448.192,7.5H441a1.709,1.709,0,0,1,1.709,1.709V76.6A1.709,1.709,0,0,1,441,78.311h7.192A1.709,1.709,0,0,0,449.9,76.6V9.209A1.709,1.709,0,0,0,448.192,7.5Z" transform="translate(-441 -7.5)" fill="#dff6fd"/>
    </g>
    <g id="Grupo_1195788" data-name="Grupo 1195788" transform="translate(12.701 15.407)">
      <path id="Trazado_1111221" data-name="Trazado 1111221" d="M70.179,160.963H20.628a1.709,1.709,0,0,1-1.709-1.709V91.861a1.709,1.709,0,0,1,1.709-1.709H70.179a1.709,1.709,0,0,1,1.709,1.709v67.393A1.709,1.709,0,0,1,70.179,160.963Z" transform="translate(-18.919 -90.152)" fill="#fef0ae"/>
    </g>
    <g id="Grupo_1195789" data-name="Grupo 1195789" transform="translate(56.294 15.407)">
      <path id="Trazado_1111222" data-name="Trazado 1111222" d="M281.667,90.152H274a1.709,1.709,0,0,1,1.709,1.709v67.393A1.709,1.709,0,0,1,274,160.963h7.667a1.709,1.709,0,0,0,1.709-1.709V91.861A1.709,1.709,0,0,0,281.667,90.152Z" transform="translate(-274 -90.152)" fill="#fee97d"/>
    </g>
    <g id="Grupo_1195790" data-name="Grupo 1195790" transform="translate(21.297 44.286)">
      <path id="Trazado_1111223" data-name="Trazado 1111223" d="M75.209,265.643H69.73a.513.513,0,0,1-.513-.513v-5.48a.513.513,0,0,1,.513-.513h5.48a.513.513,0,0,1,.513.513v5.48A.513.513,0,0,1,75.209,265.643Z" transform="translate(-69.217 -259.138)" fill="#fff"/>
      <path id="Trazado_1111224" data-name="Trazado 1111224" d="M75.209,342.042H69.73a.513.513,0,0,1-.513-.513v-5.48a.513.513,0,0,1,.513-.513h5.48a.513.513,0,0,1,.513.513v5.48A.513.513,0,0,1,75.209,342.042Z" transform="translate(-69.217 -322.481)" fill="#fff"/>
      <path id="Trazado_1111225" data-name="Trazado 1111225" d="M75.209,418.441H69.73a.513.513,0,0,1-.513-.513v-5.48a.513.513,0,0,1,.513-.513h5.48a.513.513,0,0,1,.513.513v5.48A.513.513,0,0,1,75.209,418.441Z" transform="translate(-69.217 -385.823)" fill="#fff"/>
    </g>
    <g id="Grupo_1195791" data-name="Grupo 1195791" transform="translate(70.903 8.631)">
      <circle id="Elipse_14041" data-name="Elipse 14041" cx="8.592" cy="8.592" r="8.592" fill="#ffd15b"/>
    </g>
    <g id="Grupo_1195792" data-name="Grupo 1195792" transform="translate(79.495 17.223)">
      <path id="Trazado_1111226" data-name="Trazado 1111226" d="M409.76,100.777v8.592a8.592,8.592,0,0,0,8.592-8.592Z" transform="translate(-409.76 -100.777)" fill="#fd6930"/>
    </g>
    <g id="Grupo_1195793" data-name="Grupo 1195793" transform="translate(11.419 0)">
      <path id="Trazado_1111227" data-name="Trazado 1111227" d="M92.025,0H42.474a2.994,2.994,0,0,0-2.991,2.991V7.248H28.349a2.994,2.994,0,0,0-2.991,2.991v3.886H14.41a2.994,2.994,0,0,0-2.991,2.991v50.56a1.282,1.282,0,1,0,2.563,0V17.116a.428.428,0,0,1,.427-.427H47.92a1.282,1.282,0,1,0,0-2.563H42.047V2.991a.428.428,0,0,1,.427-.427H92.025a.428.428,0,0,1,.427.427V70.384a.428.428,0,0,1-.427.427H66.952v-53.7a2.994,2.994,0,0,0-2.991-2.991H53.9a1.282,1.282,0,0,0,0,2.563h10.06a.428.428,0,0,1,.427.427V84.509a.428.428,0,0,1-.427.427H14.41a.428.428,0,0,1-.427-.427V73.657a1.282,1.282,0,0,0-2.563,0V84.509A2.994,2.994,0,0,0,14.41,87.5H63.961a2.994,2.994,0,0,0,2.991-2.991V80.623H77.9a2.994,2.994,0,0,0,2.991-2.991V73.375H92.025a2.994,2.994,0,0,0,2.991-2.991V2.991A2.994,2.994,0,0,0,92.025,0Zm-64.1,14.125V10.239a.428.428,0,0,1,.427-.427H39.483v4.313ZM78.327,77.633a.428.428,0,0,1-.427.427H66.952V73.375H78.327Z" transform="translate(-11.419 0)"/>
      <path id="Trazado_1111228" data-name="Trazado 1111228" d="M131.863,179.785a1.282,1.282,0,0,0,1.282,1.282h23.79a1.282,1.282,0,1,0,0-2.563h-23.79A1.282,1.282,0,0,0,131.863,179.785Z" transform="translate(-111.279 -147.997)"/>
      <path id="Trazado_1111229" data-name="Trazado 1111229" d="M133.145,212.6h14.822a1.282,1.282,0,1,0,0-2.563H133.145a1.282,1.282,0,1,0,0,2.563Z" transform="translate(-111.279 -174.145)"/>
      <path id="Trazado_1111230" data-name="Trazado 1111230" d="M251.384,210.041h-4.321a1.282,1.282,0,1,0,0,2.563h4.321a1.282,1.282,0,1,0,0-2.563Z" transform="translate(-205.729 -174.145)"/>
      <path id="Trazado_1111231" data-name="Trazado 1111231" d="M70.786,253.433a1.8,1.8,0,0,0-1.794-1.794h-5.48a1.8,1.8,0,0,0-1.794,1.794v5.48a1.8,1.8,0,0,0,1.794,1.794h5.48a1.8,1.8,0,0,0,1.794-1.794v-5.48Zm-2.563,4.711H64.28V254.2h3.941v3.942Z" transform="translate(-53.121 -208.634)"/>
      <path id="Trazado_1111232" data-name="Trazado 1111232" d="M156.934,254.9h-23.79a1.282,1.282,0,1,0,0,2.563h23.79a1.282,1.282,0,1,0,0-2.563Z" transform="translate(-111.279 -211.339)"/>
      <path id="Trazado_1111233" data-name="Trazado 1111233" d="M133.145,289h4.414a1.282,1.282,0,0,0,0-2.563h-4.414a1.282,1.282,0,0,0,0,2.563Z" transform="translate(-111.279 -237.488)"/>
      <path id="Trazado_1111234" data-name="Trazado 1111234" d="M200.891,286.44H186.162a1.282,1.282,0,0,0,0,2.563h14.729a1.282,1.282,0,1,0,0-2.563Z" transform="translate(-155.236 -237.488)"/>
      <path id="Trazado_1111235" data-name="Trazado 1111235" d="M70.786,329.832a1.8,1.8,0,0,0-1.794-1.794h-5.48a1.8,1.8,0,0,0-1.794,1.794v5.48a1.8,1.8,0,0,0,1.794,1.794h5.48a1.8,1.8,0,0,0,1.794-1.794v-5.48Zm-2.563,4.71H64.28V330.6h3.941v3.941Z" transform="translate(-53.121 -271.977)"/>
      <path id="Trazado_1111236" data-name="Trazado 1111236" d="M156.934,331.3h-23.79a1.282,1.282,0,0,0,0,2.563h23.79a1.282,1.282,0,1,0,0-2.563Z" transform="translate(-111.279 -274.681)"/>
      <path id="Trazado_1111237" data-name="Trazado 1111237" d="M156.934,362.838h-23.79a1.282,1.282,0,1,0,0,2.563h23.79a1.282,1.282,0,1,0,0-2.563Z" transform="translate(-111.279 -300.83)"/>
      <path id="Trazado_1111238" data-name="Trazado 1111238" d="M68.991,404.437h-5.48a1.8,1.8,0,0,0-1.794,1.794v5.48a1.8,1.8,0,0,0,1.794,1.794h5.48a1.8,1.8,0,0,0,1.794-1.794v-5.48A1.8,1.8,0,0,0,68.991,404.437Zm-.769,6.5H64.28V407h3.941v3.941Z" transform="translate(-53.121 -335.319)"/>
      <path id="Trazado_1111239" data-name="Trazado 1111239" d="M156.934,407.7h-23.79a1.282,1.282,0,1,0,0,2.563h23.79a1.282,1.282,0,1,0,0-2.563Z" transform="translate(-111.279 -338.024)"/>
      <path id="Trazado_1111240" data-name="Trazado 1111240" d="M133.145,439.237a1.282,1.282,0,0,0,0,2.563h8.875a1.282,1.282,0,0,0,0-2.563Z" transform="translate(-111.279 -364.172)"/>
      <path id="Trazado_1111241" data-name="Trazado 1111241" d="M222.53,439.237H212.262a1.282,1.282,0,1,0,0,2.563H222.53a1.282,1.282,0,0,0,0-2.563Z" transform="translate(-176.875 -364.172)"/>
      <path id="Trazado_1111242" data-name="Trazado 1111242" d="M59.1,171.444l3.16,3.16a1.281,1.281,0,0,0,.906.375c.03,0,.06,0,.091,0a1.282,1.282,0,0,0,.934-.509l5.018-6.691a1.282,1.282,0,0,0-2.051-1.538l-4.131,5.509-2.114-2.115a1.282,1.282,0,0,0-1.813,1.813Z" transform="translate(-50.642 -137.402)"/>
      <path id="Trazado_1111243" data-name="Trazado 1111243" d="M360.041,186.355h7.177a1.282,1.282,0,0,0,0-2.563h-7.177a1.282,1.282,0,0,0,0,2.563Z" transform="translate(-299.399 -152.382)"/>
      <path id="Trazado_1111244" data-name="Trazado 1111244" d="M374.909,218.593H360.041a1.282,1.282,0,0,0,0,2.563h14.868a1.282,1.282,0,0,0,0-2.563Z" transform="translate(-299.399 -181.236)"/>
      <path id="Trazado_1111245" data-name="Trazado 1111245" d="M374.909,253.394H360.041a1.282,1.282,0,0,0,0,2.563h14.868a1.282,1.282,0,0,0,0-2.563Z" transform="translate(-299.399 -210.089)"/>
      <path id="Trazado_1111246" data-name="Trazado 1111246" d="M374.909,288.2H360.041a1.282,1.282,0,0,0,0,2.563h14.868a1.282,1.282,0,0,0,0-2.563Z" transform="translate(-299.399 -238.943)"/>
      <path id="Trazado_1111247" data-name="Trazado 1111247" d="M360.041,325.559H362.9a1.282,1.282,0,0,0,0-2.563h-2.861a1.282,1.282,0,0,0,0,2.563Z" transform="translate(-299.399 -267.797)"/>
      <path id="Trazado_1111248" data-name="Trazado 1111248" d="M409.528,323h-7.733a1.282,1.282,0,0,0,0,2.563h7.733a1.282,1.282,0,0,0,0-2.563Z" transform="translate(-334.017 -267.797)"/>
      <path id="Trazado_1111249" data-name="Trazado 1111249" d="M360.041,360.359h14.868a1.282,1.282,0,0,0,0-2.563H360.041a1.282,1.282,0,1,0,0,2.563Z" transform="translate(-299.399 -296.649)"/>
      <path id="Trazado_1111250" data-name="Trazado 1111250" d="M362.041,52.874v7.2A7.324,7.324,0,0,1,356.27,54.8a1.282,1.282,0,0,0-2.474.673,9.871,9.871,0,1,0,.625-6.874,1.282,1.282,0,1,0,2.31,1.112,7.311,7.311,0,0,1,13.787,1.884h-7.2A1.282,1.282,0,0,0,362.041,52.874Zm2.563,1.282h5.914A7.327,7.327,0,0,1,364.6,60.07Z" transform="translate(-295.247 -35.651)"/>
      <path id="Trazado_1111251" data-name="Trazado 1111251" d="M236.466,44.283A1.282,1.282,0,0,0,235.184,43H217.156a1.282,1.282,0,0,0,0,2.563h18.028A1.282,1.282,0,0,0,236.466,44.283Z" transform="translate(-180.933 -35.652)"/>
      <path id="Trazado_1111252" data-name="Trazado 1111252" d="M430.466,183.792h-3.417a1.282,1.282,0,0,0,0,2.563h3.417a1.282,1.282,0,0,0,0-2.563Z" transform="translate(-354.956 -152.382)"/>
      <path id="Trazado_1111253" data-name="Trazado 1111253" d="M87.058,131.5H63a1.282,1.282,0,0,0,0,2.563h24.06a1.282,1.282,0,0,0,0-2.563Z" transform="translate(-53.121 -109.027)"/>
      <path id="Trazado_1111254" data-name="Trazado 1111254" d="M266.075,134.063a1.282,1.282,0,0,0,0-2.563h-1.293a1.282,1.282,0,0,0,0,2.563Z" transform="translate(-220.42 -109.027)"/>
      <path id="Trazado_1111255" data-name="Trazado 1111255" d="M229.934,132.782a1.282,1.282,0,0,0,1.282,1.282h1.293a1.282,1.282,0,0,0,0-2.563h-1.293A1.282,1.282,0,0,0,229.934,132.782Z" transform="translate(-192.59 -109.027)"/>
    </g>
  </g>
</svg>
