<svg xmlns="http://www.w3.org/2000/svg" xmlns:xlink="http://www.w3.org/1999/xlink" width="106" height="106" viewBox="0 0 106 106">
  <defs>
    <filter id="Elipse_13958" x="0" y="0" width="106" height="106" filterUnits="userSpaceOnUse">
      <feOffset dy="3" input="SourceAlpha"/>
      <feGaussianBlur stdDeviation="3" result="blur"/>
      <feFlood flood-opacity="0.161"/>
      <feComposite operator="in" in2="blur"/>
      <feComposite in="SourceGraphic"/>
    </filter>
  </defs>
  <g id="Grupo_1195242" data-name="Grupo 1195242" transform="translate(-275.676 -7360)">
    <g transform="matrix(1, 0, 0, 1, 275.68, 7360)" filter="url(#Elipse_13958)">
      <circle id="Elipse_13958-2" data-name="Elipse 13958" cx="44" cy="44" r="44" transform="translate(9 6)" fill="#fff"/>
    </g>
    <g id="content" transform="translate(303.483 7384.46)">
      <path id="Trazado_1109332" data-name="Trazado 1109332" d="M296.5,32.319H279.7a.746.746,0,0,0-.746.745v11.3a.746.746,0,0,0,.746.746h1.592a.852.852,0,0,1,.852.852v1.7l2.308-2.308a.852.852,0,0,1,.6-.25H296.5a.746.746,0,0,0,.745-.746v-11.3A.746.746,0,0,0,296.5,32.319Z" transform="translate(-250.087 -30.614)" fill="#f7d119"/>
      <path id="Trazado_1109333" data-name="Trazado 1109333" d="M56.673,80.267a.852.852,0,0,1,.71-.381h9.7V76.822h-22.2a1.163,1.163,0,0,0-1.162,1.162v4.239H55.376Z" transform="translate(-39.918 -70.376)" fill="#c4daec"/>
      <path id="Trazado_1109334" data-name="Trazado 1109334" d="M31.442,339.951a7.445,7.445,0,1,0,7.444,7.444,7.446,7.446,0,0,0-7.444-7.444Z" transform="translate(-22.291 -305.469)" fill="#ff6969"/>
      <path id="Trazado_1109335" data-name="Trazado 1109335" d="M272.489,237.231v-3.575H258.217a.2.2,0,0,0-.2.2V259.67a.2.2,0,0,0,.2.2H277.69a.2.2,0,0,0,.2-.2v-8.416l-1.381,2.392a.849.849,0,0,1-.193.229l-3.833,3.186a.852.852,0,0,1-1.385-.8l.843-4.914a.856.856,0,0,1,.1-.282l5.847-10.13v-1.8h-3.5A1.909,1.909,0,0,1,272.489,237.231Z" transform="translate(-231.376 -210.499)" fill="#e1efff"/>
      <path id="Trazado_1109336" data-name="Trazado 1109336" d="M81.882,131.814a.852.852,0,0,1,.607.254l3.68,3.734v-9.239H75.241l-3.513,3.513a.852.852,0,0,1-1.455-.6v-2.911h-.739a2.453,2.453,0,0,1-2.451-2.451v-2.536H57.841l-1.3,1.956a.852.852,0,0,1-.71.381H43.724v20.954A9.147,9.147,0,0,1,57.81,154.991h7.041V133.72a1.909,1.909,0,0,1,1.906-1.906Z" transform="translate(-39.918 -110.362)" fill="#eafaff"/>
      <path id="Trazado_1109337" data-name="Trazado 1109337" d="M14.4,25.468a.853.853,0,1,1,.855.852.853.853,0,0,1-.855-.852Zm3.676.852a.853.853,0,1,0-.852-.852.853.853,0,0,0,.852.852Zm2.821,0a.853.853,0,1,0-.852-.852.853.853,0,0,0,.852.852ZM22,58.244a.852.852,0,0,1-.452.753l-6.657,3.546a.852.852,0,0,1-1.253-.752V54.7a.852.852,0,0,1,1.253-.752l6.656,3.542a.852.852,0,0,1,.452.752Zm-2.667,0-3.99-2.123v4.249ZM30.019,33.531V45.6a.852.852,0,0,1-.852.852h-13.7a.852.852,0,0,1-.852-.852V33.531a.852.852,0,0,1,.852-.852h13.7A.852.852,0,0,1,30.019,33.531Zm-13.7.852V43.42L19.3,40.183a.852.852,0,0,1,1.239-.015l.942.974,3.061-3.324A.852.852,0,0,1,25.78,37.8l2.534,2.618V34.384ZM19.94,42,17.408,44.75H22.6Zm8.375,2.747V42.873l-3.132-3.235L22.667,42.37l2.3,2.38Zm-9.849-7.42a2.224,2.224,0,1,1,2.223,2.224,2.224,2.224,0,0,1-2.223-2.224Zm1.7,0a.519.519,0,1,0,.519-.519.519.519,0,0,0-.519.519ZM60.5,46.705l-4.283,7.417V65.49A1.908,1.908,0,0,1,54.312,67.4H34.838a1.909,1.909,0,0,1-1.906-1.906V62.652H25.164A9.147,9.147,0,1,1,10.1,52.418V23.927a2.87,2.87,0,0,1,2.867-2.867h22.2V18.769a2.453,2.453,0,0,1,2.451-2.45h16.8a2.453,2.453,0,0,1,2.451,2.451v11.3a2.446,2.446,0,0,1-.909,1.9V43.489l.017.018a.852.852,0,0,1,.216.381A2.58,2.58,0,0,1,60.5,46.705ZM49.792,60.094l1.117-.929-.871-.5Zm6.5-9.509-1.516-.874L50.568,57l1.514.875Zm.852-1.476.312-.54-1.516-.875-.312.54Zm-6.329-6.058a.2.2,0,0,0,.2.2h2.312L50.815,40.7ZM36.868,30.07a.746.746,0,0,0,.746.746h1.591a.852.852,0,0,1,.852.852v1.7l2.308-2.308a.852.852,0,0,1,.6-.25H54.414a.746.746,0,0,0,.746-.746v-11.3a.746.746,0,0,0-.746-.745h-16.8a.746.746,0,0,0-.746.745ZM11.8,23.927v4.239H23.457l1.3-1.956a.852.852,0,0,1,.71-.381h9.7V22.765h-22.2A1.163,1.163,0,0,0,11.8,23.927ZM24.593,58.245a7.445,7.445,0,1,0-7.445,7.447A7.445,7.445,0,0,0,24.593,58.245Zm8.338,2.7V39.677a1.909,1.909,0,0,1,1.906-1.906H49.963a.852.852,0,0,1,.607.254l3.68,3.734V32.52H43.321l-3.513,3.513a.852.852,0,0,1-1.455-.6V32.52h-.739a2.453,2.453,0,0,1-2.451-2.451V27.534H25.921l-1.3,1.956a.852.852,0,0,1-.71.381H11.8V50.826A9.147,9.147,0,0,1,25.89,60.948Zm21.582-3.873-1.381,2.392a.851.851,0,0,1-.193.229L49.106,62.88a.852.852,0,0,1-1.385-.8l.843-4.914a.853.853,0,0,1,.1-.282l5.847-10.13v-1.8h-3.5a1.909,1.909,0,0,1-1.906-1.906V39.476H34.838a.2.2,0,0,0-.2.2V65.49a.2.2,0,0,0,.2.2H54.312a.2.2,0,0,0,.2-.2Zm4.6-11.884a.876.876,0,0,0-1.6-.212l-.716,1.24,1.516.875.716-1.24a.867.867,0,0,0,.085-.663ZM37.45,59.628h2.543a.852.852,0,0,0,0-1.7H37.45a.852.852,0,1,0,0,1.7Zm8.713,1.745H37.45a.852.852,0,1,0,0,1.7h8.713a.852.852,0,0,0,0-1.7Zm0-3.449H42.911a.852.852,0,0,0,0,1.7h3.252a.852.852,0,0,0,0-1.7Zm-8.713-5.2h2.543a.852.852,0,1,0,0-1.7H37.45a.852.852,0,0,0,0,1.7Zm8.713,1.744H37.45a.852.852,0,1,0,0,1.7h8.713a.852.852,0,1,0,0-1.7Zm3.1-3.449H42.911a.852.852,0,1,0,0,1.7h6.351a.852.852,0,1,0,0-1.7ZM37.45,49.276H50.763a.852.852,0,0,0,0-1.7H37.45a.852.852,0,0,0,0,1.7Zm0-3.449H40.7a.852.852,0,1,0,0-1.7H37.45a.852.852,0,0,0,0,1.7Zm2.929-20.661V22.629a1.608,1.608,0,0,1,1.65-1.559H46.2a7.807,7.807,0,0,0,3.741-.882v-.434a.852.852,0,1,1,1.7,0v8.284a.852.852,0,1,1-1.7,0v-.432a7.807,7.807,0,0,0-3.741-.882h-.153v2.358a.852.852,0,0,1-.852.852H43.482a.852.852,0,0,1-.836-.684l-.51-2.527h-.107A1.608,1.608,0,0,1,40.379,25.166Zm3.965,1.559h-.469l.3,1.506h.165Zm1.858-3.95h-.153V25.02H46.2a9.807,9.807,0,0,1,3.741.708V22.066A9.807,9.807,0,0,1,46.2,22.774Zm-4.119,2.244h2.261V22.774H42.084Z" transform="translate(-7.998 -16.319)"/>
      <path id="Trazado_1109338" data-name="Trazado 1109338" d="M327.914,76.907h2.261v2.245h-2.261Z" transform="translate(-293.828 -70.452)" fill="#ff6969"/>
      <path id="Trazado_1109339" data-name="Trazado 1109339" d="M369.027,73.921V70.259a9.808,9.808,0,0,1-3.741.708h-.153v2.245h.153A9.808,9.808,0,0,1,369.027,73.921Z" transform="translate(-327.081 -64.512)" fill="#72d1fb"/>
      <path id="Trazado_1109340" data-name="Trazado 1109340" d="M76.945,394.142l3.99-2.125-3.99-2.123Z" transform="translate(-69.599 -350.09)" fill="#fff"/>
      <path id="Trazado_1109341" data-name="Trazado 1109341" d="M345.033,115.488h.165v-1.506h-.469Z" transform="translate(-308.851 -103.576)" fill="#41739f"/>
      <path id="Trazado_1109342" data-name="Trazado 1109342" d="M400.5,413.73l-.246,1.432,1.117-.929Z" transform="translate(-358.462 -371.387)" fill="#f4baa6"/>
      <path id="Trazado_1109343" data-name="Trazado 1109343" d="M0,0H.623V1.75H0Z" transform="matrix(0.5, -0.866, 0.866, 0.5, 47.641, 31.939)" fill="#83a7c5"/>
      <path id="Trazado_1109344" data-name="Trazado 1109344" d="M407.544,337l1.514.875,4.21-7.29-1.516-.874Z" transform="translate(-364.974 -296.324)" fill="#ffe958"/>
      <path id="Trazado_1109345" data-name="Trazado 1109345" d="M467.873,281.337a.881.881,0,0,0-1.2.318l-.716,1.24,1.516.875.716-1.24a.879.879,0,0,0-.321-1.193Z" transform="translate(-417.167 -252.996)" fill="#ff6969"/>
      <g id="Grupo_1195241" data-name="Grupo 1195241" transform="translate(9.411 20.493)">
        <path id="Trazado_1109346" data-name="Trazado 1109346" d="M122.76,209.693a.519.519,0,1,0-.519-.519.519.519,0,0,0,.519.519Z" transform="translate(-119.479 -208.655)" fill="#fff"/>
        <path id="Trazado_1109347" data-name="Trazado 1109347" d="M145.676,237.915l2.3,2.38h3.344v-1.877l-3.131-3.235Z" transform="translate(-140.417 -232.357)" fill="#fff"/>
        <path id="Trazado_1109348" data-name="Trazado 1109348" d="M96.322,260.123h5.19l-2.658-2.747Z" transform="translate(-96.322 -252.185)" fill="#fff"/>
      </g>
      <path id="Trazado_1109349" data-name="Trazado 1109349" d="M410.062,247.719h2.312l-2.514-2.55v2.348A.2.2,0,0,0,410.062,247.719Z" transform="translate(-367.043 -220.786)" fill="#cadeef"/>
      <path id="Trazado_1109350" data-name="Trazado 1109350" d="M86.072,194.9l2.981-3.236a.852.852,0,0,1,1.239-.015l.942.974L94.3,189.3a.852.852,0,0,1,1.24-.015l2.534,2.618v-6.038h-12Zm4.372-8.312a2.224,2.224,0,1,1-2.223,2.223A2.224,2.224,0,0,1,90.444,186.589Z" transform="translate(-77.753 -167.801)" fill="#9dd46f"/>
    </g>
  </g>
</svg>
