<svg xmlns="http://www.w3.org/2000/svg" xmlns:xlink="http://www.w3.org/1999/xlink" width="130.113" height="130.788" viewBox="0 0 130.113 130.788">
  <defs>
    <filter id="_52" x="0" y="0" width="130.113" height="130.788" filterUnits="userSpaceOnUse">
      <feOffset dx="3" dy="3" input="SourceAlpha"/>
      <feGaussianBlur stdDeviation="3" result="blur"/>
      <feFlood flood-opacity="0.161"/>
      <feComposite operator="in" in2="blur"/>
      <feComposite in="SourceGraphic"/>
    </filter>
  </defs>
  <g id="Grupo_1194370" data-name="Grupo 1194370" transform="translate(-5867.574 7504.435)">
    <g transform="matrix(1, 0, 0, 1, 5867.57, -7504.43)" filter="url(#_52)">
      <g id="_52-2" data-name="52" transform="translate(6 6)" fill="#fff" stroke="#fff" stroke-width="3">
        <ellipse cx="56.056" cy="56.394" rx="56.056" ry="56.394" stroke="none"/>
        <ellipse cx="56.056" cy="56.394" rx="54.556" ry="54.894" fill="none"/>
      </g>
    </g>
    <g id="_09-group_chat" data-name="09-group chat" transform="translate(5900.58 -7472.748)">
      <path id="Trazado_1100860" data-name="Trazado 1100860" d="M54.114,15.683C54.114,10.335,48.044,6,40.557,6S27,10.335,27,15.683c0,5.067,5.452,9.219,12.395,9.642l6,3.915L45,24.824C50.3,23.509,54.114,19.918,54.114,15.683Z" transform="translate(-2.792 -0.19)" fill="#bfbfbf"/>
      <path id="Trazado_1100861" data-name="Trazado 1100861" d="M40.363,23.568c-6.943-.423-12.395-4.574-12.395-9.642a7.1,7.1,0,0,1,.387-2.264A7.456,7.456,0,0,0,27,15.863c0,5.067,5.452,9.219,12.395,9.642l6,3.915-.246-2.728Z" transform="translate(-2.792 -0.369)" fill="#8f8f8f"/>
      <path id="Trazado_1100862" data-name="Trazado 1100862" d="M39.987,11.652C39.987,5.769,33.051,1,24.493,1S9,5.769,9,11.652c0,5.035,5.1,9.252,11.936,10.361l-1.284,5.132,6.107-4.885C33.722,21.819,39.987,17.241,39.987,11.652Z" transform="translate(-2.222 -0.032)" fill="#4eacf2"/>
      <path id="Trazado_1100863" data-name="Trazado 1100863" d="M22.678,24.794l.784-3.139a1.486,1.486,0,0,0-1.1-1.806c-6.079-1.438-10.452-5.4-10.452-10.064a8.8,8.8,0,0,1,3.343-6.6C11.462,5.13,9,8.224,9,11.721c0,5.035,5.1,9.252,11.936,10.361l-1.284,5.132Z" transform="translate(-2.222 -0.101)" fill="#1366a5"/>
      <path id="Trazado_1100864" data-name="Trazado 1100864" d="M60.177,59.557h0a35.071,35.071,0,0,1-25.177,0h0l1.162-5.827a8.641,8.641,0,0,1,4.187-5.81h0A14.582,14.582,0,0,1,47.588,46h0a14.582,14.582,0,0,1,7.237,1.922h0a8.641,8.641,0,0,1,4.187,5.81Z" transform="translate(-3.045 -1.456)" fill="#e86a38"/>
      <path id="Trazado_1100865" data-name="Trazado 1100865" d="M40.035,54.949a10.051,10.051,0,0,1,4.19-6.721,13.3,13.3,0,0,1,5.362-2.084,14.525,14.525,0,0,0-9.235,1.782,8.64,8.64,0,0,0-4.187,5.81L35,59.557a35.2,35.2,0,0,0,4.023,1.267Z" transform="translate(-3.045 -1.456)" fill="#8c3717"/>
      <path id="Trazado_1100866" data-name="Trazado 1100866" d="M28.177,59.557h0A35.071,35.071,0,0,1,3,59.557H3L4.162,53.73a8.641,8.641,0,0,1,4.187-5.81h0A14.582,14.582,0,0,1,15.588,46h0a14.582,14.582,0,0,1,7.237,1.922h0a8.641,8.641,0,0,1,4.187,5.81Z" transform="translate(-2.032 -1.456)" fill="#e86a38"/>
      <path id="Trazado_1100867" data-name="Trazado 1100867" d="M8.035,54.949a10.051,10.051,0,0,1,4.19-6.721,13.3,13.3,0,0,1,5.362-2.084,14.525,14.525,0,0,0-9.235,1.782,8.641,8.641,0,0,0-4.187,5.81L3,59.557a35.2,35.2,0,0,0,4.023,1.267Z" transform="translate(-2.032 -1.456)" fill="#8c3717"/>
      <path id="Trazado_1100868" data-name="Trazado 1100868" d="M44.177,59.557h0a35.071,35.071,0,0,1-25.177,0h0l1.162-5.827a8.641,8.641,0,0,1,4.187-5.81h0A14.582,14.582,0,0,1,31.588,46h0a14.582,14.582,0,0,1,7.237,1.922h0a8.641,8.641,0,0,1,4.187,5.81Z" transform="translate(-2.539 -1.456)" fill="#f9b938"/>
      <circle id="Elipse_13920" data-name="Elipse 13920" cx="5.865" cy="5.865" r="5.865" transform="translate(22.909 32.846)" fill="#ffcab3"/>
      <path id="Trazado_1100869" data-name="Trazado 1100869" d="M24.035,54.949a10.051,10.051,0,0,1,4.19-6.721,13.3,13.3,0,0,1,5.362-2.084,14.525,14.525,0,0,0-9.235,1.782,8.641,8.641,0,0,0-4.187,5.81L19,59.557a35.2,35.2,0,0,0,4.023,1.267Z" transform="translate(-2.539 -1.456)" fill="#f99c16"/>
      <path id="Trazado_1100870" data-name="Trazado 1100870" d="M28.9,39.81a5.81,5.81,0,0,1,4.358-5.616,5.81,5.81,0,1,0,0,11.239A5.81,5.81,0,0,1,28.9,39.81Z" transform="translate(-2.759 -1.076)" fill="#f9aa8f"/>
      <circle id="Elipse_13921" data-name="Elipse 13921" cx="5.865" cy="5.865" r="5.865" transform="translate(7.659 32.846)" fill="#ffcab3"/>
      <path id="Trazado_1100871" data-name="Trazado 1100871" d="M12.9,39.81a5.81,5.81,0,0,1,4.358-5.616,5.81,5.81,0,1,0,0,11.239A5.81,5.81,0,0,1,12.9,39.81Z" transform="translate(-2.253 -1.076)" fill="#f9aa8f"/>
      <circle id="Elipse_13922" data-name="Elipse 13922" cx="5.865" cy="5.865" r="5.865" transform="translate(38.159 32.846)" fill="#ffcab3"/>
      <path id="Trazado_1100872" data-name="Trazado 1100872" d="M44.9,39.81a5.81,5.81,0,0,1,4.358-5.616,5.81,5.81,0,1,0,0,11.239A5.81,5.81,0,0,1,44.9,39.81Z" transform="translate(-3.266 -1.076)" fill="#f9aa8f"/>
      <path id="Trazado_1100873" data-name="Trazado 1100873" d="M60.081,58.951l-1.162-5.827a9.609,9.609,0,0,0-4.656-6.46,15.116,15.116,0,0,0-3.653-1.48,6.778,6.778,0,1,0-8.14,0,15.149,15.149,0,0,0-3.649,1.484l-.029.017c-.01,0-.018-.013-.029-.018a15.117,15.117,0,0,0-3.647-1.483,6.778,6.778,0,1,0-8.14,0,15.117,15.117,0,0,0-3.647,1.484c-.011.006-.019.014-.029.019l-.031-.019a15.117,15.117,0,0,0-3.647-1.483,6.778,6.778,0,1,0-8.14,0,15.117,15.117,0,0,0-3.647,1.484,9.609,9.609,0,0,0-4.656,6.46L2.019,58.951a.968.968,0,0,0,.6,1.094,35.778,35.778,0,0,0,12.9,2.4q1.01,0,2.024-.056A36.1,36.1,0,0,0,23.3,61.6a35.649,35.649,0,0,0,15.493,0,35.823,35.823,0,0,0,20.682-1.549.968.968,0,0,0,.6-1.1ZM41.7,39.778a4.842,4.842,0,1,1,4.842,4.842A4.842,4.842,0,0,1,41.7,39.778Zm-15.493,0A4.842,4.842,0,1,1,31.05,44.62a4.842,4.842,0,0,1-4.842-4.842Zm-15.493,0a4.842,4.842,0,1,1,4.842,4.842,4.842,4.842,0,0,1-4.842-4.842ZM17.44,60.462A33.9,33.9,0,0,1,4.077,58.525l1.006-5.016A7.67,7.67,0,0,1,8.8,48.351a13.869,13.869,0,0,1,12.782-.387,9.6,9.6,0,0,0-2.905,5.165l-1.165,5.823a.968.968,0,0,0,.6,1.093c.273.106.549.194.824.29Q18.191,60.419,17.44,60.462Zm2.13-1.937,1-5.015a7.67,7.67,0,0,1,3.717-5.158,13.847,13.847,0,0,1,13.512,0,7.67,7.67,0,0,1,3.717,5.158l1,5.015a34.032,34.032,0,0,1-22.951,0Zm23.615,1.811c.266-.1.534-.185.8-.291a.968.968,0,0,0,.6-1.094l-1.162-5.827a9.6,9.6,0,0,0-2.905-5.165,13.869,13.869,0,0,1,12.782.387,7.67,7.67,0,0,1,3.717,5.158l1,5.015a33.933,33.933,0,0,1-14.835,1.815Z" transform="translate(-2 -1.044)"/>
      <path id="Trazado_1100874" data-name="Trazado 1100874" d="M19.62,28.082a.968.968,0,0,1-.939-1.2l1.036-4.136C12.765,21.284,8,16.813,8,11.62,8,5.213,15.385,0,24.462,0S40.924,5.213,40.924,11.62c0,6.044-6.354,10.973-14.83,11.555L20.225,27.87A.968.968,0,0,1,19.62,28.082ZM24.462,1.937c-8.009,0-14.525,4.344-14.525,9.683,0,4.4,4.678,8.36,11.121,9.4a.968.968,0,0,1,.785,1.191l-.589,2.351,3.868-3.093a.968.968,0,0,1,.551-.211c7.466-.415,13.314-4.651,13.314-9.641C38.987,6.281,32.471,1.937,24.462,1.937Z" transform="translate(-2.19)"/>
      <path id="Trazado_1100875" data-name="Trazado 1100875" d="M45.588,30.18a.968.968,0,0,1-.529-.157l-5.795-3.777A18.34,18.34,0,0,1,33.6,24.933a.969.969,0,0,1,.74-1.79,16.462,16.462,0,0,0,5.3,1.188.968.968,0,0,1,.47.156l4.334,2.825-.219-2.428a.968.968,0,0,1,.731-1.027c5.011-1.243,8.378-4.539,8.378-8.2,0-4.289-4.621-8-10.749-8.618a.968.968,0,0,1-.867-1.065.958.958,0,0,1,1.065-.866c7.117.728,12.487,5.263,12.487,10.549,0,4.358-3.6,8.243-9.044,9.862l.329,3.608a.968.968,0,0,1-.968,1.055Z" transform="translate(-2.982 -0.161)"/>
    </g>
  </g>
</svg>
