<svg xmlns="http://www.w3.org/2000/svg" xmlns:xlink="http://www.w3.org/1999/xlink" width="106" height="106" viewBox="0 0 106 106">
  <defs>
    <filter id="Elipse_13960" x="0" y="0" width="106" height="106" filterUnits="userSpaceOnUse">
      <feOffset dy="3" input="SourceAlpha"/>
      <feGaussianBlur stdDeviation="3" result="blur"/>
      <feFlood flood-opacity="0.161"/>
      <feComposite operator="in" in2="blur"/>
      <feComposite in="SourceGraphic"/>
    </filter>
  </defs>
  <g id="Grupo_1195244" data-name="Grupo 1195244" transform="translate(-275.676 -7658)">
    <g transform="matrix(1, 0, 0, 1, 275.68, 7658)" filter="url(#Elipse_13960)">
      <circle id="Elipse_13960-2" data-name="Elipse 13960" cx="44" cy="44" r="44" transform="translate(9 6)" fill="#fff"/>
    </g>
    <g id="surface1" transform="translate(303.232 7681.88)">
      <path id="Trazado_1109293" data-name="Trazado 1109293" d="M86.088,329.685l-4.056-.831-2.347,2.431-8-6.315,5.336-3.642,5.674-6.209a2.135,2.135,0,0,1,3.383.3l6.722,7.709a2.478,2.478,0,0,1-.6,3.757l-3.96,2.358A3.681,3.681,0,0,1,86.088,329.685Zm0,0" transform="translate(-64.249 -281.816)" fill="#ffe7cf"/>
      <path id="Trazado_1109294" data-name="Trazado 1109294" d="M126.179,382.119l-1.64-1.881-6.84,4.077a3.689,3.689,0,0,1-2.151.439l-3.553-.383-3.069,2.636,4.139,3.267,2.347-2.431,4.056.832a3.689,3.689,0,0,0,2.151-.439l3.96-2.359A2.478,2.478,0,0,0,126.179,382.119Zm0,0" transform="translate(-97.629 -340.804)" fill="#efd5bd"/>
      <path id="Trazado_1109295" data-name="Trazado 1109295" d="M165.292,293.288c-.792-1.228-1.757-.607-2.549-1.835s.173-1.85-.619-3.078-1.757-.607-2.549-1.836.173-1.851-.62-3.079c-.484-.751-1.361-2.3-1.9-2.514l-4.275,2.112,7.439,11.733a2.426,2.426,0,0,0,3.354.724L165,294.6a.946.946,0,0,0,.3-1.3Zm0,0" transform="translate(-136.94 -251.809)" fill="#344a5d"/>
      <path id="Trazado_1109296" data-name="Trazado 1109296" d="M91.51,271.208l-3.358,2.072a1.356,1.356,0,0,1-1.866-.442l-1.9-3.077a1.356,1.356,0,0,1,.442-1.866l3.358-2.072a.839.839,0,0,1,1.155.273l2.441,3.956A.839.839,0,0,1,91.51,271.208Zm0,0" transform="translate(-75.454 -238.144)" fill="#344a5d"/>
      <path id="Trazado_1109297" data-name="Trazado 1109297" d="M107.933,64.493,101.116,68.7a1.909,1.909,0,0,0-.622,2.626l3.361,5.447a1.909,1.909,0,0,0,2.626.622l6.817-4.206,21.56-4.693L121.8,47.328Zm0,0" transform="translate(-89.817 -42.42)" fill="#fed066"/>
      <path id="Trazado_1109298" data-name="Trazado 1109298" d="M146.319,203.344l-21.449,4.873-8.44,5.208,1.964,3.182a1.909,1.909,0,0,0,2.626.622l6.816-4.206,21.56-4.693Zm0,0" transform="translate(-104.355 -182.256)" fill="#f5b556"/>
      <path id="Trazado_1109299" data-name="Trazado 1109299" d="M113.3,221.532l-6.817,4.206a1.909,1.909,0,0,1-2.626-.622l-3.361-5.447a1.909,1.909,0,0,1,.622-2.626l6.817-4.206Zm0,0" transform="translate(-89.817 -190.763)" fill="#fd715c"/>
      <path id="Trazado_1109300" data-name="Trazado 1109300" d="M124.87,250.336l-8.44,5.208,1.964,3.182a1.909,1.909,0,0,0,2.626.622l6.816-4.206Zm0,0" transform="translate(-104.355 -224.374)" fill="#d83e3a"/>
      <path id="Trazado_1109301" data-name="Trazado 1109301" d="M303.867,52.855l-.93.574a1.026,1.026,0,0,1-1.412-.335L287.484,30.339a1.026,1.026,0,0,1,.335-1.412l.931-.574a1.026,1.026,0,0,1,1.412.334L304.2,51.443A1.026,1.026,0,0,1,303.867,52.855Zm0,0" transform="translate(-257.532 -25.275)" fill="#fd715c"/>
      <path id="Trazado_1109302" data-name="Trazado 1109302" d="M406.9,219.963l-2.31-3.744-2.677,1.652,2.31,3.744a1.026,1.026,0,0,0,1.412.335l.93-.574A1.026,1.026,0,0,0,406.9,219.963Zm0,0" transform="translate(-360.236 -193.795)" fill="#d83e3a"/>
      <path id="Trazado_1109303" data-name="Trazado 1109303" d="M250.745,393.1a1.762,1.762,0,0,0,2.423.585l2.569-1.57a1.762,1.762,0,0,0-1.838-3.007l-2.569,1.571A1.762,1.762,0,0,0,250.745,393.1Zm0,0" transform="translate(-224.509 -348.522)" fill="#ffe7cf"/>
      <path id="Trazado_1109304" data-name="Trazado 1109304" d="M256.466,390.77a1.752,1.752,0,0,0-.858-.719,1.762,1.762,0,0,1-.826,1.74l-2.569,1.57a1.759,1.759,0,0,1-1.564.134,1.761,1.761,0,0,0,2.664,1.267l2.569-1.57A1.762,1.762,0,0,0,256.466,390.77Zm0,0" transform="translate(-224.654 -349.6)" fill="#efd5bd"/>
      <path id="Trazado_1109305" data-name="Trazado 1109305" d="M240.1,359.555a1.789,1.789,0,0,0,2.459.594l2.523-1.542a1.789,1.789,0,0,0-1.866-3.053L240.7,357.1A1.788,1.788,0,0,0,240.1,359.555Zm0,0" transform="translate(-214.966 -318.444)" fill="#ffe7cf"/>
      <path id="Trazado_1109306" data-name="Trazado 1109306" d="M245.812,357.343a1.781,1.781,0,0,0-.841-.718,1.788,1.788,0,0,1-.841,1.752l-2.523,1.543a1.785,1.785,0,0,1-1.618.124,1.787,1.787,0,0,0,2.707,1.3l2.523-1.542A1.789,1.789,0,0,0,245.812,357.343Zm0,0" transform="translate(-215.099 -319.64)" fill="#efd5bd"/>
      <path id="Trazado_1109307" data-name="Trazado 1109307" d="M221.966,330.312a1.789,1.789,0,0,0,2.459.594l2.523-1.543a1.789,1.789,0,1,0-1.865-3.052l-2.523,1.542A1.789,1.789,0,0,0,221.966,330.312Zm0,0" transform="translate(-198.712 -292.234)" fill="#ffe7cf"/>
      <path id="Trazado_1109308" data-name="Trazado 1109308" d="M227.654,328.171a1.781,1.781,0,0,0-.821-.71,1.788,1.788,0,0,1-.843,1.725l-2.523,1.542a1.785,1.785,0,0,1-1.639.116,1.786,1.786,0,0,0,2.709,1.327l2.523-1.542A1.789,1.789,0,0,0,227.654,328.171Zm0,0" transform="translate(-198.823 -293.501)" fill="#efd5bd"/>
      <path id="Trazado_1109309" data-name="Trazado 1109309" d="M204.87,300.32a1.789,1.789,0,0,0,2.459.594l2.523-1.543a1.789,1.789,0,1,0-1.866-3.052l-2.523,1.542A1.789,1.789,0,0,0,204.87,300.32Zm0,0" transform="translate(-183.389 -265.353)" fill="#ffe7cf"/>
      <path id="Trazado_1109310" data-name="Trazado 1109310" d="M210.8,297.612a1.78,1.78,0,0,0-1-.776,1.788,1.788,0,0,1-.815,1.9l-2.523,1.543a1.784,1.784,0,0,1-1.458.182,1.785,1.785,0,0,0,2.681,1.153l2.524-1.542A1.789,1.789,0,0,0,210.8,297.612Zm0,0" transform="translate(-183.743 -266.052)" fill="#efd5bd"/>
      <path id="Trazado_1109311" data-name="Trazado 1109311" d="M135.634,299.335l-.468.286a1.542,1.542,0,0,1-2.126-.482l-.776-1.268a1.329,1.329,0,0,0-1.84-.411c-.638,4.679-7.287,4.256-7.287,4.256l4.121-6.207a3.317,3.317,0,0,1,1.122-1.156l2.326-1.442a2.368,2.368,0,0,1,3.277.73l2.192,3.577A1.543,1.543,0,0,1,135.634,299.335Zm0,0" transform="translate(-110.367 -262.204)" fill="#ffe7cf"/>
      <path id="Trazado_1109312" data-name="Trazado 1109312" d="M174.9,323.867l-.018-.029a1.594,1.594,0,0,1-.522.518l-.468.286a1.542,1.542,0,0,1-2.126-.482l-.775-1.268a1.33,1.33,0,0,0-1.841-.411,9.258,9.258,0,0,1-2.806,5.131,4.376,4.376,0,0,0,2.806-3.5,1.33,1.33,0,0,1,1.841.411l.775,1.268a1.542,1.542,0,0,0,2.126.482l.468-.286A1.543,1.543,0,0,0,174.9,323.867Zm0,0" transform="translate(-149.093 -288.852)" fill="#efd5bd"/>
      <path id="Trazado_1109313" data-name="Trazado 1109313" d="M93.429,395.142l-6.554-7.789,2.158-1.816a.162.162,0,0,1,.227.02l6.347,7.542a.161.161,0,0,1-.019.227Zm0,0" transform="translate(-77.865 -345.52)" fill="#cdd6df"/>
      <path id="Trazado_1109314" data-name="Trazado 1109314" d="M122.174,424.1l-3.377-4.013-2.282,1.92,3.48,4.136,2.158-1.816A.161.161,0,0,0,122.174,424.1Zm0,0" transform="translate(-104.432 -376.52)" fill="#96a4aa"/>
      <path id="Trazado_1109315" data-name="Trazado 1109315" d="M22.754,405.44l-7.084-8.31a.17.17,0,0,0-.226-.03L7.9,403.055a1.05,1.05,0,0,0-.4.824V406.3a1.05,1.05,0,0,0,1.05,1.05H20.892a1.05,1.05,0,0,0,.818-.392l1.037-1.29A.171.171,0,0,0,22.754,405.44Zm0,0" transform="translate(-6.722 -355.891)" fill="#3c5666"/>
      <path id="Trazado_1109316" data-name="Trazado 1109316" d="M82.816,443.722l-3.359-3.94-4.945,5.852h6.442a1.05,1.05,0,0,0,.818-.392l1.037-1.291A.17.17,0,0,0,82.816,443.722Zm0,0" transform="translate(-66.784 -394.172)" fill="#194451"/>
      <path id="Trazado_1109317" data-name="Trazado 1109317" d="M403.41,90.017a.778.778,0,0,0,1.07.255l4.216-2.594a.778.778,0,1,0-.815-1.325l-4.216,2.593A.778.778,0,0,0,403.41,90.017Zm0,0" transform="translate(-361.47 -77.294)"/>
      <path id="Trazado_1109318" data-name="Trazado 1109318" d="M444.433,167.287l-6.181-.6a.778.778,0,1,0-.15,1.548l6.181.6c.026,0,.051,0,.076,0a.778.778,0,0,0,.075-1.552Zm0,0" transform="translate(-392.037 -149.396)"/>
      <path id="Trazado_1109319" data-name="Trazado 1109319" d="M369.688,7.29a.776.776,0,0,0,1.007-.443l2.251-5.788A.778.778,0,0,0,371.5.5l-2.252,5.788A.778.778,0,0,0,369.688,7.29Zm0,0" transform="translate(-330.903 0)"/>
      <path id="Trazado_1109320" data-name="Trazado 1109320" d="M33.291,21.561a1.806,1.806,0,0,0-2.483-.588l-.93.574a1.8,1.8,0,0,0-.588,2.483l.535.867L17.594,40.038l-2.583,1.594a.778.778,0,0,0,.817,1.324L17.862,41.7l3.964,6.425a3.178,3.178,0,0,0-1.663.348l-.028.014c-.07.037-.139.075-.207.117L17.6,50.047a4.173,4.173,0,0,0-1.373,1.406l-.574.865-.422.635-.011,0-.019-.009c-.033-.015-.065-.031-.1-.048l-.02-.011a1.165,1.165,0,0,1-.1-.067l-.02-.015c-.029-.023-.058-.047-.085-.073l-.01-.009a1.191,1.191,0,0,1-.083-.091l-.017-.021a1.18,1.18,0,0,1-.073-.1l-3.361-5.448a1.131,1.131,0,0,1,.368-1.556l1.006-.621a.778.778,0,0,0-.817-1.324l-1.006.621a2.687,2.687,0,0,0-1.176,3.012l-.748.462a2.136,2.136,0,0,0-.7,2.936l1.9,3.077a2.12,2.12,0,0,0,1.324.956,2.154,2.154,0,0,0,.5.058,2.117,2.117,0,0,0,1.116-.319l.749-.462a2.686,2.686,0,0,0,.512.366l-2.16,3.253-.509.348a.939.939,0,0,0-1.03.119l-1.34,1.128a.946.946,0,0,0-1.043.016l-.044.032L.7,65.112A1.817,1.817,0,0,0,0,66.546v2.423A1.83,1.83,0,0,0,1.827,70.8H14.17a1.819,1.819,0,0,0,1.425-.683l1.023-1.273a.943.943,0,0,0,.228-.722l1.377-1.159a.933.933,0,0,0,.286-.421l3.174.651a.763.763,0,0,0,.142.016l.278,0a4.136,4.136,0,0,0,2.285-.551l3.2-1.9c.054,0,.107.005.16.005a2.522,2.522,0,0,0,1.32-.374l2.569-1.57a2.537,2.537,0,0,0-.175-4.43,2.564,2.564,0,0,0-1.648-3.679,2.558,2.558,0,0,0-1.8-3.009,2.56,2.56,0,0,0-.291-1.984,2.6,2.6,0,0,0-.34-.439l15.412-3.355.535.867a1.805,1.805,0,0,0,2.482.588l.931-.574a1.8,1.8,0,0,0,.588-2.483Zm-21,31.471a.578.578,0,0,1-.8-.188l-1.9-3.077a.579.579,0,0,1,.188-.8l.66-.407,2.506,4.06Zm2.093,16.107a.269.269,0,0,1-.212.1H1.827a.272.272,0,0,1-.272-.272V66.546a.271.271,0,0,1,.1-.214l7.076-5.586,6.378,7.482Zm1.582-2.312-5.595-6.563.828-.7,5.553,6.6Zm7.624-1.5a2.834,2.834,0,0,1-1.663.328l-3.985-.817a.776.776,0,0,0-.282-.006l-4.892-5.813.443-.3h0l.022-.017c.017-.013.033-.025.049-.038l.022-.021c.016-.015.03-.03.045-.045l.017-.019c.017-.021.034-.043.049-.065l0-.006,0-.005,0-.006,4.113-6.2.026-.041a2.544,2.544,0,0,1,.859-.884l2.326-1.442c.043-.027.087-.051.131-.073l.06-.028.071-.03c.027-.011.054-.021.082-.03l.043-.014c.034-.01.068-.021.1-.029h0a1.651,1.651,0,0,1,.379-.046h.008c.037,0,.074,0,.111,0l.036,0c.033,0,.065.007.1.011l.058.011a1.5,1.5,0,0,1,.147.035l.056.016.073.028.057.023c.024.01.048.021.071.033l.052.027.07.04.047.03c.023.015.046.031.068.048l.04.032c.023.018.046.037.068.056a1.491,1.491,0,0,1,.275.33l.057.094.829,1.353,1.041,1.7.265.432a.681.681,0,0,1,.062.128.726.726,0,0,1,.022.421.8.8,0,0,1-.366.5l-.468.286h0a.822.822,0,0,1-.1.051l-.022.009a.806.806,0,0,1-.1.034l-.013,0a.817.817,0,0,1-.1.017l-.019,0a.9.9,0,0,1-.1,0h-.019a.8.8,0,0,1-.1-.013h0a.762.762,0,0,1-.108-.031l-.009,0a.73.73,0,0,1-.2-.116h0a.75.75,0,0,1-.084-.08l-.007-.008a.68.68,0,0,1-.066-.09l-.775-1.268a2.056,2.056,0,0,0-1.29-.933,2.125,2.125,0,0,0-1.624.267.778.778,0,0,0-.361.556c-.009.066-.02.132-.032.2-.009.047-.019.094-.03.14,0,.015-.007.031-.01.047-.014.058-.029.116-.045.173l0,.007a3.3,3.3,0,0,1-.367.827h0a3.652,3.652,0,0,1-1.235,1.183.778.778,0,1,0,.808,1.329,5.691,5.691,0,0,0,1.008-.774l3.248,5.123a3.223,3.223,0,0,0,2.7,1.467c.057,0,.113,0,.17-.006.022.041.045.081.069.121a2.566,2.566,0,0,0,.314.412Zm.66-5.719h0c.013.036.027.072.042.108l.005.013c.013.032.028.064.043.1l.01.022c.014.03.03.06.045.089l.014.026c.021.038.043.076.065.113.039.064.081.125.125.185l.048.062c.029.036.058.072.089.107s.043.049.065.073.035.034.052.051a2.566,2.566,0,0,0,.2.178l.021.017a2.526,2.526,0,0,0,.43.275,2.561,2.561,0,0,0-.275.847,1.652,1.652,0,0,1-1.284-.746l-3.576-5.64a5.005,5.005,0,0,0,.38-1.1.58.58,0,0,1,.167.015.514.514,0,0,1,.323.231L22.01,55.9l0,.005a2.162,2.162,0,0,0,.123.18c.032.043.067.082.1.122.012.014.023.029.036.043l.005.021q.018.081.041.16l.014.046c.019.06.039.119.063.178,0,.006,0,.012.007.017.021.054.045.106.071.158.007.015.015.03.022.045.029.057.06.113.093.168a2.548,2.548,0,0,0,1.563,1.15A2.556,2.556,0,0,0,24.247,59.6Zm.5-9.257.261-.16a1.011,1.011,0,1,1,1.055,1.725l-.26.159-.769-1.255Zm5.8,9.343a.984.984,0,0,1,.282,1.8l-2.569,1.57a.977.977,0,0,1-.682.129l-.041-.008-.021,0a.978.978,0,0,1-.733-.761.06.06,0,0,0,0-.009.991.991,0,0,1,.261-.873l.018-.018.035-.032c.012-.011.024-.021.037-.031l.028-.022c.023-.017.046-.033.071-.049h0l.51-.312a2.652,2.652,0,0,0,.264-.14l1.965-1.2A.979.979,0,0,1,30.54,59.69Zm-1.789-3.409a1.011,1.011,0,0,1,.963,1.775l-.463.283a2.6,2.6,0,0,0-.266.141l-1.955,1.195a1.014,1.014,0,0,1-1.055-.2h0c-.022-.02-.043-.041-.062-.063l-.015-.019c-.015-.017-.029-.034-.043-.052s-.037-.052-.054-.079-.032-.057-.047-.086l-.013-.028c-.009-.02-.018-.04-.026-.061s-.007-.021-.011-.032-.013-.039-.018-.059-.006-.022-.008-.033-.009-.04-.012-.061l0-.032c0-.021,0-.042-.006-.063s0-.02,0-.03,0-.044,0-.065,0-.019,0-.028,0-.044.006-.066,0-.019,0-.028.007-.039.011-.058A1.009,1.009,0,0,1,26,57.978l.02-.019.029-.025c.024-.014.049-.026.073-.041l2.524-1.543Q28.7,56.317,28.751,56.281Zm-1.209-3.1a1.011,1.011,0,0,1,.382,1.782L27.847,55,25.9,56.195l.019-.016c.037-.03.075-.06.109-.091s.043-.04.064-.06.063-.062.093-.095.04-.045.06-.068.055-.066.081-.1.037-.048.054-.073.048-.071.071-.108.032-.051.046-.077.043-.079.062-.119.026-.05.037-.076c.02-.045.038-.091.056-.138.008-.022.018-.044.026-.067.024-.07.045-.141.063-.214s.03-.139.04-.209c0-.022,0-.045.008-.067.006-.048.01-.1.013-.143,0-.026,0-.052,0-.078,0-.044,0-.089,0-.133,0-.026,0-.053,0-.079,0-.044-.009-.089-.014-.133,0-.025-.006-.049-.01-.074-.009-.05-.019-.1-.031-.149,0-.018-.007-.036-.012-.054-.018-.067-.038-.133-.062-.2,0-.013-.01-.025-.016-.038-.017-.044-.034-.088-.054-.131l.179-.109A1,1,0,0,1,27.542,53.178Zm18.5-7.856a.248.248,0,0,1-.111.154L45,46.05a.249.249,0,0,1-.342-.081l-9.8-15.878a.778.778,0,1,0-1.323.817l8.4,13.607L23.854,48.45l-4.787-7.759L30.691,26.3l.939,1.522a.778.778,0,1,0,1.324-.817l-2.34-3.793a.248.248,0,0,1,.081-.342l.93-.574a.249.249,0,0,1,.342.081l14.04,22.755A.247.247,0,0,1,46.038,45.321Zm0,0" transform="translate(0 -18.558)"/>
    </g>
  </g>
</svg>
