<svg id="documento" xmlns="http://www.w3.org/2000/svg" width="66.292" height="66.292" viewBox="0 0 66.292 66.292">
  <g id="Grupo_1195830" data-name="Grupo 1195830" transform="translate(1.069 1.069)">
    <g id="Grupo_1195825" data-name="Grupo 1195825" transform="translate(16.038 2.138)">
      <path id="Trazado_1111377" data-name="Trazado 1111377" d="M52.99,10.415a4.281,4.281,0,0,1-3.026-1.251L48.008,7.208H44.8A4.268,4.268,0,0,1,40.662,4H17V57.462H55.492V10.415Z" transform="translate(-17 -4)" fill="#e6e9ed"/>
    </g>
    <g id="Grupo_1195826" data-name="Grupo 1195826" transform="translate(20.315 6.415)">
      <path id="Trazado_1111378" data-name="Trazado 1111378" d="M21,8H38.108V20.831H21Z" transform="translate(-21 -8)" fill="#b4dd7f"/>
    </g>
    <g id="Grupo_1195827" data-name="Grupo 1195827" transform="translate(33.146 36.354)">
      <path id="Trazado_1111379" data-name="Trazado 1111379" d="M33,36H50.108V50.969H33Z" transform="translate(-33 -36)" fill="#fcd770"/>
    </g>
    <g id="Grupo_1195828" data-name="Grupo 1195828" transform="translate(0 40.631)">
      <path id="Trazado_1111380" data-name="Trazado 1111380" d="M31.938,59.246a2.154,2.154,0,0,1,2.138,2.138,2.145,2.145,0,0,1-2.138,2.138H11.505a8.641,8.641,0,0,1-3.828-.9l-4.608-2.31H2V44.277H3.069L6.79,41.8A10.64,10.64,0,0,1,12.724,40h12.8a1.072,1.072,0,0,1,1.069,1.069,4.276,4.276,0,0,1-4.277,4.277H18.038v9.623H34.077a2.145,2.145,0,0,1,2.138,2.138,2.154,2.154,0,0,1-2.138,2.138Z" transform="translate(-2 -40)" fill="#f0d0b4"/>
    </g>
    <g id="Grupo_1195829" data-name="Grupo 1195829" transform="translate(39.562)">
      <path id="Trazado_1111381" data-name="Trazado 1111381" d="M63.592,6.277V21.246H62.523l-4.608,2.31a8.641,8.641,0,0,1-3.828.9h-.118v-13.9h-2.5A4.281,4.281,0,0,1,48.441,9.3L46.485,7.346H43.277a4.268,4.268,0,0,1-4.138-3.208A3.91,3.91,0,0,1,39,3.069,1.072,1.072,0,0,1,40.069,2h12.8A10.64,10.64,0,0,1,58.8,3.8l3.721,2.481Z" transform="translate(-39 -2)" fill="#f0d0b4"/>
    </g>
  </g>
  <g id="Grupo_1195831" data-name="Grupo 1195831" transform="translate(0 0)">
    <path id="Trazado_1111382" data-name="Trazado 1111382" d="M65.478,5.277l-3.453-2.3A11.719,11.719,0,0,0,55.5,1H42.7a2.141,2.141,0,0,0-2.138,2.138H17.038V41.631H12.79a11.723,11.723,0,0,0-6.524,1.976l-3.451,2.3H1V64.085H2.886L7.27,66.277a9.677,9.677,0,0,0,4.3,1.016H32.008a3.2,3.2,0,0,0,2.972-4.4,3.154,3.154,0,0,0,2.177-4.153H57.669V25.545a9.685,9.685,0,0,0,3.354-.969l4.384-2.192h1.885V5.277ZM35.215,59.808a1.07,1.07,0,0,1-1.069,1.069H21.315v2.138H32.008a1.069,1.069,0,0,1,0,2.138H11.574a7.518,7.518,0,0,1-3.348-.79L3.391,61.946H3.138v-13.9h.324l3.99-2.66a9.6,9.6,0,0,1,5.338-1.617h12.8a3.212,3.212,0,0,1-3.208,3.208h-4.72l-1.641,1.641a5.314,5.314,0,0,1-3.781,1.566h-.551v2.138h.551a7.427,7.427,0,0,0,4.8-1.742v8.157H34.146A1.07,1.07,0,0,1,35.215,59.808ZM55.531,56.6H19.177V49.115h3.208a5.352,5.352,0,0,0,5.346-5.346,2.141,2.141,0,0,0-2.138-2.138H19.177V5.277H41.015a5.349,5.349,0,0,0,4.893,3.208h2.765l1.641,1.642a5.312,5.312,0,0,0,3.781,1.565h1.436Zm9.623-36.354H64.9l-4.834,2.418a7.508,7.508,0,0,1-2.4.729V9.554H54.1a3.188,3.188,0,0,1-2.269-.939L49.558,6.346h-3.65A3.212,3.212,0,0,1,42.7,3.138H55.5a9.592,9.592,0,0,1,5.338,1.617l3.99,2.66h.324Z" transform="translate(-1 -1)"/>
    <path id="Trazado_1111383" data-name="Trazado 1111383" d="M32,52.108H51.246V35H32Zm2.138-14.969H49.108V49.969H34.138Z" transform="translate(1.146 1.354)"/>
    <path id="Trazado_1111384" data-name="Trazado 1111384" d="M39.187,45.022,37.8,43.639l-1.512,1.512,2.894,2.894L47.428,39.8l-1.512-1.512Z" transform="translate(1.443 1.582)"/>
    <path id="Trazado_1111385" data-name="Trazado 1111385" d="M20,49H30.692v2.138H20Z" transform="translate(0.315 2.323)"/>
    <path id="Trazado_1111386" data-name="Trazado 1111386" d="M28,45h2.138v2.138H28Z" transform="translate(0.869 2.046)"/>
    <path id="Trazado_1111387" data-name="Trazado 1111387" d="M28,41h2.138v2.138H28Z" transform="translate(0.869 1.769)"/>
    <path id="Trazado_1111388" data-name="Trazado 1111388" d="M39.246,7H20V21.969H39.246ZM37.108,19.831H22.138V9.138H37.108Z" transform="translate(0.315 -0.585)"/>
    <path id="Trazado_1111389" data-name="Trazado 1111389" d="M40,19H50.692v2.138H40Z" transform="translate(1.7 0.246)"/>
    <path id="Trazado_1111390" data-name="Trazado 1111390" d="M40,15H50.692v2.138H40Z" transform="translate(1.7 -0.031)"/>
    <path id="Trazado_1111391" data-name="Trazado 1111391" d="M40,11h2.138v2.138H40Z" transform="translate(1.7 -0.308)"/>
    <path id="Trazado_1111392" data-name="Trazado 1111392" d="M44,11h6.415v2.138H44Z" transform="translate(1.977 -0.308)"/>
    <path id="Trazado_1111393" data-name="Trazado 1111393" d="M20,23h2.138v2.138H20Z" transform="translate(0.315 0.523)"/>
    <path id="Trazado_1111394" data-name="Trazado 1111394" d="M24,23H51.8v2.138H24Z" transform="translate(0.592 0.523)"/>
    <path id="Trazado_1111395" data-name="Trazado 1111395" d="M20,27H52.077v2.138H20Z" transform="translate(0.315 0.8)"/>
    <path id="Trazado_1111396" data-name="Trazado 1111396" d="M20,31h2.138v2.138H20Z" transform="translate(0.315 1.077)"/>
    <path id="Trazado_1111397" data-name="Trazado 1111397" d="M28,31h2.138v2.138H28Z" transform="translate(0.869 1.077)"/>
    <path id="Trazado_1111398" data-name="Trazado 1111398" d="M24,31h2.138v2.138H24Z" transform="translate(0.592 1.077)"/>
    <path id="Trazado_1111399" data-name="Trazado 1111399" d="M32,31H51.246v2.138H32Z" transform="translate(1.146 1.077)"/>
    <path id="Trazado_1111400" data-name="Trazado 1111400" d="M20,35H30.692v2.138H20Z" transform="translate(0.315 1.354)"/>
  </g>
</svg>
