<svg xmlns="http://www.w3.org/2000/svg" xmlns:xlink="http://www.w3.org/1999/xlink" width="130.113" height="130.788" viewBox="0 0 130.113 130.788">
  <defs>
    <filter id="_52" x="0" y="0" width="130.113" height="130.788" filterUnits="userSpaceOnUse">
      <feOffset dx="3" dy="3" input="SourceAlpha"/>
      <feGaussianBlur stdDeviation="3" result="blur"/>
      <feFlood flood-opacity="0.161"/>
      <feComposite operator="in" in2="blur"/>
      <feComposite in="SourceGraphic"/>
    </filter>
  </defs>
  <g id="Grupo_1194373" data-name="Grupo 1194373" transform="translate(-5994.522 7654.972)">
    <g transform="matrix(1, 0, 0, 1, 5994.52, -7654.97)" filter="url(#_52)">
      <g id="_52-2" data-name="52" transform="translate(6 6)" fill="#fff" stroke="#fff" stroke-width="3">
        <ellipse cx="56.056" cy="56.394" rx="56.056" ry="56.394" stroke="none"/>
        <ellipse cx="56.056" cy="56.394" rx="54.556" ry="54.894" fill="none"/>
      </g>
    </g>
    <g id="etiqueta" transform="translate(6023.56 -7625.148)">
      <g id="Grupo_1194359" data-name="Grupo 1194359" transform="translate(1.296 1.297)">
        <path id="Trazado_1100850" data-name="Trazado 1100850" d="M31.422,116.2A8,8,0,0,0,16.7,110.11l-6.362,12.148a2.558,2.558,0,0,0,1.079,3.453l9.64,5.049a2.558,2.558,0,0,0,3.453-1.079l3.248-6.2,8.164,4.113a4.041,4.041,0,0,0,3.641-7.215Z" transform="translate(-10.045 -93.917)" fill="#b8ecbc"/>
        <ellipse id="Elipse_13917" data-name="Elipse 13917" cx="6.821" cy="6.821" rx="6.821" ry="6.821" transform="translate(14.452)" fill="#ffdcd5"/>
        <path id="Trazado_1100851" data-name="Trazado 1100851" d="M121.636,368.835l-.046,13.625h15.93V368.835Z" transform="translate(-107.203 -323.008)" fill="#ffa96b"/>
        <path id="Trazado_1100852" data-name="Trazado 1100852" d="M398.068,262.38l-5.95,1.408v21.4a3.931,3.931,0,0,0,3.931,3.933,3.557,3.557,0,0,0,2.537-.929h0a3.931,3.931,0,0,0,6.9-2.574v-27Z" transform="translate(-342.838 -227.002)" fill="#dfedff"/>
        <path id="Trazado_1100853" data-name="Trazado 1100853" d="M22.835,262.38l5.95,1.408v21.4a3.931,3.931,0,0,1-3.931,3.933,3.557,3.557,0,0,1-2.537-.929h0a3.931,3.931,0,0,1-6.9-2.574v-27Z" transform="translate(-14.721 -227.002)" fill="#80b6ff"/>
        <path id="Trazado_1100854" data-name="Trazado 1100854" d="M266.335,116.2a8,8,0,0,1,14.721-6.091l6.362,12.148a2.558,2.558,0,0,1-1.079,3.453l-9.64,5.049a2.558,2.558,0,0,1-3.453-1.079l-3.248-6.2-8.164,4.113a4.041,4.041,0,0,1-3.641-7.215Z" transform="translate(-224.267 -93.917)" fill="#ff7d97"/>
        <g id="Grupo_1194358" data-name="Grupo 1194358" transform="translate(24.432)">
          <ellipse id="Elipse_13918" data-name="Elipse 13918" cx="6.821" cy="6.821" rx="6.821" ry="6.821" transform="translate(10.917)" fill="#ffdcd5"/>
          <path id="Trazado_1100855" data-name="Trazado 1100855" d="M199.466,218.25l3.089-7.512s5.282,1.873,3.89,5.449C204.287,221.727,199.466,218.25,199.466,218.25Z" transform="translate(-199.466 -185.302)" fill="#ffdcd5"/>
          <path id="Trazado_1100856" data-name="Trazado 1100856" d="M266.284,221.2l-2.913-7.084s-5.08,1.264-3.667,5.4C261.544,224.909,266.284,221.2,266.284,221.2Z" transform="translate(-251.718 -188.244)" fill="#ffdcd5"/>
        </g>
      </g>
      <g id="Grupo_1194360" data-name="Grupo 1194360" transform="translate(0 0)">
        <ellipse id="Elipse_13919" data-name="Elipse 13919" cx="1.29" cy="1.29" rx="1.29" ry="1.29" transform="translate(62.658 45.834)"/>
        <path id="Trazado_1100857" data-name="Trazado 1100857" d="M65.6,32.511,59.234,20.362a9.317,9.317,0,0,0-8.586-4.981A8.121,8.121,0,1,0,43.141,19.7a9.277,9.277,0,0,0-1.283,6.666l-7.226,3.706a5.348,5.348,0,0,0-1.615,1.262A5.337,5.337,0,0,0,31.4,30.077L24.177,26.37A9.277,9.277,0,0,0,22.894,19.7a8.113,8.113,0,1,0-7.5-4.316A9.307,9.307,0,0,0,6.8,20.362L.439,32.511a3.86,3.86,0,0,0,.352,4.127V63.386A5.225,5.225,0,0,0,9.116,67.6a5.224,5.224,0,0,0,6.967-2.076h15.53a1.3,1.3,0,0,0,1.3-1.3V50.6a1.311,1.311,0,0,0-1.3-1.3H26.97v-.343a5.042,5.042,0,0,0-5.036-5.036H21.66a5.044,5.044,0,0,0-4.9,3.89V41.4c.054-.086,2.808-5.333,2.808-5.333l7.028,3.541a5.343,5.343,0,0,0,6.425-1.287A5.343,5.343,0,0,0,39.447,39.6l7.024-3.538L49.278,41.4V62.957a5.227,5.227,0,0,0,7.64,4.64,5.225,5.225,0,0,0,8.325-4.21V56.4a1.3,1.3,0,1,0-2.594,0v6.99a2.635,2.635,0,1,1-5.269,0V41.165l5.269-2.76V44.8a1.3,1.3,0,1,0,2.594,0V36.642a3.862,3.862,0,0,0,.351-4.131ZM37.952,11.925a5.531,5.531,0,0,1,5.182-5.847q.169-.01.336-.01a5.524,5.524,0,1,1-5.518,5.857Zm-20.9-.665a5.531,5.531,0,0,1,5.511-5.192c.111,0,.224,0,.336.01a5.524,5.524,0,1,1-5.847,5.182ZM3.385,63.386V38.405l5.269,2.759V63.386a2.635,2.635,0,1,1-5.269,0Zm8.143,2.206a2.645,2.645,0,0,1-.724-.1,5.2,5.2,0,0,0,.444-2.105V42.523l.457.24a3.782,3.782,0,0,0,2.457.38V62.957A2.638,2.638,0,0,1,11.528,65.592Zm5.229-13.7h11L21.8,56.412l-5.04-3.821Zm0,11.031v-7.08l4.256,3.227a1.3,1.3,0,0,0,1.567,0l7.735-5.864v9.717H16.757Zm2.461-13.968a2.445,2.445,0,0,1,2.442-2.442h.274a2.445,2.445,0,0,1,2.442,2.442V49.3H19.218v-.343Zm-4.607-9.025a1.273,1.273,0,0,1-1.7.532l-9.64-5.049a1.262,1.262,0,0,1-.532-1.7L9.1,21.566a6.7,6.7,0,0,1,12.335,5.1,1.3,1.3,0,0,0,.646,1.541l5.083,2.607-2.1,5.114L19.8,33.282l-5.251-5.723a1.3,1.3,0,0,0-1.911,1.754l4.8,5.227Zm16.86-3.961a2.744,2.744,0,0,1-3.716,1.316l-.371-.187,2.1-5.1.744.382a2.736,2.736,0,0,1,1.5,2.383A2.916,2.916,0,0,1,31.471,35.971Zm4.674,1.446a2.722,2.722,0,0,1-1.582-1.446,2.914,2.914,0,0,1-.247-1.2,2.738,2.738,0,0,1,1.5-2.384l.727-.373,2.1,5.1-.352.177A2.722,2.722,0,0,1,36.145,37.418ZM48.6,34.539l4.8-5.227a1.3,1.3,0,1,0-1.911-1.754l-5.251,5.723L40.96,35.938l-2.1-5.114,5.1-2.615a1.3,1.3,0,0,0,.646-1.541,6.7,6.7,0,0,1,12.335-5.1L63.3,33.714a1.261,1.261,0,0,1-.532,1.7l-9.64,5.049a1.273,1.273,0,0,1-1.7-.532Zm6.632,30.953a2.636,2.636,0,0,1-3.359-2.535V43.143a3.782,3.782,0,0,0,2.457-.38l.457-.24V63.386a5.2,5.2,0,0,0,.444,2.105Z" transform="translate(0 -3.474)"/>
        <path id="Trazado_1100858" data-name="Trazado 1100858" d="M308.817,63.736a1.3,1.3,0,1,0,1.318,1.276A1.3,1.3,0,0,0,308.817,63.736Z" transform="translate(-267.874 -55.963)"/>
        <path id="Trazado_1100859" data-name="Trazado 1100859" d="M185.5,66.33a1.3,1.3,0,1,0-1.318-1.276A1.3,1.3,0,0,0,185.5,66.33Z" transform="translate(-160.427 -55.963)"/>
      </g>
    </g>
  </g>
</svg>
