<svg xmlns="http://www.w3.org/2000/svg" xmlns:xlink="http://www.w3.org/1999/xlink" width="130.113" height="130.788" viewBox="0 0 130.113 130.788">
  <defs>
    <filter id="_52" x="0" y="0" width="130.113" height="130.788" filterUnits="userSpaceOnUse">
      <feOffset dx="3" dy="3" input="SourceAlpha"/>
      <feGaussianBlur stdDeviation="3" result="blur"/>
      <feFlood flood-opacity="0.161"/>
      <feComposite operator="in" in2="blur"/>
      <feComposite in="SourceGraphic"/>
    </filter>
  </defs>
  <g id="Grupo_1196062" data-name="Grupo 1196062" transform="translate(11779.849 4743.901)">
    <g id="Grupo_1195129" data-name="Grupo 1195129" transform="translate(-26286.818 3361.512)">
      <g transform="matrix(1, 0, 0, 1, 14506.97, -8105.41)" filter="url(#_52)">
        <g id="_52-2" data-name="52" transform="translate(6 6)" fill="#fff" stroke="#fff" stroke-width="3">
          <ellipse cx="56.056" cy="56.394" rx="56.056" ry="56.394" stroke="none"/>
          <ellipse cx="56.056" cy="56.394" rx="54.556" ry="54.894" fill="none"/>
        </g>
      </g>
    </g>
    <g id="agil" transform="translate(-11748.918 -4712.594)">
      <g id="Grupo_1195174" data-name="Grupo 1195174" transform="translate(0.911 0.912)">
        <path id="Trazado_1103715" data-name="Trazado 1103715" d="M273.03,391.47l-5.124,7.3H240.993v-14.59h26.914Z" transform="translate(-212.602 -338.417)" fill="#9dc6fb"/>
        <path id="Trazado_1103716" data-name="Trazado 1103716" d="M37.74,94.966a11.91,11.91,0,0,0,11.9,11.9l-14.59,4.085-9.088-4.085A26.5,26.5,0,0,1,49.636,68.479v14.59A11.91,11.91,0,0,0,37.74,94.966Z" transform="translate(-21.246 -61.105)" fill="#ffe07d"/>
        <path id="Trazado_1103717" data-name="Trazado 1103717" d="M186.61,94.965a26.488,26.488,0,0,1-26.487,26.487H148.93v-14.59h11.193a11.9,11.9,0,1,0,0-23.794L155,75.773l5.122-7.3A26.488,26.488,0,0,1,186.61,94.965Z" transform="translate(-131.733 -61.104)" fill="#a2e19f"/>
        <path id="Trazado_1103718" data-name="Trazado 1103718" d="M31.03,106.863a26.512,26.512,0,0,1,18.607-37.9v-.484a26.511,26.511,0,0,0-23.678,38.384l9.088,4.085,3.125-.875Z" transform="translate(-21.247 -61.105)" fill="#f1cb86"/>
        <g id="Grupo_1195171" data-name="Grupo 1195171" transform="translate(28.39 21.964)">
          <path id="Trazado_1103719" data-name="Trazado 1103719" d="M240.988,188.477a11.9,11.9,0,0,1,0,23.794h5.072a11.9,11.9,0,1,0,0-23.794Z" transform="translate(-240.988 -188.477)" fill="#97cf92"/>
        </g>
        <path id="Trazado_1103720" data-name="Trazado 1103720" d="M29.81,391.469l-5.124,7.3H9.8a2.309,2.309,0,0,1-2.309-2.309v-9.972A2.309,2.309,0,0,1,9.8,384.174H24.687Z" transform="translate(-7.49 -338.416)" fill="#e28086"/>
        <path id="Trazado_1103721" data-name="Trazado 1103721" d="M12.808,398.766H9.8a2.31,2.31,0,0,1-2.31-2.309v-9.972a2.31,2.31,0,0,1,2.31-2.309h3.008a2.31,2.31,0,0,0-2.31,2.309v9.972A2.31,2.31,0,0,0,12.808,398.766Z" transform="translate(-7.49 -338.418)" fill="#dd636e"/>
        <g id="Grupo_1195173" data-name="Grupo 1195173" transform="translate(33.59)">
          <path id="Trazado_1103722" data-name="Trazado 1103722" d="M308.831,22.993,307.4,22.4a10.214,10.214,0,0,0,0-2.3l1.425-.59a2.852,2.852,0,1,0-2.183-5.269l-1.424.59a10.219,10.219,0,0,0-1.63-1.629l.59-1.425a2.852,2.852,0,1,0-5.269-2.183l-.59,1.426a10.212,10.212,0,0,0-2.3,0l-.59-1.425a2.852,2.852,0,1,0-5.269,2.183l.59,1.424a10.224,10.224,0,0,0-1.629,1.63l-1.426-.59a2.852,2.852,0,1,0-2.182,5.269l1.425.59a10.25,10.25,0,0,0,0,2.3l-1.424.59a2.852,2.852,0,1,0,2.182,5.269l1.425-.59.021.025,0,0a10.16,10.16,0,0,0,1.607,1.6l-.591,1.426a2.85,2.85,0,0,0,3.816,3.686h0a2.837,2.837,0,0,0,1.452-1.5l.591-1.425a10.248,10.248,0,0,0,2.3,0l.59,1.424a2.852,2.852,0,1,0,5.269-2.182l-.59-1.425a10.243,10.243,0,0,0,1.629-1.63l1.425.59a2.852,2.852,0,1,0,2.183-5.269Zm-11.658,3.047a4.79,4.79,0,1,1,4.79-4.79A4.79,4.79,0,0,1,297.173,26.039Z" transform="translate(-283.753 -7.831)" fill="#4a80aa"/>
          <g id="Grupo_1195172" data-name="Grupo 1195172">
            <path id="Trazado_1103723" data-name="Trazado 1103723" d="M403.871,11.015a10.2,10.2,0,0,1,2.3,0l.59-1.426a2.841,2.841,0,0,1,1.453-1.5l-.09-.04A2.85,2.85,0,0,0,404.4,9.59l-.56,1.353Z" transform="translate(-389.241 -7.829)" fill="#407093"/>
            <path id="Trazado_1103724" data-name="Trazado 1103724" d="M286.335,71.438a2.851,2.851,0,0,1,1.543-3.726l1.424-.59a10.243,10.243,0,0,1,0-2.3l-1.425-.59A2.851,2.851,0,0,1,287.79,59l-.093-.039a2.851,2.851,0,1,0-2.182,5.269l1.425.59a10.246,10.246,0,0,0,0,2.3l-1.424.59a2.852,2.852,0,1,0,2.182,5.269l.094-.039A2.841,2.841,0,0,1,286.335,71.438Z" transform="translate(-283.753 -52.55)" fill="#407093"/>
            <path id="Trazado_1103725" data-name="Trazado 1103725" d="M406.768,203.784l-.59-1.424a10.241,10.241,0,0,1-2.3,0l-.03.072.56,1.353a2.852,2.852,0,0,0,3.726,1.543l.091-.04A2.841,2.841,0,0,1,406.768,203.784Z" transform="translate(-389.243 -178.707)" fill="#407093"/>
            <path id="Trazado_1103726" data-name="Trazado 1103726" d="M332.76,177.751a2.851,2.851,0,0,1-3.816-3.686l.591-1.426a10.163,10.163,0,0,1-1.607-1.6l0,0a.222.222,0,0,0-.021-.025h2.364a10.2,10.2,0,0,0,1.63,1.629l-.591,1.426A2.852,2.852,0,0,0,332.76,177.751Z" transform="translate(-322.536 -151.17)" fill="#407093"/>
            <path id="Trazado_1103727" data-name="Trazado 1103727" d="M332.76,8.091a2.851,2.851,0,0,0-3.816,3.686l.591,1.426a10.162,10.162,0,0,0-1.607,1.6l0,0a.223.223,0,0,1-.021.025h2.364A10.2,10.2,0,0,1,331.9,13.2l-.591-1.426A2.852,2.852,0,0,1,332.76,8.091Z" transform="translate(-322.536 -7.833)" fill="#407093"/>
          </g>
        </g>
      </g>
      <g id="Grupo_1195175" data-name="Grupo 1195175" transform="translate(0 0)">
        <path id="Trazado_1103728" data-name="Trazado 1103728" d="M56.96,46.47a.912.912,0,0,0-.746-.388h-1.8a27.614,27.614,0,0,0,1.117-18.941,3.76,3.76,0,0,0,.241-3.358l-.336-.811a11.216,11.216,0,0,0,.8-.8l.812.336a3.763,3.763,0,0,0,2.88-6.954l-.812-.336a11.185,11.185,0,0,0,0-1.128l.811-.336A3.763,3.763,0,1,0,57.045,6.8l-.811.336a11.186,11.186,0,0,0-.8-.8l.336-.812a3.763,3.763,0,0,0-6.954-2.88l-.336.812a11.146,11.146,0,0,0-1.128,0l-.336-.811a3.763,3.763,0,0,0-6.954,2.88l.336.811a11.214,11.214,0,0,0-.8.8L38.792,6.8a3.77,3.77,0,0,0-4.54,1.343,27.958,27.958,0,0,0-10.305.074.912.912,0,1,0,.352,1.789,25.661,25.661,0,0,1,3.2-.421l-4.07,5.8a.912.912,0,0,0,0,1.048L27.623,22.4a12.806,12.806,0,0,0-4.9,23.682H6.192A25.625,25.625,0,0,1,20.906,10.925a.912.912,0,1,0-.6-1.723A27.458,27.458,0,0,0,4.184,46.082H3.22A3.224,3.224,0,0,0,0,49.3v9.971A3.224,3.224,0,0,0,3.22,62.5H56.214a.912.912,0,0,0,.746-.388l1.154-1.644a.912.912,0,0,0-1.493-1.048l-.881,1.256H39.17A27.618,27.618,0,0,0,53.534,47.906H55.74l4.483,6.383-1.505,2.143a.912.912,0,1,0,1.492,1.048l1.874-2.667a.912.912,0,0,0,0-1.048ZM35.56,9.537a1.942,1.942,0,0,1,2.534-1.05l1.425.59A.912.912,0,0,0,40.582,8.8a9.338,9.338,0,0,1,1.483-1.485.912.912,0,0,0,.274-1.062l-.59-1.424a1.94,1.94,0,0,1,3.584-1.485l.59,1.424a.912.912,0,0,0,.945.557,9.336,9.336,0,0,1,2.1,0,.912.912,0,0,0,.945-.557l.59-1.425a1.94,1.94,0,0,1,3.584,1.485L53.5,6.257a.912.912,0,0,0,.275,1.062A9.339,9.339,0,0,1,55.257,8.8a.912.912,0,0,0,1.062.274l1.424-.59a1.94,1.94,0,1,1,1.485,3.584l-1.425.59a.912.912,0,0,0-.557.945,9.335,9.335,0,0,1,0,2.1.912.912,0,0,0,.557.945l1.425.59a1.94,1.94,0,0,1-1.485,3.584l-1.425-.59a.912.912,0,0,0-1.062.275,9.35,9.35,0,0,1-1.483,1.485.912.912,0,0,0-.274,1.062l.59,1.424A1.94,1.94,0,0,1,50.5,25.965l-.59-1.424a.912.912,0,0,0-.945-.557,9.336,9.336,0,0,1-2.1,0,.913.913,0,0,0-.945.557l-.59,1.425A1.94,1.94,0,0,1,41.75,24.48l.59-1.425a.912.912,0,0,0-.275-1.062,9.343,9.343,0,0,1-1.485-1.483.912.912,0,0,0-1.062-.274l-1.425.59a1.94,1.94,0,1,1-1.485-3.584l1.424-.59a.912.912,0,0,0,.557-.945,9.335,9.335,0,0,1,0-2.1.912.912,0,0,0-.557-.945l-1.425-.59a1.942,1.942,0,0,1-1.05-2.534ZM18.316,35.1A10.984,10.984,0,1,1,29.3,46.082,11,11,0,0,1,18.316,35.1ZM1.824,59.274V49.3a1.4,1.4,0,0,1,1.4-1.4H17.633l4.483,6.383-4.483,6.383H3.22a1.4,1.4,0,0,1-1.4-1.4Zm45.56-6.093A25.407,25.407,0,0,1,29.3,60.672H19.862l4.115-5.859a.912.912,0,0,0,0-1.048l-4.115-5.859H29.3A12.808,12.808,0,0,0,29.782,22.3l-4.49-6.393,4.477-6.375a25.911,25.911,0,0,1,3.841.354,3.769,3.769,0,0,0,2.3,3.871l.812.336a11.148,11.148,0,0,0,0,1.128l-.811.336a3.763,3.763,0,1,0,2.88,6.954l.811-.336a11.214,11.214,0,0,0,.8.8l-.336.812a3.763,3.763,0,1,0,6.954,2.88l.336-.812a11.182,11.182,0,0,0,1.128,0l.336.811A3.768,3.768,0,0,0,53.736,28.7c.1-.043.2-.091.3-.141a25.74,25.74,0,0,1,.839,6.539A25.408,25.408,0,0,1,47.384,53.181Z" transform="translate(0 -0.324)"/>
        <path id="Trazado_1103729" data-name="Trazado 1103729" d="M352.924,82.712a5.7,5.7,0,1,0-5.7-5.7A5.708,5.708,0,0,0,352.924,82.712Zm-3.878-5.7a3.871,3.871,0,0,1,.026-.445,26,26,0,0,1,3.317,2.8c.461.461.9.943,1.329,1.437a3.878,3.878,0,0,1-4.672-3.8Zm3.878-3.877a3.875,3.875,0,0,1,2.489,6.848c-.548-.659-1.128-1.3-1.734-1.9a27.781,27.781,0,0,0-3.942-3.274A3.876,3.876,0,0,1,352.924,73.133Z" transform="translate(-305.006 -62.678)"/>
      </g>
    </g>
  </g>
</svg>
