<svg xmlns="http://www.w3.org/2000/svg" xmlns:xlink="http://www.w3.org/1999/xlink" width="130.113" height="130.788" viewBox="0 0 130.113 130.788">
  <defs>
    <filter id="_52" x="0" y="0" width="130.113" height="130.788" filterUnits="userSpaceOnUse">
      <feOffset dx="3" dy="3" input="SourceAlpha"/>
      <feGaussianBlur stdDeviation="3" result="blur"/>
      <feFlood flood-opacity="0.161"/>
      <feComposite operator="in" in2="blur"/>
      <feComposite in="SourceGraphic"/>
    </filter>
  </defs>
  <g id="Grupo_1196063" data-name="Grupo 1196063" transform="translate(11462.116 4743.901)">
    <g transform="matrix(1, 0, 0, 1, -11462.12, -4743.9)" filter="url(#_52)">
      <g id="_52-2" data-name="52" transform="translate(6 6)" fill="#fff" stroke="#fff" stroke-width="3">
        <ellipse cx="56.056" cy="56.394" rx="56.056" ry="56.394" stroke="none"/>
        <ellipse cx="56.056" cy="56.394" rx="54.556" ry="54.894" fill="none"/>
      </g>
    </g>
    <g id="metodologia" transform="translate(-11433.452 -4714.991)">
      <g id="Grupo_1195182" data-name="Grupo 1195182" transform="translate(1.076 1.077)">
        <g id="Grupo_1195176" data-name="Grupo 1195176">
          <path id="Trazado_1103730" data-name="Trazado 1103730" d="M16.808,16H36.871a.81.81,0,0,1,.808.808V30.533a.81.81,0,0,1-.808.808H16.808A.81.81,0,0,1,16,30.533V16.808A.81.81,0,0,1,16.808,16Z" transform="translate(-16 -16)" fill="#6cf5c2" fill-rule="evenodd"/>
          <path id="Trazado_1103731" data-name="Trazado 1103731" d="M36.332,16h.539a.81.81,0,0,1,.808.808V30.533a.81.81,0,0,1-.808.808H16.808A.81.81,0,0,1,16,30.533v-.539H35.524a.81.81,0,0,0,.808-.808Z" transform="translate(-16 -16)" fill="#00e499" fill-rule="evenodd"/>
        </g>
        <g id="Grupo_1195177" data-name="Grupo 1195177" transform="translate(20.604 25.577)">
          <path id="Trazado_1103732" data-name="Trazado 1103732" d="M181.43,206.1l10.753,6.187c.385.222.336.613-.11.869l-10.533,6.061a1.69,1.69,0,0,1-1.51.063l-10.753-6.187c-.385-.222-.336-.613.11-.869l10.533-6.061A1.69,1.69,0,0,1,181.43,206.1Z" transform="translate(-169.017 -205.951)" fill="#ffe177" fill-rule="evenodd"/>
          <path id="Trazado_1103733" data-name="Trazado 1103733" d="M191.959,252.052l.223.128c.385.222.336.613-.11.869l-10.533,6.061a1.69,1.69,0,0,1-1.51.063l-10.753-6.187c-.385-.222-.336-.613.11-.869l.114-.065,10.529,6.058a1.69,1.69,0,0,0,1.51-.063Z" transform="translate(-169.017 -245.844)" fill="#ffd064" fill-rule="evenodd"/>
        </g>
        <g id="Grupo_1195178" data-name="Grupo 1195178" transform="translate(52.087 26.043)">
          <path id="Trazado_1103734" data-name="Trazado 1103734" d="M404.121,209.411h9.949a1.3,1.3,0,0,1,1.3,1.3v9.949a1.3,1.3,0,0,1-1.3,1.3h-9.949a1.3,1.3,0,0,1-1.3-1.3V210.71A1.3,1.3,0,0,1,404.121,209.411Z" transform="translate(-402.822 -209.411)" fill="#fe646f" fill-rule="evenodd"/>
          <path id="Trazado_1103735" data-name="Trazado 1103735" d="M414.022,209.411h.048a1.3,1.3,0,0,1,1.3,1.3v9.949a1.3,1.3,0,0,1-1.3,1.3h-9.949a1.3,1.3,0,0,1-1.3-1.3v-.048h9.9a1.3,1.3,0,0,0,1.3-1.3Z" transform="translate(-402.822 -209.411)" fill="#fd4755" fill-rule="evenodd"/>
        </g>
        <g id="Grupo_1195179" data-name="Grupo 1195179" transform="translate(2.778 50.795)">
          <ellipse id="Elipse_13926" data-name="Elipse 13926" cx="6.273" cy="6.273" rx="6.273" ry="6.273" transform="translate(0 2.886) rotate(-13.3)" fill="#8ac9fe"/>
          <path id="Trazado_1103736" data-name="Trazado 1103736" d="M87.591,415.331a6.364,6.364,0,0,0,.673.036,6.273,6.273,0,1,0-.673-12.511,6.274,6.274,0,0,1,0,12.475Z" transform="translate(-80.729 -401.528)" fill="#60b7ff" fill-rule="evenodd"/>
        </g>
        <g id="Grupo_1195180" data-name="Grupo 1195180" transform="translate(24.776 50.789)">
          <ellipse id="Elipse_13927" data-name="Elipse 13927" cx="6.273" cy="6.273" rx="6.273" ry="6.273" transform="translate(0 2.886) rotate(-13.3)" fill="#8ac9fe"/>
          <path id="Trazado_1103737" data-name="Trazado 1103737" d="M251,415.331a6.364,6.364,0,0,0,.673.036A6.273,6.273,0,1,0,251,402.856a6.274,6.274,0,0,1,0,12.475Z" transform="translate(-244.133 -401.523)" fill="#60b7ff" fill-rule="evenodd"/>
        </g>
        <g id="Grupo_1195181" data-name="Grupo 1195181" transform="translate(46.774 50.784)">
          <ellipse id="Elipse_13928" data-name="Elipse 13928" cx="6.273" cy="6.273" rx="6.273" ry="6.273" transform="translate(0 2.886) rotate(-13.3)" fill="#8ac9fe"/>
          <path id="Trazado_1103738" data-name="Trazado 1103738" d="M414.409,415.331a6.364,6.364,0,0,0,.673.036,6.273,6.273,0,1,0-.673-12.511,6.274,6.274,0,0,1,0,12.475Z" transform="translate(-407.536 -401.517)" fill="#60b7ff" fill-rule="evenodd"/>
        </g>
      </g>
      <path id="Trazado_1103739" data-name="Trazado 1103739" d="M61.525,66.417A1.078,1.078,0,0,0,60,67.941l2.181,2.18a1.074,1.074,0,0,0,.763.316H63a1.083,1.083,0,0,0,.781-.4l3.111-3.847a1.077,1.077,0,1,0-1.675-1.356l-2.359,2.916Zm-22,0A1.078,1.078,0,0,0,38,67.941l2.182,2.18a1.074,1.074,0,0,0,.762.316H41a1.083,1.083,0,0,0,.781-.4l3.112-3.847a1.078,1.078,0,1,0-1.675-1.356l-2.359,2.916Zm-13.391-47h-12.4a1.077,1.077,0,0,0,0,2.154h12.4a1.077,1.077,0,0,0,0-2.154Zm0-7.485h-12.4a1.077,1.077,0,0,0,0,2.155h12.4a1.077,1.077,0,0,0,0-2.155Zm0,3.743h-12.4a1.077,1.077,0,0,0,0,2.155h12.4a1.077,1.077,0,0,0,0-2.155ZM70.454,38.39a1.083,1.083,0,0,0-1.527,0L67.45,39.87,65.97,38.39a1.077,1.077,0,0,0-1.523,1.523l1.479,1.48-1.479,1.48A1.077,1.077,0,0,0,65.97,44.4l1.481-1.48,1.477,1.48a1.075,1.075,0,0,0,.761.315,1.077,1.077,0,0,0,.767-1.838l-1.483-1.48,1.483-1.48a1.081,1.081,0,0,0,0-1.523Zm2.193-1.971v9.948a.224.224,0,0,1-.222.222H62.474a.224.224,0,0,1-.221-.222V36.419a.224.224,0,0,1,.221-.222h9.952a.224.224,0,0,1,.222.222ZM51.4,41.393l-9.994-5.75-9.993,5.75,9.993,5.75ZM41.405,62.24a5.2,5.2,0,1,1-5.2,5.2A5.2,5.2,0,0,1,41.405,62.24Zm22,0a5.2,5.2,0,1,1-5.2,5.2A5.2,5.2,0,0,1,63.408,62.24Zm-44.006,0a5.2,5.2,0,1,0,5.2,5.2A5.2,5.2,0,0,0,19.4,62.24Zm-9.237-38.9V10.154H29.69V23.34H10.165ZM74.8,36.419v9.948a2.377,2.377,0,0,1-2.37,2.376H62.474A2.378,2.378,0,0,1,60.1,46.367v-3.9H53.846L42.482,49.009V53.7H63.408a1.077,1.077,0,0,1,1.077,1.077v5.39a7.351,7.351,0,1,1-2.155,0V55.852H42.482v4.313a7.35,7.35,0,1,1-2.154,0V55.852H20.48v4.313a7.351,7.351,0,1,1-2.154,0v-5.39A1.077,1.077,0,0,1,19.4,53.7H40.328V49.009L28.964,42.47H19.928a1.078,1.078,0,0,1-1.077-1.077v-15.9H9.088a1.078,1.078,0,0,1-1.077-1.077V9.076A1.078,1.078,0,0,1,9.088,8H30.767a1.077,1.077,0,0,1,1.077,1.077V24.417a1.077,1.077,0,0,1-1.077,1.077H21.005V40.316h7.959l11.9-6.85a1.078,1.078,0,0,1,1.074,0l11.9,6.85H60.1v-3.9a2.378,2.378,0,0,1,2.375-2.377h9.952A2.377,2.377,0,0,1,74.8,36.419ZM18.852,67.751l2.36-2.916a1.077,1.077,0,1,1,1.675,1.356l-3.112,3.847a1.082,1.082,0,0,1-.781.4h-.056a1.075,1.075,0,0,1-.762-.316l-2.182-2.18a1.078,1.078,0,1,1,1.524-1.524Z" transform="translate(-8.011 -7.999)" fill-rule="evenodd"/>
    </g>
  </g>
</svg>
