<svg id="global" xmlns="http://www.w3.org/2000/svg" width="64.154" height="64.164" viewBox="0 0 64.154 64.164">
  <path id="Trazado_1111401" data-name="Trazado 1111401" d="M62.246,43.415V62.662H43V37H55.831v6.415Z" transform="translate(0.838 0.434)" fill="#ffeb99"/>
  <path id="Trazado_1111402" data-name="Trazado 1111402" d="M62.108,17.138V29.969H45V17.138a1.162,1.162,0,0,1,.011-.192A2.138,2.138,0,0,1,47.138,15H59.969A2.145,2.145,0,0,1,62.108,17.138Z" transform="translate(0.977 -1.09)" fill="#ff3051"/>
  <path id="Trazado_1111403" data-name="Trazado 1111403" d="M61.415,43.415H55V37Z" transform="translate(1.669 0.434)" fill="#ff9811"/>
  <ellipse id="Elipse_14042" data-name="Elipse 14042" cx="6.415" cy="6.415" rx="6.415" ry="6.415" transform="translate(48.115 1.08)" fill="#ffc477"/>
  <path id="Trazado_1111404" data-name="Trazado 1111404" d="M52.925,33.025H40.094A46.446,46.446,0,0,0,38.64,21.114a21.257,21.257,0,0,0,6.8-3.924V29.818h7.239a21.17,21.17,0,0,1,.246,3.208Z" transform="translate(0.537 -0.938)" fill="#2488ff"/>
  <path id="Trazado_1111405" data-name="Trazado 1111405" d="M40.112,32H52.943a21.545,21.545,0,0,1-.674,5.347H43.32V47.29a21.146,21.146,0,0,0-4.94-2.406A45.539,45.539,0,0,0,40.112,32Z" transform="translate(0.519 0.087)" fill="#9bc9ff"/>
  <path id="Trazado_1111406" data-name="Trazado 1111406" d="M45.911,17.154a1.162,1.162,0,0,0-.011.192v.2a21.257,21.257,0,0,1-6.8,3.924C37.571,15.753,34.962,12,32,12a21.3,21.3,0,0,1,13.911,5.154Z" transform="translate(0.077 -1.297)" fill="#9bc9ff"/>
  <path id="Trazado_1111407" data-name="Trazado 1111407" d="M43.762,46.456v2.566A21.242,21.242,0,0,1,32,52.55c2.791,0,5.261-3.336,6.822-8.5a21.146,21.146,0,0,1,4.94,2.406Z" transform="translate(0.077 0.922)" fill="#2488ff"/>
  <path id="Trazado_1111408" data-name="Trazado 1111408" d="M41.108,32.771H24q0-1.636.1-3.208h3.111a2.145,2.145,0,0,0,2.138-2.138V21.844a22.534,22.534,0,0,0,3.208.235,21.064,21.064,0,0,0,7.1-1.219,46.446,46.446,0,0,1,1.454,11.911Z" transform="translate(-0.477 -0.684)" fill="#9bc9ff"/>
  <path id="Trazado_1111409" data-name="Trazado 1111409" d="M24,32H41.108a45.538,45.538,0,0,1-1.732,12.884,21.171,21.171,0,0,0-6.822-1.123,20.84,20.84,0,0,0-6.822,1.123A45.539,45.539,0,0,1,24,32Z" transform="translate(-0.477 0.087)" fill="#2488ff"/>
  <path id="Trazado_1111410" data-name="Trazado 1111410" d="M32.442,43a21.171,21.171,0,0,1,6.822,1.123c-1.561,5.164-4.031,8.5-6.822,8.5s-5.261-3.336-6.822-8.5A20.841,20.841,0,0,1,32.442,43Z" transform="translate(-0.365 0.849)" fill="#9bc9ff"/>
  <path id="Trazado_1111411" data-name="Trazado 1111411" d="M32.208,12c2.962,0,5.571,3.753,7.1,9.473a21.064,21.064,0,0,1-7.1,1.219A22.534,22.534,0,0,1,29,22.457V13.55A4.589,4.589,0,0,1,32.208,12Z" transform="translate(-0.131 -1.297)" fill="#2488ff"/>
  <path id="Trazado_1111412" data-name="Trazado 1111412" d="M30.523,22.526v5.581a2.145,2.145,0,0,1-2.138,2.138H9.138A2.145,2.145,0,0,1,7,28.108V13.138A2.145,2.145,0,0,1,9.138,11H28.385a2.129,2.129,0,0,1,1.978,1.337,2.032,2.032,0,0,1,.16.8Z" transform="translate(-1.654 -1.366)" fill="#ffc477"/>
  <path id="Trazado_1111413" data-name="Trazado 1111413" d="M26.053,44.05c1.561,5.164,4.031,8.5,6.822,8.5a21.222,21.222,0,0,1-13.5-4.812,21.259,21.259,0,0,1,6.683-3.689Z" transform="translate(-0.797 0.922)" fill="#2488ff"/>
  <path id="Trazado_1111414" data-name="Trazado 1111414" d="M26.563,44.884a21.26,21.26,0,0,0-6.683,3.689,20.927,20.927,0,0,1-3.486-3.593,6.308,6.308,0,0,0,.952-3.357,6.431,6.431,0,0,0-5.079-6.276A20.294,20.294,0,0,1,12,32H24.831a45.539,45.539,0,0,0,1.732,12.884Z" transform="translate(-1.308 0.087)" fill="#9bc9ff"/>
  <path id="Trazado_1111415" data-name="Trazado 1111415" d="M26.523,9.415v2.138H9.415a2.145,2.145,0,0,0-2.138,2.138V28.662A2.145,2.145,0,0,0,9.415,30.8H5.138A2.145,2.145,0,0,1,3,28.662V5.138A2.145,2.145,0,0,1,5.138,3H9.415a2.155,2.155,0,0,1,2.138,2.138,2.145,2.145,0,0,0,2.138,2.138H24.385a2.145,2.145,0,0,1,2.138,2.138Z" transform="translate(-1.931 -1.92)" fill="#ff7956"/>
  <path id="Trazado_1111416" data-name="Trazado 1111416" d="M12.246,29H24.927q-.1,1.572-.1,3.208H12A21.171,21.171,0,0,1,12.246,29Z" transform="translate(-1.308 -0.12)" fill="#2488ff"/>
  <path id="Trazado_1111417" data-name="Trazado 1111417" d="M20.108,49.138V61.969H3V49.138A2.145,2.145,0,0,1,5.138,47H17.969a2.145,2.145,0,0,1,2.138,2.138Z" transform="translate(-1.931 1.126)" fill="#b2fa09"/>
  <path id="Trazado_1111418" data-name="Trazado 1111418" d="M17.831,41.415a6.308,6.308,0,0,1-.952,3.357A6.415,6.415,0,1,1,11.416,35a6.094,6.094,0,0,1,1.337.139,6.431,6.431,0,0,1,5.079,6.276Z" transform="translate(-1.793 0.295)" fill="#ffc477"/>
  <path id="Trazado_1111419" data-name="Trazado 1111419" d="M66.154,30.87V18.039a3.208,3.208,0,0,0-3.208-3.208H61.758a7.485,7.485,0,1,0-10.455,0H50.115a3.2,3.2,0,0,0-2.574,1.311,22.437,22.437,0,0,0-13.465-4.519,22.011,22.011,0,0,0-2.813.192,3.2,3.2,0,0,0-2.533-1.262H27.662V9.485a3.208,3.208,0,0,0-3.208-3.208H13.762a1.069,1.069,0,0,1-1.069-1.069A3.208,3.208,0,0,0,9.485,2H5.208A3.208,3.208,0,0,0,2,5.208V28.731a3.208,3.208,0,0,0,3.208,3.208h6.533c-.071.714-.118,1.43-.118,2.138,0,.73.046,1.443.113,2.144-.038,0-.075-.005-.113-.005A7.477,7.477,0,0,0,6.4,49.047H5.208A3.208,3.208,0,0,0,2,52.255V65.085a1.069,1.069,0,0,0,1.069,1.069H20.177a1.069,1.069,0,0,0,1.069-1.069V52.511a22.442,22.442,0,0,0,23.523,1.3V65.085a1.069,1.069,0,0,0,1.069,1.069H65.085a1.069,1.069,0,0,0,1.069-1.069V45.839a1.069,1.069,0,0,0-.313-.756l-6.416-6.416a1.069,1.069,0,0,0-.756-.313H56.121a22.668,22.668,0,0,0,.41-4.277c0-.709-.047-1.424-.118-2.138h8.671a1.069,1.069,0,0,0,1.069-1.069ZM51.185,9.485a5.346,5.346,0,1,1,5.346,5.346,5.346,5.346,0,0,1-5.346-5.346ZM34.077,54.393c-1.935,0-3.987-2.506-5.453-6.724a20.02,20.02,0,0,1,10.906,0c-1.464,4.215-3.517,6.724-5.453,6.724Zm-4.614-.523a20.032,20.032,0,0,1-7.125-3.208A20.285,20.285,0,0,1,26.6,48.355a18.788,18.788,0,0,0,2.864,5.515Zm4.614-9.1a22.359,22.359,0,0,0-6.084.855,44.292,44.292,0,0,1-1.378-10.478H41.539a44.275,44.275,0,0,1-1.376,10.471A22.432,22.432,0,0,0,34.077,44.77ZM26.624,33.008c.007-.358.017-.714.032-1.069h2.074a3.208,3.208,0,0,0,3.208-3.208v-4.39c.721.067,1.437.113,2.138.113a22.383,22.383,0,0,0,6.33-.929,45.392,45.392,0,0,1,1.132,9.483Zm7.453-10.692a21.15,21.15,0,0,1-2.138-.124V14.725a3.325,3.325,0,0,1,2.138-.962c2.08,0,4.293,2.9,5.774,7.7a20.266,20.266,0,0,1-5.774.855Zm4.642-7.995A20.327,20.327,0,0,1,46.5,18.039a20.244,20.244,0,0,1-4.647,2.7,20.043,20.043,0,0,0-3.137-6.421ZM4.138,28.731V5.208A1.069,1.069,0,0,1,5.208,4.139H9.485a1.069,1.069,0,0,1,1.069,1.069,3.208,3.208,0,0,0,3.208,3.208H24.454a1.069,1.069,0,0,1,1.069,1.069v1.069H9.485a3.208,3.208,0,0,0-3.208,3.208V28.731a3.171,3.171,0,0,0,.2,1.069H5.208A1.069,1.069,0,0,1,4.138,28.731Zm4.277,0V13.762a1.069,1.069,0,0,1,1.069-1.069H28.731A1.069,1.069,0,0,1,29.8,13.762V28.731A1.069,1.069,0,0,1,28.731,29.8H9.485A1.069,1.069,0,0,1,8.415,28.731Zm16.1,3.208c-.014.356-.025.711-.032,1.069H13.8c.019-.357.049-.712.088-1.069ZM13.8,35.147H24.476a46.151,46.151,0,0,0,1.5,11.162,22.434,22.434,0,0,0-5.359,2.979,20.674,20.674,0,0,1-2.245-2.352,7.457,7.457,0,0,0-4.43-10.349c-.071-.472-.111-.952-.136-1.439Zm3.3,13.629c.079.092.165.18.246.271h-.5C16.94,48.96,17.023,48.867,17.108,48.776ZM6.277,43.7a5.346,5.346,0,1,1,5.346,5.346A5.346,5.346,0,0,1,6.277,43.7ZM19.108,64.016H4.138V52.255a1.069,1.069,0,0,1,1.069-1.069H18.038a1.069,1.069,0,0,1,1.069,1.069ZM38.7,53.858a18.847,18.847,0,0,0,2.859-5.515,20.271,20.271,0,0,1,3.208,1.624v1.368A20.136,20.136,0,0,1,38.7,53.858Zm8.205,10.158V40.493H57.6v5.346a1.069,1.069,0,0,0,1.069,1.069h5.346V64.016ZM59.738,42,62.5,44.77H59.738Zm-13.9-3.65a1.069,1.069,0,0,0-1.069,1.069v8.065a22.314,22.314,0,0,0-2.581-1.2,46.179,46.179,0,0,0,1.489-11.141H54.359a20.481,20.481,0,0,1-.428,3.208Zm8.512-5.346H43.678a47.26,47.26,0,0,0-1.245-10.191,22.442,22.442,0,0,0,4.475-2.408V30.87a1.069,1.069,0,0,0,1.069,1.069h6.286C54.3,32.3,54.331,32.651,54.351,33.008ZM64.015,29.8H49.046V18.039a1.069,1.069,0,0,1,1.069-1.069H62.946a1.069,1.069,0,0,1,1.069,1.069Z" transform="translate(-2 -1.99)"/>
  <path id="Trazado_1111420" data-name="Trazado 1111420" d="M48,48h8.554v2.138H48Z" transform="translate(1.185 1.195)"/>
  <path id="Trazado_1111421" data-name="Trazado 1111421" d="M48,54h8.554v2.138H48Z" transform="translate(1.185 1.61)"/>
</svg>
