<svg xmlns="http://www.w3.org/2000/svg" width="80" height="105.042" viewBox="0 0 80 105.042">
  <g id="proyecto_1_" data-name="proyecto (1)" transform="translate(0 -0.001)">
    <path id="Trazado_1111364" data-name="Trazado 1111364" d="M54.293,76.211H65.377v73.657H10.019V76.211H20.983" transform="translate(-7.964 -60.575)" fill="#f5f0eb"/>
    <path id="Trazado_1111365" data-name="Trazado 1111365" d="M64,46.906H97.21V58.2H64Zm0,0" transform="translate(-50.873 -37.282)" fill="#ff9f22"/>
    <path id="Trazado_1111366" data-name="Trazado 1111366" d="M195.53,320.83l.088-.051a4.791,4.791,0,0,1,6.545,1.753l.115.2s0,0,0,0a22.422,22.422,0,0,0,7.1-11.731,0,0,0,0,0,0,0h-.054a4.792,4.792,0,0,1-4.792-4.792v-.1a4.792,4.792,0,0,1,4.792-4.791h.205s0,0,0,0a22.392,22.392,0,0,0-6.664-11.881s0,0-.006,0a4.784,4.784,0,0,1-6.488,1.667l-.089-.051a4.79,4.79,0,0,1-1.753-6.545,0,0,0,0,0,0,0,22.518,22.518,0,0,0-13.422-.162,0,0,0,0,0,0,0,4.788,4.788,0,0,1-1.9,6.269l-.091.052a4.787,4.787,0,0,1-6.45-1.6s0,0,0,0a22.41,22.41,0,0,0-6.88,11.4s0,0,0,0a4.787,4.787,0,0,1,4.415,4.772v.105a4.787,4.787,0,0,1-4.647,4.784s0,0,0,0A22.379,22.379,0,0,0,171.94,321.9s0,0,0,0a4.788,4.788,0,0,1,6.421-1.556l.088.05a4.791,4.791,0,0,1,1.753,6.545l-.03.053a0,0,0,0,0,0,0,22.52,22.52,0,0,0,13.593.376s0,0,0,0a4.788,4.788,0,0,1,1.756-6.535Zm0,0" transform="translate(-131.591 -225.252)" fill="#5ecef4"/>
    <path id="Trazado_1111367" data-name="Trazado 1111367" d="M240.5,344.125a9.337,9.337,0,1,1-.009-.006" transform="translate(-179.212 -272.381)" fill="#fff"/>
    <path id="Trazado_1111368" data-name="Trazado 1111368" d="M77.791,83.692h-.054A2.74,2.74,0,0,1,75,80.956v-.1a2.74,2.74,0,0,1,2.737-2.737h.205a2.058,2.058,0,0,0,2.016-2.469,24.323,24.323,0,0,0-7.271-12.968,2.058,2.058,0,0,0-3.055.266,2.009,2.009,0,0,0-.114.169,2.744,2.744,0,0,1-2.621,1.3,2.712,2.712,0,0,1-1.083-.353l-.088-.05a2.735,2.735,0,0,1-1-3.738l.017-.03a2.058,2.058,0,0,0-1.16-2.956,24.368,24.368,0,0,0-4.115-.955v-40.7a2.055,2.055,0,0,0-2.055-2.054H48.391V9.624a2.055,2.055,0,0,0-2.054-2.055h-7.2a9.622,9.622,0,0,0-18.8,0h-7.2a2.055,2.055,0,0,0-2.055,2.055v3.958H2.055A2.055,2.055,0,0,0,0,15.636V89.293a2.055,2.055,0,0,0,2.055,2.055H33.992a24.458,24.458,0,0,0,4.925,6.769,2.057,2.057,0,0,0,3.166-.363,2.728,2.728,0,0,1,3.665-.887l.088.05a2.737,2.737,0,0,1,1,3.74l-.03.052-.016.029a2.057,2.057,0,0,0,1.035,2.91c.029.012.058.022.087.032a24.585,24.585,0,0,0,14.838.411l.022-.006a2.058,2.058,0,0,0,1.208-2.971c0-.009-.01-.018-.015-.027a2.737,2.737,0,0,1,1-3.73l0,0,.086-.05a2.736,2.736,0,0,1,3.738,1l.115.2c.022.038.046.076.071.113a2.059,2.059,0,0,0,3.064.411,24.328,24.328,0,0,0,7.752-12.807c.006-.023.011-.047.015-.071a2.058,2.058,0,0,0-2.018-2.462ZM29.734,4.111a5.522,5.522,0,0,1,5.115,3.459H24.619a5.522,5.522,0,0,1,5.115-3.459ZM15.185,11.679h29.1v3.795c0,.054-.009.108-.009.163s0,.11.009.163v3.066H39.357V16.132a2.054,2.054,0,1,0-4.109,0v2.734H24.22V16.132a2.055,2.055,0,1,0-4.11,0v2.734H15.185ZM4.11,87.239V17.691h6.967v3.23a2.055,2.055,0,0,0,2.055,2.055H46.337a2.055,2.055,0,0,0,2.054-2.055v-3.23h6.967V56.1a24.5,24.5,0,0,0-6.426,1.019l-.059.019A2.057,2.057,0,0,0,47.68,60,2.737,2.737,0,0,1,46.6,63.579l-.091.052a2.722,2.722,0,0,1-3.681-.914,2.058,2.058,0,0,0-3.112-.446A24.359,24.359,0,0,0,32.2,74.712c-.007.028-.014.058-.019.087A2.057,2.057,0,0,0,34,77.25l.046,0a2.744,2.744,0,0,1,2.519,2.724v.1a2.718,2.718,0,0,1-2.653,2.73,2.058,2.058,0,0,0-1.961,2.45q.2,1,.473,1.976H4.11Zm66.756,7.225A6.86,6.86,0,0,0,63,93.749l-.086.05a6.857,6.857,0,0,0-3.362,6.822,20.551,20.551,0,0,1-8.319-.244,6.859,6.859,0,0,0-3.34-7.017l-.088-.051a6.835,6.835,0,0,0-7.416.365,20.182,20.182,0,0,1-3.928-7.266,6.8,6.8,0,0,0,4.215-6.326v-.1a6.879,6.879,0,0,0-3.915-6.18,20.217,20.217,0,0,1,4.263-7.063,6.818,6.818,0,0,0,7.541.454l.091-.052a6.86,6.86,0,0,0,3.391-6.561,20.585,20.585,0,0,1,8.275.084,6.86,6.86,0,0,0,3.355,6.916l.088.051a6.785,6.785,0,0,0,2.715.881,6.861,6.861,0,0,0,4.832-1.354A20.171,20.171,0,0,1,75.4,74.421a6.858,6.858,0,0,0-4.511,6.436v.1A6.857,6.857,0,0,0,75.2,87.314a20.2,20.2,0,0,1-4.334,7.15Zm0,0"/>
    <path id="Trazado_1111369" data-name="Trazado 1111369" d="M233.316,348.287a2.055,2.055,0,0,0-.08,2.9,7.831,7.831,0,1,1-11.5.151,2.055,2.055,0,0,0-3.055-2.748,11.95,11.95,0,1,0,17.544-.228A2.055,2.055,0,0,0,233.316,348.287Zm0,0" transform="translate(-171.378 -276.385)"/>
    <path id="Trazado_1111370" data-name="Trazado 1111370" d="M263.642,337.99l.057.043a2.055,2.055,0,1,0,2.491-3.268l-.056-.042a2.054,2.054,0,1,0-2.492,3.267Zm0,0" transform="translate(-208.91 -265.715)"/>
    <path id="Trazado_1111371" data-name="Trazado 1111371" d="M100.473,146.836h10.135a2.055,2.055,0,1,0,0-4.11H100.473a2.055,2.055,0,1,0,0,4.11Zm0,0" transform="translate(-78.227 -113.444)"/>
    <path id="Trazado_1111372" data-name="Trazado 1111372" d="M53.106,197.492H86.914a2.055,2.055,0,0,0,0-4.11H53.106a2.055,2.055,0,0,0,0,4.11Zm0,0" transform="translate(-40.577 -153.708)"/>
    <path id="Trazado_1111373" data-name="Trazado 1111373" d="M73.386,244.629a2.055,2.055,0,0,0-2.055-2.055H53.106a2.055,2.055,0,1,0,0,4.11H71.331A2.055,2.055,0,0,0,73.386,244.629Zm0,0" transform="translate(-40.577 -192.807)"/>
    <path id="Trazado_1111374" data-name="Trazado 1111374" d="M53.106,146.836h3.533a2.055,2.055,0,1,0,0-4.11H53.106a2.055,2.055,0,1,0,0,4.11Zm0,0" transform="translate(-40.577 -113.444)"/>
    <path id="Trazado_1111375" data-name="Trazado 1111375" d="M182.347,241.885l-.057-.043a2.055,2.055,0,0,0-2.484,3.274l.057.043a2.055,2.055,0,0,0,2.484-3.274Zm0,0" transform="translate(-142.271 -191.893)"/>
    <path id="Trazado_1111376" data-name="Trazado 1111376" d="M53.106,334.512a2.055,2.055,0,0,0-2.055,2.055v9.513a2.055,2.055,0,1,0,4.11,0v-9.513A2.055,2.055,0,0,0,53.106,334.512Zm0,0" transform="translate(-40.577 -265.883)"/>
  </g>
</svg>
