<svg xmlns="http://www.w3.org/2000/svg" xmlns:xlink="http://www.w3.org/1999/xlink" width="130.113" height="130.788" viewBox="0 0 130.113 130.788">
  <defs>
    <filter id="_52" x="0" y="0" width="130.113" height="130.788" filterUnits="userSpaceOnUse">
      <feOffset dx="3" dy="3" input="SourceAlpha"/>
      <feGaussianBlur stdDeviation="3" result="blur"/>
      <feFlood flood-opacity="0.161"/>
      <feComposite operator="in" in2="blur"/>
      <feComposite in="SourceGraphic"/>
    </filter>
  </defs>
  <g id="Grupo_1195558" data-name="Grupo 1195558" transform="translate(12339.333 -4652.016)">
    <g transform="matrix(1, 0, 0, 1, -12339.33, 4652.02)" filter="url(#_52)">
      <g id="_52-2" data-name="52" transform="translate(6 6)" fill="#fff" stroke="#fff" stroke-width="3">
        <ellipse cx="56.056" cy="56.394" rx="56.056" ry="56.394" stroke="none"/>
        <ellipse cx="56.056" cy="56.394" rx="54.556" ry="54.894" fill="none"/>
      </g>
    </g>
    <g id="FILLED_OUTLINE" transform="translate(-12311.849 4682.817)">
      <path id="Trazado_1110658" data-name="Trazado 1110658" d="M166.89,118.854v-3.409a3.445,3.445,0,0,0-6.89,0v3.409a3.445,3.445,0,0,0,2.166,3.2l1.279.512,1.279-.512A3.445,3.445,0,0,0,166.89,118.854Z" transform="translate(-139.085 -98.091)" fill="#bebebe"/>
      <path id="Trazado_1110659" data-name="Trazado 1110659" d="M136.858,185.928l-.82-.328-.82.328A11.483,11.483,0,0,0,128,196.59V200.3h16.076V196.59a11.483,11.483,0,0,0-7.218-10.662Z" transform="translate(-111.678 -161.126)" fill="#bebebe"/>
      <path id="Trazado_1110660" data-name="Trazado 1110660" d="M66.776,44.341l3.156-1.671L68.1,37.1l-3.541.483L61.44,33.332l1.576-3.22-4.793-3.446-2.608,2.476L50.568,27.52,49.929,24H44l-.638,3.52-5.047,1.622L35.71,26.667l-4.793,3.446,1.576,3.22-3.121,4.247L25.832,37.1,24,42.671l3.156,1.67v5.25L24,51.262l1.832,5.575,3.541-.483L32.493,60.6l-1.576,3.22,4.793,3.446,2.608-2.476,5.047,1.622L44,69.933h5.926l.638-3.52,5.047-1.622-2.144-4.384a14.912,14.912,0,1,1,7.73-8.93L65.27,56.45l2.832.386,1.832-5.574-3.156-1.671C66.776,47.213,66.776,46.719,66.776,44.341Z" transform="translate(-22.607 -22.722)" fill="#006cda"/>
      <path id="Trazado_1110661" data-name="Trazado 1110661" d="M326.89,292.863v-1.418a3.445,3.445,0,0,0-6.89,0v1.418a3.445,3.445,0,0,0,1.772,3.011l1.673.929,1.673-.929A3.445,3.445,0,0,0,326.89,292.863Z" transform="translate(-276.119 -248.828)" fill="#bebebe"/>
      <path id="Trazado_1110662" data-name="Trazado 1110662" d="M306.236,351.192l-3.346-1.859-3.346,1.859A6.89,6.89,0,0,0,296,357.215v5.133h13.78v-5.133a6.89,6.89,0,0,0-3.544-6.023Z" transform="translate(-255.564 -301.357)" fill="#bebebe"/>
      <path id="Trazado_1110663" data-name="Trazado 1110663" d="M241.34,223.336V218l-3.168-.575-1.46-4.542,2.228-2.347-3.1-4.314-2.9,1.419-3.822-2.809.435-3.187L224.536,200l-1.5,2.841h-4.725L216.8,200l-5.017,1.648.435,3.187-3.822,2.809-2.9-1.419-3.1,4.314,2.228,2.348-1.46,4.542L200,218v5.333l3.168.575,1.46,4.542L202.4,230.8l3.1,4.314,2.9-1.419,3.822,2.809-.435,3.187,5.017,1.648,1.5-2.841h4.725l1.5,2.841,5.017-1.648-.435-3.187,3.822-2.809,2.9,1.419,3.1-4.314-2.228-2.348,1.46-4.542ZM220.67,233.3A12.631,12.631,0,1,1,233.3,220.67,12.631,12.631,0,0,1,220.67,233.3Z" transform="translate(-173.344 -173.459)" fill="#008afe"/>
      <path id="Trazado_1110664" data-name="Trazado 1110664" d="M339.972,40.419l-9.724-16.206a2.3,2.3,0,0,0-3.939,0l-9.724,16.206a2.3,2.3,0,0,0,1.969,3.478H338a2.3,2.3,0,0,0,1.969-3.478Z" transform="translate(-272.915 -21.95)" fill="#f4c44d"/>
      <rect id="Rectángulo_461455" data-name="Rectángulo 461455" width="2.297" height="8.038" transform="translate(54.216 5.871)" fill="#f4f4f4"/>
      <rect id="Rectángulo_461456" data-name="Rectángulo 461456" width="2.297" height="2.297" transform="translate(54.216 16.206)" fill="#f4f4f4"/>
      <path id="Trazado_1110665" data-name="Trazado 1110665" d="M89.368,353.09A28.743,28.743,0,0,1,78.2,341.382l2.04-1.054A26.451,26.451,0,0,0,90.518,351.1Z" transform="translate(-69.028 -293.645)" fill="#dfdfdf"/>
      <path id="Trazado_1110666" data-name="Trazado 1110666" d="M176.253,426.77a28.635,28.635,0,0,1-3.589-1.363l.958-2.087a26.31,26.31,0,0,0,3.3,1.253Z" transform="translate(-149.931 -364.724)" fill="#dfdfdf"/>
      <path id="Trazado_1110667" data-name="Trazado 1110667" d="M17.825,282.98a34.462,34.462,0,0,1-.556-3.564l2.285-.235a32.227,32.227,0,0,0,.519,3.326Z" transform="translate(-16.841 -241.275)" fill="#dfdfdf"/>
      <path id="Trazado_1110668" data-name="Trazado 1110668" d="M58.372,343.377A34.135,34.135,0,0,1,37.459,336.3,34.7,34.7,0,0,1,25.25,318.43l2.208-.632a32.385,32.385,0,0,0,11.4,16.683,31.856,31.856,0,0,0,19.518,6.6Z" transform="translate(-23.677 -274.348)" fill="#dfdfdf"/>
      <path id="Trazado_1110669" data-name="Trazado 1110669" d="M261.78,248a13.78,13.78,0,1,0,13.78,13.78A13.78,13.78,0,0,0,261.78,248Zm-5.742,23.718v-1.291a5.745,5.745,0,0,1,2.953-5.019l2.788-1.549,2.788,1.549a5.745,5.745,0,0,1,2.953,5.019v1.291A11.442,11.442,0,0,1,256.038,271.718Zm3.445-13.114v-1.418a2.3,2.3,0,0,1,4.593,0V258.6a2.3,2.3,0,0,1-1.181,2.008l-1.115.62-1.115-.62a2.3,2.3,0,0,1-1.181-2.008ZM269.8,269.983a8.042,8.042,0,0,0-4.121-6.582l-1.542-.857a4.6,4.6,0,0,0,2.231-3.939v-1.418a4.593,4.593,0,0,0-9.187,0V258.6a4.6,4.6,0,0,0,2.231,3.939l-1.542.857a8.042,8.042,0,0,0-4.121,6.582,11.483,11.483,0,1,1,16.05,0Z" transform="translate(-214.454 -214.569)"/>
      <path id="Trazado_1110670" data-name="Trazado 1110670" d="M308.669,36.447a3.406,3.406,0,0,0,3,1.748h19.447a3.445,3.445,0,0,0,2.954-5.217l-9.724-16.206a3.445,3.445,0,0,0-5.908,0l-9.723,16.206A3.406,3.406,0,0,0,308.669,36.447Zm2.013-2.288,9.724-16.206h0a1.148,1.148,0,0,1,1.969,0L332.1,34.159a1.148,1.148,0,0,1-.985,1.739H311.667a1.148,1.148,0,0,1-.985-1.739Z" transform="translate(-266.026 -15.099)"/>
      <rect id="Rectángulo_461457" data-name="Rectángulo 461457" width="2.297" height="8.038" transform="translate(54.216 5.871)"/>
      <rect id="Rectángulo_461458" data-name="Rectángulo 461458" width="2.297" height="2.297" transform="translate(54.216 16.206)"/>
      <path id="Trazado_1110671" data-name="Trazado 1110671" d="M83.437,66.706V59.456L80,58.833l-1.041-3.238,2.414-2.543-4.222-5.873-3.144,1.539L71.3,46.725l.472-3.458-6.846-2.249L63.29,44.1H59.948l-1.633-3.086-3.727,1.225a16.062,16.062,0,1,0-10.6,13.043l.293.309-1.041,3.238-3.434.623v2.477H36.649l-.59-3.254-6.351-2.041-2.413,2.29L24.061,56.6l1.456-2.973L21.58,48.272l-3.269.446L17.08,44.972l2.911-1.541V36.8L17.08,35.257l1.231-3.746,3.269.446L25.516,26.6l-1.456-2.973L27.295,21.3l2.413,2.29,6.351-2.041.59-3.254h4.008l.59,3.254L47.6,23.592l2.413-2.29,3.234,2.325L51.789,26.6l3.186,4.336,1.851-1.36-2.363-3.215,1.7-3.466-6.352-4.567L47,20.989l-3.743-1.2L42.574,16H34.731l-.687,3.786-3.743,1.2-2.8-2.661-6.352,4.567,1.7,3.466-2.3,3.137-3.812-.52-2.433,7.4,3.4,1.8v3.867l-3.4,1.8,2.433,7.4,3.812-.52,2.3,3.137-1.7,3.466L27.5,61.9l2.8-2.661,3.743,1.2.687,3.786H39.8v2.477l3.434.623,1.041,3.238-2.414,2.543,4.222,5.873,3.144-1.539,2.712,1.993-.472,3.458,6.846,2.249,1.633-3.086H63.29l1.633,3.086,6.846-2.249L71.3,79.437l2.712-1.993,3.144,1.539,4.222-5.873-2.414-2.543L80,67.329ZM24.873,40.115a13.78,13.78,0,1,1,27.244,2.94l-.648.213.472,3.458-2.712,1.993-1.9-.928A12.525,12.525,0,0,0,41.4,40.32a4.569,4.569,0,0,0,1.849-3.686V33.225a4.593,4.593,0,0,0-9.187,0v3.409a4.568,4.568,0,0,0,1.849,3.686A12.55,12.55,0,0,0,29.5,50.406,13.749,13.749,0,0,1,24.873,40.115Zm16.076-6.89v3.409a2.286,2.286,0,0,1-1.444,2.132l-.853.341-.853-.341a2.286,2.286,0,0,1-1.444-2.132V33.225a2.3,2.3,0,0,1,4.593,0Zm-2.3,20.67a13.7,13.7,0,0,1-6.89-1.85v-.711a10.285,10.285,0,0,1,6.5-9.6l.393-.157.393.157a10.265,10.265,0,0,1,6.1,6.748l-3.282,4.565.358.377A13.769,13.769,0,0,1,38.653,53.894ZM78.4,73.313l-1.98,2.755-2.651-1.3-4.933,3.625.4,2.915-3.188,1.048-1.374-2.6H58.565l-1.374,2.6L54,81.31l.4-2.915L49.468,74.77l-2.651,1.3-1.98-2.755,2.042-2.152L45,65.315l-2.9-.526V61.373l2.9-.526L46.879,55l-2.043-2.152,1.98-2.755,2.651,1.3L54.4,47.767,54,44.852,57.191,43.8l1.374,2.6h6.108l1.374-2.6,3.188,1.048-.4,2.915,4.933,3.625,2.651-1.3,1.98,2.755L76.359,55l1.879,5.846,2.9.526v3.416l-2.9.526-1.879,5.846Z" transform="translate(-14.293 -15.871)"/>
      <path id="Trazado_1110672" data-name="Trazado 1110672" d="M89.368,353.09l1.15-1.988a26.451,26.451,0,0,1-10.276-10.774l-2.04,1.054A28.743,28.743,0,0,0,89.368,353.09Z" transform="translate(-69.029 -293.645)"/>
      <path id="Trazado_1110673" data-name="Trazado 1110673" d="M173.621,423.32l-.958,2.087a28.629,28.629,0,0,0,3.589,1.363l.669-2.2A26.3,26.3,0,0,1,173.621,423.32Z" transform="translate(-149.931 -364.724)"/>
      <path id="Trazado_1110674" data-name="Trazado 1110674" d="M19.553,279.182l-2.285.235a34.464,34.464,0,0,0,.556,3.564l2.247-.473a32.225,32.225,0,0,1-.519-3.326Z" transform="translate(-16.841 -241.276)"/>
      <path id="Trazado_1110675" data-name="Trazado 1110675" d="M27.458,317.8l-2.208.632A34.7,34.7,0,0,0,37.458,336.3a34.134,34.134,0,0,0,20.913,7.072v-2.3a31.856,31.856,0,0,1-19.518-6.6,32.385,32.385,0,0,1-11.4-16.683Z" transform="translate(-23.677 -274.349)"/>
    </g>
  </g>
</svg>
