<svg xmlns="http://www.w3.org/2000/svg" xmlns:xlink="http://www.w3.org/1999/xlink" width="130.113" height="130.788" viewBox="0 0 130.113 130.788">
  <defs>
    <filter id="_52" x="0" y="0" width="130.113" height="130.788" filterUnits="userSpaceOnUse">
      <feOffset dx="3" dy="3" input="SourceAlpha"/>
      <feGaussianBlur stdDeviation="3" result="blur"/>
      <feFlood flood-opacity="0.161"/>
      <feComposite operator="in" in2="blur"/>
      <feComposite in="SourceGraphic"/>
    </filter>
  </defs>
  <g id="Grupo_1195560" data-name="Grupo 1195560" transform="translate(12426.866 -4526.434)">
    <g transform="matrix(1, 0, 0, 1, -12426.87, 4526.43)" filter="url(#_52)">
      <g id="_52-2" data-name="52" transform="translate(6 6)" fill="#fff" stroke="#fff" stroke-width="3">
        <ellipse cx="56.056" cy="56.394" rx="56.056" ry="56.394" stroke="none"/>
        <ellipse cx="56.056" cy="56.394" rx="54.556" ry="54.894" fill="none"/>
      </g>
    </g>
    <g id="negocio" transform="translate(-12396.287 4564.641)">
      <g id="Grupo_1195536" data-name="Grupo 1195536" transform="translate(0 0)">
        <g id="Grupo_1195535" data-name="Grupo 1195535">
          <g id="Grupo_1195534" data-name="Grupo 1195534">
            <g id="Grupo_1195533" data-name="Grupo 1195533">
              <g id="Grupo_1195521" data-name="Grupo 1195521" transform="translate(0.984 0.985)">
                <g id="Grupo_1195515" data-name="Grupo 1195515" transform="translate(54.102 36.133)">
                  <path id="Trazado_1110622" data-name="Trazado 1110622" d="M338.5,276.45h6.886v10.274H338.5Z" transform="translate(-338.5 -276.45)" fill="#f8ceb4" fill-rule="evenodd"/>
                </g>
                <g id="Grupo_1195516" data-name="Grupo 1195516" transform="translate(36.204)">
                  <path id="Trazado_1110623" data-name="Trazado 1110623" d="M249.157,76.882a1.229,1.229,0,0,1-1.064,1.844H234.932a1.229,1.229,0,0,1-1.064-1.844l6.582-11.4a1.229,1.229,0,0,1,2.13,0Z" transform="translate(-233.701 -64.87)" fill="#ff5f5c" fill-rule="evenodd"/>
                </g>
                <g id="Grupo_1195517" data-name="Grupo 1195517" transform="translate(40.573 30.425)">
                  <path id="Trazado_1110624" data-name="Trazado 1110624" d="M259.28,243.03h6.886v15.981H259.28Z" transform="translate(-259.28 -243.03)" fill="#fff385" fill-rule="evenodd"/>
                </g>
                <g id="Grupo_1195518" data-name="Grupo 1195518" transform="translate(27.044 24.716)">
                  <path id="Trazado_1110625" data-name="Trazado 1110625" d="M180.06,209.6h6.886v21.688H180.06Z" transform="translate(-180.06 -209.6)" fill="#ffa770" fill-rule="evenodd"/>
                </g>
                <g id="Grupo_1195519" data-name="Grupo 1195519" transform="translate(13.517 19.009)">
                  <path id="Trazado_1110626" data-name="Trazado 1110626" d="M100.85,176.18h6.886v27.4H100.85Z" transform="translate(-100.85 -176.18)" fill="#f8ceb4" fill-rule="evenodd"/>
                </g>
                <g id="Grupo_1195520" data-name="Grupo 1195520" transform="translate(0 13.302)">
                  <path id="Trazado_1110627" data-name="Trazado 1110627" d="M21.7,142.76h6.86v33.1H21.7Z" transform="translate(-21.7 -142.76)" fill="#fff385" fill-rule="evenodd"/>
                </g>
              </g>
              <g id="Grupo_1195532" data-name="Grupo 1195532">
                <g id="Grupo_1195522" data-name="Grupo 1195522" transform="translate(0 13.303)">
                  <path id="Trazado_1110628" data-name="Trazado 1110628" d="M23.784,172.072h-6.86a.984.984,0,0,1-.984-.984v-33.1a.984.984,0,0,1,.984-.984h6.86a.984.984,0,0,1,.984.984v33.1a.984.984,0,0,1-.984.984ZM17.907,170.1H22.8V138.967H17.907Z" transform="translate(-15.94 -137)" fill="#231f20" fill-rule="evenodd"/>
                </g>
                <g id="Grupo_1195523" data-name="Grupo 1195523" transform="translate(13.515 19.012)">
                  <path id="Trazado_1110629" data-name="Trazado 1110629" d="M102.949,199.793H96.064a.984.984,0,0,1-.984-.984v-27.4a.984.984,0,0,1,.984-.984h6.886a.984.984,0,0,1,.984.984v27.4A.984.984,0,0,1,102.949,199.793Zm-5.9-1.967h4.918V172.4H97.047Z" transform="translate(-95.08 -170.43)" fill="#231f20" fill-rule="evenodd"/>
                </g>
                <g id="Grupo_1195524" data-name="Grupo 1195524" transform="translate(27.044 24.72)">
                  <path id="Trazado_1110630" data-name="Trazado 1110630" d="M182.169,227.506h-6.886a.984.984,0,0,1-.984-.984V204.834a.984.984,0,0,1,.984-.984h6.886a.984.984,0,0,1,.984.984v21.688A.984.984,0,0,1,182.169,227.506Zm-5.9-1.967h4.918V205.816h-4.918Z" transform="translate(-174.3 -203.85)" fill="#231f20" fill-rule="evenodd"/>
                </g>
                <g id="Grupo_1195525" data-name="Grupo 1195525" transform="translate(40.573 30.427)">
                  <path id="Trazado_1110631" data-name="Trazado 1110631" d="M261.389,255.218H254.5a.984.984,0,0,1-.984-.984V238.254a.984.984,0,0,1,.984-.984h6.886a.984.984,0,0,1,.984.984v15.981A.984.984,0,0,1,261.389,255.218Zm-5.9-1.967h4.918V239.237h-4.918Z" transform="translate(-253.52 -237.27)" fill="#231f20" fill-rule="evenodd"/>
                </g>
                <g id="Grupo_1195526" data-name="Grupo 1195526" transform="translate(54.102 36.134)">
                  <path id="Trazado_1110632" data-name="Trazado 1110632" d="M340.609,282.931h-6.886a.984.984,0,0,1-.984-.984V271.674a.984.984,0,0,1,.984-.984h6.886a.984.984,0,0,1,.984.984v10.274A.984.984,0,0,1,340.609,282.931Zm-5.9-1.967h4.918v-8.306h-4.918Z" transform="translate(-332.74 -270.69)" fill="#231f20" fill-rule="evenodd"/>
                </g>
                <g id="Grupo_1195527" data-name="Grupo 1195527" transform="translate(3.443 2.541)">
                  <path id="Trazado_1110633" data-name="Trazado 1110633" d="M91.186,102.406a.982.982,0,0,1-.432-.1l-54.1-26.456a.984.984,0,1,1,.866-1.768l54.1,26.458a.983.983,0,0,1-.434,1.867Z" transform="translate(-36.101 -73.981)" fill="#231f20" fill-rule="evenodd"/>
                </g>
                <g id="Grupo_1195528" data-name="Grupo 1195528" transform="translate(54.132 25.589)">
                  <path id="Trazado_1110634" data-name="Trazado 1110634" d="M333.9,215.561a.983.983,0,0,1-.336-1.908l2.488-.905-.905-2.488a.983.983,0,1,1,1.848-.673L338.24,213a.983.983,0,0,1-.587,1.26L334.24,215.5A.971.971,0,0,1,333.9,215.561Z" transform="translate(-332.92 -208.94)" fill="#231f20" fill-rule="evenodd"/>
                </g>
                <g id="Grupo_1195529" data-name="Grupo 1195529" transform="translate(36.203)">
                  <path id="Trazado_1110635" data-name="Trazado 1110635" d="M243.312,74.926H230.151a2.213,2.213,0,0,1-1.916-3.32l6.582-11.4a2.212,2.212,0,0,1,3.832,0l6.582,11.4a2.215,2.215,0,0,1-1.918,3.322Zm-6.582-13.857a.234.234,0,0,0-.212.123l-6.582,11.4a.246.246,0,0,0,.213.369h13.162a.246.246,0,0,0,.213-.369l-6.58-11.4a.241.241,0,0,0-.215-.123Z" transform="translate(-227.935 -59.1)" fill="#231f20" fill-rule="evenodd"/>
                </g>
                <g id="Grupo_1195530" data-name="Grupo 1195530" transform="translate(44.016 4.905)">
                  <path id="Trazado_1110636" data-name="Trazado 1110636" d="M274.664,93.674a.984.984,0,0,1-.984-.984V88.8a.984.984,0,1,1,1.967,0v3.889A.984.984,0,0,1,274.664,93.674Z" transform="translate(-273.68 -87.82)" fill="#231f20" fill-rule="evenodd"/>
                </g>
                <g id="Grupo_1195531" data-name="Grupo 1195531" transform="translate(44.016 11.276)">
                  <path id="Trazado_1110637" data-name="Trazado 1110637" d="M274.664,127.2a.984.984,0,0,1-.984-.984v-.106a.984.984,0,1,1,1.967,0v.106A.984.984,0,0,1,274.664,127.2Z" transform="translate(-273.68 -125.13)" fill="#231f20" fill-rule="evenodd"/>
                </g>
              </g>
            </g>
          </g>
        </g>
      </g>
    </g>
  </g>
</svg>
