<svg xmlns="http://www.w3.org/2000/svg" xmlns:xlink="http://www.w3.org/1999/xlink" width="130.113" height="130.788" viewBox="0 0 130.113 130.788">
  <defs>
    <filter id="_52" x="0" y="0" width="130.113" height="130.788" filterUnits="userSpaceOnUse">
      <feOffset dx="3" dy="3" input="SourceAlpha"/>
      <feGaussianBlur stdDeviation="3" result="blur"/>
      <feFlood flood-opacity="0.161"/>
      <feComposite operator="in" in2="blur"/>
      <feComposite in="SourceGraphic"/>
    </filter>
  </defs>
  <g id="Grupo_1195559" data-name="Grupo 1195559" transform="translate(12544.866 -4607.016)">
    <g transform="matrix(1, 0, 0, 1, -12544.87, 4607.02)" filter="url(#_52)">
      <g id="_52-2" data-name="52" transform="translate(6 6)" fill="#fff" stroke="#fff" stroke-width="3">
        <ellipse cx="56.056" cy="56.394" rx="56.056" ry="56.394" stroke="none"/>
        <ellipse cx="56.056" cy="56.394" rx="54.556" ry="54.894" fill="none"/>
      </g>
    </g>
    <g id="riesgo-bajo" transform="translate(-12514.286 4634.993)">
      <g id="Grupo_1195544" data-name="Grupo 1195544" transform="translate(0.922 0.922)">
        <g id="Grupo_1195538" data-name="Grupo 1195538" transform="translate(0 0)">
          <g id="Grupo_1195537" data-name="Grupo 1195537">
            <path id="Trazado_1110638" data-name="Trazado 1110638" d="M9.337,28.2H28.644a1.837,1.837,0,0,0,1.837-1.837V13.9a1.837,1.837,0,0,0-1.837-1.837H9.337A1.837,1.837,0,0,0,7.5,13.9V26.362A1.837,1.837,0,0,0,9.337,28.2Z" transform="translate(-7.5 -12.062)" fill="#dcf4f7"/>
          </g>
        </g>
        <path id="Trazado_1110639" data-name="Trazado 1110639" d="M153.084,12.061h-3.7a1.837,1.837,0,0,1,1.837,1.837V26.361a1.837,1.837,0,0,1-1.837,1.837h3.7a1.837,1.837,0,0,0,1.837-1.837V13.9A1.837,1.837,0,0,0,153.084,12.061Z" transform="translate(-131.94 -12.061)" fill="#b9f0f1"/>
        <path id="Trazado_1110640" data-name="Trazado 1110640" d="M70.315,64.857a1.8,1.8,0,0,1-1.8,1.8H62.122a1.8,1.8,0,1,1,0-3.6h6.394A1.8,1.8,0,0,1,70.315,64.857Z" transform="translate(-53.829 -56.789)" fill="#cb97e7"/>
        <path id="Trazado_1110641" data-name="Trazado 1110641" d="M21.655,227.1l13.816,25.784H7.5A30.53,30.53,0,0,1,21.655,227.1Z" transform="translate(-7.5 -200.662)" fill="#4fc123"/>
        <path id="Trazado_1110642" data-name="Trazado 1110642" d="M304.981,252.886H277.01L288.2,232l2.624-4.9a30.6,30.6,0,0,1,14.155,25.784Z" transform="translate(-243.872 -200.662)" fill="#fe5694"/>
        <g id="Grupo_1195539" data-name="Grupo 1195539" transform="translate(44.33 26.44)">
          <path id="Trazado_1110643" data-name="Trazado 1110643" d="M375.185,230.618a10.641,10.641,0,0,1-5.478,1.509A10.806,10.806,0,0,1,368.04,232l2.624-4.9A30.672,30.672,0,0,1,375.185,230.618Z" transform="translate(-368.04 -227.102)" fill="#fd3581"/>
        </g>
        <path id="Trazado_1110644" data-name="Trazado 1110644" d="M7.5,436.806H68.609v3.149a1.983,1.983,0,0,1-1.983,1.983H9.483A1.983,1.983,0,0,1,7.5,439.955Z" transform="translate(-7.5 -384.582)" fill="#678d98"/>
        <path id="Trazado_1110645" data-name="Trazado 1110645" d="M450.28,436.806v3.149a1.983,1.983,0,0,1-1.983,1.983h4.928a1.983,1.983,0,0,0,1.983-1.983v-3.149Z" transform="translate(-394.099 -384.582)" fill="#537983"/>
        <path id="Trazado_1110646" data-name="Trazado 1110646" d="M155.419,193.073l-2.624,4.9L141.6,218.856h-5.167L122.62,193.073a30.405,30.405,0,0,1,16.4-4.771,30.822,30.822,0,0,1,4.831.38A30.347,30.347,0,0,1,155.419,193.073Z" transform="translate(-108.465 -166.632)" fill="#a2e62e"/>
        <g id="Grupo_1195540" data-name="Grupo 1195540" transform="translate(35.385 22.05)">
          <path id="Trazado_1110647" data-name="Trazado 1110647" d="M306.859,195.783l-2.624,4.9a10.694,10.694,0,0,1-8.945-9.287A30.348,30.348,0,0,1,306.859,195.783Z" transform="translate(-295.29 -191.392)" fill="#97d729"/>
        </g>
        <path id="Trazado_1110648" data-name="Trazado 1110648" d="M249.9,193.073a30.675,30.675,0,0,1,3.524,2.62l1.4-2.62a30.4,30.4,0,0,0-16.4-4.771q-1.244,0-2.464.1A30.367,30.367,0,0,1,249.9,193.073Z" transform="translate(-207.872 -166.632)" fill="#97d729"/>
        <path id="Trazado_1110649" data-name="Trazado 1110649" d="M379.366,227.1l-1.4,2.62a30.482,30.482,0,0,1,10.631,23.164h4.928A30.529,30.529,0,0,0,379.366,227.1Z" transform="translate(-332.412 -200.662)" fill="#fd3581"/>
        <g id="Grupo_1195541" data-name="Grupo 1195541" transform="translate(39.021 10.088)">
          <ellipse id="Elipse_14011" data-name="Elipse 14011" cx="10.689" cy="10.689" rx="10.689" ry="10.689" fill="#fee45a"/>
        </g>
        <path id="Trazado_1110650" data-name="Trazado 1110650" d="M398.553,94.107a10.763,10.763,0,0,0-1.856.161,10.69,10.69,0,0,1,0,21.055,10.689,10.689,0,1,0,1.856-21.216Z" transform="translate(-348.843 -84.019)" fill="#fcd829"/>
        <g id="Grupo_1195543" data-name="Grupo 1195543" transform="translate(17.178 44.468)">
          <g id="Grupo_1195542" data-name="Grupo 1195542">
            <path id="Trazado_1110651" data-name="Trazado 1110651" d="M163.83,377.64a6.369,6.369,0,1,1-7.191,10.515c-2.278-1.558-7.267-9.72-9.311-13.163a.837.837,0,0,1,.857-1.253C152.136,374.394,161.552,376.082,163.83,377.64Z" transform="translate(-147.209 -373.727)" fill="#dcf4f7"/>
          </g>
        </g>
        <path id="Trazado_1110652" data-name="Trazado 1110652" d="M163.846,377.639c-2.278-1.558-11.694-3.247-15.644-3.9a.837.837,0,0,0-.962.965c4.514.814,11.06,2.164,12.908,3.428a5.8,5.8,0,0,1,1.662,8.361,6.342,6.342,0,0,1-3.413,2.5,6.37,6.37,0,0,0,5.449-11.352Z" transform="translate(-130.047 -329.257)" fill="#b9f0f1"/>
      </g>
      <g id="Grupo_1195545" data-name="Grupo 1195545" transform="translate(0 0)">
        <path id="Trazado_1110653" data-name="Trazado 1110653" d="M2.759,22.544h9.287l3.676,3.469a.922.922,0,0,0,1.266-1.341l-2.255-2.128h7.333a2.762,2.762,0,0,0,2.759-2.759V7.321a2.762,2.762,0,0,0-2.759-2.759H2.759A2.762,2.762,0,0,0,0,7.321V19.785a2.762,2.762,0,0,0,2.759,2.759ZM1.844,7.321a.916.916,0,0,1,.915-.915H22.066a.916.916,0,0,1,.915.915V19.785a.916.916,0,0,1-.915.915H2.759a.916.916,0,0,1-.915-.915Z" transform="translate(0 -4.562)"/>
        <path id="Trazado_1110654" data-name="Trazado 1110654" d="M55.544,61h6.394a2.72,2.72,0,1,0,0-5.441H55.544a2.72,2.72,0,1,0,0,5.441Zm0-3.6h6.394a.876.876,0,1,1,0,1.752H55.544a.876.876,0,1,1,0-1.752Z" transform="translate(-46.329 -49.289)"/>
        <path id="Trazado_1110655" data-name="Trazado 1110655" d="M55.144,108.916a11.615,11.615,0,1,0-10.581-.8l-9.149,17.074c-1.557-1.141-5.419-2.078-9.445-2.931L16.3,104.212a29.569,29.569,0,0,1,15.177-4.178,29.987,29.987,0,0,1,4.226.3.922.922,0,1,0,.261-1.826,31.857,31.857,0,0,0-4.487-.318A31.462,31.462,0,0,0,0,129.665v3.149a2.909,2.909,0,0,0,2.905,2.905H9.138a.922.922,0,1,0,0-1.844H2.905a1.062,1.062,0,0,1-1.061-1.061v-2.227H21.76c.779,1.171,1.562,2.3,2.305,3.288H13.443a.922.922,0,1,0,0,1.844H25.551a7.271,7.271,0,0,0,11.2,0h23.3a2.909,2.909,0,0,0,2.905-2.905v-3.149a31.307,31.307,0,0,0-7.809-20.749Zm-14.278-10.7a9.767,9.767,0,1,1,9.767,9.767A9.778,9.778,0,0,1,40.865,98.218Zm9.767,11.611a11.6,11.6,0,0,0,2.588-.291,29.467,29.467,0,0,1,7.874,19.205H38.032A7.212,7.212,0,0,0,36.8,126.5l9.4-17.549a11.546,11.546,0,0,0,4.426.878ZM1.859,128.743a29.593,29.593,0,0,1,12.883-23.533l8.886,16.582c-1.6-.3-3.122-.568-4.4-.78a1.744,1.744,0,0,0-1.74.742c-1.126,1.969,2.413,5.336,3.072,6.989H1.859Zm26.192,6.834a9.093,9.093,0,0,1-1.435-1.433,100.773,100.773,0,0,1-7.51-11.283c4.272.678,13.348,2.452,15.094,3.723a5.515,5.515,0,0,1,1.422,7.571A5.454,5.454,0,0,1,28.051,135.577Zm33.058-2.763a1.062,1.062,0,0,1-1.061,1.061H37.861a7.212,7.212,0,0,0,.538-3.288H61.109Z" transform="translate(0 -76.519)"/>
        <path id="Trazado_1110656" data-name="Trazado 1110656" d="M391.3,144.227v-.3a3.089,3.089,0,0,0,2.08-2.408,2.73,2.73,0,0,0-1.854-3.091,7.567,7.567,0,0,1-1.909-.884.535.535,0,0,1-.1-.493.762.762,0,0,1,.5-.6,1.427,1.427,0,0,1,1.326.2l.146.129a.914.914,0,1,0,1.175-1.4,3.349,3.349,0,0,0-1.359-.748v-.178a.948.948,0,0,0-.894-.96.922.922,0,0,0-.951.922v.274a2.588,2.588,0,0,0-1.752,2.018,2.322,2.322,0,0,0,.776,2.286,8.841,8.841,0,0,0,2.433,1.172.882.882,0,0,1,.65,1.046,1.2,1.2,0,0,1-1.19,1.011,2.074,2.074,0,0,1-1.489-.378.946.946,0,0,0-1.282.223.922.922,0,0,0,.248,1.3,3.672,3.672,0,0,0,1.607.65v.242a.922.922,0,0,0,.951.922A.948.948,0,0,0,391.3,144.227Z" transform="translate(-339.799 -117.643)"/>
        <path id="Trazado_1110657" data-name="Trazado 1110657" d="M240.447,436.434l-1.3-.888a.922.922,0,1,0-1.041,1.522l1.3.888a.922.922,0,1,0,1.041-1.522Z" transform="translate(-208.479 -382.414)"/>
      </g>
    </g>
  </g>
</svg>
