<svg xmlns="http://www.w3.org/2000/svg" xmlns:xlink="http://www.w3.org/1999/xlink" width="130.113" height="130.788" viewBox="0 0 130.113 130.788">
  <defs>
    <filter id="_52" x="0" y="0" width="130.113" height="130.788" filterUnits="userSpaceOnUse">
      <feOffset dx="3" dy="3" input="SourceAlpha"/>
      <feGaussianBlur stdDeviation="3" result="blur"/>
      <feFlood flood-opacity="0.161"/>
      <feComposite operator="in" in2="blur"/>
      <feComposite in="SourceGraphic"/>
    </filter>
  </defs>
  <g id="Grupo_1195567" data-name="Grupo 1195567" transform="translate(11144.174 -4300.52)">
    <g transform="matrix(1, 0, 0, 1, -11144.17, 4300.52)" filter="url(#_52)">
      <g id="_52-2" data-name="52" transform="translate(6 6)" fill="#fff" stroke="#fff" stroke-width="3">
        <ellipse cx="56.056" cy="56.394" rx="56.056" ry="56.394" stroke="none"/>
        <ellipse cx="56.056" cy="56.394" rx="54.556" ry="54.894" fill="none"/>
      </g>
    </g>
    <g id="comunicacion-bidireccional" transform="translate(-11117.997 4329.926)">
      <g id="Grupo_1195566" data-name="Grupo 1195566" transform="translate(1.156 1.073)">
        <g id="Grupo_1195562" data-name="Grupo 1195562" transform="translate(0 36.778)">
          <path id="Trazado_1110724" data-name="Trazado 1110724" d="M17.068,404.043H41.922a1.063,1.063,0,0,0,1.045-1.28,13.753,13.753,0,0,0-26.945,0,1.063,1.063,0,0,0,1.045,1.28Z" transform="translate(-16.001 -376.992)" fill="#8ac9fe" fill-rule="evenodd"/>
          <path id="Trazado_1110725" data-name="Trazado 1110725" d="M112.085,404.042h2.43a1.063,1.063,0,0,0,1.045-1.28,13.754,13.754,0,0,0-13.472-10.99q-.614,0-1.215.053a13.758,13.758,0,0,1,12.257,10.937A1.063,1.063,0,0,1,112.085,404.042Z" transform="translate(-88.593 -376.992)" fill="#60b7ff" fill-rule="evenodd"/>
          <circle id="Elipse_14015" data-name="Elipse 14015" cx="6.952" cy="6.952" r="6.952" transform="translate(5.634 13.765) rotate(-82.008)" fill="#f6dccd"/>
          <path id="Trazado_1110726" data-name="Trazado 1110726" d="M103.546,295.674a6.952,6.952,0,1,1,0,13.9,7.03,7.03,0,0,1-.969-.067,6.952,6.952,0,0,0,0-13.769A6.992,6.992,0,0,1,103.546,295.674Z" transform="translate(-90.051 -294.797)" fill="#f1cbbc" fill-rule="evenodd"/>
        </g>
        <g id="Grupo_1195563" data-name="Grupo 1195563" transform="translate(42.458 13.198)">
          <path id="Trazado_1110727" data-name="Trazado 1110727" d="M310.528,242.626h24.854a1.063,1.063,0,0,0,1.045-1.28,13.753,13.753,0,0,0-26.945,0A1.063,1.063,0,0,0,310.528,242.626Z" transform="translate(-309.46 -215.35)" fill="#8ac9fe" fill-rule="evenodd"/>
          <path id="Trazado_1110728" data-name="Trazado 1110728" d="M405.544,242.626h2.43a1.063,1.063,0,0,0,1.045-1.28,13.754,13.754,0,0,0-13.472-10.99q-.614,0-1.215.053a13.758,13.758,0,0,1,12.257,10.937A1.063,1.063,0,0,1,405.544,242.626Z" transform="translate(-382.053 -215.35)" fill="#60b7ff" fill-rule="evenodd"/>
          <circle id="Elipse_14016" data-name="Elipse 14016" cx="6.952" cy="6.952" r="6.952" transform="matrix(0.174, -0.985, 0.985, 0.174, 5.471, 13.695)" fill="#f6dccd"/>
          <path id="Trazado_1110729" data-name="Trazado 1110729" d="M397,134.258a6.952,6.952,0,1,1,0,13.9,7.034,7.034,0,0,1-.969-.067,6.952,6.952,0,0,0,0-13.769,6.968,6.968,0,0,1,.969-.068Z" transform="translate(-383.51 -133.156)" fill="#f1cbbc" fill-rule="evenodd"/>
        </g>
        <g id="Grupo_1195564" data-name="Grupo 1195564" transform="translate(19.097 21.669)">
          <path id="Trazado_1110730" data-name="Trazado 1110730" d="M168.772,198.588V187.419a2.233,2.233,0,0,0-2.228-2.228H150.222a2.233,2.233,0,0,0-2.228,2.228v11.168a2.233,2.233,0,0,0,2.228,2.228h1.886v3.461a.434.434,0,0,0,.747.3l3.613-3.761h10.075A2.233,2.233,0,0,0,168.772,198.588Z" transform="translate(-147.994 -185.191)" fill="#6cf5c2" fill-rule="evenodd"/>
          <path id="Trazado_1110731" data-name="Trazado 1110731" d="M193.092,198.588V187.419a2.233,2.233,0,0,0-2.228-2.228h-1.447a2.233,2.233,0,0,1,2.228,2.228v11.168a2.233,2.233,0,0,1-2.228,2.228h1.447A2.233,2.233,0,0,0,193.092,198.588Zm-16.664,5.261v.428a.434.434,0,0,0,.747.3l3.613-3.761h-1.447Z" transform="translate(-172.314 -185.191)" fill="#00e499" fill-rule="evenodd"/>
        </g>
        <g id="Grupo_1195565" data-name="Grupo 1195565" transform="translate(27.438)">
          <path id="Trazado_1110732" data-name="Trazado 1110732" d="M205.647,48.816V37.647a2.233,2.233,0,0,1,2.228-2.228H224.2a2.233,2.233,0,0,1,2.228,2.228V48.816a2.233,2.233,0,0,1-2.228,2.228h-1.886V54.5a.434.434,0,0,1-.747.3l-3.613-3.762H207.875A2.232,2.232,0,0,1,205.647,48.816Z" transform="translate(-205.647 -35.419)" fill="#ffe177" fill-rule="evenodd"/>
          <path id="Trazado_1110733" data-name="Trazado 1110733" d="M205.647,48.816V37.647a2.233,2.233,0,0,1,2.228-2.228h1.447a2.233,2.233,0,0,0-2.228,2.228V48.816a2.233,2.233,0,0,0,2.228,2.228h-1.447A2.233,2.233,0,0,1,205.647,48.816Zm16.664,5.261V54.5a.434.434,0,0,1-.747.3l-3.613-3.762H219.4Z" transform="translate(-205.647 -35.419)" fill="#ffd064" fill-rule="evenodd"/>
        </g>
      </g>
      <path id="Trazado_1110734" data-name="Trazado 1110734" d="M18.8,62.274V38.507a1.157,1.157,0,0,1,1.158-1.158h7.769l-.667-.387a1.157,1.157,0,1,1,1.158-2l4.405,2.547a1.157,1.157,0,0,1,0,2l-4.405,2.547a1.157,1.157,0,1,1-1.158-2l.667-.387H21.116v22.61a1.158,1.158,0,0,1-2.315,0Zm50.176,10.8V87.809a1.161,1.161,0,0,1-1.157,1.157h-23.1l.674.387a1.158,1.158,0,1,1-1.157,2.005l-4.412-2.548a1.158,1.158,0,0,1,0-2.005l4.412-2.546A1.158,1.158,0,0,1,45.4,86.265l-.674.386H66.662V73.07a1.158,1.158,0,1,1,2.315,0ZM31.82,58.639A1.161,1.161,0,0,0,32.977,59.8H44.321a1.158,1.158,0,0,0,0-2.315H32.977A1.161,1.161,0,0,0,31.82,58.639Zm1.157,4.875H44.321a1.158,1.158,0,0,0,0-2.315H32.977a1.158,1.158,0,1,0,0,2.315ZM31.82,54.922a1.161,1.161,0,0,0,1.158,1.158H44.321a1.158,1.158,0,0,0,0-2.315H32.977A1.161,1.161,0,0,0,31.82,54.922ZM30.492,65.295h1.886a1.157,1.157,0,0,1,1.158,1.158v1.665L35.9,65.651a1.177,1.177,0,0,1,.838-.356H46.813a1.073,1.073,0,0,0,1.069-1.07V53.056a1.074,1.074,0,0,0-1.069-1.071H30.492a1.075,1.075,0,0,0-1.076,1.071V64.225a1.075,1.075,0,0,0,1.076,1.07Zm1.45,6.77a1.166,1.166,0,0,0,.436.084,1.145,1.145,0,0,0,.831-.355l4.017-4.183h9.587A3.389,3.389,0,0,0,50.2,64.224V53.056a3.389,3.389,0,0,0-3.384-3.386H30.492A3.4,3.4,0,0,0,27.1,53.056V64.224a3.4,3.4,0,0,0,3.391,3.386h.729v3.381A1.157,1.157,0,0,0,31.942,72.065Zm8.225-35.1a1.156,1.156,0,0,1,1.151-1.158H52.662a1.158,1.158,0,0,1,0,2.315H41.318A1.155,1.155,0,0,1,40.168,36.969Zm0,3.717a1.156,1.156,0,0,1,1.151-1.158H52.662a1.158,1.158,0,0,1,0,2.315H41.318A1.155,1.155,0,0,1,40.168,40.686Zm0-7.433A1.156,1.156,0,0,1,41.318,32.1H52.662a1.157,1.157,0,1,1,0,2.314H41.318A1.155,1.155,0,0,1,40.168,33.253Zm-2.4-1.866V42.555a1.069,1.069,0,0,0,1.069,1.071H48.9a1.156,1.156,0,0,1,.838.355l2.369,2.466V44.783a1.157,1.157,0,0,1,1.158-1.158h1.886a1.069,1.069,0,0,0,1.069-1.071V31.386a1.069,1.069,0,0,0-1.069-1.07H38.833a1.069,1.069,0,0,0-1.069,1.07Zm1.069,14.554a3.385,3.385,0,0,1-3.384-3.386V31.386A3.384,3.384,0,0,1,38.833,28H55.154a3.389,3.389,0,0,1,3.384,3.385V42.555a3.389,3.389,0,0,1-3.384,3.386h-.728v3.382A1.154,1.154,0,0,1,53.7,50.4a1.131,1.131,0,0,1-.429.084,1.158,1.158,0,0,1-.838-.355l-4.017-4.183ZM52.975,68.306a12.421,12.421,0,0,1,24.281,0ZM59.41,50.489a5.706,5.706,0,1,1,5.706,5.705A5.712,5.712,0,0,1,59.41,50.489ZM79.762,69.341a1.152,1.152,0,0,1-1.151,1.281H51.62a1.148,1.148,0,0,1-.858-.384,1.169,1.169,0,0,1-.293-.9A14.688,14.688,0,0,1,60.39,56.965a8.021,8.021,0,1,1,9.451,0,14.687,14.687,0,0,1,9.921,12.376ZM10.521,91.661a12.379,12.379,0,0,1,12.134-9.8h.007a12.392,12.392,0,0,1,12.141,9.8Zm6.434-17.817a5.7,5.7,0,1,1,5.706,5.7h-.007a5.708,5.708,0,0,1-5.7-5.7ZM27.387,80.32a14.7,14.7,0,0,1,9.921,12.375,1.172,1.172,0,0,1-.293.9,1.159,1.159,0,0,1-.865.383H9.166a1.151,1.151,0,0,1-1.151-1.281,14.69,14.69,0,0,1,9.921-12.377,8.013,8.013,0,1,1,9.451,0Z" transform="translate(-8.009 -28.001)" fill="#242222" fill-rule="evenodd"/>
    </g>
  </g>
</svg>
