<svg xmlns="http://www.w3.org/2000/svg" xmlns:xlink="http://www.w3.org/1999/xlink" width="130.113" height="130.788" viewBox="0 0 130.113 130.788">
  <defs>
    <filter id="_52" x="0" y="0" width="130.113" height="130.788" filterUnits="userSpaceOnUse">
      <feOffset dx="3" dy="3" input="SourceAlpha"/>
      <feGaussianBlur stdDeviation="3" result="blur"/>
      <feFlood flood-opacity="0.161"/>
      <feComposite operator="in" in2="blur"/>
      <feComposite in="SourceGraphic"/>
    </filter>
  </defs>
  <g id="Grupo_1195557" data-name="Grupo 1195557" transform="translate(12171.333 -4607.016)">
    <g transform="matrix(1, 0, 0, 1, -12171.33, 4607.02)" filter="url(#_52)">
      <g id="_52-2" data-name="52" transform="translate(6 6)" fill="#fff" stroke="#fff" stroke-width="3">
        <ellipse cx="56.056" cy="56.394" rx="56.056" ry="56.394" stroke="none"/>
        <ellipse cx="56.056" cy="56.394" rx="54.556" ry="54.894" fill="none"/>
      </g>
    </g>
    <g id="riesgos" transform="translate(-12141.276 4637.41)">
      <g id="Grupo_1195555" data-name="Grupo 1195555">
        <g id="Grupo_1195546" data-name="Grupo 1195546">
          <path id="Trazado_1110676" data-name="Trazado 1110676" d="M17.88,6.12A2.993,2.993,0,0,1,17,4a2.88,2.88,0,0,1,.06-.59A16.789,16.789,0,0,0,11,2,16.789,16.789,0,0,0,4.94,3.41,2.88,2.88,0,0,1,5,4,3,3,0,0,1,2,7a17.7,17.7,0,0,0,1.57,7.28,17.511,17.511,0,0,0,4.45,5.99l1.23,1.07a2.65,2.65,0,0,0,3.5,0l1.23-1.07A17.629,17.629,0,0,0,20,7a2.993,2.993,0,0,1-2.12-.88Z" fill="#aab2bd"/>
        </g>
        <g id="Grupo_1195547" data-name="Grupo 1195547">
          <path id="Trazado_1110677" data-name="Trazado 1110677" d="M20,56h4v6H20Z" fill="#ef7385"/>
        </g>
        <g id="Grupo_1195548" data-name="Grupo 1195548">
          <path id="Trazado_1110678" data-name="Trazado 1110678" d="M12,50h4V62H12Z" fill="#ef7385"/>
        </g>
        <g id="Grupo_1195549" data-name="Grupo 1195549">
          <path id="Trazado_1110679" data-name="Trazado 1110679" d="M4,54H8v8H4Z" fill="#ef7385"/>
        </g>
        <g id="Grupo_1195550" data-name="Grupo 1195550">
          <path id="Trazado_1110680" data-name="Trazado 1110680" d="M47,50H57a2.006,2.006,0,0,1,2,2v8a2.006,2.006,0,0,1-2,2H47a2.006,2.006,0,0,1-2-2V52A2.006,2.006,0,0,1,47,50Z" fill="#b4dd7f"/>
        </g>
        <g id="Grupo_1195551" data-name="Grupo 1195551">
          <circle id="Elipse_14012" data-name="Elipse 14012" cx="2" cy="2" r="2" transform="translate(50 53)" fill="#fcd770"/>
        </g>
        <g id="Grupo_1195552" data-name="Grupo 1195552">
          <circle id="Elipse_14013" data-name="Elipse 14013" cx="10" cy="10" r="10" transform="translate(42 2)" fill="#fcd770"/>
        </g>
        <g id="Grupo_1195553" data-name="Grupo 1195553">
          <path id="Trazado_1110681" data-name="Trazado 1110681" d="M41,39.76a3.277,3.277,0,0,0-.34-1.44l-.58-1.15A9.863,9.863,0,0,0,41,33a10,10,0,1,0-20,0,9.863,9.863,0,0,0,.92,4.17l-.58,1.15A3.277,3.277,0,0,0,21,39.76,3.244,3.244,0,0,0,24.24,43H37.76A3.239,3.239,0,0,0,41,39.76Zm2.22.07,1.22,2.36-4.25,4.24-2.36-1.21a14.529,14.529,0,0,1-3.02,1.24L34,49H28l-.81-2.54a14.529,14.529,0,0,1-3.02-1.24l-2.36,1.21-4.25-4.24,1.22-2.36a14.529,14.529,0,0,1-1.24-3.02L15,36V30l2.54-.81a14.529,14.529,0,0,1,1.24-3.02l-1.22-2.36,4.25-4.25,2.36,1.22a14.529,14.529,0,0,1,3.02-1.24L28,17h6l.81,2.54a14.529,14.529,0,0,1,3.02,1.24l2.36-1.22,4.25,4.25-1.22,2.36a14.529,14.529,0,0,1,1.24,3.02L47,30v6l-2.54.81a14.529,14.529,0,0,1-1.24,3.02Z" fill="#fcd770"/>
        </g>
        <g id="Grupo_1195554" data-name="Grupo 1195554">
          <path id="Trazado_1110682" data-name="Trazado 1110682" d="M31,23a3.21,3.21,0,0,1,2.89,1.79l6.19,12.38.58,1.15A3.277,3.277,0,0,1,41,39.76,3.239,3.239,0,0,1,37.76,43H24.24A3.244,3.244,0,0,1,21,39.76a3.277,3.277,0,0,1,.34-1.44l.58-1.15,6.19-12.38A3.21,3.21,0,0,1,31,23Z" fill="#ef7385"/>
        </g>
      </g>
      <g id="Grupo_1195556" data-name="Grupo 1195556">
        <path id="Trazado_1110683" data-name="Trazado 1110683" d="M52,23A11,11,0,1,0,41,12,11.013,11.013,0,0,0,52,23ZM52,3a9,9,0,1,1-9,9A9.01,9.01,0,0,1,52,3Z"/>
        <path id="Trazado_1110684" data-name="Trazado 1110684" d="M53,15H51a1,1,0,0,1-1-1H48a3,3,0,0,0,3,3v2h2V17a3,3,0,0,0,0-6H51a1,1,0,0,1,0-2h2a1,1,0,0,1,1,1h2a3,3,0,0,0-3-3V5H51V7a3,3,0,0,0,0,6h2a1,1,0,0,1,0,2Z"/>
        <path id="Trazado_1110685" data-name="Trazado 1110685" d="M58,49.184V45a6,6,0,0,0-12,0v4.184A3,3,0,0,0,44,52v8a3,3,0,0,0,3,3H57a3,3,0,0,0,3-3V52A3,3,0,0,0,58,49.184ZM52,41a4,4,0,0,1,4,4v4H48V45A4,4,0,0,1,52,41Zm6,19a1,1,0,0,1-1,1H47a1,1,0,0,1-1-1V52a1,1,0,0,1,1-1H57a1,1,0,0,1,1,1Z"/>
        <path id="Trazado_1110686" data-name="Trazado 1110686" d="M52,52a2.993,2.993,0,0,0-1,5.816V60h2V57.816A2.993,2.993,0,0,0,52,52Zm0,4a1,1,0,1,1,1-1A1,1,0,0,1,52,56Z"/>
        <path id="Trazado_1110687" data-name="Trazado 1110687" d="M25,55H19v6H17V49H11V61H9V53H3v8H1v2H27V61H25Zm-4,2h2v4H21Zm-8-6h2V61H13ZM5,55H7v6H5Z"/>
        <path id="Trazado_1110688" data-name="Trazado 1110688" d="M7.361,21.02,8.589,22.1a3.664,3.664,0,0,0,4.823,0l1.226-1.073A18.633,18.633,0,0,0,21,7V6H20a2,2,0,0,1-2-2,2.028,2.028,0,0,1,.04-.392l.155-.773L17.478,2.5A17.629,17.629,0,0,0,11,1,17.643,17.643,0,0,0,4.521,2.5L3.8,2.835l.155.773A2.028,2.028,0,0,1,4,4,2,2,0,0,1,2,6H1V7A18.632,18.632,0,0,0,7.361,21.02ZM6,4.057a16.342,16.342,0,0,1,4-1V7h2V3.059a16.456,16.456,0,0,1,4,1,4.008,4.008,0,0,0,2.978,3.81,16.626,16.626,0,0,1-5.657,11.648L12.1,20.589c-.028.024-.065.033-.1.055V9H10V20.644c-.029-.022-.066-.03-.094-.054L8.678,19.515A16.624,16.624,0,0,1,3.022,7.868,4.008,4.008,0,0,0,6,4.057Z"/>
        <circle id="Elipse_14014" data-name="Elipse 14014" cx="1" cy="1" r="1" transform="translate(30 38)"/>
        <path id="Trazado_1110689" data-name="Trazado 1110689" d="M30,26h2V36H30Z"/>
        <path id="Trazado_1110690" data-name="Trazado 1110690" d="M17.653,26.165a15.1,15.1,0,0,0-.919,2.229L14,29.271V36.73l2.734.876a14.972,14.972,0,0,0,.919,2.229l-1.312,2.549,5.274,5.273,2.549-1.311a14.972,14.972,0,0,0,2.229.919L27.271,50H34.73l.876-2.734a14.972,14.972,0,0,0,2.229-.919l2.549,1.311,5.274-5.273-1.312-2.549a15.016,15.016,0,0,0,.919-2.229L48,36.729V29.27l-2.734-.876a15.06,15.06,0,0,0-.919-2.229l1.312-2.549-5.274-5.274-2.549,1.312a15.105,15.105,0,0,0-2.229-.919L34.729,16H27.27l-.876,2.734a15.06,15.06,0,0,0-2.229.919l-2.549-1.312-5.274,5.274Zm.849,3.294a12.89,12.89,0,0,1,1.153-2.8l.262-.469L18.787,24,22,20.787l2.194,1.13.469-.262a12.89,12.89,0,0,1,2.8-1.153l.517-.146L28.729,18H33.27l.754,2.356.517.146a12.89,12.89,0,0,1,2.8,1.153l.469.262L40,20.787,43.213,24l-1.13,2.194.262.469a12.89,12.89,0,0,1,1.153,2.8l.146.517L46,30.729V35.27l-2.356.754-.146.517a12.975,12.975,0,0,1-1.152,2.8l-.263.468L43.213,42,40,45.212l-2.195-1.129-.468.263a12.975,12.975,0,0,1-2.8,1.152l-.517.146L33.271,48H28.73l-.754-2.356-.517-.146a12.975,12.975,0,0,1-2.8-1.152l-.468-.263L22,45.212,18.787,42l1.13-2.195-.263-.468a12.976,12.976,0,0,1-1.152-2.8l-.146-.517L16,35.271V30.73l2.356-.754Z"/>
        <path id="Trazado_1110691" data-name="Trazado 1110691" d="M20,39.764A4.24,4.24,0,0,0,24.236,44H37.763a4.237,4.237,0,0,0,3.79-6.131l-.376-.752A10.864,10.864,0,0,0,42,33a11,11,0,0,0-22,0,10.864,10.864,0,0,0,.823,4.117l-.376.752a4.251,4.251,0,0,0-.447,1.9ZM37.764,42H24.236a2.236,2.236,0,0,1-2-3.236L29,25.236a2.236,2.236,0,0,1,4,0l6.764,13.527a2.237,2.237,0,0,1-2,3.237ZM40,33a8.894,8.894,0,0,1-.138,1.488l-4.74-9.48A9,9,0,0,1,40,33ZM22,33a9,9,0,0,1,4.878-7.991l-4.74,9.48A8.915,8.915,0,0,1,22,33Z"/>
        <path id="Trazado_1110692" data-name="Trazado 1110692" d="M51,25h2V37H51Z"/>
        <path id="Trazado_1110693" data-name="Trazado 1110693" d="M10,25h2V47H10Z"/>
        <path id="Trazado_1110694" data-name="Trazado 1110694" d="M27,56H42v2H27Z"/>
        <path id="Trazado_1110695" data-name="Trazado 1110695" d="M22,12H39v2H22Z"/>
      </g>
    </g>
  </g>
</svg>
